<svg id="Layer_1" data-name="Layer 1" xmlns="http://www.w3.org/2000/svg" viewBox="0 0 43.25 42.27"><defs><style>.cls-1{fill:#8767ac;}.cls-2{fill:#eb2027;}.cls-3{fill:#f19020;}.cls-4{fill:#ffcb4c;}.cls-5{fill:#5c903f;}.cls-6{fill:#226798;}.cls-7{fill:#664500;}.cls-8{fill:#825d0e;}</style></defs><path class="cls-1" d="M43.25,7.27c-19.88,0-35,15.12-35,35H25.3a18,18,0,0,1,18-18Z"/><path class="cls-2" d="M7.25,42.27H10.3a33,33,0,0,1,32.91-33v-3A36,36,0,0,0,7.25,42.27Z"/><path class="cls-3" d="M10.34,42.27h3a30,30,0,0,1,29.91-30v-3A33,33,0,0,0,10.34,42.27Z"/><path class="cls-4" d="M13.34,42.27h3a27,27,0,0,1,26.91-27v-3A30,30,0,0,0,13.34,42.27Z"/><path class="cls-5" d="M16.34,42.27h3a24,24,0,0,1,23.91-24v-3A27,27,0,0,0,16.34,42.27Z"/><path class="cls-6" d="M19.34,42.27h3a21,21,0,0,1,20.91-21v-3A24,24,0,0,0,19.34,42.27Z"/><path class="cls-7" d="M25.47,2.67A7.1,7.1,0,0,1,22.7,7.43c-1.17-1-5.72-4.76-7.9-3.1-1.91,1.46-1.94,2.85-2.92,3.59s-2.34.41-4.25,1.86c-2.18,1.66.19,7,.87,8.45C6.89,19.24,5,20,3.18,19.61c-3.29-.77-4.4,2.48-1.52,3.89,4.55,2.21,10.86,1.41,18.63-4.5S30.53,7.22,29.61,2.24C29-.91,25.6-.71,25.47,2.67Z"/><path class="cls-8" d="M15.21,6.53C13.72,7.66,13.83,8.84,13,9.44s-1.9.19-3.39,1.33c-2,1.51,1.3,7.49,1.3,7.49s2.38,1,6.93-2.45,4.21-6,4.21-6S17.2,5,15.21,6.53Z"/><path class="cls-7" d="M8.67,15.27s2.86.34,6.78-2.64S19.81,6.8,19.81,6.8L21,8.39s-.56,2.94-4.37,5.83-6.78,2.65-6.78,2.65Z"/></svg>