<svg id="Layer_1" data-name="Layer 1" xmlns="http://www.w3.org/2000/svg" viewBox="0 0 33.84 41.53"><defs><style>.cls-1{fill:#ffd983;}.cls-2{fill:#ffcc4d;}.cls-3{fill:#292f33;}.cls-4{fill:#664500;}.cls-5{fill:#825d0e;}</style></defs><path class="cls-1" d="M15.49,18.53A18.91,18.91,0,0,1,20.57,5.64,18,18,0,1,0,33.84,37.5,19.07,19.07,0,0,1,17.49,27c-.62-1.24,2.8-1.21,3-3.49s-5-2.74-5-5"/><circle class="cls-2" cx="14.99" cy="34.03" r="3.5"/><circle class="cls-2" cx="13.49" cy="12.53" r="1"/><circle class="cls-2" cx="22.49" cy="37.53" r="1"/><circle class="cls-2" cx="7.49" cy="25.53" r="2"/><path class="cls-3" d="M20.7,31.56a19.41,19.41,0,0,1-2.11-2.66c-5.45,1.23-7.63-.27-7.31.81s4.79,3,9.42,1.85M14.49,20a2.5,2.5,0,1,1-2.5-2.5,2.5,2.5,0,0,1,2.5,2.5"/><path class="cls-4" d="M24,3.86A5.31,5.31,0,0,1,20.2,5.45C20,4.29,18.94,0,16.88,0c-1.81,0-2.46.82-3.39.82S11.92,0,10.11,0C8.05,0,7,4.29,6.79,5.45A5.46,5.46,0,0,1,3,3.86C1.35,1.89-.79,3.34.29,5.49c1.72,3.4,5.86,5.79,13.2,5.79S25,8.89,26.7,5.49C27.78,3.34,25.64,1.89,24,3.86Z"/><path class="cls-5" d="M16.13,1.5c-1.41,0-1.88.76-2.64.76s-1.22-.76-2.63-.76C9,1.5,8.23,6.58,8.23,6.58s1,1.69,5.26,1.69,5.27-1.69,5.27-1.69S18,1.5,16.13,1.5Z"/><path class="cls-4" d="M8.23,3.76s1.56,1.5,5.26,1.5,5.27-1.5,5.27-1.5v1.5s-1.67,1.51-5.27,1.51S8.23,5.26,8.23,5.26Z"/></svg>