<svg id="Layer_1" data-name="Layer 1" xmlns="http://www.w3.org/2000/svg" viewBox="0 0 32.78 41.63"><defs><style>.cls-1{fill:#ffd983;}.cls-2{fill:#ffcc4d;}.cls-3{fill:#292f33;}.cls-4{fill:#664500;}.cls-5{fill:#825d0e;}</style></defs><path class="cls-1" d="M18.35,18.63a18.92,18.92,0,0,0-5.08-12.9A18,18,0,1,1,0,37.6,19.07,19.07,0,0,0,16.35,27.11c.62-1.23-2.79-1.2-3-3.48-.16-2.13,5-2.74,5-5"/><circle class="cls-2" cx="18.85" cy="34.13" r="3.5"/><circle class="cls-2" cx="20.35" cy="12.63" r="1"/><circle class="cls-2" cx="11.35" cy="37.63" r="1"/><circle class="cls-2" cx="26.35" cy="25.63" r="2"/><path class="cls-3" d="M13.14,31.65A19.32,19.32,0,0,0,15.25,29c5.45,1.23,7.64-.27,7.31.81s-4.79,3-9.42,1.84m6.21-11.52a2.5,2.5,0,1,0,2.5-2.5,2.5,2.5,0,0,0-2.5,2.5"/><path class="cls-4" d="M29.5,4.26A5.84,5.84,0,0,1,25.28,6c-.26-1.28-1.4-6-3.67-6-2,0-2.72.91-3.74.91S16.13,0,14.13,0c-2.27,0-3.41,4.74-3.67,6A6,6,0,0,1,6.24,4.26c-1.78-2.17-4.15-.57-3,1.8,1.9,3.76,6.47,6.4,14.59,6.4s12.69-2.64,14.58-6.4C33.65,3.69,31.28,2.09,29.5,4.26Z"/><path class="cls-5" d="M20.78,1.66c-1.56,0-2.08.83-2.91.83S16.52,1.66,15,1.66c-2.07,0-2.9,5.61-2.9,5.61s1.06,1.87,5.81,1.87,5.81-1.87,5.81-1.87S22.85,1.66,20.78,1.66Z"/><path class="cls-4" d="M12.06,4.15s1.71,1.66,5.81,1.66,5.81-1.66,5.81-1.66V5.81s-1.84,1.67-5.81,1.67-5.81-1.67-5.81-1.67Z"/></svg>