<svg id="Layer_1" data-name="Layer 1" xmlns="http://www.w3.org/2000/svg" viewBox="0 0 42.21 44.82"><defs><style>.cls-1{fill:#662113;}.cls-2{fill:#5c913b;}.cls-3{fill:#3e721d;}.cls-4{fill:#664500;}.cls-5{fill:#825d0e;}</style></defs><path class="cls-1" d="M25.11,41.82c0,2.21-1.79,3-4,3s-4-.79-4-3l1-9c0-2.21.79-2,3-2s3-.21,3,2Z"/><path class="cls-2" d="M37.11,25.82c0,8.84-7.17,12-16,12s-16-3.16-16-12,9-17,16-17S37.11,17,37.11,25.82Z"/><ellipse class="cls-3" cx="9.11" cy="29.82" rx="2" ry="1"/><ellipse class="cls-3" cx="33.11" cy="29.82" rx="2" ry="1"/><ellipse class="cls-3" cx="13.11" cy="33.82" rx="2" ry="1"/><ellipse class="cls-3" cx="17.11" cy="30.82" rx="2" ry="1"/><ellipse class="cls-3" cx="13.11" cy="24.82" rx="2" ry="1"/><ellipse class="cls-3" cx="10.11" cy="20.82" rx="2" ry="1"/><ellipse class="cls-3" cx="32.11" cy="20.82" rx="2" ry="1"/><ellipse class="cls-3" cx="17.11" cy="18.82" rx="2" ry="1"/><ellipse class="cls-3" cx="25.11" cy="18.82" rx="2" ry="1"/><ellipse class="cls-3" cx="29.11" cy="24.82" rx="2" ry="1"/><ellipse class="cls-3" cx="21.11" cy="25.82" rx="2" ry="1"/><ellipse class="cls-3" cx="25.11" cy="30.82" rx="2" ry="1"/><ellipse class="cls-3" cx="21.11" cy="34.82" rx="2" ry="1"/><ellipse class="cls-3" cx="29.11" cy="33.82" rx="2" ry="1"/><path class="cls-4" d="M37.57,6c-1.4,1.7-3.74,2.35-6,2.49C31.23,6.71,29.62,0,26.4,0c-2.82,0-3.85,1.28-5.29,1.28S18.64,0,15.82,0C12.59,0,11,6.71,10.62,8.52,8.38,8.32,6,7.73,4.64,6,2.12,3-1.23,5.22.46,8.58c2.68,5.32,9.16,9.06,20.65,9.06s18-3.74,20.64-9.06C43.45,5.22,40.1,3,37.57,6Z"/><path class="cls-5" d="M25.22,2.35c-2.2,0-2.94,1.18-4.11,1.18S19.19,2.35,17,2.35c-2.94,0-4.11,7.94-4.11,7.94s1.5,2.64,8.23,2.64,8.23-2.64,8.23-2.64S28.16,2.35,25.22,2.35Z"/><path class="cls-4" d="M12.88,5.88s2.43,2.35,8.23,2.35,8.23-2.35,8.23-2.35V8.23s-2.61,2.35-8.23,2.35-8.23-2.35-8.23-2.35Z"/></svg>