<svg id="Layer_1" data-name="Layer 1" xmlns="http://www.w3.org/2000/svg" viewBox="0 0 38.6 40.76"><defs><style>.cls-1{fill:#be1931;}.cls-2{fill:#77b255;}.cls-3{fill:#f4abba;}.cls-4{fill:#664500;}.cls-5{fill:#825d0e;}</style></defs><path class="cls-1" d="M19.62,39.8c3.46-1.16,6.11-3,6.12-9.38,0-4,4.26-8.47,4.26-12.55C30,14,25.39,7.49,14.9,8.59,4.12,9.72,0,13,0,20,0,25,5.3,28.41,8.13,33.54,10,37,15.55,43.14,19.62,39.8Z"/><path class="cls-2" d="M23.25,8.52A9.55,9.55,0,0,0,17.9,6.85c.28,0,.55-.08.82-.1,1-.06,3.62-1.23,1.4-1.08a23.81,23.81,0,0,0-2.83.42A5.35,5.35,0,0,1,18,5.65c0-.7-4-.7-6.05,1A8.26,8.26,0,0,0,8,6c-2,0-4.68.93-3,1,.92,0,2,0,1.86.37C6.2,7.38,3,8,3,9c0,.35,2.76-.17,3,0-1.72.65-3,2-3,3,0,.42,2.21-.82,3-1-1,1-1.4,1.7-1.34,2.43,0,.47,2.39-.09,2.63-.17.82-.27,3.71-1.26,4.6-2.72A12.58,12.58,0,0,0,16,12c.53.06,2.62.28,2.14-.71A10.08,10.08,0,0,1,16.7,9C17.14,9,25,10,23.25,8.52Z"/><path class="cls-3" d="M6.34,22.26C6.2,20.8,3.8,19,4,21.26,4.14,22.72,6.55,24.51,6.34,22.26Zm7.46.55a3,3,0,0,0-.69-1.67c-.46-.55-1.07-.36-1.23.32a2.87,2.87,0,0,0,.6,2.37l0,.05c-.21-.53-.42-1.05-.64-1.58v.05c.07.64.4,1.73,1.13,1.9S13.85,23.27,13.8,22.81ZM19.55,18c.48-1,.17-4-.83-1.95C18.24,17,18.55,20,19.55,18Zm7.21-1.46a1.3,1.3,0,0,0-.39-1C25.18,14.64,24,17.86,25,18.58l.06,0-.33-.92v.05c.05.57.38,1.38,1.09.95A2.53,2.53,0,0,0,26.76,16.51Zm-1.34,8.57c1-1.57-.55-3.45-1.78-1.54C22.62,25.11,24.18,27,25.42,25.08ZM19.67,28c.17-1.93-2.31-2.75-2.51-.49C17,29.42,19.47,30.23,19.67,28Zm-9.9-1.21h0l1.36.71v0c-.31-.28-1.36-1.08-1.79-.59s.5,1.42.8,1.7a2.26,2.26,0,0,0,1.43.73C13,29.21,10.73,26.7,9.77,26.76ZM23,32.67c1-1.07.72-4.05-.8-2.38C21.23,31.36,21.48,34.34,23,32.67ZM9.6,18.7h.28c.7-.05,1-1.46,1-2s0-1.45-.78-1.4l-.28,0c-.71,0-1,1.45-1,2S8.86,18.75,9.6,18.7ZM17.45,34a1.41,1.41,0,0,1-.32,1.92,1.62,1.62,0,0,1-1.44-2.76A1.41,1.41,0,0,1,17.45,34Z"/><path class="cls-4" d="M35.61,11.82a6,6,0,0,1-4.68-.17c.31-1.3,1.28-6.2-.84-7.17-1.85-.85-2.91-.32-3.86-.76S25,2.13,23.14,1.28c-2.12-1-5.21,3-6,4A6.09,6.09,0,0,1,14,1.87c-.74-2.78-3.62-2.31-3.53.41.16,4.31,3.29,8.72,10.84,12.19s12.94,3,16.3.29C39.72,13.06,38.2,10.57,35.61,11.82Z"/><path class="cls-5" d="M28.61,5.67c-1.44-.66-2.29-.12-3.06-.47s-.9-1.35-2.35-2c-1.93-.89-5.1,4-5.1,4s.19,2.19,4.61,4.22,6.21.75,6.21.75S30.54,6.56,28.61,5.67Z"/><path class="cls-4" d="M19.43,4.26s.89,2.28,4.7,4,6.12.94,6.12.94l-.71,1.55s-2.43.75-6.12-.94-4.7-4-4.7-4Z"/></svg>