<svg id="Layer_1" data-name="Layer 1" xmlns="http://www.w3.org/2000/svg" viewBox="0 0 36 39.5"><defs><style>.cls-1{fill:#fdd888;}.cls-2{fill:#fcab40;}.cls-3{fill:#da2f47;}.cls-4{fill:#664500;}.cls-5{fill:#825d0e;}</style></defs><path class="cls-1" d="M33,35.5a4,4,0,0,1-4,4H7a4,4,0,0,1-4-4v-17a4,4,0,0,1,4-4H29a4,4,0,0,1,4,4Z"/><path class="cls-1" d="M36,15.5a4,4,0,0,1-4,4H4a4,4,0,0,1,0-8H32A4,4,0,0,1,36,15.5Z"/><path class="cls-2" d="M3,19.5H33v2H3Z"/><path class="cls-3" d="M19,7.5H17a3,3,0,0,0-3,3v29h8v-29A3,3,0,0,0,19,7.5Z"/><path class="cls-4" d="M32,5.13a7,7,0,0,1-5.08,2.12C26.61,5.71,25.24,0,22.5,0,20.1,0,19.23,1.09,18,1.09S15.9,0,13.5,0C10.76,0,9.39,5.71,9.08,7.25,7.18,7.08,5.19,6.57,4,5.13,1.85,2.52-1,4.44.44,7.3,2.72,11.82,8.23,15,18,15s15.28-3.18,17.56-7.7C37,4.44,34.15,2.52,32,5.13Z"/><path class="cls-5" d="M21.5,2C19.63,2,19,3,18,3s-1.63-1-3.5-1C12,2,11,8.75,11,8.75S12.28,11,18,11s7-2.25,7-2.25S24,2,21.5,2Z"/><path class="cls-4" d="M11,5s2.07,2,7,2,7-2,7-2V7s-2.22,2-7,2-7-2-7-2Z"/></svg>