<svg id="Layer_1" data-name="Layer 1" xmlns="http://www.w3.org/2000/svg" viewBox="0 0 38.62 26.69"><defs><style>.cls-1{fill:#ea596e;}.cls-2{fill:#66757f;}.cls-3{fill:#e6aaaa;}.cls-4{fill:#292f33;}.cls-5{fill:#664500;}.cls-6{fill:#825d0e;}</style></defs><path class="cls-1" d="M32.62,26.69h-24a1,1,0,1,1,0-2h24c2.54,0,4-1.37,4-3.75,0-1.54-1.65-3.25-4-3.25h-7a1,1,0,1,1,0-2h7c3.59,0,6,2.72,6,5.25C38.62,24.43,36.26,26.69,32.62,26.69Z"/><path class="cls-2" d="M14.62,15.19c0-3,3.6-5.94,1-7.5-3.41-2-6.88,4.29-9,5a5.44,5.44,0,0,0-4,5c0,1.84,2,1.73,5,2a51.86,51.86,0,0,1,9,1C19.56,21.45,14.62,18.23,14.62,15.19Z"/><path class="cls-2" d="M35.62,14.19c0-8.5-3.76-12.5-9-12.5-10,0-14,7-14,14,0,5.25,6.75,6,12,6S35.62,19.44,35.62,14.19Z"/><path class="cls-2" d="M12.4,8.54c0-2.6-2.38-3.22-1.19-5,.71-1.07,2.59-.63,3-.58,0,1.33,1.61,1.88,2.06,1.05a4.89,4.89,0,0,1,1,1.36c.91,1.93-.46,4.49-2,5.2S12.4,10.67,12.4,8.54Z"/><path class="cls-3" d="M16.25,6.83c.08,1.28-.48,2.67-1.4,2.92s-1.27-.73-1.6-2-.95-2.69,0-2.94S16.14,5.17,16.25,6.83Z"/><circle class="cls-4" cx="10.62" cy="13.69" r="1"/><path class="cls-2" d="M13.21,9A5,5,0,0,0,8.72,7C8,7,8,7.5,8.62,7.57c1.07.11,2,.4,2.07.66s-.7,0-1.43,0c-1.16,0-1,.3-.16.52C11,9.19,10.93,9.93,12,9.9A1.18,1.18,0,0,0,13.21,9ZM29.06,2c-1.65-.62-3.94-2.24-6.19-2-.75.08-.46.51,0,.62a5.57,5.57,0,0,1,1.73.93c.28.22-2.32-.55-4.07.11-.87.33-.51.56,0,.5a4.15,4.15,0,0,1,2.65.8C24.24,3.61,30.14,2.42,29.06,2Z"/><path class="cls-5" d="M19.52,2a4.47,4.47,0,0,1-2.74,2.18c-.46-.89-2.3-4.15-4-3.67C11.33.9,11,1.72,10.23,1.94s-1.47-.3-2.94.12c-1.68.47-1.52,4.21-1.45,5.21a4.63,4.63,0,0,1-3.48-.41c-1.77-1.22-3.18.45-1.8,2,2.18,2.37,6.12,3.36,12.11,1.65s8.8-4.62,9.41-7.79C22.46.67,20.38,0,19.52,2Z"/><path class="cls-6" d="M12.54,1.88c-1.15.33-1.36,1.05-2,1.23s-1.18-.33-2.32,0c-1.53.43-1,4.75-1,4.75S8.46,9,12,8s3.89-2.6,3.89-2.6S14.07,1.45,12.54,1.88Z"/><path class="cls-5" d="M6.63,5.56s1.62.86,4.64,0,3.94-2.45,3.94-2.45l.35,1.23a6.88,6.88,0,0,1-3.94,2.44A6.87,6.87,0,0,1,7,6.78Z"/></svg>