<svg id="Layer_1" data-name="Layer 1" xmlns="http://www.w3.org/2000/svg" viewBox="0 0 36 30.94"><defs><style>.cls-1{fill:#9266cc;}.cls-2{fill:#aa8dd8;}.cls-3{fill:#ffcc4d;}.cls-4{fill:#ffac33;}.cls-5{fill:#664500;}.cls-6{fill:#825d0e;}</style></defs><path class="cls-1" d="M9,10.56c0-4,2-8,0-10s-3,2-2,2c1.41,0,2,2,1,5S9,11.56,9,10.56Zm-3.88,0c0-4,2-8,0-10s-3,2-2,2c1.42,0,2,2,1,5S5.12,11.56,5.12,10.56Z"/><path class="cls-2" d="M36,29.94c0,1-1,1-2,1H11c-5,0-7.27-3.09-8-6-1-4,2-11,0-12s-3-1-3-3,4.47-5.27,7-4c4,2,2.77,6.93,2,10-.88,3.52,1.11,3.59,5,5,4.94,1.78,12.32,4.44,14,5C31,26.94,36,28.94,36,29.94Z"/><path class="cls-3" d="M10.93,19.93c2.88,1,3.84,9,13.47,9,6.37,0,8.66-5.48,8.66-11s-5.17-10-11.55-10S10,19.62,10.93,19.93Z"/><path class="cls-4" d="M24.91,28.94a9.23,9.23,0,0,0,4.9-1.42,9.84,9.84,0,0,0,4.34-6.1A11.94,11.94,0,0,0,25.82,7,13.8,13.8,0,0,0,9.06,17.45a2,2,0,0,0,1.4,2.43,1.93,1.93,0,0,0,2.33-1.46,10,10,0,0,1,12.1-7.54,7.93,7.93,0,0,1,5.53,9.57,5.83,5.83,0,0,1-2.6,3.64,5.49,5.49,0,0,1-4.31.67,4.13,4.13,0,0,1-2.56-2,4.46,4.46,0,0,1-.47-3.28,3,3,0,0,1,1.35-1.88,2.33,2.33,0,0,1,2.23-.35c1.3.67,1.3,2.67.34,3.67-.76.78,1.6,1.06,2.88,0a3.71,3.71,0,0,0,1.07-4.2A4.91,4.91,0,0,0,25,13.39a6.5,6.5,0,0,0-5.15.8,7,7,0,0,0-3.09,4.34,8.57,8.57,0,0,0,.9,6.31,8,8,0,0,0,4.93,3.8A9.37,9.37,0,0,0,24.91,28.94Z"/><path class="cls-5" d="M32,4.32a5,5,0,0,1-3.64,1.52c-.22-1.1-1.21-5.2-3.17-5.2-1.73,0-2.35.78-3.23.78S20.43.64,18.71.64c-2,0-3,4.1-3.17,5.2a5.18,5.18,0,0,1-3.65-1.52C10.35,2.45,8.3,3.83,9.34,5.88c1.63,3.24,5.59,5.53,12.6,5.53s11-2.29,12.6-5.53C35.57,3.83,33.53,2.45,32,4.32Z"/><path class="cls-6" d="M24.45,2.08c-1.34,0-1.79.72-2.51.72s-1.17-.72-2.51-.72c-1.8,0-2.51,4.84-2.51,4.84s.91,1.62,5,1.62,5-1.62,5-1.62S26.24,2.08,24.45,2.08Z"/><path class="cls-5" d="M16.92,4.23s1.48,1.44,5,1.44,5-1.44,5-1.44V5.67a7.77,7.77,0,0,1-5,1.43,7.77,7.77,0,0,1-5-1.43Z"/></svg>