<svg id="Layer_1" data-name="Layer 1" xmlns="http://www.w3.org/2000/svg" viewBox="0 0 39.4 35.08"><defs><style>.cls-1{fill:#f18f26;}.cls-2{fill:#ffcc4e;}.cls-3{fill:#292f33;}.cls-4{fill:#e75a70;}.cls-5{fill:#fee7b8;}.cls-6{fill:#fd9;}.cls-7{fill:#664500;}.cls-8{fill:#825d0e;}</style></defs><path class="cls-1" d="M13.88,21.61s.7,2.28-.34,8c-.18,1-.46,2.08-.59,2.93-1.76,0-1.86,2-1.48,2h2.09c1.34,0,3-3.34,3.86-8A3.89,3.89,0,0,0,13.88,21.61Zm13,3.7a4.55,4.55,0,0,1,2.19,4.08c0,1.13-.25,2.09-.35,3-1.84,0-1.84,2-1.31,2h1.86c.92,0,3-3.16,3.38-7.28S26.92,25.31,26.92,25.31Z"/><path class="cls-2" d="M39.4,7.62c0-4.92-4.14-7.45-9-7.45a1,1,0,0,0,0,2c1.81,0,6.72.94,6.72,5.45,0,2.88-1.57,5.46-3.77,6-.16-.07-.34-.1-.51-.19-7.24-3.92-13.46.9-15.22-.29s-.54-3.26-2.83-5.24C14.46,6,13.72,3.4,13,3.4c-.55,0-1.27,1.82-1.74,3.65C10.67,5.67,9.89,4.3,9.4,4.3c-.64,0-1.28,2.27-1.6,4.23A5.94,5.94,0,0,0,4.9,13.3c0,2.7,4,3.36,5.4,3.41s3,3.56,3.58,5.07c1.24,4.37,2,8.7,2.7,11.18-1.65,0-1.8,2.12-1.35,2.12h2.23c1.38,0,2-4.71,2-8.85,0-.22,0-.63,0-.63a16,16,0,0,0,6-.21,5.06,5.06,0,0,1,5.75,3.16c.52,1.71,1.4,3.31,1.86,4.49-1.58,0-1.54,2-1.08,2,.79,0,1.8,0,2.18,0,1.47-.06.65-7.58,1-10.1s1.27-5.58-.23-8.8C38.26,14.41,39.4,10.68,39.4,7.62Z"/><circle class="cls-3" cx="9.4" cy="10.94" r="0.9"/><path class="cls-4" d="M6.39,12c-.68.42-.68,1.78-1,1.78s-1-.8-1-1.78S7.22,11.51,6.39,12Z"/><path class="cls-5" d="M10,13.51a.17.17,0,0,1-.14,0,6.06,6.06,0,0,0-2.55.15.36.36,0,0,1-.41-.19A.33.33,0,0,1,7,13.08,5.42,5.42,0,0,1,10,12.86c.14,0,.19.19.19.37A.41.41,0,0,1,10,13.51Zm-.47,2.34a.17.17,0,0,1-.14,0A5.87,5.87,0,0,0,7,15a.35.35,0,0,1-.31-.34A.33.33,0,0,1,7,14.3a5.19,5.19,0,0,1,2.78.93c.12.08.11.26,0,.43A.42.42,0,0,1,9.51,15.85Z"/><path class="cls-1" d="M11.26,7.05a3.54,3.54,0,0,1,.86,0,4.4,4.4,0,0,1,.58-.89,8.36,8.36,0,0,1,.39,1.18c0,.12.22.11.32.19s0-3.47-.86-3.84A10.94,10.94,0,0,0,11.26,7.05ZM7.8,8.53s.39-.27.89-.57a12.64,12.64,0,0,1,.56-1.34,5.92,5.92,0,0,1,.35.81c.21-.11.21-.1.4-.19,0,0-.11-2.28-1.1-2.52A12.91,12.91,0,0,0,7.8,8.53Z"/><path class="cls-6" d="M21.85,22.82a2.62,2.62,0,0,0-2.38,2.78,16,16,0,0,0,6-.21,5.49,5.49,0,0,1,3.11.38C27,22.72,24.3,22.29,21.85,22.82Z"/><path class="cls-1" d="M18.09,13.28c.48.68,2.4,2.37,2.74,2.16a4,4,0,0,0,.35-2.71A9.13,9.13,0,0,1,18.09,13.28Zm7,2.69c.63.14,1.51-3,1.41-4.12a17.56,17.56,0,0,0-4,.53C22.89,13.46,24.51,15.84,25.11,16Zm2.63-4.08A6.15,6.15,0,0,0,29,14.62c.3.14,1.68-1.31,1.86-2.06A12.89,12.89,0,0,0,27.74,11.89Z"/><path class="cls-7" d="M20.1,3.23a4.48,4.48,0,0,1-3.2,1.33C16.71,3.59,15.84,0,14.12,0c-1.51,0-2.06.69-2.83.69S10,0,8.46,0C6.74,0,5.87,3.59,5.68,4.56a4.6,4.6,0,0,1-3.2-1.33C1.13,1.58-.66,2.79.25,4.59c1.43,2.84,4.9,4.84,11,4.84s9.61-2,11-4.84C23.24,2.79,21.45,1.58,20.1,3.23Z"/><path class="cls-8" d="M13.49,1.26c-1.17,0-1.57.63-2.2.63s-1-.63-2.2-.63c-1.57,0-2.2,4.24-2.2,4.24s.8,1.42,4.4,1.42,4.4-1.42,4.4-1.42S15.06,1.26,13.49,1.26Z"/><path class="cls-7" d="M6.89,3.14s1.3,1.26,4.4,1.26,4.4-1.26,4.4-1.26V4.4a6.77,6.77,0,0,1-4.4,1.26A6.77,6.77,0,0,1,6.89,4.4Z"/></svg>