<svg id="Layer_1" data-name="Layer 1" xmlns="http://www.w3.org/2000/svg" viewBox="0 0 38.36 36"><defs><style>.cls-1{fill:#99aab5;}.cls-2{fill:#f4abba;}.cls-3{fill:#ccd6dd;}.cls-4{fill:#292f33;}.cls-5{fill:#664500;}.cls-6{fill:#825d0e;}</style></defs><path class="cls-1" d="M11.36,11c0-4.14-2-11-1-11s7,4,5,11c-1.13,4-.89,4-2,4S11.36,15.14,11.36,11Z"/><path class="cls-2" d="M11.91,11.7c0-3.41-1.29-9.06-.64-9.06s4.53,3.3,3.24,9.06c-.74,3.29-.58,3.3-1.3,3.3S11.91,15.12,11.91,11.7Z"/><path class="cls-1" d="M7.15,12.38C6.09,8.37,2.4,2.26,3.36,2s7.8,2.07,7.66,9.35c-.08,4.14.16,4.09-.91,4.38S8.22,16.38,7.15,12.38Z"/><path class="cls-2" d="M7.86,12.91C7,9.61,4.29,4.48,4.91,4.32s5.23,2,5.46,7.93c.13,3.36.29,3.33-.41,3.52S8.74,16.21,7.86,12.91Z"/><circle class="cls-3" cx="34.86" cy="28.5" r="3.5"/><path class="cls-1" d="M33.1,31.74c1.49-1.39,2.26-3.52,2.26-6.74,0-7.18-6.82-11-14-11a22,22,0,0,0-5.32.54C15,13.41,13.18,13,10.76,13c-4.26,0-8.4,4.07-8.4,8.33S6.24,26,10.36,26h0c3,5,1,10,3,10,1.59,0,1.92-2.22,2-4.38a14.12,14.12,0,0,0,3.53,1.58c-.88.53-1.52,1.07-1.52,1.3,0,1.38,2,1.5,5,1.5,5.53,0,13,0,11-4A.65.65,0,0,0,33.1,31.74Z"/><circle class="cls-4" cx="8.36" cy="18" r="1"/><path class="cls-2" d="M4.36,21c0,1.1-.5,2-1,2s-1-.9-1-2,.45-1,1-1S4.36,19.9,4.36,21Z"/><path class="cls-5" d="M19.73,10.05a4.34,4.34,0,0,1-3.14,1.31c-.19-.95-1-4.48-2.73-4.48-1.48,0-2,.68-2.78.68s-1.29-.68-2.77-.68c-1.7,0-2.54,3.53-2.73,4.48a4.49,4.49,0,0,1-3.14-1.31C1.11,8.44-.65,9.62.24,11.39c1.41,2.79,4.81,4.76,10.84,4.76s9.44-2,10.85-4.76C22.82,9.62,21.06,8.44,19.73,10.05Z"/><path class="cls-6" d="M13.25,8.12c-1.16,0-1.55.62-2.17.62s-1-.62-2.16-.62c-1.54,0-2.16,4.17-2.16,4.17s.79,1.39,4.32,1.39,4.33-1.39,4.33-1.39S14.79,8.12,13.25,8.12Z"/><path class="cls-5" d="M6.76,10S8,11.21,11.08,11.21,15.41,10,15.41,10v1.24a6.71,6.71,0,0,1-4.33,1.23,6.69,6.69,0,0,1-4.32-1.23Z"/></svg>