<svg id="Layer_1" data-name="Layer 1" xmlns="http://www.w3.org/2000/svg" viewBox="0 0 37.17 33.05"><defs><style>.cls-1{fill:#f4abba;}.cls-2{fill:#292f33;}.cls-3{fill:#664500;}.cls-4{fill:#825d0e;}</style></defs><path class="cls-1" d="M34.9,17.42c-.8-5.54-5.18-9.78-12.56-9.78l-1,0a26,26,0,0,0-4.4.56c-.75.15-1.51.32-2.25.52A6.74,6.74,0,0,0,12,6.58c-.51,0,0,1.87,0,3.05a12.77,12.77,0,0,0-2.34,1.19C6.46,12.94,6.46,14,2.8,14c-1.63,0-1.59,1.66-1.59,3.71s0,2.62,1.59,3.71c2.18,1.45,4.73,3.61,8,5.38,2,3.15.33,6.26,2.06,6.26,1.23,0,2.81-2,3.65-3.94a22.93,22.93,0,0,0,5.88.77,20.07,20.07,0,0,0,3.2-.25c.27,1.95-.16,3.42,1,3.42,1.55,0,7-5,8.22-11.29.06-.28.1-.58.14-.88,0-.09,0-.18,0-.27s0-.4,0-.61c1,.28,2.15.7,2.15-.17C37.17,19.12,36.05,18.11,34.9,17.42Z"/><path class="cls-2" d="M11.75,14a1.06,1.06,0,1,1-1.06-1.05A1.05,1.05,0,0,1,11.75,14Z"/><path class="cls-3" d="M23.66,2.58a5.24,5.24,0,0,1-3.49,2.24C19.74,3.72,18-.34,15.93,0c-1.78.32-2.28,1.24-3.19,1.4S11,.89,9.25,1.21c-2,.36-2.3,4.78-2.33,6a5.46,5.46,0,0,1-4-.9C.93,4.61-.93,6.41.51,8.35,2.8,11.4,7.31,13,14.57,11.75s10.93-4.37,12-8C27.29,1.41,24.92.36,23.66,2.58Z"/><path class="cls-4" d="M15.46,1.64c-1.39.25-1.73,1.07-2.47,1.2s-1.34-.53-2.73-.28C8.4,2.89,8.55,8,8.55,8S9.79,9.54,14,8.78s4.9-2.59,4.9-2.59S17.31,1.31,15.46,1.64Z"/><path class="cls-3" d="M8.05,5.25s1.8,1.21,5.46.56,4.94-2.4,4.94-2.4l.26,1.48S17.33,6.67,13.78,7.3s-5.46-.57-5.46-.57Z"/></svg>