<svg id="Layer_1" data-name="Layer 1" xmlns="http://www.w3.org/2000/svg" viewBox="0 0 36 42.39"><defs><style>.cls-1{fill:#31373d;}.cls-2{fill:#ffcc4d;}.cls-3{fill:#ccd6dd;}.cls-4{fill:#99aab5;}.cls-5{fill:#664500;}.cls-6{fill:#825d0e;}</style></defs><path class="cls-1" d="M27.82,29.85a14.12,14.12,0,0,0,.46-3.46,8,8,0,0,0-5.26-8,8.41,8.41,0,0,0,.67-3.2,3.29,3.29,0,0,0-1.32-3,12.7,12.7,0,0,0,3-2,1.8,1.8,0,0,0,.35-2.47A1.8,1.8,0,0,0,23.28,8a11.2,11.2,0,0,0-2.22,3.62A15.17,15.17,0,0,0,18,11.39a15.23,15.23,0,0,0-3.06.22A11.2,11.2,0,0,0,12.72,8a1.8,1.8,0,0,0-2.47-.35,1.8,1.8,0,0,0,.35,2.47,12.7,12.7,0,0,0,3,2,3.29,3.29,0,0,0-1.32,3,8.41,8.41,0,0,0,.67,3.2,8,8,0,0,0-5.26,8,14.12,14.12,0,0,0,.46,3.46v0h0C9.4,34.5,12.83,38.72,17,39.31v.08c0,1.66.45,3,1,3s1-1.34,1-3v-.07c4.17-.6,7.6-4.82,8.81-9.44h0Z"/><path class="cls-2" d="M14.62,25.39h6.76a14.41,14.41,0,0,1-3.11-4h-.54A14.41,14.41,0,0,1,14.62,25.39Zm-5.37,4a11.18,11.18,0,0,1-1.07.49,15.26,15.26,0,0,0,1.41,3.51H26.42a15.69,15.69,0,0,0,1.4-3.51c-.35-.14-.7-.3-1.07-.49Zm3.59,8a8.23,8.23,0,0,0,5.16,2,8.23,8.23,0,0,0,5.16-2Z"/><path class="cls-3" d="M18,19.9c0,2.64-7.86,8.58-12,8.58S0,26,0,23.39s1.86-4.5,6-4.5S18,17.25,18,19.9Zm0,0c0,2.64,7.86,8.58,12,8.58s6-2.44,6-5.09-1.86-4.5-6-4.5S18,17.25,18,19.9Z"/><path class="cls-4" d="M2,25.39a1,1,0,0,1,0-2s5-.07,13.59-3.91a1,1,0,0,1,.82,1.82C7.32,25.34,2.21,25.39,2,25.39Zm32,0c-.21,0-5.32-.05-14.41-4.09a1,1,0,1,1,.82-1.82C29.05,23.32,34,23.39,34,23.39a1,1,0,0,1,0,2Z"/><path class="cls-5" d="M30.74,4.67A6.41,6.41,0,0,1,26.12,6.6c-.28-1.4-1.53-6.6-4-6.6-2.19,0-3,1-4.1,1s-1.91-1-4.09-1c-2.5,0-3.74,5.2-4,6.6A6.61,6.61,0,0,1,5.26,4.67C3.3,2.29.71,4,2,6.64c2.08,4.12,7.09,7,16,7s13.91-2.89,16-7C35.29,4,32.7,2.29,30.74,4.67Z"/><path class="cls-6" d="M21.19,1.82c-1.71,0-2.28.91-3.19.91s-1.48-.91-3.18-.91C12.54,1.82,11.63,8,11.63,8S12.8,10,18,10s6.37-2,6.37-2S23.46,1.82,21.19,1.82Z"/><path class="cls-5" d="M11.63,4.55S13.51,6.37,18,6.37s6.37-1.82,6.37-1.82V6.37s-2,1.82-6.37,1.82-6.37-1.82-6.37-1.82Z"/></svg>