<svg id="Layer_1" data-name="Layer 1" xmlns="http://www.w3.org/2000/svg" viewBox="0 0 35.66 30.78"><defs><style>.cls-1{fill:#3b88c3;}.cls-2{fill:#55acee;}.cls-3{fill:#269;}.cls-4{fill:#664500;}.cls-5{fill:#825d0e;}</style></defs><path class="cls-1" d="M32,19.07c0-1,1.53-6.21,3.05-7.73s0-3.17-1.52-3.17c-3.41,0-9.14,6.9-9.14,10.9,0,5,5.73,10.43,9.14,10.43,1.52,0,3.05-1.41,1.52-2.93A14,14,0,0,1,32,19.07Z"/><path class="cls-1" d="M8.85,9.46c0-3.05,1.5-6.1,3-6.1,4.57,0,13.32,4.83,14.85,12.44S8.85,9.46,8.85,9.46Zm4.86,18.27a11.59,11.59,0,0,0,7.61,3.05c3.05,0-3.11-4.19-1.52-6.09C22,22.07,13.71,27.73,13.71,27.73Z"/><path d="M1.9,23.8A5.39,5.39,0,0,0,.76,18.21c-1.33-1.65,3.87-1.9,5.59.39s5.71,6.28,2.15,6.22A26.64,26.64,0,0,1,1.9,23.8Z"/><path class="cls-2" d="M0,18.56c1,.87,7.22,4.31,7.17,5.14s-2.28-.09-3.11-.28a10.13,10.13,0,0,0-2.32-.53c-.84.32-.55,1.2-.24,1.71,1.5,2.61,7.29,4.66,12.16,4.66,8.41,0,16.8-7.62,16.8-10.66S21.12,7.93,12.71,7.93,0,14,0,18.56Z"/><path d="M6.83,12.07a2,2,0,1,1-2,2A2,2,0,0,1,6.83,12.07Z"/><path class="cls-3" d="M14.91,25.05a1,1,0,0,1-.46-.11A1,1,0,0,1,14,23.59c1.58-3,2.22-5.77.15-9.24a1,1,0,1,1,1.72-1c2.69,4.54,1.46,8.21-.1,11.19A1,1,0,0,1,14.91,25.05Z"/><path class="cls-4" d="M26.92,4.11a5.6,5.6,0,0,1-4.07,1.7C22.6,4.58,21.5,0,19.31,0c-1.93,0-2.63.87-3.61.87S14,0,12.09,0C9.89,0,8.8,4.58,8.55,5.81a5.74,5.74,0,0,1-4.07-1.7C2.75,2,.47,3.56,1.62,5.85,3.45,9.48,7.87,12,15.7,12S28,9.48,29.77,5.85C30.93,3.56,28.64,2,26.92,4.11Z"/><path class="cls-5" d="M18.5,1.6c-1.5,0-2,.8-2.8.8s-1.31-.8-2.81-.8c-2,0-2.8,5.41-2.8,5.41s1,1.81,5.61,1.81S21.31,7,21.31,7,20.51,1.6,18.5,1.6Z"/><path class="cls-4" d="M10.09,4s1.66,1.6,5.61,1.6S21.31,4,21.31,4v1.6s-1.78,1.6-5.61,1.6-5.61-1.6-5.61-1.6Z"/></svg>