<svg id="Layer_1" data-name="Layer 1" xmlns="http://www.w3.org/2000/svg" viewBox="0 0 36 35.16"><defs><style>.cls-1{fill:#99aab5;}.cls-2{fill:#f4abba;}.cls-3{fill:#66757f;}.cls-4{fill:#272b2b;}.cls-5{fill:#664500;}.cls-6{fill:#825d0e;}</style></defs><circle class="cls-1" cx="8.5" cy="9.5" r="8.5"/><circle class="cls-1" cx="27.5" cy="9.5" r="8.5"/><path class="cls-2" d="M13.81,10A5.85,5.85,0,1,1,8,4.19,5.85,5.85,0,0,1,13.81,10Zm20.07,0A5.85,5.85,0,1,1,28,4.19,5.85,5.85,0,0,1,33.88,10Z"/><path class="cls-1" d="M30,18c0,7.18-8,15-12,15S6,25.18,6,18s7-9,12-9S30,10.82,30,18Z"/><path class="cls-2" d="M20.91,29.65A4.1,4.1,0,0,1,18,33a4.09,4.09,0,0,1-2.9-3.35c0-1.61,1.78-2,2.9-2S20.91,28,20.91,29.65Z"/><path class="cls-3" d="M35,32.16a1,1,0,0,1-.51-.14c-4.63-2.78-11.28-1.88-11.35-1.87a1,1,0,0,1-.28-2c.3,0,7.41-1,12.65,2.13A1,1,0,0,1,35,32.16Z"/><path class="cls-3" d="M32,35.16a1,1,0,0,1-.8-.4c-2.73-3.64-8.31-4.6-8.36-4.61a1,1,0,1,1,.32-2c.27,0,6.44,1.12,9.64,5.39a1,1,0,0,1-.2,1.4A1,1,0,0,1,32,35.16Zm-31-3A1,1,0,0,1,.49,30.3c5.24-3.14,12.35-2.17,12.65-2.13a1,1,0,0,1-.28,2c-.07,0-6.72-.91-11.35,1.87A1,1,0,0,1,1,32.16Z"/><path class="cls-3" d="M4,35.16a1,1,0,0,1-.6-.2,1,1,0,0,1-.2-1.4c3.2-4.27,9.37-5.34,9.64-5.39a1,1,0,0,1,.32,2c-.05,0-5.64,1-8.36,4.61A1,1,0,0,1,4,35.16Z"/><path class="cls-4" d="M12,21a2,2,0,0,1,4,0v2a2,2,0,0,1-4,0Zm8,0a2,2,0,0,1,4,0v2a2,2,0,0,1-4,0Z"/><path class="cls-5" d="M29.4,4.18A5.72,5.72,0,0,1,25.26,5.9C25,4.65,23.9,0,21.66,0,19.71,0,19,.89,18,.89S16.29,0,14.34,0C12.1,0,11,4.65,10.74,5.9A5.88,5.88,0,0,1,6.6,4.18C4.85,2.05,2.53,3.62,3.7,6,5.56,9.63,10,12.22,18,12.22S30.44,9.63,32.3,6C33.47,3.62,31.15,2.05,29.4,4.18Z"/><path class="cls-6" d="M20.85,1.63c-1.52,0-2,.81-2.85.81s-1.33-.81-2.85-.81c-2,0-2.85,5.5-2.85,5.5S13.34,9,18,9s5.7-1.83,5.7-1.83S22.89,1.63,20.85,1.63Z"/><path class="cls-5" d="M12.3,4.07S14,5.7,18,5.7s5.7-1.63,5.7-1.63V5.7S21.89,7.33,18,7.33,12.3,5.7,12.3,5.7Z"/></svg>