<svg id="Layer_1" data-name="Layer 1" xmlns="http://www.w3.org/2000/svg" viewBox="0 0 36 32.93"><defs><style>.cls-1{fill:#99aab5;}.cls-2{fill:#66757f;}.cls-3{fill:#292f33;}.cls-4{fill:#664500;}.cls-5{fill:#825d0e;}</style></defs><path class="cls-1" d="M36,14.47c0-4.67-3.13-6.54-7-6.54a11,11,0,0,0-4.68,1A11.17,11.17,0,0,0,11.68,9,11,11,0,0,0,7,7.93c-3.87,0-7,1.87-7,6.54,0,3.84,2.13,6.41,5,7.2C5,22.21,5,22.75,5,23.28,5,29,9.49,31,13.55,31.61A7.58,7.58,0,0,0,18,32.93a7.58,7.58,0,0,0,4.45-1.32C26.51,31,31,29,31,23.29c0-.54,0-1.08-.07-1.62C33.87,20.88,36,18.31,36,14.47Z"/><path class="cls-2" d="M9.55,10.79c-.31,0-.63-.06-1-.06C5.51,10.73,3,12.23,3,16a5.9,5.9,0,0,0,2.14,4.82A18,18,0,0,1,9.55,10.79Zm17.85-.06c-.32,0-.64,0-1,.06a17.92,17.92,0,0,1,4.42,10A5.92,5.92,0,0,0,33,16C33,12.23,30.49,10.73,27.4,10.73Z"/><path class="cls-3" d="M21.73,25.74c0,3.35-1.73,4.19-3.73,4.19s-3.73-.84-3.73-4.19S16,19.68,18,19.68,21.73,22.4,21.73,25.74Z"/><circle class="cls-3" cx="12.5" cy="20.81" r="1.5"/><circle class="cls-3" cx="23.5" cy="20.81" r="1.5"/><path class="cls-4" d="M32,5.13a7,7,0,0,1-5.08,2.12C26.61,5.71,25.24,0,22.5,0,20.1,0,19.23,1.09,18,1.09S15.9,0,13.5,0C10.76,0,9.39,5.71,9.08,7.25,7.18,7.08,5.19,6.57,4,5.13,1.85,2.52-1,4.44.44,7.3,2.72,11.82,8.23,15,18,15s15.28-3.18,17.56-7.7C37,4.44,34.15,2.52,32,5.13Z"/><path class="cls-5" d="M21.5,2C19.63,2,19,3,18,3s-1.63-1-3.5-1C12,2,11,8.75,11,8.75S12.28,11,18,11s7-2.25,7-2.25S24,2,21.5,2Z"/><path class="cls-4" d="M11,5s2.07,2,7,2,7-2,7-2V7s-2.22,2-7,2-7-2-7-2Z"/></svg>