<svg id="Layer_1" data-name="Layer 1" xmlns="http://www.w3.org/2000/svg" viewBox="0 0 32.56 43.33"><defs><style>.cls-1{fill:#ffac33;}.cls-2{fill:#292f33;}.cls-3{fill:#f5f8fa;}.cls-4{fill:#664500;}.cls-5{fill:#825d0e;}</style></defs><path class="cls-1" d="M26.35,38.69c-2.23,0-8.47.78-10.07,1.83-1.6-1.05-7.84-1.83-10.07-1.83-2.56,0-1.16,1-1.16,2.32s-1.4,2.32,1.16,2.32c2.23,0,8.47-.78,10.07-1.83,1.6,1,7.84,1.83,10.07,1.83,2.56,0,1.16-1,1.16-2.32S28.91,38.69,26.35,38.69Z"/><path class="cls-2" d="M30,23.2a26,26,0,0,0-4.94-6.72C22.62,11,19,7.33,16.28,7.33S9.94,11,7.49,16.48A26.17,26.17,0,0,0,2.55,23.2C.11,28.08-.57,34.63.47,35.14c.87.44,2.32-1.55,4.21-5.08.27,10.88,7,11,11.6,11s11.33-.07,11.6-10.95c1.88,3.53,3.33,5.52,4.21,5.08S32.45,28.08,30,23.2Z"/><path class="cls-3" d="M20,14.28a6.31,6.31,0,0,1-7.35,0C9.3,16.41,7,21.34,7,27.08,7,34.77,11.15,41,16.28,41s9.29-6.24,9.29-13.93C25.57,21.34,23.26,16.41,20,14.28Z"/><path class="cls-1" d="M26.73,13.33H20.92c-3.84,0-4.64-.78-4.64-1.74s-.37-1.74,3.48-1.74C25.57,9.85,27.89,13.33,26.73,13.33Z"/><path class="cls-3" d="M15.12,10.82A1.16,1.16,0,1,1,14,9.66,1.16,1.16,0,0,1,15.12,10.82Z"/><path class="cls-4" d="M25.4,3.34a4.63,4.63,0,0,1-3.32,1.39C21.88,3.72,21,0,19.2,0c-1.56,0-2.13.71-2.93.71S14.9,0,13.34,0c-1.79,0-2.68,3.72-2.89,4.73A4.75,4.75,0,0,1,7.14,3.34c-1.4-1.7-3.26-.45-2.32,1.42,1.49,3,5.08,5,11.45,5s10-2.07,11.45-5C28.66,2.89,26.8,1.64,25.4,3.34Z"/><path class="cls-5" d="M18.55,1.3c-1.22,0-1.63.66-2.28.66S15.21,1.3,14,1.3c-1.63,0-2.28,4.4-2.28,4.4s.83,1.47,4.56,1.47S20.83,5.7,20.83,5.7,20.18,1.3,18.55,1.3Z"/><path class="cls-4" d="M11.71,3.26s1.35,1.3,4.56,1.3,4.56-1.3,4.56-1.3v1.3a7,7,0,0,1-4.56,1.31,7,7,0,0,1-4.56-1.31Z"/></svg>