<svg id="Layer_1" data-name="Layer 1" xmlns="http://www.w3.org/2000/svg" viewBox="0 0 35.9 44.5"><defs><style>.cls-1{fill:#ffcc4d;}.cls-2{fill:#dd2e44;}.cls-3{fill:#e6aaaa;}.cls-4{fill:#272b2b;}.cls-5{fill:#fff;}.cls-6{fill:#664500;}.cls-7{fill:#825d0e;}</style></defs><circle class="cls-1" cx="6.95" cy="14.5" r="6"/><circle class="cls-1" cx="17.95" cy="38.5" r="6"/><circle class="cls-2" cx="17.95" cy="38.5" r="4"/><circle class="cls-1" cx="28.95" cy="14.5" r="6"/><circle class="cls-3" cx="6.95" cy="14.5" r="4"/><circle class="cls-3" cx="28.95" cy="14.5" r="4"/><path class="cls-1" d="M34,30.5c0,7-4.92,7-4.92,7H6.87S2,37.5,2,30.5c0,0,1.23-22,16-22S34,30.5,34,30.5Z"/><path class="cls-4" d="M11,25.5a2,2,0,0,1,4,0v2a2,2,0,0,1-4,0Zm10,0a2,2,0,0,1,4,0v2a2,2,0,0,1-4,0Z"/><path class="cls-5" d="M23.63,31.5A7.37,7.37,0,0,0,18,33.88a7.37,7.37,0,0,0-5.68-2.38C2,31.5,2,31.92,2,34.68c-.09,5.61,6.63,6.9,10.32,6.82A7.63,7.63,0,0,0,18,39.1a7.63,7.63,0,0,0,5.68,2.4C27.32,41.58,34,40.29,34,34.68,33.91,31.92,34,31.5,23.63,31.5Z"/><path class="cls-4" d="M33.61,33.74a1.68,1.68,0,0,1,.34.94A5.41,5.41,0,0,1,32,39L27,39.5ZM15,33.5c-1,1,2,4,3,4s4-3,3-4S16,32.5,15,33.5Zm-5-22a41.57,41.57,0,0,0,8,4,41.57,41.57,0,0,0,8-4l-8,1Zm8-1S19.6,9.88,21.53,9a13.32,13.32,0,0,0-7.16,0C16.3,9.88,18,10.5,18,10.5Zm-7,7a77.62,77.62,0,0,0,7,4,77.62,77.62,0,0,0,7-4l-7,1ZM31.6,19.78,27,23.5l6,.75A38.53,38.53,0,0,0,31.6,19.78Zm1.91,7.16L28,32.5h5.84a11.92,11.92,0,0,0,.16-2A35.6,35.6,0,0,0,33.51,26.94Zm-31.12,0A35.6,35.6,0,0,0,2,30.5a10.89,10.89,0,0,0,.17,2H8Zm-.1,6.8a1.68,1.68,0,0,0-.34.94A5.39,5.39,0,0,0,3.87,39L9,39.5ZM9,23.5,4.31,19.78A35,35,0,0,0,3,24.25Z"/><path class="cls-6" d="M32,5.13a7,7,0,0,1-5.08,2.12C26.56,5.71,25.19,0,22.45,0c-2.4,0-3.27,1.09-4.5,1.09S15.85,0,13.45,0C10.71,0,9.34,5.71,9,7.25,7.13,7.08,5.14,6.57,4,5.13,1.8,2.52-1,4.44.39,7.3,2.67,11.82,8.18,15,18,15s15.28-3.18,17.56-7.7C37,4.44,34.1,2.52,32,5.13Z"/><path class="cls-7" d="M21.45,2C19.58,2,19,3,18,3s-1.63-1-3.5-1C12,2,11,8.75,11,8.75S12.23,11,18,11s7-2.25,7-2.25S24,2,21.45,2Z"/><path class="cls-6" d="M11,5S13,7,18,7s7-2,7-2V7s-2.22,2-7,2-7-2-7-2Z"/></svg>