<svg id="Layer_1" data-name="Layer 1" xmlns="http://www.w3.org/2000/svg" viewBox="0 0 36.23 38.34"><defs><style>.cls-1{fill:#f4900c;}.cls-2{fill:#ffac33;}.cls-3{fill:#ffcc4d;}.cls-4{fill:#662113;}.cls-5{fill:#664500;}.cls-6{fill:#825d0e;}</style></defs><path class="cls-1" d="M9,18.34c0,1.66,2,2-.51,2s-6-1-6-2,1.52-3,4-3S9,16.69,9,18.34Z"/><path class="cls-2" d="M28.36,35.44a1,1,0,0,0-.42-.39,3.23,3.23,0,0,1-.46-3.71c0-.55,1-2,0-2l-1,1c-1,1-1,4-1,4h-2a1,1,0,0,0,0,2h1.1l-.22.12a1,1,0,0,0-.4,1.36,1,1,0,0,0,1.35.4L28,36.8A1,1,0,0,0,28.36,35.44Zm-7,0a1,1,0,0,0-.42-.39,3.23,3.23,0,0,1-.46-3.71c0-.55,1-2,0-2l-1,1c-1,1-1,4-1,4h-2a1,1,0,0,0,0,2h1.1l-.22.12a1,1,0,0,0-.4,1.36,1,1,0,0,0,1.35.4L21,36.8A1,1,0,0,0,21.36,35.44Z"/><path class="cls-3" d="M35.69,19.72c-1.34,0-7.9,4.61-11.55-5.38l0,0a9.48,9.48,0,0,0-7.37-6.79l0,0c2.14-1.38,2.76-.36,2.76-1.14,0-1.17-2.09-1.3-4,0-1.92-1.32-4-1.19-4,0,0,.77.58-.2,2.62,1a9.49,9.49,0,0,0-1.35,18.68A9.49,9.49,0,0,0,22,33.34a11.67,11.67,0,0,0,9-4c.55-.63.11.6.84.23C36.05,27.45,37,19.72,35.69,19.72Z"/><circle class="cls-4" cx="12.98" cy="15.84" r="1.5"/><path class="cls-2" d="M22.29,18.34s-2,10,10,10c1,0,0,2-4,2s-10-5-7-11C21.92,18.08,22.29,18.34,22.29,18.34Z"/><path class="cls-5" d="M27.55,4.42a6.09,6.09,0,0,1-4.38,1.83C22.9,4.92,21.72,0,19.36,0c-2.07,0-2.82.94-3.88.94S13.67,0,11.6,0C9.23,0,8.05,4.92,7.79,6.25A6.26,6.26,0,0,1,3.41,4.42C1.55,2.17-.9,3.83.34,6.29c2,3.9,6.71,6.64,15.14,6.64s13.17-2.74,15.13-6.64C31.86,3.83,29.4,2.17,27.55,4.42Z"/><path class="cls-6" d="M18.49,1.72c-1.61,0-2.15.87-3,.87s-1.41-.87-3-.87c-2.16,0-3,5.82-3,5.82s1.1,1.94,6,1.94,6-1.94,6-1.94S20.65,1.72,18.49,1.72Z"/><path class="cls-5" d="M9.44,4.31S11.23,6,15.48,6s6-1.72,6-1.72V6s-1.91,1.73-6,1.73S9.44,6,9.44,6Z"/></svg>