<svg id="Layer_1" data-name="Layer 1" xmlns="http://www.w3.org/2000/svg" viewBox="0 0 44.53 30.33"><defs><style>.cls-1{fill:#77b255;}.cls-2{fill:#3e721d;}.cls-3{fill:#292f33;}.cls-4{fill:#5c913b;}.cls-5{fill:#664500;}.cls-6{fill:#825d0e;}</style></defs><path class="cls-1" d="M18.38,14.26c0,9.84,6.57,9.67,5.15,10.07-7,2-8.8-7.61-9.46-7.61-2.38,0-5.54-.43-5.54-2.46S11,9.33,14.69,9.33C17.06,9.33,18.38,12.22,18.38,14.26ZM44.53,23c0,1.11-3.51-.74-5,0-2,1-2-.89-2-2s1.35-1,3-1S44.53,21.87,44.53,23Z"/><path class="cls-1" d="M25.25,27.48c0,2.76-1.28,2.85-2.86,2.85s-2.86-.09-2.86-2.85a6.27,6.27,0,0,1,.24-1.59c.69-2.59,2.75-5.56,4.05-5.56C25.4,20.33,25.25,24.72,25.25,27.48Zm8.57,0c0,2.76,1.28,2.85,2.86,2.85s2.85-.09,2.85-2.85a6.23,6.23,0,0,0-.23-1.59c-.69-2.59-2.75-5.56-4-5.56C33.67,20.33,33.82,24.72,33.82,27.48Z"/><path class="cls-2" d="M40.53,21.33c0,4-5.14,4-11.5,4s-11.5,0-11.5-4A11.76,11.76,0,0,1,29,9.33,11.76,11.76,0,0,1,40.53,21.33Z"/><circle class="cls-3" cx="13.53" cy="12.33" r="1"/><path class="cls-4" d="M32.2,19.43c0,3.59-1.42,3.9-3.17,3.9s-3.16-.31-3.16-3.9,1.41-8.1,3.16-8.1S32.2,15.84,32.2,19.43Zm6.33-1.1c.88,3.49-.78,4-2.53,4s-2.53.69-2.53-2.9-1.12-6.5.63-6.5S37.53,14.33,38.53,18.33ZM24.6,19.43c0,3.59-.78,2.9-2.53,2.9s-3.41-.51-2.54-4c1-4,3.26-5.4,5-5.4S24.6,15.84,24.6,19.43Z"/><path class="cls-5" d="M24.09,3.87a5.35,5.35,0,0,1-3.83,1.6C20,4.31,19,0,16.93,0c-1.81,0-2.47.82-3.4.82S12,0,10.14,0C8.08,0,7,4.31,6.81,5.47A5.51,5.51,0,0,1,3,3.87C1.36,1.9-.79,3.35.29,5.5,2,8.91,6.17,11.31,13.53,11.31S25.06,8.91,26.77,5.5C27.86,3.35,25.71,1.9,24.09,3.87Z"/><path class="cls-6" d="M16.17,1.51c-1.41,0-1.88.75-2.64.75s-1.22-.75-2.63-.75C9,1.51,8.26,6.6,8.26,6.6s1,1.69,5.27,1.69S18.81,6.6,18.81,6.6,18.06,1.51,16.17,1.51Z"/><path class="cls-5" d="M8.26,3.77s1.56,1.51,5.27,1.51,5.28-1.51,5.28-1.51V5.28s-1.67,1.51-5.28,1.51S8.26,5.28,8.26,5.28Z"/></svg>