<svg id="Layer_1" data-name="Layer 1" xmlns="http://www.w3.org/2000/svg" viewBox="0 0 35.9 38.87"><defs><style>.cls-1{fill:#ffcc4d;}.cls-2{fill:#f18f26;}.cls-3{fill:#292f33;}.cls-4{fill:#fee7b8;}.cls-5{fill:#67757f;}.cls-6{fill:#e75a70;}.cls-7{fill:#664500;}.cls-8{fill:#825d0e;}</style></defs><path class="cls-1" d="M32.3,17.87s3.44-8.81,1.65-12c-.6-1.07-8,2-10.72,5.44A19.11,19.11,0,0,0,18,10.45a19.11,19.11,0,0,0-5.28.86C10,7.87,2.56,4.8,2,5.87c-1.79,3.19,1.65,12,1.65,12C2.71,19.59,2.37,22.21,2.05,25a12.34,12.34,0,0,0,.66,6.09,19.85,19.85,0,0,0,4.48,4.3A22,22,0,0,0,18,38.87a22,22,0,0,0,10.76-3.45,20,20,0,0,0,4.49-4.3A12.51,12.51,0,0,0,33.85,25C33.53,22.21,33.2,19.59,32.3,17.87Z"/><path class="cls-2" d="M2.31,6.84c.2-.6,5.35,2.17,6.52,5.4,0,0-3.81,2.63-4.53,4.63C4.3,16.87,1.31,9.84,2.31,6.84Z"/><path class="cls-1" d="M5.93,11.13c0-1.41,5.46,2.73,4.46,3.73s-1.26.72-2.26,1.72S5.93,12.13,5.93,11.13Z"/><path class="cls-2" d="M33.59,6.84c-.2-.6-5.35,2.17-6.52,5.4,0,0,3.81,2.63,4.53,4.63C31.6,16.87,34.59,9.84,33.59,6.84Z"/><path class="cls-1" d="M30,11.13c0-1.41-5.46,2.73-4.46,3.73s1.26.72,2.26,1.72S30,12.13,30,11.13Z"/><path class="cls-3" d="M14,23.87a2,2,0,1,1-2-2A2,2,0,0,1,14,23.87Zm12,0a2,2,0,1,1-2-2A2,2,0,0,1,26,23.87Z"/><path class="cls-4" d="M2.15,34.33a.51.51,0,0,1-.39-.19.49.49,0,0,1,.08-.7c.16-.13,4-3.12,10.65-2.61a.5.5,0,0,1,.46.54.49.49,0,0,1-.54.46,15.14,15.14,0,0,0-9.95,2.39A.51.51,0,0,1,2.15,34.33ZM11,29.66a.39.39,0,0,1-.15,0,16.56,16.56,0,0,0-8.78-.33.5.5,0,0,1-.28-1,17.23,17.23,0,0,1,9.36.34.5.5,0,0,1-.15,1Zm22.73,4.67a.51.51,0,0,0,.39-.19.49.49,0,0,0-.08-.7c-.16-.13-4-3.12-10.65-2.61a.5.5,0,0,0-.46.54.49.49,0,0,0,.54.46,15.14,15.14,0,0,1,10,2.39A.51.51,0,0,0,33.75,34.33Zm-8.87-4.67a.39.39,0,0,0,.15,0,16.56,16.56,0,0,1,8.78-.33.5.5,0,0,0,.29-1,17.28,17.28,0,0,0-9.37.34.49.49,0,0,0-.32.62A.48.48,0,0,0,24.88,29.66Z"/><path class="cls-5" d="M24.69,34.77a.52.52,0,0,0-.65-.3,4.37,4.37,0,0,1-1.56.31,2.81,2.81,0,0,1-2-.65,3.39,3.39,0,0,0-2-.81V31a.5.5,0,0,0-.5-.5.51.51,0,0,0-.5.5v2.38a4.21,4.21,0,0,0-1.81.74,3.31,3.31,0,0,1-2.09.68A4.45,4.45,0,0,1,12,34.47a.51.51,0,0,0-.64.3.5.5,0,0,0,.29.64,5.47,5.47,0,0,0,1.91.37,4.28,4.28,0,0,0,2.63-.84A3.06,3.06,0,0,1,18,34.3a2.51,2.51,0,0,1,1.81.63,3.77,3.77,0,0,0,2.63.85,5.38,5.38,0,0,0,1.91-.37A.5.5,0,0,0,24.69,34.77Z"/><path class="cls-6" d="M19.35,28.68h-2.8a1.16,1.16,0,0,0,0,2.32h.24v.35a1.16,1.16,0,1,0,2.32,0V31h.24a1.16,1.16,0,0,0,0-2.32Z"/><path class="cls-2" d="M18,21a.5.5,0,0,1-.5-.5V12.24a.5.5,0,0,1,.5-.5.5.5,0,0,1,.5.5v8.28A.5.5,0,0,1,18,21Zm3-1.58a.5.5,0,0,1-.5-.5,12.21,12.21,0,0,1,1.29-5.31.5.5,0,0,1,.88.48,11.3,11.3,0,0,0-1.17,4.83A.5.5,0,0,1,21,19.44Zm-6,0a.5.5,0,0,1-.5-.5,11.3,11.3,0,0,0-1.17-4.83.51.51,0,0,1,.21-.68.49.49,0,0,1,.67.2,12.21,12.21,0,0,1,1.29,5.31A.5.5,0,0,1,15,19.44Z"/><path class="cls-7" d="M32,5.13a7,7,0,0,1-5.08,2.12C26.56,5.71,25.19,0,22.45,0c-2.4,0-3.27,1.09-4.5,1.09S15.85,0,13.45,0C10.71,0,9.34,5.71,9,7.25,7.13,7.08,5.14,6.57,4,5.13,1.8,2.52-1,4.44.39,7.3,2.67,11.82,8.18,15,18,15s15.28-3.18,17.56-7.7C37,4.44,34.1,2.52,32,5.13Z"/><path class="cls-8" d="M21.45,2C19.58,2,19,3,18,3s-1.63-1-3.5-1C12,2,11,8.75,11,8.75S12.23,11,18,11s7-2.25,7-2.25S24,2,21.45,2Z"/><path class="cls-7" d="M11,5S13,7,18,7s7-2,7-2V7s-2.22,2-7,2-7-2-7-2Z"/></svg>