<svg id="Layer_1" data-name="Layer 1" xmlns="http://www.w3.org/2000/svg" viewBox="0 0 36 42.5"><defs><style>.cls-1{fill:#ffcc4d;}.cls-2{fill:#ea596e;}.cls-3{fill:#ffe8b6;}.cls-4{fill:#c1694f;}.cls-5{fill:#272b2b;}.cls-6{fill:#664500;}.cls-7{fill:#825d0e;}</style></defs><circle class="cls-1" cx="8.5" cy="16" r="8.5"/><circle class="cls-1" cx="27.5" cy="16" r="8.5"/><path class="cls-2" d="M13.91,12.35a6.9,6.9,0,1,0-8.35,10.5A14.63,14.63,0,0,1,13.91,12.35ZM27.53,9.69a6.86,6.86,0,0,0-5.44,2.67,14.61,14.61,0,0,1,8.35,10.49A6.9,6.9,0,0,0,27.53,9.69Z"/><path class="cls-3" d="M34,29.09c-2-10-11.33-6.5-16-6.5S4,19.05,2,29.09C.71,35.6,5.79,39,11,40.48a11.88,11.88,0,0,0,7,2,11.88,11.88,0,0,0,7-2C30.21,39,35.29,35.6,34,29.09Z"/><path class="cls-1" d="M30.6,24.5c0,11-5.64,6-12.6,6s-12.6,5-12.6-6c0-5.8,5.64-13,12.6-13S30.6,18.7,30.6,24.5Z"/><path class="cls-2" d="M20.91,34.46A4.1,4.1,0,0,1,18,37.81a4.09,4.09,0,0,1-2.9-3.35c0-1.61,1.78-2,2.9-2S20.91,32.85,20.91,34.46Z"/><path class="cls-4" d="M35.51,36.8c-5.24-3.14-12.35-2.17-12.65-2.13h0l-.23.08-.13.07a.7.7,0,0,0-.16.14l-.12.12s-.05.11-.08.17a1.07,1.07,0,0,0-.07.19s0,0,0,0a.92.92,0,0,0,0,.16.61.61,0,0,0,0,.14.05.05,0,0,0,0,0,1.52,1.52,0,0,0,.06.2c0,.06.05.12.08.17l.1.11a1.25,1.25,0,0,0,.17.16l.13.07.22.08.05,0c.05,0,5.63,1,8.36,4.61a1,1,0,0,0,.8.4,1,1,0,0,0,.6-.2,1,1,0,0,0,.2-1.4,12.59,12.59,0,0,0-4-3.37,15.08,15.08,0,0,1,5.72,1.83.94.94,0,0,0,.51.14,1,1,0,0,0,.51-1.86Zm-21.68-.59.08-.17a1.52,1.52,0,0,0,.06-.2.05.05,0,0,0,0,0,.76.76,0,0,0,0-.15s0-.1,0-.15,0,0,0,0-.05-.13-.07-.19-.05-.12-.08-.17L13.7,35l-.16-.15a.75.75,0,0,1-.13-.06l-.23-.08h0c-.3,0-7.41-1-12.65,2.13A1,1,0,0,0,1,38.66a1,1,0,0,0,.51-.14,14.86,14.86,0,0,1,5.71-1.83,12.53,12.53,0,0,0-4,3.37,1,1,0,0,0,.2,1.4,1,1,0,0,0,.6.2,1,1,0,0,0,.8-.4c2.72-3.62,8.31-4.61,8.37-4.61l0,0,.21-.08.14-.07a.75.75,0,0,0,.16-.15A1.31,1.31,0,0,0,13.83,36.21Z"/><path class="cls-5" d="M10,26.5a2,2,0,0,1,4,0v2a2,2,0,0,1-4,0Zm12,0a2,2,0,0,1,4,0v2a2,2,0,0,1-4,0Z"/><path class="cls-6" d="M32,5.13a7,7,0,0,1-5.08,2.12C26.61,5.71,25.24,0,22.5,0,20.1,0,19.23,1.09,18,1.09S15.9,0,13.5,0C10.76,0,9.39,5.71,9.08,7.25,7.18,7.08,5.19,6.57,4,5.13,1.85,2.52-1,4.44.44,7.3,2.72,11.82,8.23,15,18,15s15.28-3.18,17.56-7.7C37,4.44,34.15,2.52,32,5.13Z"/><path class="cls-7" d="M21.5,2C19.63,2,19,3,18,3s-1.63-1-3.5-1C12,2,11,8.75,11,8.75S12.28,11,18,11s7-2.25,7-2.25S24,2,21.5,2Z"/><path class="cls-6" d="M11,5s2.07,2,7,2,7-2,7-2V7s-2.22,2-7,2-7-2-7-2Z"/></svg>