<svg id="Layer_1" data-name="Layer 1" xmlns="http://www.w3.org/2000/svg" viewBox="0 0 41.85 41.42"><defs><style>.cls-1{fill:#3b88c3;}.cls-2{fill:#55acee;}.cls-3{fill:#292f33;}.cls-4{fill:#664500;}.cls-5{fill:#825d0e;}</style></defs><path class="cls-1" d="M37.85,17.42c2.12-2.12,5,14.31-3,21a12.91,12.91,0,0,1-8,3l-13,0c-7.18,0-8-4.92-8-11s.82-11,8-11a22.26,22.26,0,0,1,13,4c5,3.31,6,3.86,8,2C38.06,22.45,35.85,19.42,37.85,17.42Z"/><path class="cls-2" d="M39.85,28.42a15.43,15.43,0,0,1-5,10,12.91,12.91,0,0,1-8,3l-13,0c-4,0-6.06-1.55-7.06-4-.78-1.91,3.06,1,14.06,1C34.85,38.42,37.85,33.42,39.85,28.42Z"/><path class="cls-1" d="M37.85,19.42c4.12,0,4-5,4-7s-2,1-5,2-7-2-6,0S33.85,19.42,37.85,19.42Z"/><path class="cls-2" d="M15.85,12.42c0,2.21-.9,6-2,6s-2-3.79-2-6,.9-2,2-2S15.85,10.21,15.85,12.42Z"/><path class="cls-2" d="M13.85,10.42c0-3-6-2-6,0s3,1,4,3S13.85,10.42,13.85,10.42Zm0,0c0-3,6-2,6,0s-3,1-4,3S13.85,10.42,13.85,10.42Z"/><circle class="cls-3" cx="12.35" cy="30.92" r="1.5"/><path class="cls-4" d="M24.65,4a5.42,5.42,0,0,1-3.92,1.63C20.49,4.41,19.44,0,17.32,0c-1.85,0-2.52.84-3.47.84S12.23,0,10.38,0C8.26,0,7.21,4.41,7,5.59A5.59,5.59,0,0,1,3.05,4C1.39,1.94-.81,3.43.3,5.63c1.76,3.49,6,5.94,13.55,5.94S25.64,9.12,27.4,5.63C28.51,3.43,26.31,1.94,24.65,4Z"/><path class="cls-5" d="M16.55,1.54c-1.44,0-1.93.77-2.7.77s-1.26-.77-2.7-.77c-1.93,0-2.7,5.21-2.7,5.21s1,1.74,5.4,1.74,5.4-1.74,5.4-1.74S18.48,1.54,16.55,1.54Z"/><path class="cls-4" d="M8.45,3.86s1.6,1.54,5.4,1.54,5.4-1.54,5.4-1.54V5.4s-1.71,1.54-5.4,1.54S8.45,5.4,8.45,5.4Z"/></svg>