<svg id="Layer_1" data-name="Layer 1" xmlns="http://www.w3.org/2000/svg" viewBox="0 0 37.47 39.48"><defs><style>.cls-1{fill:#ad743d;}.cls-2{fill:#d99e82;}.cls-3{fill:#292f33;}.cls-4{fill:#662113;}.cls-5{fill:#664500;}.cls-6{fill:#825d0e;}</style></defs><path class="cls-1" d="M37.22,26.25a4.94,4.94,0,0,1-1,2.16C37.6,24,37.6,19.3,34,17.24a4.56,4.56,0,0,1-.26,2.16c-.21-2.22-.58-3.75-2.16-4.93-1.82-1.36-2.61-.45-.74,3.77a15.85,15.85,0,0,1,.83,11.21c0,.16-.08.29-.12.44.8-5.76-1-11.72-6.82-14.91-3-1.64-5.22-1.86-5.33-3a7.84,7.84,0,0,0-3.81-5.33c.44-1.31-.49-2.79-1.12-2.84A2.85,2.85,0,0,0,12.26,6.3c-4.7,1.4-9.49,7.22-9.35,8.4s.34,2.63,6.57,3.65a6.36,6.36,0,0,1,4.4,5.78A21.73,21.73,0,0,0,18.6,35.35H16.87c-4.14,0-4.14,4.13-1.38,4.13H26.41c.36,0,.79,0,1.31-.09A10.85,10.85,0,0,0,37.22,26.25Z"/><path class="cls-2" d="M13.12,18.76c3.26-.09,4.52-6.05-.68-6.82-.13-1.08-.77-2.62-2.26-2.73-2.35-.17-5.3,2.12-6.1,7.48.88.6,2.47,1.18,5.4,1.66a6.36,6.36,0,0,1,4.4,5.78,22.74,22.74,0,0,0,6,12.75,8.44,8.44,0,0,0,2-4.29C23.26,25.71,14.49,20.14,13.12,18.76Z"/><circle class="cls-3" cx="9.48" cy="12.94" r="1.38"/><path class="cls-4" d="M23.05,17c4.06,3.34,6.15,7.3,5.4,12.37-.32,2.15.83,2.94,1.69.91.6-1.43.93-9.89-6.05-14.32C22.23,14.83,22.13,16.29,23.05,17Z"/><path class="cls-1" d="M15,23.16c-1.25-1.25-5,0-6.21-2.49C8,19.1,5.09,21.91,6.33,24.4s5,2.48,7.45,1.24S15,23.16,15,23.16Z"/><path class="cls-4" d="M8.05,23.63c.31,1.49-.38,4.29-1.87,4.6s-3.22-2-3.53-3.5a2.76,2.76,0,0,1,5.4-1.1Z"/><path class="cls-1" d="M15.7,24.85C14.06,23.79,10.31,26,8.39,23.6c-1.21-1.53-3.75,2.2-1.83,4.61s6,1.54,8.37-.38S15.7,24.85,15.7,24.85Z"/><path class="cls-5" d="M24.63,7.33a5.58,5.58,0,0,1-4.27.7c0-1.24,0-5.86-2.07-6.35-1.84-.44-2.7.24-3.64,0S13.24.48,11.4,0C9.31-.46,7.22,3.66,6.71,4.79A5.72,5.72,0,0,1,3.2,2.24C2-.15-.5.81.09,3.26c.92,3.87,4.56,7.3,12,9.08S24.39,12.68,27,9.63C28.58,7.71,26.75,5.72,24.63,7.33Z"/><path class="cls-6" d="M17.16,3c-1.43-.34-2.09.32-2.86.13s-1.06-1.06-2.49-1.4C9.89,1.3,7.9,6.28,7.9,6.28s.57,2,4.95,3,5.77-.46,5.77-.46S19.08,3.48,17.16,3Z"/><path class="cls-5" d="M8.58,3.41s1.22,1.91,5,2.8S19.3,6,19.3,6l-.37,1.53s-2.06,1.12-5.72.26-5-2.81-5-2.81Z"/></svg>