<svg id="Layer_1" data-name="Layer 1" xmlns="http://www.w3.org/2000/svg" viewBox="0 0 36.77 40.05"><defs><style>.cls-1{fill:#c1694f;}.cls-2{fill:#292f33;}.cls-3{fill:#662113;}.cls-4{fill:#d99e82;}.cls-5{fill:#664500;}.cls-6{fill:#825d0e;}</style></defs><path class="cls-1" d="M24.05,27.32s1.37,1.64,2.73,10A18.28,18.28,0,0,1,27,40.05h9.77V11.5C32.38,8,26.37,7.31,19.09,9.74A69,69,0,0,1,12.94,6c-.72-.72-1.85-1.56-1.23.35a17.93,17.93,0,0,0,2.36,4.86c-3.44,2-4.52,4.68-8.56,13.34C2.42,31.17.85,33.32,1.7,35.84c1.13,3.34,5.32,5.6,8.85,3,1.92-1.4,2.24-3.92,6.22-6.23C20.43,32.58,24.05,31,24.05,27.32Z"/><path class="cls-2" d="M36.77,10.06c-8.34-5.71-21.65-4.54-20.09.18,9.6-1.86,15.86,1.54,20.09,7.17Z"/><path class="cls-2" d="M20.43,9.81c-2.88.23-7.16,1.6-9.3,4,0,0-.12-5.15,3.57-5.62,6.17-.78,5.81.37,5.81.37Z"/><path class="cls-1" d="M17.12,5.1c.56,1.16,4,1.79,5.06,6s-3.13,2.95-4.36.86A11.85,11.85,0,0,1,16,6.31C15.94,5.51,16,2.77,17.12,5.1Z"/><path class="cls-3" d="M17.36,6.89c1.11,1,2.45,2.47,2.65,4s-1.12,1-1.73-.37-.76-2.78-1.14-3.23S17.36,6.89,17.36,6.89Z"/><path class="cls-2" d="M17.71,19.57a1.25,1.25,0,1,1-1.25-1.24A1.25,1.25,0,0,1,17.71,19.57Z"/><path class="cls-3" d="M5,34c0,.89-.53,1.6-1.19,1.6S2.62,34.85,2.62,34s.53-1.59,1.18-1.59S5,33.08,5,34Z"/><path class="cls-4" d="M11.12,14s-.07,0-.11,0c-1.54,2-2.92,5.1-5.49,10.6C4.16,27.45,3.1,29.5,2.4,31.09c1.63.23,3.29-1.44,4-3.27A37.81,37.81,0,0,1,11.28,20C13,17.91,12.84,14.9,11.12,14Z"/><path class="cls-5" d="M29.92,2a7,7,0,0,1-4.05,3.73C25.05,4.41,21.81-.48,19.23.46,17,1.29,16.54,2.61,15.38,3s-2.35-.3-4.6.52c-2.57.94-1.9,6.77-1.66,8.33-1.85.49-3.89.69-5.5-.25C.7,9.92-1.31,12.7,1,14.89c3.69,3.46,10,4.56,19.14,1.21S33.42,7.86,34,2.84C34.38-.34,31-1.17,29.92,2Z"/><path class="cls-6" d="M19,2.68c-1.76.65-2,1.8-2.94,2.14s-1.88-.38-3.63.27c-2.35.85-1,7.54-1,7.54s2,1.67,7.34-.29,5.81-4.52,5.81-4.52S21.33,1.83,19,2.68Z"/><path class="cls-5" d="M10.15,9.1s2.63,1.17,7.26-.52S23.3,4.3,23.3,4.3L24,6.18s-1.39,2.64-5.88,4.28-7.27.52-7.27.52Z"/></svg>