<svg id="Layer_1" data-name="Layer 1" xmlns="http://www.w3.org/2000/svg" viewBox="0 0 49.13 47.72"><defs><style>.cls-1{fill:#ef9645;}.cls-2{fill:#fa743e;}.cls-3{fill:#ffdb5e;}.cls-4{fill:#664500;}.cls-5{fill:#825d0e;}</style></defs><path class="cls-1" d="M45.45,36.12c-.69-1-.31-2.47-.48-4.08a10.72,10.72,0,0,0-3.5-7.21L34,17.88a2,2,0,1,0-2.74,2.95l3.15,2.93,2.74,2.54s-.69.74-3.71-2.08l-10.22-9.5a2,2,0,1,0-2.74,2.94l9.66,9s-.73.69-.74.68L19.07,17.71a2,2,0,0,0-2.74,2.95l10.34,9.62S26,31,26,31.06l-8.92-8.3a2,2,0,1,0-2.74,2.95l9.48,8.82c.09.08-.5.9-.39,1l-6.83-6.35a2,2,0,0,0-2.74,2.94L25.05,42.49a10.62,10.62,0,0,0,6.07,2.92c.47.07,1.07.07,1.32.1a5.76,5.76,0,0,1,2.37.93c1.17.72,2.94,1,3.95-.06l3.45-3.69,3.19-3.42C46.42,38.19,46.23,37.26,45.45,36.12Z"/><path class="cls-2" d="M15.11,46.8a1,1,0,0,1-.71-.29,1,1,0,0,1,0-1.41L18,41.55A1,1,0,1,1,19.36,43l-3.55,3.55A1,1,0,0,1,15.11,46.8Zm6.74.92a1,1,0,0,1-.33,0,1,1,0,0,1-.61-1.28l1-2.77a1,1,0,0,1,1.89.66l-1,2.77A1,1,0,0,1,21.85,47.72Zm-7.67-7.66a1,1,0,0,1-.33-2l2.5-.88A1,1,0,0,1,17,39.12L14.52,40A1,1,0,0,1,14.18,40.06ZM43.64,18.29a1,1,0,0,1-.7-1.71L46.49,13a1,1,0,0,1,1.41,0,1,1,0,0,1,0,1.42L44.35,18A1,1,0,0,1,43.64,18.29Zm-4.16-1.7a1.26,1.26,0,0,1-.33-.05,1,1,0,0,1-.61-1.28l1-2.77a1,1,0,0,1,1.88.66l-1,2.77A1,1,0,0,1,39.48,16.59Zm6.14,5.78a1,1,0,0,1-.33-1.95l2.49-.88a1,1,0,1,1,.67,1.89L46,22.31A1,1,0,0,1,45.62,22.37Z"/><path class="cls-3" d="M48.54,35.6c-.66-1-.22-2.48-.34-4.1a10.72,10.72,0,0,0-3.26-7.33L37.71,17a2,2,0,0,0-2.83,2.85l3,3,2.65,2.63s-.71.72-3.64-2.2l-9.89-9.84a2,2,0,1,0-2.84,2.85l9.36,9.31s-.76.66-.77.65l-10-10A2,2,0,0,0,20,19.16l10,10s-.68.74-.66.76l-8.63-8.59a2,2,0,0,0-2.84,2.85L27,33.28c.09.08-.53.89-.42,1L20,27.69a2,2,0,0,0-2.83,2.85L27.93,41.27a10.65,10.65,0,0,0,6,3.13c.47.08,1.07.1,1.31.14a5.78,5.78,0,0,1,2.34,1c1.15.76,2.9,1.11,4,.07l3.58-3.58,3.3-3.3C49.43,37.7,49.28,36.76,48.54,35.6Z"/><path class="cls-4" d="M29.1,2.79a7.71,7.71,0,0,1-3.33,5c-1.23-1.21-6-5.58-8.46-3.9-2.19,1.46-2.31,3-3.43,3.74S11.3,8,9.11,9.43c-2.5,1.68-.25,7.72.41,9.31-1.84,1-4,1.76-5.93,1.17-3.55-1.06-5,2.43-1.91,4.16,4.84,2.72,11.8,2.25,20.7-3.73S34.36,8.1,33.67,2.59C33.23-.89,29.46-.9,29.1,2.79Z"/><path class="cls-5" d="M17.62,6.36C15.92,7.5,16,8.8,15,9.41s-2.09.09-3.8,1.23c-2.27,1.53.94,8.29.94,8.29s2.54,1.27,7.76-2.23,5-6.33,5-6.33S19.9,4.83,17.62,6.36Z"/><path class="cls-4" d="M9.89,15.51s3.11.56,7.6-2.45S22.64,7,22.64,7l1.23,1.83s-.8,3.18-5.16,6.1-7.6,2.46-7.6,2.46Z"/></svg>