<?xml version="1.0" encoding="utf-8"?>
<!-- Generator: Adobe Illustrator 25.2.3, SVG Export Plug-In . SVG Version: 6.00 Build 0)  -->
<svg version="1.1" id="Layer_1" xmlns="http://www.w3.org/2000/svg" xmlns:xlink="http://www.w3.org/1999/xlink" x="0px" y="0px"
	 viewBox="0 0 36.9 46.4" style="enable-background:new 0 0 36.9 46.4;" xml:space="preserve">
<style type="text/css">
	.st0{fill:#FFDB5E;}
	.st1{fill:#EE9547;}
	.st2{fill:#664500;}
	.st3{fill:#825D0E;}
</style>
<path class="st0" d="M36.9,28.3c0-0.5-0.1-1-0.3-1.4c-1.3-4.3-7.6-4-16.5-4.2c-1.5,0-0.6-1.8-0.1-5.7c0.3-2.5-1.3-6.4-4-6.4
	c-4.5,0-0.2,3.5-4.1,12.3c-2.1,4.7-6.9,2.1-6.9,6.8v10.7c0,1.8,0.2,3.6,2.8,3.9c2.5,0.3,1.9,2.1,5.5,2.1h18c1.8,0,3.3-1.5,3.3-3.3
	c0-0.8-0.3-1.5-0.7-2c1-0.6,1.7-1.6,1.7-2.9c0-0.8-0.3-1.5-0.7-2c1-0.6,1.7-1.6,1.7-2.9c0-0.9-0.4-1.7-1-2.3
	C36.4,30.3,36.9,29.4,36.9,28.3z"/>
<path class="st1" d="M25,31.7h8.6c1.2,0,2.3-0.6,2.9-1.6c0.2-0.4,0.1-1-0.3-1.2c-0.4-0.2-1-0.1-1.2,0.3c-0.3,0.5-0.8,0.8-1.4,0.8
	h-8.8c-0.9,0-1.6-0.7-1.6-1.6s0.7-1.6,1.6-1.6h5.9c0.5,0,0.9-0.4,0.9-0.9S31.1,25,30.6,25h-5.9c-1.8,0-3.3,1.5-3.3,3.3
	c0,1,0.5,1.9,1.2,2.5c-0.6,0.6-1,1.4-1,2.4c0,1,0.5,1.9,1.2,2.5c-0.6,0.6-1,1.4-1,2.4c0,1.1,0.6,2.1,1.4,2.7
	c-0.5,0.6-0.9,1.4-0.9,2.2c0,1.8,1.5,3.3,3.3,3.3h5.5c1.2,0,2.3-0.6,2.9-1.6c0.2-0.4,0.1-1-0.3-1.2c-0.4-0.2-1-0.1-1.2,0.3
	c-0.3,0.5-0.8,0.8-1.4,0.8h-5.5c-0.9,0-1.6-0.7-1.6-1.6s0.7-1.6,1.6-1.6h6.5c1.2,0,2.3-0.6,2.9-1.6c0.2-0.4,0.1-1-0.3-1.2
	c-0.4-0.3-1-0.1-1.2,0.3c-0.3,0.5-0.8,0.8-1.4,0.8h-7.1c-0.9,0-1.6-0.7-1.6-1.6c0-0.9,0.7-1.6,1.6-1.6h8.1c1.2,0,2.3-0.6,2.9-1.6
	c0.2-0.4,0.1-1-0.3-1.2c-0.4-0.2-1-0.1-1.2,0.3c-0.3,0.5-0.8,0.8-1.4,0.8H25c-0.9,0-1.6-0.7-1.6-1.6S24.1,31.7,25,31.7z"/>
<path class="st2" d="M29.9,4.6c-1.1,1.4-2.9,1.9-4.7,2.1c-0.3-1.4-1.8-6.7-4.3-6.7c-2.2,0.1-3,1.1-4.2,1.1c-1.2,0-2-1-4.2-0.9
	c-2.6,0.1-3.7,5.4-4,6.9C6.7,7,4.8,6.6,3.7,5.3C1.6,2.9-1,4.7,0.4,7.4c2.2,4.2,7.5,7,16.6,6.8c9.1-0.2,14.2-3.4,16.2-7.6
	C34.5,3.8,31.8,2.1,29.9,4.6z"/>
<path class="st3" d="M20,1.9c-1.7,0-2.3,1-3.2,1c-0.9,0-1.5-0.9-3.3-0.8c-2.3,0.1-3.1,6.4-3.1,6.4s1.3,2.1,6.6,1.9
	c5.3-0.1,6.5-2.3,6.5-2.3S22.3,1.8,20,1.9z"/>
<path class="st2" d="M10.2,5c0,0,2,1.8,6.6,1.7c4.6-0.1,6.5-2,6.5-2l0,1.9c0,0-2,1.9-6.5,2s-6.6-1.7-6.6-1.7L10.2,5z"/>
</svg>
