<svg id="Layer_1" data-name="Layer 1" xmlns="http://www.w3.org/2000/svg" viewBox="0 0 45.9 34.19"><defs><style>.cls-1{fill:#f5f8fa;}.cls-2{fill:#e1e8ed;}.cls-3{fill:#8899a6;}.cls-4{fill:#292f33;}.cls-5{fill:#664500;}.cls-6{fill:#825d0e;}</style></defs><ellipse class="cls-1" cx="13.75" cy="20.16" rx="7.95" ry="13.28"/><path class="cls-2" d="M13.75,34.19c-4.88,0-8.7-6.16-8.7-14s3.82-14,8.7-14,8.7,6.16,8.7,14S18.63,34.19,13.75,34.19Zm0-26.56c-4,0-7.2,5.62-7.2,12.53s3.23,12.53,7.2,12.53S21,27.07,21,20.16,17.72,7.63,13.75,7.63Z"/><circle class="cls-3" cx="11.52" cy="20.16" r="4.96"/><circle class="cls-4" cx="11.52" cy="20.16" r="3.57"/><circle class="cls-1" cx="12.83" cy="17.61" r="1.43"/><ellipse class="cls-1" cx="32.16" cy="20.16" rx="7.95" ry="13.28"/><path class="cls-2" d="M32.16,34.19c-4.88,0-8.71-6.16-8.71-14s3.83-14,8.71-14,8.7,6.16,8.7,14S37,34.19,32.16,34.19Zm0-26.56c-4,0-7.21,5.62-7.21,12.53s3.23,12.53,7.21,12.53,7.2-5.62,7.2-12.53S36.13,7.63,32.16,7.63Z"/><circle class="cls-3" cx="29.92" cy="20.16" r="4.96"/><circle class="cls-4" cx="29.92" cy="20.16" r="3.57"/><circle class="cls-1" cx="31.24" cy="17.61" r="1.43"/><path class="cls-5" d="M24.46,4.34a5.27,5.27,0,0,1-3.9,1.6C20.31,4.79,19.29.38,17.18.38c-1.85,0-2.49.83-3.45.83S12.13.38,10.28.38C8.17.38,7.15,4.79,6.9,5.94A5.79,5.79,0,0,1,3,4.34C1.4,2.3-.83,3.77.32,6,2,9.45,6.26,11.88,13.73,11.88S25.42,9.45,27.21,6C28.29,3.77,26.12,2.3,24.46,4.34Z"/><path class="cls-6" d="M16.41,1.92c-1.4,0-1.91.76-2.68.76s-1.28-.76-2.68-.76c-1.92,0-2.69,5.17-2.69,5.17s1,1.72,5.37,1.72S19.1,7.09,19.1,7.09,18.33,1.92,16.41,1.92Z"/><path class="cls-5" d="M8.36,4.22S10,5.75,13.73,5.75,19.1,4.22,19.1,4.22V5.75a8.41,8.41,0,0,1-5.37,1.53A8.41,8.41,0,0,1,8.36,5.75Z"/><path class="cls-5" d="M42.87,4A5.32,5.32,0,0,1,39,5.56C38.71,4.41,37.69,0,35.58,0c-1.85,0-2.49.83-3.44.83S30.54,0,28.69,0c-2.11,0-3.13,4.41-3.39,5.56A5.77,5.77,0,0,1,21.41,4c-1.6-2-3.84-.57-2.69,1.66,1.73,3.45,5.94,5.88,13.42,5.88S43.82,9.07,45.61,5.62C46.7,3.39,44.53,1.92,42.87,4Z"/><path class="cls-6" d="M34.82,1.53c-1.41,0-1.92.77-2.68.77s-1.28-.77-2.69-.77c-1.91,0-2.68,5.18-2.68,5.18s1,1.72,5.37,1.72S37.5,6.71,37.5,6.71,36.73,1.53,34.82,1.53Z"/><path class="cls-5" d="M26.77,3.83s1.6,1.54,5.37,1.54S37.5,3.83,37.5,3.83V5.37A8.36,8.36,0,0,1,32.14,6.9c-3.65,0-5.37-1.53-5.37-1.53Z"/></svg>