<svg id="Layer_1" data-name="Layer 1" xmlns="http://www.w3.org/2000/svg" viewBox="0 0 37.53 45"><defs><style>.cls-1{fill:#da2f47;}.cls-2{fill:#f5f8fa;}.cls-3{fill:#292f33;}.cls-4{fill:#fdd888;}.cls-5{fill:#e75a70;}.cls-6{fill:#664500;}.cls-7{fill:#825d0e;}</style></defs><path class="cls-1" d="M30.53,30c0,2.21-3,15-9,15h-8c-6,0-9-12.79-9-15V13a4,4,0,0,1,4-4h18a4,4,0,0,1,4,4Z"/><path class="cls-2" d="M17,18.17c2.14,2.34,2.72,5.51,1.29,7.07s-4.31.93-6.45-1.41-2.71-5.51-1.29-7.07S14.84,15.83,17,18.17Z"/><path class="cls-3" d="M18.46,21.71a2.42,2.42,0,0,1,0,2.83,1.33,1.33,0,0,1-2.2,0,2.45,2.45,0,0,1,0-2.83A1.33,1.33,0,0,1,18.46,21.71Z"/><path class="cls-2" d="M24.26,18.27c-1.83,2.34-2.32,5.51-1.1,7.07s3.68.93,5.5-1.41,2.32-5.51,1.1-7.07S26.08,15.93,24.26,18.27Z"/><ellipse class="cls-3" cx="24.81" cy="23.22" rx="1.56" ry="2"/><path class="cls-3" d="M23.42,20a2,2,0,0,1-1.57-3.23l4.67-6a2,2,0,1,1,3.15,2.46l-4.67,6A2,2,0,0,1,23.42,20Zm-4.67,0a2,2,0,0,1-1.58-.77l-4.67-6a2,2,0,1,1,3.16-2.46l4.67,6A2,2,0,0,1,20,19.58,2,2,0,0,1,18.75,20Z"/><path class="cls-4" d="M26.53,40a2,2,0,0,1-1.87-1.3,4.5,4.5,0,0,0-8.26,0,2,2,0,0,1-2.59,1.14,2,2,0,0,1-1.15-2.56,8.49,8.49,0,0,1,15.74,0,2,2,0,0,1-1.17,2.57A1.93,1.93,0,0,1,26.53,40Z"/><path class="cls-3" d="M21.09,31a7.44,7.44,0,0,1,7.05,4C31,40,31,30,30.25,29s-1.45,1.39-2.82.9C24.61,28.9,21.09,31,21.09,31Zm0,0s-5.89-.55-9.27,4c-3.7,5-3.7-5-2.78-6s1.91,1.73,3.71,1.24C16.45,29.24,21.09,31,21.09,31Z"/><path class="cls-5" d="M34.79,24a2.3,2.3,0,0,0-.26,0v0H20.68a3,3,0,0,0,0,6H34.53v0a2.3,2.3,0,0,0,.26,0,3,3,0,0,0,0-6Z"/><path class="cls-6" d="M32,5.13a7,7,0,0,1-5.08,2.12C26.56,5.71,25.19,0,22.45,0c-2.4,0-3.27,1.09-4.5,1.09S15.85,0,13.45,0C10.71,0,9.34,5.71,9,7.25,7.13,7.08,5.14,6.57,4,5.13,1.8,2.52-1,4.44.39,7.3,2.67,11.82,8.18,15,18,15s15.28-3.18,17.56-7.7C37,4.44,34.1,2.52,32,5.13Z"/><path class="cls-7" d="M21.45,2C19.58,2,19,3,18,3s-1.63-1-3.5-1C12,2,11,8.75,11,8.75S12.23,11,18,11s7-2.25,7-2.25S24,2,21.45,2Z"/><path class="cls-6" d="M11,5S13,7,18,7s7-2,7-2V7s-2.22,2-7,2-7-2-7-2Z"/></svg>