<svg id="Layer_1" data-name="Layer 1" xmlns="http://www.w3.org/2000/svg" viewBox="0 0 45.85 40.57"><defs><style>.cls-1{fill:#dd2e44;}.cls-2{fill:#fdcb58;}.cls-3{fill:#664500;}.cls-4{fill:#825d0e;}</style></defs><path class="cls-1" d="M35.77,18.36a9.86,9.86,0,0,0-17.88-5.73,9.85,9.85,0,0,0-17.62,8c1.37,8.51,10.83,17.49,17.62,20,6.78-2.47,16.24-11.45,17.61-20A9.76,9.76,0,0,0,35.77,18.36Z"/><path class="cls-2" d="M34.23,30.43,30.41,29,29,25.19a1,1,0,0,0-1.87,0L25.7,29l-3.82,1.41a1,1,0,0,0,0,1.88l3.82,1.42,1.42,3.82a1,1,0,0,0,1.87,0l1.42-3.82,3.82-1.42a1,1,0,0,0,.66-.94A1,1,0,0,0,34.23,30.43Zm-23-16-2.36-.87L8,11.18a1,1,0,0,0-1.87,0l-.88,2.37-2.36.87a1,1,0,0,0,0,1.88l2.36.88.88,2.36a1,1,0,0,0,1.87,0l.88-2.36,2.36-.88a1,1,0,0,0,0-1.88Z"/><path class="cls-3" d="M42.57,13.89a6.7,6.7,0,0,1-5.18-.34c.38-1.43,1.62-6.83-.69-8-2-1-3.22-.45-4.26-1S31.12,2.8,29.1,1.79c-2.32-1.15-5.87,3.1-6.78,4.27a6.86,6.86,0,0,1-3.4-3.92C18.2-1,15-.54,15,2.48c0,4.77,3.35,9.77,11.6,13.87s14.24,3.73,18.07.86C47.08,15.4,45.48,12.58,42.57,13.89Z"/><path class="cls-4" d="M35,6.84c-1.58-.79-2.54-.21-3.38-.63s-1-1.53-2.54-2.31c-2.11-1-5.79,4.23-5.79,4.23s.14,2.44,5,4.84,6.86,1,6.86,1S37.13,7.89,35,6.84Z"/><path class="cls-3" d="M24.89,5S25.8,7.52,30,9.59s6.75,1.25,6.75,1.25l-.84,1.69s-2.71.76-6.75-1.25-5.07-4.63-5.07-4.63Z"/></svg>