<svg id="Layer_1" data-name="Layer 1" xmlns="http://www.w3.org/2000/svg" viewBox="0 0 42.4 37.57"><defs><style>.cls-1{fill:#ffac33;}.cls-2{fill:#dd2e44;}.cls-3{fill:#ffcc4d;}.cls-4{fill:#a0041e;}.cls-5{fill:#664500;}.cls-6{fill:#825d0e;}</style></defs><path class="cls-1" d="M16,19.24,2,5.25c-.39-.39,1-1.81,1.41-1.42l14,14C17.77,18.22,16.16,19.44,16,19.24Z"/><path class="cls-2" d="M34,16.29a8.76,8.76,0,0,0-15.89-5.1A8.76,8.76,0,0,0,2.5,18.28C3.72,25.84,12.13,33.82,18.15,36c6-2.19,14.43-10.17,15.65-17.73A8.74,8.74,0,0,0,34,16.29Z"/><path class="cls-3" d="M34.49,27.56S30,23.11,28.08,23.11H22.42l-1.2,1.19V30c0,1.9,4.45,6.41,4.45,6.41a4.39,4.39,0,0,0,2.7,1.2,1.77,1.77,0,0,0,1.5-.77,2.83,2.83,0,0,0,.43-1.69,9.47,9.47,0,0,0-1.39-4.31,9.47,9.47,0,0,0,4.31,1.39,2.83,2.83,0,0,0,1.69-.42,1.83,1.83,0,0,0,.77-1.51A4.39,4.39,0,0,0,34.49,27.56Z"/><path class="cls-1" d="M31.41,34.34a1,1,0,0,1-.69-.31L17.34,20.63c-.4-.39,1-1.81,1.41-1.42l13.39,13.4a1,1,0,0,1,0,1.43A1.08,1.08,0,0,1,31.41,34.34Z"/><path class="cls-3" d="M0,2.92a1,1,0,0,1,.29-.7,1,1,0,0,1,1-.27L7.78,3.58a1,1,0,0,1,.76,1,1,1,0,0,1-.79,1c-.15,0-3.64.83-4,4.05a1,1,0,0,1-2,.14L0,3.18A1.09,1.09,0,0,1,0,2.92Z"/><path class="cls-4" d="M22,17.82a1,1,0,0,1-.91.93c-3.27.27-3.75,2.12-4.22,3.91l-.11.41a1,1,0,0,1-1.93-.53l.11-.39c.48-1.87,1.3-5,6-5.4a1,1,0,0,1,1.08.92A.38.38,0,0,1,22,17.82Z"/><path class="cls-5" d="M39.44,12.16a5.93,5.93,0,0,1-4.66-.24c.33-1.29,1.37-6.16-.72-7.16-1.84-.88-2.9-.37-3.84-.82s-1.21-1.6-3-2.48c-2.1-1-5.24,2.86-6,3.92A6.18,6.18,0,0,1,18,1.9c-.68-2.79-3.57-2.37-3.51.35.08,4.29,3.13,8.74,10.6,12.33s12.85,3.17,16.25.55C43.52,13.47,42,11,39.44,12.16Z"/><path class="cls-6" d="M32.56,5.92c-1.43-.68-2.28-.15-3-.52S28.64,4,27.21,3.35c-1.91-.91-5.15,3.88-5.15,3.88s.15,2.19,4.52,4.29,6.18.85,6.18.85S34.47,6.84,32.56,5.92Z"/><path class="cls-5" d="M23.43,4.36s.85,2.29,4.62,4.1,6.09,1,6.09,1L33.4,11s-2.43.71-6.08-1-4.62-4.1-4.62-4.1Z"/></svg>