<svg id="Layer_1" data-name="Layer 1" xmlns="http://www.w3.org/2000/svg" viewBox="0 0 36 38.96"><defs><style>.cls-1{fill:#bf6952;}.cls-2{fill:#f5f8fa;}.cls-3{fill:#292f33;}.cls-4{fill:#f2abba;}.cls-5{fill:#664500;}.cls-6{fill:#825d0e;}</style></defs><path class="cls-1" d="M33.54,26.16a8.14,8.14,0,0,0-3.73-8.72,5.59,5.59,0,0,0-.32-3.75,6.26,6.26,0,0,0-4.71-3.56,2.91,2.91,0,0,0,0-2.17c-1-3-5-1-8-5a5.71,5.71,0,0,0-2.88,5.49,21.81,21.81,0,0,0-3.8.94h0a3.71,3.71,0,0,0-2.32,3.44,3.66,3.66,0,0,0,.83,2.31L8,15.4H8a5.9,5.9,0,0,0-4,5.44,5.49,5.49,0,0,0,.82,2.88A8,8,0,0,0,0,31a8.12,8.12,0,0,0,8.24,8,31.58,31.58,0,0,0,9.54-1.66C20,38.34,23.47,39,28.67,39a7.32,7.32,0,0,0,4.87-12.8Z"/><ellipse class="cls-2" cx="13.5" cy="18.46" rx="3.5" ry="4.5"/><ellipse class="cls-2" cx="23.5" cy="18.46" rx="3.5" ry="4.5"/><ellipse class="cls-3" cx="14" cy="18.46" rx="2" ry="2.5"/><ellipse class="cls-3" cx="23" cy="18.46" rx="2" ry="2.5"/><path class="cls-3" d="M9.45,27.86A.57.57,0,0,1,10,27H28a.57.57,0,0,1,.55.9S26,33,19,33,9.45,27.86,9.45,27.86Z"/><path class="cls-4" d="M19,29c-2.77,0-5.16.92-6.29,2.26A11.45,11.45,0,0,0,19,33a11.45,11.45,0,0,0,6.29-1.74C24.16,29.88,21.77,29,19,29Z"/><path class="cls-5" d="M31.47,6.09a6.33,6.33,0,0,1-4.68,1.46C26.64,6.15,25.9,1,23.47.75c-2.13-.2-3,.7-4.08.6S17.62.21,15.49,0C13.06-.22,11.38,4.73,11,6.07a6.46,6.46,0,0,1-4.32-2.3C5,1.28,2.27,2.74,3.31,5.4,5,9.59,9.58,12.87,18.24,13.68s13.81-1.56,16.2-5.38C36,5.89,33.59,4,31.47,6.09Z"/><path class="cls-6" d="M22.42,2.44c-1.66-.15-2.3.68-3.19.6s-1.36-1-3-1.18c-2.21-.2-3.66,5.7-3.66,5.7s.95,2.1,6,2.57S25,8.72,25,8.72,24.63,2.65,22.42,2.44Z"/><path class="cls-5" d="M12.86,4.23s1.67,1.95,6,2.36,6.37-1.2,6.37-1.2l-.16,1.77S23,8.75,18.74,8.36,12.7,6,12.7,6Z"/></svg>