<svg id="Layer_1" data-name="Layer 1" xmlns="http://www.w3.org/2000/svg" viewBox="0 0 36 44.54"><defs><style>.cls-1{fill:#ffcc4d;}.cls-2{fill:#664500;}.cls-3{fill:#825d0e;}.cls-4{fill:#dd2e44;}</style></defs><path class="cls-1" d="M36,18A18,18,0,1,1,18,0,18,18,0,0,1,36,18" transform="translate(0 8.54)"/><path class="cls-2" d="M18,21.85A34.88,34.88,0,0,1,10.63,21C10.07,20.92,9,21,9,22.67,9,25.94,12.76,30,18,30s9-4.1,9-7.37C27,21,25.92,20.92,25.37,21a34.88,34.88,0,0,1-7.37.82" transform="translate(0 8.54)"/><path class="cls-2" d="M32-3.41a7,7,0,0,1-5.08,2.12c-.31-1.54-1.68-7.25-4.42-7.25-2.4,0-3.27,1.09-4.5,1.09s-2.1-1.09-4.5-1.09c-2.74,0-4.11,5.71-4.42,7.25C7.18-1.46,5.19-2,4-3.41,1.85-6-1-4.1.44-1.24,2.72,3.28,8.23,6.46,18,6.46s15.28-3.18,17.56-7.7C37-4.1,34.15-6,32-3.41Z" transform="translate(0 8.54)"/><path class="cls-3" d="M21.5-6.54c-1.87,0-2.5,1-3.5,1s-1.63-1-3.5-1C12-6.54,11,.21,11,.21s1.28,2.25,7,2.25S25,.21,25,.21,24-6.54,21.5-6.54Z" transform="translate(0 8.54)"/><path class="cls-2" d="M11-3.54s2.07,2,7,2,7-2,7-2v2s-2.22,2-7,2-7-2-7-2Z" transform="translate(0 8.54)"/><path class="cls-4" d="M16.65,3.28a4.66,4.66,0,0,0-8.88.26A4.67,4.67,0,0,0,.69,8.91a5,5,0,0,0,.47,1c2,3.58,7.59,6.1,11,6.13,2.63-2.17,5.44-7.66,4.71-11.68A4.32,4.32,0,0,0,16.65,3.28Zm2.7,0a4.67,4.67,0,0,1,8.89.26,4.66,4.66,0,0,1,7.07,5.37,4.5,4.5,0,0,1-.47,1c-2,3.58-7.59,6.1-11,6.13-2.63-2.17-5.44-7.66-4.71-11.68A4.86,4.86,0,0,1,19.35,3.28Z" transform="translate(0 8.54)"/></svg>