<svg id="Layer_1" data-name="Layer 1" xmlns="http://www.w3.org/2000/svg" viewBox="0 0 43.05 41.41"><defs><style>.cls-1{fill:#ffcc4d;}.cls-2{fill:#664500;}.cls-3{fill:#825d0e;}</style></defs><path class="cls-1" d="M39.53,23.41a18,18,0,1,1-18-18,18,18,0,0,1,18,18"/><path class="cls-2" d="M20.84,23a.5.5,0,0,0-.61,0,6.66,6.66,0,0,1-3.7.9,6.66,6.66,0,0,1-3.7-.9.5.5,0,0,0-.76.61c.06.13,1.5,3.29,4.46,3.29s4.39-3.16,4.45-3.29A.48.48,0,0,0,20.84,23Zm10,0a.5.5,0,0,0-.61,0,6.66,6.66,0,0,1-3.7.9,6.66,6.66,0,0,1-3.7-.9.5.5,0,0,0-.76.61c.06.13,1.5,3.29,4.46,3.29s4.39-3.16,4.45-3.29A.48.48,0,0,0,30.84,23ZM25.53,33.41h-8a1,1,0,1,1,0-2h8a1,1,0,0,1,0,2Zm-16-14a1,1,0,0,1-1-1,1,1,0,0,1,1-1,8.41,8.41,0,0,0,6.21-3.6,1,1,0,1,1,1.6,1.2A10.43,10.43,0,0,1,9.53,19.41Zm24,0a10.41,10.41,0,0,1-7.8-4.4,1,1,0,0,1,.2-1.4,1,1,0,0,1,1.4.2,8.43,8.43,0,0,0,6.2,3.6,1,1,0,0,1,1,1A1,1,0,0,1,33.53,19.41Z"/><path class="cls-2" d="M38.3,6.2c-1.4,1.7-3.8,2.4-6.1,2.5-.4-1.8-2-8.7-5.3-8.7C24,0,23,1.3,21.5,1.3S19,0,16.1,0c-3.3,0-4.9,6.9-5.3,8.7-2.2-.2-4.6-.8-6.1-2.5C2.2,3-1.3,5.3.5,8.8c2.7,5.4,9.3,9.2,21,9.2s18.3-3.8,21.1-9.2C44.3,5.3,40.9,3,38.3,6.2Z"/><path class="cls-3" d="M25.7,2.4c-2.2,0-3,1.2-4.2,1.2s-2-1.2-4.2-1.2c-3,0-4.2,8.1-4.2,8.1s1.5,2.7,8.4,2.7,8.4-2.7,8.4-2.7S28.7,2.4,25.7,2.4Z"/><path class="cls-2" d="M13.1,6s2.5,2.4,8.4,2.4S29.9,6,29.9,6V8.4s-2.7,2.4-8.4,2.4-8.4-2.4-8.4-2.4Z"/></svg>