<svg id="Layer_1" data-name="Layer 1" xmlns="http://www.w3.org/2000/svg" viewBox="0 0 36 43.5"><defs><style>.cls-1{fill:#ffcc4d;}.cls-2{fill:#e75a70;}.cls-3{fill:#f18f26;}.cls-4{fill:#fee7b8;}.cls-5{fill:#292f33;}.cls-6{fill:#f5f8fa;}.cls-7{fill:#664500;}.cls-8{fill:#825d0e;}.cls-9{fill:#dd2e44;}</style></defs><path class="cls-1" d="M35.73,19.93A18.07,18.07,0,0,0,34,13S37,4,35,.3C34.33-.95,27.6,2,25,4a35.48,35.48,0,0,0-7-1,35.48,35.48,0,0,0-7,1C8.4,2,1.67-.95,1,.3-1,4,2,13,2,13A18.07,18.07,0,0,0,.27,19.93,15,15,0,0,0,1,27a22.54,22.54,0,0,0,5,5c4,3,10,4,12,4s8-1,12-4a22.54,22.54,0,0,0,5-5A15,15,0,0,0,35.73,19.93Z" transform="translate(0 7.5)"/><path class="cls-2" d="M18,19.5c3,0,3,.5,3,1.5s-1.5,3-3,3-3-2-3-3S15,19.5,18,19.5Z" transform="translate(0 7.5)"/><path class="cls-3" d="M2,3c.45-1.34,5.64,1,6.64,2C8.64,5,4,8,3,11,3,11,1,6,2,3ZM34,3c-.45-1.34-5.64,1-6.64,2,0,0,4.64,3,5.64,6C33,11,35,6,34,3Z" transform="translate(0 7.5)"/><path class="cls-1" d="M4.93,5.6C4.93,4.19,11,7,10,8S8,9.6,7,10.6,4.93,6.6,4.93,5.6Zm26.14,0C31.07,4.19,25,7,26,8s2,1.6,3,2.6S31.07,6.6,31.07,5.6Z" transform="translate(0 7.5)"/><path class="cls-4" d="M.7,25a.51.51,0,0,1-.39-.19.49.49,0,0,1,.08-.7C.55,24,4.41,21,11,21.5a.5.5,0,0,1,.46.54.49.49,0,0,1-.54.46A15.14,15.14,0,0,0,1,24.89.51.51,0,0,1,.7,25Zm8.87-4.66-.15,0A16.5,16.5,0,0,0,.64,20a.5.5,0,0,1-.29-1,17.39,17.39,0,0,1,9.37.34.51.51,0,0,1,.33.63A.51.51,0,0,1,9.57,20.34ZM35.3,25a.51.51,0,0,0,.39-.19.49.49,0,0,0-.08-.7C35.45,24,31.59,21,25,21.5a.5.5,0,0,0-.46.54.49.49,0,0,0,.54.46,15.14,15.14,0,0,1,10,2.39A.51.51,0,0,0,35.3,25Zm-8.87-4.66.15,0A16.5,16.5,0,0,1,35.36,20a.5.5,0,0,0,.29-1,17.39,17.39,0,0,0-9.37.34.5.5,0,0,0,.15,1Z" transform="translate(0 7.5)"/><path class="cls-5" d="M28,24.19A35.25,35.25,0,0,1,18,26,35.25,35.25,0,0,1,8,24.19c-1-.19-1.09,1.07-.54,2.94S11,33,18,33s10-4,10.56-5.87S29,24,28,24.19Z" transform="translate(0 7.5)"/><path class="cls-6" d="M8,25a31,31,0,0,0,10,2,31,31,0,0,0,10-2s-.5,3-1.5,3A1.85,1.85,0,0,1,25,27s-4,2-7,2-7-2-7-2a1.85,1.85,0,0,1-1.5,1C8.5,28,8,25,8,25Z" transform="translate(0 7.5)"/><path class="cls-7" d="M32-2.37A7,7,0,0,1,26.92-.25C26.61-1.79,25.24-7.5,22.5-7.5c-2.4,0-3.27,1.09-4.5,1.09S15.9-7.5,13.5-7.5c-2.74,0-4.11,5.71-4.42,7.25C7.18-.42,5.19-.93,4-2.37,1.85-5-1-3.06.44-.2,2.72,4.32,8.23,7.5,18,7.5S33.28,4.32,35.56-.2C37-3.06,34.15-5,32-2.37Z" transform="translate(0 7.5)"/><path class="cls-8" d="M21.5-5.5c-1.87,0-2.5,1-3.5,1s-1.63-1-3.5-1C12-5.5,11,1.25,11,1.25S12.28,3.5,18,3.5s7-2.25,7-2.25S24-5.5,21.5-5.5Z" transform="translate(0 7.5)"/><path class="cls-7" d="M11-2.5s2.07,2,7,2,7-2,7-2v2s-2.22,2-7,2-7-2-7-2Z" transform="translate(0 7.5)"/><path class="cls-9" d="M16.23,5.12a4.67,4.67,0,0,0-8.89.25A4.66,4.66,0,0,0,.27,10.75a4.43,4.43,0,0,0,.47.95c2,3.59,7.59,6.11,11,6.14,2.64-2.17,5.45-7.67,4.72-11.68A5.38,5.38,0,0,0,16.23,5.12Zm3.54,0a4.67,4.67,0,0,1,8.89.25,4.66,4.66,0,0,1,7.07,5.38,4.43,4.43,0,0,1-.47.95c-1.95,3.59-7.59,6.11-11,6.14-2.64-2.17-5.45-7.67-4.72-11.68A5.38,5.38,0,0,1,19.77,5.12Z" transform="translate(0 7.5)"/></svg>