<svg id="Layer_1" data-name="Layer 1" xmlns="http://www.w3.org/2000/svg" viewBox="0 0 44.96 43.54"><defs><style>.cls-1{fill:#50a5e6;}.cls-2{fill:#1c6399;}.cls-3{fill:#f9ca55;}.cls-4{fill:#ffdc5d;}.cls-5{fill:#664500;}.cls-6{fill:#825d0e;}</style></defs><path class="cls-1" d="M34.46,29.54c-3,0-6.69,7.09-7,10-.42,3.91,2,4,2,4h11v-10S37,29.54,34.46,29.54Z"/><ellipse class="cls-2" cx="32.03" cy="36.03" rx="5.85" ry="1.64" transform="translate(-15.18 45.76) rotate(-60)"/><path class="cls-3" d="M24.55,7.54a2.13,2.13,0,0,1,2.13,2.14c0,.79.67,10.82.67,10.82l-4.94,5V9.68A2.14,2.14,0,0,1,24.55,7.54Z"/><path class="cls-4" d="M23.34,11.86a1.9,1.9,0,1,1,3.8,0s.54,5.94,1.19,9.37a15,15,0,0,1,1.26,6.25c.06.4,5.63,5,5.63,5a16.48,16.48,0,0,1-4.76,8.15l-3.52-2.92a5.58,5.58,0,0,1-4.46-4.26C22.48,30.47,23.34,11.86,23.34,11.86Z"/><path class="cls-1" d="M10.46,29.54c3,0,6.69,7.09,7,10,.42,3.91-2,4-2,4h-11v-10S7.9,29.54,10.46,29.54Z"/><ellipse class="cls-2" cx="12.89" cy="36.03" rx="1.64" ry="5.85" transform="translate(-16.29 11.27) rotate(-30)"/><path class="cls-3" d="M20.52,7.55a2.11,2.11,0,0,0-2.33,2.1C18.19,10.43,18,20,18,20l4.36,5.57.06-15.77A2.2,2.2,0,0,0,20.52,7.55Z"/><path class="cls-4" d="M21.59,11.86a1.91,1.91,0,1,0-3.81,0s-.54,5.94-1.19,9.37a15,15,0,0,0-1.26,6.25c-.06.4-5.63,5-5.63,5a16.48,16.48,0,0,0,4.76,8.15L18,37.72a5.58,5.58,0,0,0,4.46-4.26C22.44,30.47,21.59,11.86,21.59,11.86Z"/><path class="cls-3" d="M22.42,33.36a.74.74,0,0,1-.75-.75V10.33a.75.75,0,1,1,1.5,0V32.61A.75.75,0,0,1,22.42,33.36Z"/><path class="cls-5" d="M40,6.42c-1.49,1.81-4,2.51-6.36,2.66C33.26,7.15,31.55,0,28.12,0c-3,0-4.1,1.37-5.64,1.37S19.85,0,16.85,0c-3.44,0-5.15,7.15-5.54,9.08C8.93,8.87,6.44,8.23,5,6.42,2.25,3.16-1.31,5.56.49,9.14c2.85,5.66,9.76,9.65,22,9.65s19.14-4,22-9.65C46.28,5.56,42.71,3.16,40,6.42Z"/><path class="cls-6" d="M26.86,2.5c-2.34,0-3.13,1.26-4.38,1.26s-2-1.26-4.38-1.26C15,2.5,13.71,11,13.71,11s1.61,2.82,8.77,2.82S31.25,11,31.25,11,30,2.5,26.86,2.5Z"/><path class="cls-5" d="M13.71,6.26s2.6,2.51,8.77,2.51,8.77-2.51,8.77-2.51V8.77s-2.78,2.5-8.77,2.5-8.77-2.5-8.77-2.5Z"/></svg>