<svg id="Layer_1" data-name="Layer 1" xmlns="http://www.w3.org/2000/svg" viewBox="0 0 36.42 35.29"><defs><style>.cls-1{fill:#929497;}.cls-2{fill:#ccd6dc;}.cls-3{fill:#f19020;}.cls-4{fill:#faaa35;}.cls-5{fill:#e18524;}.cls-6{fill:#e5922e;}.cls-7{fill:#d17a28;}.cls-8{fill:#ffd882;}.cls-9{fill:#664500;}.cls-10{fill:#825d0e;}</style></defs><ellipse class="cls-1" cx="18.42" cy="25.29" rx="18" ry="10"/><ellipse class="cls-2" cx="18.42" cy="23.54" rx="18" ry="10"/><path class="cls-3" d="M32.42,21.74c0,4.29-6.26,7.78-14,7.78s-14-3.49-14-7.78S10.69,14,18.42,14,32.42,17.44,32.42,21.74Z"/><path class="cls-4" d="M32.42,19.59c0,4.29-6.26,7.77-14,7.77s-14-3.48-14-7.77,6.27-7.78,14-7.78S32.42,15.29,32.42,19.59Z"/><path class="cls-3" d="M32.42,17.43c0,4.3-6.26,7.78-14,7.78s-14-3.48-14-7.78,6.27-7.78,14-7.78S32.42,13.14,32.42,17.43Z"/><path class="cls-4" d="M32.42,15.28c0,4.29-6.26,7.78-14,7.78s-14-3.49-14-7.78,6.27-7.78,14-7.78S32.42,11,32.42,15.28Z"/><path class="cls-3" d="M32.42,13.12c0,4.3-6.26,7.78-14,7.78s-14-3.48-14-7.78,6.27-7.77,14-7.77S32.42,8.83,32.42,13.12Z"/><path class="cls-5" d="M28.74,24.84A14.41,14.41,0,0,1,26.31,26c.12.56.47.85.87.85.6,0,1.32-.65,1.56-2"/><path class="cls-6" d="M28.83,22.64a14.8,14.8,0,0,1-2.59,1.24c0,.71,0,1.27,0,1.7a1.91,1.91,0,0,0,0,.43,14.41,14.41,0,0,0,2.43-1.17,6.18,6.18,0,0,0,.08-1V22.64"/><path class="cls-5" d="M28.83,20.48a14.48,14.48,0,0,1-2.62,1.26c0,.84,0,1.55,0,2.14a14.36,14.36,0,0,0,2.58-1.24c0-.83,0-1.55,0-2.16"/><path class="cls-6" d="M28.86,18.3,26.2,19.59c0,.79,0,1.51,0,2.15a14.92,14.92,0,0,0,2.63-1.26c0-1.4,0-2.18,0-2.18"/><path class="cls-7" d="M15.77,7.7c-4-1.21-5.65-.59-5.39,2.53.07.81-1,2.15-2.15,2.93-2.59,1.8-1.48,4.81,3,2.59,2.22-1.11,5.46-1,9.39.17,3.3,1,5.35,2.18,5.62,3.66a10.72,10.72,0,0,0,2.66-1.28A7.43,7.43,0,0,0,25.46,15c-3.63-1.59-.13-3.88,2.59-4.44,2.46-.51,0-2.36-3.7-2.29S21.55,9.47,15.77,7.7Z"/><path class="cls-4" d="M22.55,9.92s.1,1.24-.32,1.48l-3,1.74a1.72,1.72,0,0,1-1.53,0l-3-1.74c-.42-.24-.32-1.51-.32-1.51Z"/><path class="cls-8" d="M22.23,9.46a.53.53,0,0,1,.32.46.56.56,0,0,1-.32.41l-3,1.73a1.72,1.72,0,0,1-1.53,0l-3-1.73a.54.54,0,0,1-.32-.44.54.54,0,0,1,.32-.43l3-1.74a1.72,1.72,0,0,1,1.53,0Z"/><path class="cls-9" d="M32,5.13a7,7,0,0,1-5.08,2.12C26.56,5.71,25.19,0,22.45,0c-2.4,0-3.27,1.09-4.5,1.09S15.85,0,13.45,0C10.71,0,9.34,5.71,9,7.25,7.13,7.08,5.14,6.57,4,5.13,1.8,2.52-1,4.44.39,7.3,2.67,11.82,8.18,15,18,15s15.28-3.18,17.56-7.7C37,4.44,34.1,2.52,32,5.13Z"/><path class="cls-10" d="M21.45,2C19.58,2,19,3,18,3s-1.63-1-3.5-1C12,2,11,8.75,11,8.75S12.23,11,18,11s7-2.25,7-2.25S24,2,21.45,2Z"/><path class="cls-9" d="M11,5S13,7,18,7s7-2,7-2V7s-2.22,2-7,2-7-2-7-2Z"/></svg>