<svg id="Layer_1" data-name="Layer 1" xmlns="http://www.w3.org/2000/svg" viewBox="0 0 34.02 34.58"><defs><style>.cls-1{fill:#f4900c;}.cls-2{fill:#ffac33;}.cls-3{fill:#ffd983;}.cls-4{fill:#77b255;}.cls-5{fill:#ffcc4d;}.cls-6{fill:#be1931;}.cls-7{fill:#664500;}.cls-8{fill:#825d0e;}</style></defs><path class="cls-1" d="M34,21.71,0,21.2l0,2.62A2,2,0,0,0,1.1,25.45L8,29.68l6.91,4.23a6.06,6.06,0,0,0,5.53,0c1.38-.85.69-1.27,2.07-2.12s2.07-.42,3.45-1.26l6.91-4.23A2.1,2.1,0,0,0,34,24.61Z"/><path class="cls-2" d="M32.87,19.92S2.48,18.23,1.1,19.07a1.85,1.85,0,0,0,0,3.38L8,26.68l6.91,4.23a6.06,6.06,0,0,0,5.53,0c1.38-.85.69-1.27,2.07-2.11s2.07-.43,3.45-1.27l6.91-4.23C34.4,22.37,34.4,20.85,32.87,19.92Z"/><path class="cls-3" d="M9.22,25.84l7.07,4.23a2.94,2.94,0,0,0,2.83,0A7.89,7.89,0,0,0,21.24,28Z"/><path class="cls-4" d="M32.74,19.76C30.8,17.17,6,15.35,2.16,19c-.78.74-2.26,2.22-.69,4.44.69,1.16,2.12,1.92,2.31,1.56a2.72,2.72,0,0,1,2.65-1.5c-.07.17.64,3.2.56,3.27-.92.79,1,3.52,3.25,2.06.56,1.11,4,3.85,6.3.11.47.84,5.36,2.12,6.72-1.77a1.62,1.62,0,0,1,0,.2c-.09.35.73.65,1.55.36,1.39-.49,3.4-1.69,3.75-3a2.18,2.18,0,0,1,2.31.86,1.24,1.24,0,0,0,1.67,0A4.84,4.84,0,0,0,32.74,19.76Z"/><path class="cls-5" d="M30,26.24c0,.53-.9,1-2,1H6c-1.1,0-2-.43-2-1V19.69H30Z"/><path class="cls-6" d="M32.31,21.18c0,2.77-4.58,5-10.24,5s-10.24-2.25-10.24-5,4.58-5,10.24-5S32.31,18.41,32.31,21.18Z"/><path class="cls-1" d="M34,15.71,0,15.2v2.62H0A2,2,0,0,0,1.1,19.45L8,23.68l6.91,4.23a6.06,6.06,0,0,0,5.53,0c1.38-.85.69-1.27,2.07-2.12s2.07-.42,3.45-1.26l6.91-4.23A2.1,2.1,0,0,0,34,18.61h0Z"/><path class="cls-2" d="M32.87,13.92,19.06,5.46a5.83,5.83,0,0,0-5.53,0L6.62,9.69c-1.38.85-.69,1.27-2.07,2.11s-2.07.43-3.45,1.27a1.85,1.85,0,0,0,0,3.38l13.81,8.46a6.06,6.06,0,0,0,5.53,0c1.38-.85.69-1.27,2.07-2.12s2.07-.42,3.45-1.26l6.91-4.23C34.4,16.37,34.4,14.85,32.87,13.92Z"/><path class="cls-3" d="M31.85,14.76,17.71,6.31a3.15,3.15,0,0,0-2.83,0l-7,4.16c-1.2.72-1,1.46-2.23,2.18s-2.34.55-3.54,1.27c-1.41.84,0,1.69,0,1.69l14.14,8.45a2.91,2.91,0,0,0,2.83,0c1.2-.71.93-1.39,2.12-2.11s2.45-.62,3.64-1.33l7-4.17S33.17,15.55,31.85,14.76Z"/><path class="cls-7" d="M28.1,4.07a5.62,5.62,0,0,1-4,1.69C23.82,4.54,22.73,0,20.55,0,18.65,0,18,.87,17,.87S15.31,0,13.41,0c-2.18,0-3.27,4.54-3.52,5.76a5.76,5.76,0,0,1-4-1.69C4.15,2,1.89,3.53,3,5.8c1.81,3.59,6.19,6.11,14,6.11s12.14-2.52,14-6.11C32.07,3.53,29.81,2,28.1,4.07Z"/><path class="cls-8" d="M19.76,1.59c-1.49,0-2,.79-2.78.79s-1.3-.79-2.78-.79c-2,0-2.78,5.36-2.78,5.36s1,1.79,5.56,1.79S22.54,7,22.54,7,21.74,1.59,19.76,1.59Z"/><path class="cls-7" d="M11.42,4S13.06,5.56,17,5.56,22.54,4,22.54,4V5.56S20.78,7.15,17,7.15s-5.56-1.59-5.56-1.59Z"/></svg>