<svg id="Layer_1" data-name="Layer 1" xmlns="http://www.w3.org/2000/svg" viewBox="0 0 35.9 45.2"><defs><style>.cls-1{fill:#ffcc4d;}.cls-2{fill:#664500;}.cls-3{fill:#f4900c;}.cls-4{fill:#825d0e;}</style></defs><path class="cls-1" d="M35,26.2a17,17,0,1,1-17-17,17,17,0,0,1,17,17"/><ellipse class="cls-2" cx="17.95" cy="28.7" rx="7" ry="7.5"/><path class="cls-3" d="M22.42,36.58A1.08,1.08,0,1,0,21,35l-4.15,3.87c-.06-.21-.45-.74-.55-1L22,32.57A1.08,1.08,0,1,0,20.56,31l-5.41,5-.6-.7,6.28-5.85a1.08,1.08,0,1,0-1.46-1.56L13.1,33.79,12.33,33l5.87-5.47A1.08,1.08,0,1,0,16.74,26l-6.2,5.78-.5.46-.22.21s-.54.74-1.09.18l1.85-4.16a1.22,1.22,0,0,0-2.15-1.16L6.76,30.08A26.3,26.3,0,0,1,4.6,33.24a7.33,7.33,0,0,0,10.67,10l.45-.42Z"/><path class="cls-2" d="M11,15.28a7.73,7.73,0,0,0-3.56,2,1,1,0,0,0,.09,1.42,1,1,0,0,0,1.41-.09,6.19,6.19,0,0,1,5.81-1.5,1,1,0,1,0,.4-2A9,9,0,0,0,11,15.28Zm14,0a8.88,8.88,0,0,0-4.15-.09,1,1,0,0,0,.4,2A6.19,6.19,0,0,1,27,18.66a1,1,0,0,0,1.5-1.33A7.66,7.66,0,0,0,24.93,15.29Z"/><path class="cls-2" d="M32,5.13a7,7,0,0,1-5.08,2.12C26.56,5.71,25.19,0,22.45,0c-2.4,0-3.27,1.09-4.5,1.09S15.85,0,13.45,0C10.71,0,9.34,5.71,9,7.25,7.13,7.08,5.14,6.57,4,5.13,1.8,2.52-1,4.44.39,7.3,2.67,11.82,8.18,15,18,15s15.28-3.18,17.56-7.7C37,4.44,34.1,2.52,32,5.13Z"/><path class="cls-4" d="M21.45,2C19.58,2,19,3,18,3s-1.63-1-3.5-1C12,2,11,8.75,11,8.75S12.23,11,18,11s7-2.25,7-2.25S24,2,21.45,2Z"/><path class="cls-2" d="M11,5S13,7,18,7s7-2,7-2V7s-2.22,2-7,2-7-2-7-2Z"/></svg>