<svg id="Layer_1" data-name="Layer 1" xmlns="http://www.w3.org/2000/svg" viewBox="0 0 42.6 41.05"><defs><style>.cls-1{fill:#ffcc4d;}.cls-2{fill:#664500;}.cls-3{fill:#e2a62d;}.cls-4{fill:#3b88c3;}.cls-5{fill:#88c9f9;}.cls-6{fill:#269;}.cls-7{fill:#55acee;}.cls-8{fill:#ea596e;}.cls-9{fill:#77b255;}.cls-10{fill:#825d0e;}</style></defs><circle class="cls-1" cx="23.6" cy="24.05" r="17"/><ellipse class="cls-2" cx="24.6" cy="31.05" rx="2" ry="2.5"/><path class="cls-2" d="M14.71,26.43a1,1,0,0,1-.53-.15,1,1,0,0,1-.31-1.38,7.16,7.16,0,0,1,7.69-3,1,1,0,0,1-.48,1.94A5.19,5.19,0,0,0,15.56,26,1,1,0,0,1,14.71,26.43Zm12-3.74a1,1,0,0,1-.77-.37,1,1,0,0,1,.14-1.4,7.15,7.15,0,0,1,8.22-.65A1,1,0,0,1,33.2,22a5.16,5.16,0,0,0-5.88.5A1,1,0,0,1,26.68,22.69Z"/><path class="cls-3" d="M20,36.32a.76.76,0,0,1-.21,0,.74.74,0,0,1-.52-.92,4.78,4.78,0,0,0-.49-4.09,2.63,2.63,0,0,0-1.94-1.18.75.75,0,0,1,.09-1.49A4.09,4.09,0,0,1,20,30.42a6.27,6.27,0,0,1,.71,5.36A.76.76,0,0,1,20,36.32Zm11-3.06a.78.78,0,0,1-.41-.12,4.19,4.19,0,0,1-1.79-3.7,4.67,4.67,0,0,1,2-3.87.75.75,0,0,1,1,.25.74.74,0,0,1-.25,1,3.19,3.19,0,0,0-1.26,2.62,2.75,2.75,0,0,0,1.12,2.42A.75.75,0,0,1,31,33.26Z"/><path class="cls-4" d="M36.5,34.28,25.93,33c-1.13-.11-3.12-.12-3-1.91.1-1.62,2-1.37,3.48-1.16L37,31.69Z"/><path class="cls-5" d="M37,31.69,32.81,31c-.5-.08-.94.65-1,1.43s.23,1.3.73,1.41l4.14.51Z"/><path class="cls-4" d="M41.52,31.39,38.9,33.8l-4.69-5.1,2.62-2.41a3.37,3.37,0,0,1,4.75.2l.14.15A3.37,3.37,0,0,1,41.52,31.39Z"/><ellipse class="cls-5" cx="36.55" cy="31.25" rx="2.77" ry="3.46" transform="translate(-11.51 32.99) rotate(-42.6)"/><ellipse class="cls-6" cx="36.55" cy="31.25" rx="1.39" ry="2.08" transform="translate(-11.51 32.99) rotate(-42.6)"/><circle class="cls-7" cx="9.1" cy="38.55" r="1.5"/><circle class="cls-7" cx="35.6" cy="7.05" r="2"/><path class="cls-8" d="M11.46,34.3,9.13,28.68,7,34.72ZM32.6,10.05l-4,1,1-4Z"/><path class="cls-9" d="M38.6,18.05l4-5-3-2Z"/><path class="cls-2" d="M23.5,2.4a6.38,6.38,0,0,1-2.59,4.29c-1.06-1-5.14-4.43-7.15-2.95C12,5,11.94,6.3,11,7s-2.13.33-3.9,1.62c-2,1.48.06,6.42.66,7.71a6.61,6.61,0,0,1-4.88,1.18c-3-.76-4,2.19-1.45,3.51,4.11,2.1,9.87,1.47,17.06-3.79S28.05,6.63,27.29,2.08C26.81-.8,23.68-.68,23.5,2.4Z"/><path class="cls-10" d="M14.1,5.75c-1.37,1-1.3,2.08-2,2.62S10.33,8.51,9,9.52C7.12,10.86,10,16.36,10,16.36s2.15,1,6.35-2.11,3.94-5.42,3.94-5.42S15.94,4.4,14.1,5.75Z"/><path class="cls-2" d="M8,13.61s2.6.35,6.22-2.3,4.07-5.24,4.07-5.24l1.08,1.47s-.56,2.66-4.07,5.24-6.23,2.3-6.23,2.3Z"/></svg>