<svg id="Layer_1" data-name="Layer 1" xmlns="http://www.w3.org/2000/svg" viewBox="0 0 36 42.56"><defs><style>.cls-1{fill:#ffcc4d;}.cls-2{fill:#664500;}.cls-3{fill:#ffac33;}.cls-4{fill:#825d0e;}.cls-5{fill:#dd2e44;}</style></defs><circle class="cls-1" cx="18" cy="24.56" r="18"/><path class="cls-2" d="M16,23.52a1,1,0,0,1-.95-.68c-.2-.6-1-2.32-2.05-2.32S11.11,22.35,11,22.84a1,1,0,0,1-1.9-.64c.13-.38,1.31-3.68,3.95-3.68s3.82,3.3,3.95,3.68a1,1,0,0,1-.63,1.27A1.25,1.25,0,0,1,16,23.52Zm10,0a1,1,0,0,1-.95-.68c-.2-.6-1-2.32-2.05-2.32S21.11,22.35,21,22.84a1,1,0,0,1-1.9-.64c.13-.38,1.31-3.68,3.95-3.68s3.82,3.3,3.95,3.68a1,1,0,0,1-.63,1.27A1.19,1.19,0,0,1,26,23.52Zm1.33,3.73a.5.5,0,0,0-.63,0,16.26,16.26,0,0,1-8.7,2.9,16.3,16.3,0,0,1-8.7-2.9.5.5,0,0,0-.73.66A11.47,11.47,0,0,0,18,33.12a11.47,11.47,0,0,0,9.43-5.24A.5.5,0,0,0,27.33,27.25Z"/><path class="cls-3" d="M21.23,10.51a3.1,3.1,0,0,0,.08.69c.43,2.65,3.37,5.44,5.47,6.2a10.16,10.16,0,0,0,4.9-4.54A18,18,0,0,0,23.75,7.5,3.06,3.06,0,0,0,21.23,10.51ZM13.74,35.64a3.08,3.08,0,0,0,.09-.75,3.31,3.31,0,0,0-6-1.93,3.31,3.31,0,0,0-5.58.3,18,18,0,0,0,8.07,7.58A9.44,9.44,0,0,0,13.74,35.64ZM34.3,32.2a2.28,2.28,0,0,0-2.19-1.64,2.31,2.31,0,0,0-1.87,1,2.3,2.3,0,0,0-4.17,1.34,3,3,0,0,0,.06.52c.31,1.9,2.35,3.89,3.91,4.56A18,18,0,0,0,34.3,32.2Z"/><path class="cls-2" d="M32,5.13a7,7,0,0,1-5.08,2.12C26.61,5.71,25.24,0,22.5,0,20.1,0,19.23,1.09,18,1.09S15.9,0,13.5,0C10.76,0,9.39,5.71,9.08,7.25,7.18,7.08,5.19,6.57,4,5.13,1.85,2.52-1,4.44.44,7.3,2.72,11.82,8.23,15,18,15s15.28-3.18,17.56-7.7C37,4.44,34.15,2.52,32,5.13Z"/><path class="cls-4" d="M21.5,2C19.63,2,19,3,18,3s-1.63-1-3.5-1C12,2,11,8.75,11,8.75S12.28,11,18,11s7-2.25,7-2.25S24,2,21.5,2Z"/><path class="cls-2" d="M11,5s2.07,2,7,2,7-2,7-2V7s-2.22,2-7,2-7-2-7-2Z"/><path class="cls-5" d="M33.62,9.83a3.06,3.06,0,0,0-5.55-1.78,3.06,3.06,0,0,0-5.55,1.78,3.27,3.27,0,0,0,.08.7C23,13.17,26,16,28.07,16.72c2.11-.76,5-3.55,5.47-6.19A2.74,2.74,0,0,0,33.62,9.83ZM12.21,35a3.32,3.32,0,0,0-6-1.93A3.31,3.31,0,0,0,.18,35a3.67,3.67,0,0,0,.08.75c.47,2.87,3.65,5.89,5.93,6.72,2.28-.83,5.47-3.85,5.93-6.72A3.08,3.08,0,0,0,12.21,35ZM36,32.69a2.3,2.3,0,0,0-4.17-1.34,2.3,2.3,0,0,0-4.17,1.34,2.25,2.25,0,0,0,.07.52c.31,2,2.52,4.08,4.1,4.65,1.58-.57,3.79-2.67,4.1-4.65A2.25,2.25,0,0,0,36,32.69Z"/></svg>