<svg id="Layer_1" data-name="Layer 1" xmlns="http://www.w3.org/2000/svg" viewBox="0 0 35.64 40.58"><defs><style>.cls-1{fill:#3e701e;}.cls-2{fill:#5c913a;}.cls-3{fill:#77b155;}.cls-4{fill:#292e32;}.cls-5{fill:#f4900c;}.cls-6{fill:#292f33;}.cls-7{fill:#664500;}.cls-8{fill:#825d0e;}</style></defs><path class="cls-1" d="M12.2,26.2s-2.46,4.09-1.78,5.65a3.39,3.39,0,0,0,2.39,2.27c.42.07.62.9.5,1.51a9.7,9.7,0,0,1-.89,2.13c-.26.49-.77.48-1.41,1-.44.39-.59,1.08.16,1.08h3.54a1.21,1.21,0,0,0,1.29-1,22.88,22.88,0,0,0,.55-5.15c-.15-.49-.66-.89-1-1.84a2.83,2.83,0,0,1,.34-1.8ZM6.45,20.63a4.52,4.52,0,0,1,1.27-.06,23.64,23.64,0,0,1,2.09,1.16,3.35,3.35,0,0,0,1.3-.08,9,9,0,0,1,1,1.58,11.72,11.72,0,0,1-2,.58c-.36.11-1.75-2.08-2.14-2.32s-1,.36-1.38.34-.28-.3,0-.38c0,0-.47.16-.48,0s.38-.28.38-.28-.41.15-.47,0S6.09,20.75,6.45,20.63Z" transform="translate(0.06 -0.27)"/><path class="cls-2" d="M26.47,35.18c-1.1-2.09-6.26-4.52-7.32-5.41s-3-6.7-4.63-7.76c-1.16-.76-1.63-2.41-1.95-4-.12-.61-1.67-1.33-1.78-1.85-.3.5-3.17,2-1.63,2.46s.37,4.27,1.87,6.73c.91,1.48,1,3.88,3.09,6s6.39,1.32,8.36,4c3.53,4.88,9.64,4.87,12.13,1.47a17.13,17.13,0,0,1-4.14.73A4.16,4.16,0,0,1,26.47,35.18Z" transform="translate(0.06 -0.27)"/><path class="cls-3" d="M13.89,26.5s-1.47,3.33-.73,5.1a6.73,6.73,0,0,0,3.9,3.48c.37.12,1.09.11,1.26.65a6.36,6.36,0,0,1-.4,2.8c-.25.44-1.54.68-1.8,1.5-.1.31-.31.75.28.8s4.26,0,4.87,0,.77-.48.78-1.11c0-.4-.69-2.39-.39-3.8a6.2,6.2,0,0,1,1-2.33c1-1.49,0-1.67-1.35-1.67A18.47,18.47,0,0,1,17,31.35ZM6,23.35a4.82,4.82,0,0,1,1.26-.48,23.21,23.21,0,0,1,2.49.46,5.38,5.38,0,0,0,1.69-.85,11.25,11.25,0,0,1,1.13,1.6,13.07,13.07,0,0,1-1.8,1.24c-.33.24-2.14-1.45-2.62-1.57s-1.19.65-1.59.76-.38-.21-.13-.38c0,0-.42.32-.49.15s.29-.41.29-.41-.36.28-.48.13S5.67,23.6,6,23.35Z" transform="translate(0.06 -0.27)"/><path class="cls-4" d="M10.39,13c.11.2-1.26,1.79-1.68,2a3,3,0,0,1-1.34,0c.73-.3.53-.75.21-1.16a2.61,2.61,0,0,0,.55.14C8.54,14,10.08,12.38,10.39,13Z" transform="translate(0.06 -0.27)"/><path class="cls-3" d="M8.71,15.93a2,2,0,0,1-1.53-.25c-.25-.17-.29-.41.08-.6L7.35,15h0a3,3,0,0,0,1.34,0c.42-.22,1.79-1.81,1.68-2-.32-.59-1.85,1-2.26,1a2.7,2.7,0,0,1-.56-.14l-.42-.51a3.38,3.38,0,0,1,1.34-1.26,3.08,3.08,0,0,1,3.27.5C12.37,13.27,9.69,15.67,8.71,15.93Z" transform="translate(0.06 -0.27)"/><path class="cls-3" d="M8.78,18.67A3.75,3.75,0,0,1,7.66,18a1.74,1.74,0,0,0-1.24-.4c-1.26.13-3.47.64-3.89.33s-.65-1.2-.35-1.35l.16-.06h0s0,1,.34,1a27.34,27.34,0,0,0,4-1.55,1.6,1.6,0,0,0,.49-.32,2,2,0,0,0,1.53.25c1-.26,3.66-2.66,3-3.34a3.08,3.08,0,0,0-3.27-.5,3.38,3.38,0,0,0-1.34,1.26l.43.51c-.33-.1-.73-.26-1.12-.41.17-.28.34-.61.34-.61a4.62,4.62,0,0,0-1.93-.48,25.09,25.09,0,0,0-4.22.78c-.3.23.25,1,.25,1l.1.2H.6C.12,14.26-.21,12.55,0,12A6.12,6.12,0,0,1,2.79,9.32c1.53-.72,2.35-.79,2.76-1.24.11-.12.13-.48.65-.64a4.74,4.74,0,0,0,2.3-.8c2.21-2,2.55-.64,3.86-.2,1.65.54,2.54-.56,4,3.13,1.09,2.85-.67,4.35,1.29,6.13a16.57,16.57,0,0,0,2.94,2.2c8.73,4.47,5,13.72,9.49,17,4.08,3,4.78-1.71,4-3.14-.13-.25.12-.59.48-.25a4.62,4.62,0,0,1,.92,3.86c-.66,3-3.5,3.58-6.27,3.23-4.42-.56-6.57-7.67-10.76-5.52-2.2,1.14-3.55-3.74-5.1-6.07C12,25,10.35,19.91,10,19,9.91,18.84,9.32,18.9,8.78,18.67Z" transform="translate(0.06 -0.27)"/><path class="cls-5" d="M6.8,12.84s-.17.33-.34.61-.25.35-.34.37-.15-.28-.19-.55h0l-.07-.46-.06.42c-.08.28-.18.6-.32.62a2.41,2.41,0,0,1-.41-.64c-.08-.15-.13-.27-.13-.27v.32c0,.18,0,.69-.09.71s-.27-.31-.42-.55l-.14-.25v.29a2.06,2.06,0,0,1-.08.74c-.07,0-.3-.33-.47-.57a1.76,1.76,0,0,0-.14-.23,1.31,1.31,0,0,1,0,.28c0,.3-.06.73-.14.75s-.29-.33-.43-.58l-.17-.3v.35c0,.19.06.71,0,.73s-.35-.32-.51-.58l-.18-.27a1,1,0,0,0,.06.3c.06.17.09.72,0,.76s-.32-.34-.49-.62h0l-.17-.3v.35a2.24,2.24,0,0,1,0,.73c-.08,0-.29-.2-.52-.6L1,14.2s-.55-.82-.25-1a25.09,25.09,0,0,1,4.22-.78A4.69,4.69,0,0,1,6.8,12.84Zm.57,2.47a.66.66,0,0,1-.19.37,1.6,1.6,0,0,1-.49.32,27.34,27.34,0,0,1-4,1.55c-.39-.05-.34-1-.34-1h0c-.06-.56,0-1,.11-1s.35.64.41.82v0c0-.22.1-1,.22-1s.31.65.36.89v.08a.14.14,0,0,1,0-.09c0-.25.11-1,.23-1s.32.6.39.85v0A3.44,3.44,0,0,1,4.31,15c.1,0,.37.71.44.9h0c0-.21,0-1,.15-1s.31.42.44.7l.12.24V15.5c0-.18,0-.66.06-.68a1.46,1.46,0,0,1,.29.41c.14.22.26.44.26.44v-.56a.88.88,0,0,1,.06-.36,1.47,1.47,0,0,1,.26.34c.08.13.15.27.22.41a2.54,2.54,0,0,1,0-.39.87.87,0,0,1,.11-.41s.21.22.32.44v.07C7.32,15.22,7.37,15.31,7.37,15.31Z" transform="translate(0.06 -0.27)"/><path class="cls-3" d="M2.19,14.08a4.27,4.27,0,0,1-.48.13H1.55L1,14.39l-.1-.2s-.55-.82-.25-1a25.09,25.09,0,0,1,4.22-.78,4.62,4.62,0,0,1,1.93.48s-.17.33-.34.61l-.53-.18H5.8a1.2,1.2,0,0,0-.53-.08l-.2.06H4.93l-.51.16H4.28l-.54.17H3.57L3,13.85l-.14.05-.54.15ZM4.85,9.82c2.27-.76,1-1.05,2.17-1.66.61-.32,1.45-.26,1.61.19s.12,1.17-1.07,1.57A9.12,9.12,0,0,1,4.85,9.82Zm3.86,6.11a2,2,0,0,1-1.53-.25,1.6,1.6,0,0,1-.49.32,27.34,27.34,0,0,1-4,1.55c-.39-.05-.34-1-.34-1h0l.52-.15h0l.58-.15h0L4.13,16h0l.68-.19H5a1.31,1.31,0,0,0,.45-.28l.11-.09a1.31,1.31,0,0,1,.35-.27A.84.84,0,0,1,6.2,15H7.37a3,3,0,0,0,1.34,0c.42-.22,1.79-1.81,1.68-2-.32-.59-1.85,1-2.26,1a2.7,2.7,0,0,1-.56-.14l-.42-.51a3.38,3.38,0,0,1,1.34-1.26,3.08,3.08,0,0,1,3.27.5C12.37,13.27,9.69,15.67,8.71,15.93Z" transform="translate(0.06 -0.27)"/><path class="cls-1" d="M7.56,9.92a9.12,9.12,0,0,1-2.71-.1c2.27-.76,1-1.05,2.17-1.66.61-.32,1.45-.26,1.61.19S8.75,9.52,7.56,9.92Z" transform="translate(0.06 -0.27)"/><circle class="cls-6" cx="7.46" cy="8.71" r="0.48"/><path class="cls-1" d="M20.11,19.41a.51.51,0,0,1-.67.21.5.5,0,1,1,.67-.22Zm1.25,3.15a.71.71,0,1,1-.3-1,.72.72,0,0,1,.33,1Zm.54-2.21a.37.37,0,0,1-.49.21.38.38,0,0,1-.22-.49l0-.07a.38.38,0,0,1,.5-.17h0A.39.39,0,0,1,21.9,20.35ZM23,21.79a.36.36,0,0,1-.48.15.36.36,0,0,1-.16-.48.36.36,0,0,1,.49-.16.36.36,0,0,1,.15.48Zm3,7.53a.27.27,0,0,1-.36.12.28.28,0,0,1-.12-.36.27.27,0,0,1,.37-.12A.27.27,0,0,1,26,29.32ZM24.75,24a.66.66,0,0,1-1.18-.61h0a.67.67,0,0,1,.9-.28A.66.66,0,0,1,24.75,24Z" transform="translate(0.06 -0.27)"/><circle class="cls-1" cx="24.16" cy="28.28" r="0.42"/><circle class="cls-1" cx="22.65" cy="23.6" r="0.42"/><circle class="cls-1" cx="25.43" cy="26.99" r="0.42"/><circle class="cls-1" cx="23.85" cy="25.64" r="0.63"/><path class="cls-7" d="M21.3,8.19a4,4,0,0,1-3.18-.08c.22-.93.85-4.26-.59-4.91-1.27-.57-2-.2-2.63-.49s-.85-1.07-2.11-1.64c-1.45-.65-3.53,2-4,2.77A4.2,4.2,0,0,1,6.55,1.55C6.05-.36,4.09,0,4.17,1.82,4.31,4.74,6.45,7.73,11.6,10s8.8,1.94,11.08.1C24.11,9,23.07,7.29,21.3,8.19Z" transform="translate(0.06 -0.27)"/><path class="cls-8" d="M16.53,4c-1-.44-1.56-.07-2.06-.3s-.68-.93-1.59-1.34c-1.31-.59-3.42,2.73-3.42,2.73S9.6,6.6,12.62,8s4.18.45,4.18.45S17.84,4.61,16.53,4Z" transform="translate(0.06 -0.27)"/><path class="cls-7" d="M10.28,3.11a6,6,0,0,0,3.24,2.67,6,6,0,0,0,4.12.6l-.47,1A6.23,6.23,0,0,1,13,6.84,6.25,6.25,0,0,1,9.83,4.12Z" transform="translate(0.06 -0.27)"/></svg>