<svg id="Layer_1" data-name="Layer 1" xmlns="http://www.w3.org/2000/svg" viewBox="0 0 40.46 40.75"><defs><style>.cls-1{fill:#e1e8ed;}.cls-2{fill:#292f33;}.cls-3{fill:#66757f;}.cls-4{fill:#664500;}.cls-5{fill:#825d0e;}</style></defs><path class="cls-1" d="M27.74,28s1.37,1.64,2.73,10.05a18.28,18.28,0,0,1,.22,2.68h9.77V12.19C36.07,8.72,30.06,8,22.78,10.44A69,69,0,0,1,16.63,6.7c-.72-.72-1.86-1.56-1.23.35a18.11,18.11,0,0,0,2.35,4.86c-3.43,2-4.51,4.68-8.55,13.34C6.11,31.87,4.54,34,5.39,36.54c1.13,3.34,5.32,5.6,8.85,3,1.92-1.4,2.24-3.91,6.22-6.22C24.12,33.28,27.74,31.74,27.74,28Z"/><path class="cls-2" d="M40.46,10.76c-8.34-5.71-21.65-4.54-20.09.18C30,9.07,36.23,12.48,40.46,18.1Z"/><path class="cls-2" d="M24.12,10.51c-2.88.23-7.28,1.76-9.42,4.14,0,0,0-5.32,3.69-5.79,6.17-.78,5.81.36,5.81.36Z"/><path class="cls-1" d="M20.81,5.8c.56,1.16,4,1.79,5.06,6s-3.13,2.95-4.36.86A11.88,11.88,0,0,1,19.65,7C19.63,6.21,19.69,3.47,20.81,5.8Z"/><path class="cls-3" d="M21.05,7.58c1.11,1,2.45,2.48,2.65,4s-1.12,1-1.73-.37-.76-2.78-1.14-3.24S21.05,7.58,21.05,7.58Z"/><path class="cls-2" d="M21.4,20.27A1.25,1.25,0,1,1,20.15,19,1.24,1.24,0,0,1,21.4,20.27Z"/><path class="cls-1" d="M14.81,14.67s-.07,0-.11,0c-1.54,2-2.92,5.1-5.49,10.6-1.36,2.9-2.42,4.95-3.12,6.54C7.72,32,9.38,30.35,10,28.52A37.54,37.54,0,0,1,15,20.74C16.68,18.61,16.53,15.59,14.81,14.67Z"/><path class="cls-2" d="M32.64,11.06S30.35,18,30.34,20c0,3.81-2.68,7.81-2.68,7.81L29,31.23s3.25-3,3.94-10.23c.57-6,2.56-7.67,2.56-7.67Zm5.88,3.12a22.27,22.27,0,0,0-4.06,9.57C33,31.81,29.6,33.49,29.6,33.49l.48,2.44a15.26,15.26,0,0,0,6.63-9.11c1.62-7.26,3.75-8.72,3.75-8.72Zm-30.81,14c.68-.71,3,3.81,4.53,4.89s5.47.93,5.7,2.16c-1.67,1.7-2.77,4.27-4.84,5s-5.71.67-7.24-2.65-.4-4.7.22-6.14S7.54,28.5,7.71,28.18Z"/><path class="cls-3" d="M8.68,34.66c0,.88-.53,1.6-1.19,1.6s-1.19-.72-1.19-1.6.54-1.59,1.19-1.59S8.68,33.78,8.68,34.66Z"/><path class="cls-2" d="M30.41,37.69s4.61-1.57,6.11-3.38,3.94-5.56,3.94-5.56v6.37a11.36,11.36,0,0,1-3.69,2.94,59.19,59.19,0,0,1-6.09,2.25Zm-.94-26.86a30,30,0,0,0-1.2,5.92,13.27,13.27,0,0,1-1.94,6.18c.31-4.25-.69-5.87-.12-8.12s.87-4.32.87-4.32a2.4,2.4,0,0,1,1.25-.31A2.09,2.09,0,0,1,29.47,10.83ZM9.21,25.25s3.93-.38,5.75.87,5.33,7.32,5.33,7.32l-1.14.76s-1.69-4.64-4.76-6.08a13,13,0,0,0-6-1.19Z"/><path class="cls-2" d="M10.06,23.42s5.52-.35,7,1.51c2.75,3.56,3.83,5,4.45,8.35L23.25,33c-.79-2.91-2.61-8.1-5.92-10.29A9.39,9.39,0,0,0,11.08,21Zm12.27-6c-.62.69,2,3.32,1.13,5.5a10.69,10.69,0,0,0,.12,6.63,28.65,28.65,0,0,0,1.26,2.84l1.62-1.15a25.67,25.67,0,0,0-1-3.69,6.46,6.46,0,0,1-.38-4.44C25.39,20.93,23,16.75,22.33,17.43ZM19.5,11.57a8.61,8.61,0,0,1,1.08,3c-.06,1-.06,2.69-.62,3.06s-.82-2-1.19-3.06a16.81,16.81,0,0,0-1.07-2.26S19.17,10.93,19.5,11.57ZM16,13.36s1.79,1.4,1.73,2.4,1.14,2.61.58,3S16.33,17.49,16,16.43a4.59,4.59,0,0,0-1.26-1.78S15.63,12.72,16,13.36Zm-2.57,3.2a7.3,7.3,0,0,1,1.94,1.75c.42.77,2.11,1.38,1.94,1.87s-2-.1-2.69-.75a4,4,0,0,0-2.34-.58Z"/><path class="cls-4" d="M29.18,2.16a7.06,7.06,0,0,1-3.8,4c-.91-1.28-4.46-6-7-4.86-2.2,1-2.56,2.31-3.69,2.81s-2.36-.16-4.56.81C7.66,6,8.71,11.78,9,13.31c-1.81.61-3.83.94-5.5.1-3-1.52-4.86,1.38-2.39,3.42,3.9,3.22,10.23,3.92,19.17,0S33,7.77,33.31,2.72C33.48-.48,30.1-1.09,29.18,2.16Z"/><path class="cls-5" d="M18.3,3.52c-1.71.75-1.88,1.92-2.8,2.32s-1.89-.26-3.61.49c-2.29,1-.49,7.59-.49,7.59s2.08,1.54,7.32-.76,5.5-4.87,5.5-4.87S20.59,2.51,18.3,3.52Z"/><path class="cls-4" d="M9.89,10.48s2.7,1,7.22-1,5.6-4.64,5.6-4.64l.81,1.83s-1.23,2.72-5.61,4.64-7.21,1-7.21,1Z"/></svg>