<svg id="Layer_1" data-name="Layer 1" xmlns="http://www.w3.org/2000/svg" viewBox="0 0 36 32"><defs><style>.cls-1{fill:#292f33;}.cls-2{fill:#a6d388;}.cls-3{fill:#77b255;}.cls-4{fill:#55acee;}.cls-5{fill:#269;}.cls-6{fill:#664500;}.cls-7{fill:#825d0e;}</style></defs><path class="cls-1" d="M14.5,36a.47.47,0,0,1-.35-.15.48.48,0,0,1,0-.7L16,33.29V31.5a.5.5,0,0,1,1,0v2.21l-2.15,2.14A.47.47,0,0,1,14.5,36Z" transform="translate(0 -4)"/><path class="cls-1" d="M16.5,34h-3a.5.5,0,0,1,0-1h3a.5.5,0,0,1,0,1Zm5,2a.47.47,0,0,1-.35-.15L19,33.71V31.5a.5.5,0,0,1,1,0v1.79l1.85,1.86a.48.48,0,0,1,0,.7A.47.47,0,0,1,21.5,36Z" transform="translate(0 -4)"/><path class="cls-1" d="M22.5,34h-3a.5.5,0,0,1,0-1h3a.5.5,0,0,1,0,1Z" transform="translate(0 -4)"/><path class="cls-2" d="M36,25.91C36,29.73,34,31,18,31S0,29.73,0,25.91C0,13.26,8.06,4,18,4S36,13.26,36,25.91Z" transform="translate(0 -4)"/><path class="cls-3" d="M18,29a.5.5,0,0,1-.16-1l16.5-5.5a.5.5,0,0,1,.32.94L18.16,29Zm0-3a.49.49,0,0,1-.41-.21.5.5,0,0,1,.12-.7l14.5-10.5a.49.49,0,0,1,.69.12.48.48,0,0,1-.11.69L18.29,25.9A.45.45,0,0,1,18,26Zm0-4a.47.47,0,0,1-.27-.08.5.5,0,0,1-.15-.69l8.5-13.5a.5.5,0,1,1,.84.54l-8.5,13.5A.48.48,0,0,1,18,22Z" transform="translate(0 -4)"/><circle class="cls-4" cx="32.5" cy="23" r="2"/><circle class="cls-4" cx="32.5" cy="16" r="2"/><circle class="cls-4" cx="28.5" cy="9" r="2"/><circle class="cls-4" cx="21.5" cy="4" r="2"/><circle class="cls-4" cx="28" cy="24.5" r="1.5"/><circle class="cls-4" cx="28" cy="18.5" r="1.5"/><circle class="cls-4" cx="25" cy="12.5" r="1.5"/><circle class="cls-4" cx="24.5" cy="25" r="1"/><circle class="cls-4" cx="24.5" cy="20" r="1"/><circle class="cls-4" cx="21.5" cy="16" r="1"/><path class="cls-3" d="M17.5,29l-.16,0L.84,23.48a.51.51,0,0,1-.31-.64.49.49,0,0,1,.63-.31L17.66,28a.5.5,0,0,1-.16,1Zm0-3a.52.52,0,0,1-.29-.09L2.71,15.41a.49.49,0,0,1-.11-.7.48.48,0,0,1,.69-.11l14.5,10.5a.49.49,0,0,1,.12.69A.51.51,0,0,1,17.5,26Zm0-4a.48.48,0,0,1-.42-.23L8.58,8.27a.5.5,0,1,1,.84-.54l8.5,13.5a.5.5,0,0,1-.15.69A.47.47,0,0,1,17.5,22Z" transform="translate(0 -4)"/><path class="cls-3" d="M17.5,24a.5.5,0,0,1-.5-.5V5.5a.5.5,0,0,1,1,0v18A.5.5,0,0,1,17.5,24Z" transform="translate(0 -4)"/><path class="cls-5" d="M15,16a4.83,4.83,0,0,1,0-4,3.1,3.1,0,0,0,1,2c0-3,1-3,1-3a4.94,4.94,0,0,0,1,3C19,15,15,16,15,16Zm8,13c-.44-2-1.73-3.06-2.56-4.5-.67-1.16-2.14-3.75-.13-6.62.53-.76-1.89-1.83-2.31-1.88h0c-.42.05-2.84,1.12-2.3,1.88,2,2.87.53,5.46-.14,6.62C14.7,25.94,13.41,27,13,29c-.37,1.67,2.24,4,5,4h0C20.75,33,23.36,30.67,23,29Z" transform="translate(0 -4)"/><path class="cls-1" d="M19,16a12.68,12.68,0,0,1,6,2,10.56,10.56,0,0,1-6,0c-3-1,0-2,0-2" transform="translate(0 -4)"/><circle class="cls-5" cx="18" cy="12" r="3"/><circle class="cls-1" cx="19" cy="12" r="1"/><circle class="cls-4" cx="3" cy="23" r="2"/><circle class="cls-4" cx="3" cy="16" r="2"/><circle class="cls-4" cx="7" cy="9" r="2"/><circle class="cls-4" cx="14" cy="4" r="2"/><circle class="cls-4" cx="7.5" cy="24.5" r="1.5"/><circle class="cls-4" cx="7.5" cy="18.5" r="1.5"/><circle class="cls-4" cx="10.5" cy="12.5" r="1.5"/><circle class="cls-4" cx="11" cy="25" r="1"/><circle class="cls-4" cx="11" cy="20" r="1"/><circle class="cls-4" cx="14" cy="16" r="1"/><path class="cls-6" d="M26.3,9a4.47,4.47,0,0,1-3.19,1.33c-.2-1-1.06-4.56-2.78-4.56-1.51,0-2.06.69-2.83.69s-1.32-.69-2.83-.69c-1.72,0-2.58,3.59-2.78,4.56A4.6,4.6,0,0,1,8.7,9c-1.35-1.65-3.15-.44-2.24,1.36,1.43,2.84,4.9,4.84,11,4.84s9.61-2,11-4.84C29.45,8.57,27.65,7.36,26.3,9Z" transform="translate(0 -4)"/><path class="cls-7" d="M19.7,7c-1.17,0-1.57.63-2.2.63S16.48,7,15.3,7c-1.57,0-2.2,4.24-2.2,4.24s.8,1.42,4.4,1.42,4.4-1.42,4.4-1.42S21.27,7,19.7,7Z" transform="translate(0 -4)"/><path class="cls-6" d="M13.1,8.92s1.3,1.26,4.4,1.26,4.4-1.26,4.4-1.26v1.26a6.77,6.77,0,0,1-4.4,1.26,6.81,6.81,0,0,1-4.4-1.26Z" transform="translate(0 -4)"/></svg>