<svg id="Layer_1" data-name="Layer 1" xmlns="http://www.w3.org/2000/svg" viewBox="0 0 37.14 41.23"><defs><style>.cls-1{fill:#5c913b;}.cls-2{fill:#3e721d;}.cls-3{fill:#77b255;}.cls-4{fill:#c6e5b3;}.cls-5{fill:#664500;}.cls-6{fill:#825d0e;}</style></defs><path class="cls-1" d="M7.62,11.62A1,1,0,0,1,6.68,11S5.8,8.7,4.26,8.52a1,1,0,1,1,.24-2c2.8.33,4,3.6,4.06,3.74A1,1,0,0,1,8,11.56,1,1,0,0,1,7.62,11.62Z"/><path class="cls-1" d="M9.49,11.77l-.27,0a1,1,0,0,1-.7-1.23s.58-2.34-.58-3.38A1,1,0,1,1,9.28,5.64c2.1,1.88,1.21,5.25,1.17,5.4A1,1,0,0,1,9.49,11.77Z"/><path class="cls-1" d="M11.93,11.82A1,1,0,0,1,11,10.37s1-2.18.1-3.43a1,1,0,1,1,1.6-1.2c1.69,2.26.15,5.39.09,5.52A1,1,0,0,1,11.93,11.82Z"/><path class="cls-1" d="M14.21,11.76a1,1,0,0,1-.64-.23,1,1,0,0,1-.13-1.41s1.49-1.9.86-3.31a1,1,0,0,1,.51-1.32A1,1,0,0,1,16.13,6c1.14,2.58-1.06,5.28-1.15,5.4A1,1,0,0,1,14.21,11.76Z"/><path class="cls-1" d="M16.86,11.7a1,1,0,0,1-.75-.35,1,1,0,0,1,.1-1.41S18,8.32,17.62,6.82a1,1,0,0,1,.73-1.22,1,1,0,0,1,1.21.73c.69,2.74-1.93,5-2,5.13A1,1,0,0,1,16.86,11.7Zm3,.41a1,1,0,0,1-.49-1.88s2.09-1.2,2-2.76a1,1,0,0,1,1-1,1,1,0,0,1,1,1c.1,2.82-2.95,4.51-3.08,4.58A.9.9,0,0,1,19.84,12.11ZM23,13.18a1,1,0,0,1-.26-2c.05,0,2.32-.69,2.63-2.2a1,1,0,0,1,2,.4c-.57,2.77-3.93,3.69-4.07,3.73Zm3.13,1.76a1,1,0,0,1-.1-2s2.4-.28,3-1.73a1,1,0,0,1,1.86.72c-1,2.63-4.48,3-4.63,3Zm3.08,3.67c-.26,0-.44,0-.47,0a1,1,0,0,1,.18-2s2.41.15,3.23-1.16a1,1,0,1,1,1.7,1C32.67,18.39,30.23,18.61,29.21,18.61Zm3.55,4.54a7.46,7.46,0,0,1-1.85-.23A1,1,0,0,1,31.44,21s2.34.6,3.39-.56a1,1,0,0,1,1.48,1.34A4.66,4.66,0,0,1,32.76,23.15Zm1.52,5.1a7.48,7.48,0,0,1-3.08-.76,1,1,0,0,1-.42-1.36,1,1,0,0,1,1.35-.41s2.16,1.07,3.43.17a1,1,0,1,1,1.16,1.62A4.06,4.06,0,0,1,34.28,28.25Zm.16,4.48a6.69,6.69,0,0,1-3.89-1.58,1,1,0,0,1,1.31-1.51c.05,0,1.87,1.54,3.3.95a1,1,0,0,1,1.3.54,1,1,0,0,1-.54,1.31A4,4,0,0,1,34.44,32.73ZM33.36,37C30.55,37,29,34,28.89,33.82a1,1,0,0,1,1.78-.9S31.81,35,33.36,35h0a1,1,0,0,1,0,2Zm-6.81,4.13A1,1,0,0,1,26,41c-2.27-1.68-1.7-5.11-1.68-5.26a1,1,0,1,1,2,.34s-.35,2.39.9,3.31a1,1,0,0,1,.21,1.39A1,1,0,0,1,26.55,41.16Zm3.58-1.11a.91.91,0,0,1-.39-.08c-2.6-1.11-2.84-4.58-2.84-4.73a1,1,0,1,1,2-.12s.2,2.4,1.63,3a1,1,0,0,1,.53,1.32A1,1,0,0,1,30.13,40.05Zm-11.07,0a1,1,0,0,1-1-.85c-.41-2.79,2.42-4.81,2.54-4.9A1,1,0,1,1,21.76,36s-1.94,1.44-1.71,3a1,1,0,0,1-.85,1.13Z"/><path class="cls-1" d="M22.47,41.23a1,1,0,0,1-.89-.54c-1.31-2.49.69-5.34.78-5.46A1,1,0,0,1,24,36.39s-1.36,2-.64,3.37a1,1,0,0,1-.88,1.47Zm-6.84-3.95-.21,0a1,1,0,0,1-.76-1.19c.61-2.76,4-3.63,4.13-3.67a1,1,0,0,1,.48,1.94S17,35,16.61,36.5A1,1,0,0,1,15.63,37.28ZM14,33.66a.91.91,0,0,1-.39-.08,1,1,0,0,1-.53-1.31c1.09-2.6,4.56-2.86,4.71-2.87a1,1,0,0,1,.14,2s-2.41.21-3,1.65A1,1,0,0,1,14,33.66Zm-1.36-4.31a1,1,0,0,1-.61-.2,1,1,0,0,1-.19-1.4c1.7-2.25,5.13-1.65,5.27-1.62a1,1,0,0,1,.81,1.16,1,1,0,0,1-1.17.81s-2.38-.39-3.32.86A1,1,0,0,1,12.61,29.35ZM10.85,26a1,1,0,0,1-.54-.15A1,1,0,0,1,10,24.42c1.53-2.38,5-2,5.14-2a1,1,0,1,1-.21,2s-2.41-.19-3.24,1.11A1,1,0,0,1,10.85,26Zm-2.91-2.4a1.21,1.21,0,0,1-.37-.07A1,1,0,0,1,7,22.18c1-2.63,4.49-3,4.64-3a1,1,0,1,1,.18,2s-2.4.27-3,1.72A1,1,0,0,1,7.94,23.55ZM4.47,21a.92.92,0,0,1-.36-.07,1,1,0,0,1-.57-1.29c1-2.63,4.5-3,4.65-3a1,1,0,0,1,1.08.91,1,1,0,0,1-.9,1.08s-2.4.28-3,1.73A1,1,0,0,1,4.47,21Z"/><path class="cls-1" d="M7.41,16.73a1,1,0,0,1-.49-.13S4.8,15.45,3.5,16.32A1,1,0,0,1,2.12,16a1,1,0,0,1,.27-1.38c2.35-1.57,5.39.13,5.52.2a1,1,0,0,1-.5,1.87ZM7,14.11a1,1,0,0,1-.76-.35s-1.6-1.82-3.11-1.45a1,1,0,0,1-.47-2c2.75-.65,5,2,5.11,2.11A1,1,0,0,1,7,14.11Z"/><path class="cls-2" d="M14.39,8.19c-4,0-8.44,1.42-9.21,4.13C4.09,16.1,6.94,18,9.23,19.52,11,20.69,12.79,21.9,13.8,24l0,.11.06.09A21.29,21.29,0,0,1,16,29.66c1.09,3.83,2.44,8.6,7.84,8.6,2.94,0,5.94-2.28,7.64-5.8C34.1,27,33.13,20.6,28.89,15.22A18.54,18.54,0,0,0,14.39,8.19Z"/><path class="cls-3" d="M14.39,10.19a16.57,16.57,0,0,1,12.93,6.27c7.57,9.59,1.62,19.8-3.47,19.8h0c-6,0-5-8.08-8.24-13.15-2.7-5.6-9.77-5.84-8.5-10.24.36-1.27,3.39-2.68,7.29-2.68"/><circle class="cls-2" cx="24.58" cy="29.27" r="3"/><circle class="cls-4" cx="25.58" cy="22.27" r="2"/><circle class="cls-4" cx="18.58" cy="20.27" r="2"/><circle class="cls-4" cx="21.58" cy="15.27" r="1"/><circle class="cls-4" cx="12.58" cy="13.27" r="1"/><path class="cls-5" d="M26.4,4.24A5.8,5.8,0,0,1,22.21,6C22,4.72,20.82,0,18.55,0c-2,0-2.7.9-3.72.9S13.1,0,11.12,0C8.85,0,7.72,4.72,7.46,6a6,6,0,0,1-4.2-1.75C1.49,2.08-.87,3.67.32,6,2.21,9.77,6.76,12.4,14.83,12.4S27.46,9.77,29.35,6C30.54,3.67,28.18,2.08,26.4,4.24Z"/><path class="cls-6" d="M17.73,1.65c-1.55,0-2.07.83-2.9.83s-1.34-.83-2.89-.83c-2.06,0-2.89,5.58-2.89,5.58s1.06,1.86,5.78,1.86,5.79-1.86,5.79-1.86S19.79,1.65,17.73,1.65Z"/><path class="cls-5" d="M9.05,4.13s1.71,1.66,5.78,1.66,5.79-1.66,5.79-1.66V5.79s-1.83,1.65-5.79,1.65S9.05,5.79,9.05,5.79Z"/></svg>