<svg id="Layer_1" data-name="Layer 1" xmlns="http://www.w3.org/2000/svg" viewBox="0 0 35 39.81"><defs><style>.cls-1{fill:#ffac33;}.cls-2{fill:#ffd983;}.cls-3{fill:#f4900c;}.cls-4{fill:#664500;}.cls-5{fill:#825d0e;}</style></defs><path class="cls-1" d="M10.79,11.21v3.33l5.35-1.39-2.94-2ZM32.25,28.63A2.2,2.2,0,0,1,34,26.4V14.74c-4-1-34,7.19-34,7.19v3.53a3.39,3.39,0,0,1,2.75,3.32A3.37,3.37,0,0,1,0,32.09v7.72l34-6.49V30.87A2.21,2.21,0,0,1,32.25,28.63Z"/><path class="cls-2" d="M14.59,7.39l-3.85,3.85c.74.17,1.26.59,1.26,1.08,0,.64-.9,1.17-2,1.17a2.94,2.94,0,0,1-1.24-.26L0,22c13.17-2.91,22-5.29,34.1-7.23C29.24,8.27,17.83,7.39,14.59,7.39Z"/><path class="cls-1" d="M19,10.32c0,.64-.9,1.17-2,1.17s-2-.53-2-1.17.9-1.17,2-1.17S19,9.67,19,10.32Zm-4.93,6.39c0,1-1.36,1.77-3,1.77s-3-.79-3-1.77,1.36-1.77,3-1.77S14.07,15.74,14.07,16.71ZM28,13.5c0,1.1-1.52,2-3.4,2s-3.39-.88-3.39-2,1.52-2,3.39-2S28,12.41,28,13.5Z"/><path class="cls-3" d="M32.62,20.77a2.2,2.2,0,1,1-4.37,0,2.2,2.2,0,1,1,4.37,0ZM10.38,25.63a2.18,2.18,0,0,1-2.07,2.28,2.29,2.29,0,0,1,0-4.55A2.18,2.18,0,0,1,10.38,25.63Zm17.15,5a1.3,1.3,0,1,1-.08-1.92A1.36,1.36,0,0,1,27.53,30.61Zm-9.68-7.37A1.75,1.75,0,1,1,15.18,21a1.75,1.75,0,1,1,2.67,2.23Zm.87,10a3.47,3.47,0,0,1-4.81.93,3.47,3.47,0,0,1-.46-4.87,3.48,3.48,0,0,1,4.81-.94A3.48,3.48,0,0,1,18.72,33.25Z"/><path class="cls-4" d="M31.62,4.39a6,6,0,0,1-4.35,1.82C27,4.89,25.83,0,23.48,0c-2.05,0-2.8.93-3.85.93S17.83,0,15.78,0C13.43,0,12.26,4.89,12,6.21A6.2,6.2,0,0,1,7.64,4.39c-1.84-2.23-4.28-.59-3,1.86,2,3.87,6.67,6.59,15,6.59s13.08-2.72,15-6.59C35.9,3.8,33.46,2.16,31.62,4.39Z"/><path class="cls-5" d="M22.63,1.71c-1.61,0-2.14.86-3,.86s-1.4-.86-3-.86c-2.14,0-3,5.78-3,5.78s1.1,1.93,6,1.93,6-1.93,6-1.93S24.77,1.71,22.63,1.71Z"/><path class="cls-4" d="M13.63,4.28S15.41,6,19.63,6s6-1.71,6-1.71V6s-1.9,1.72-6,1.72-6-1.72-6-1.72Z"/></svg>