<svg id="Layer_1" data-name="Layer 1" xmlns="http://www.w3.org/2000/svg" viewBox="0 0 35.9 37.29"><defs><style>.cls-1{fill:#8899a6;}.cls-2{fill:#d3a471;}.cls-3{fill:#ccd6dd;}.cls-4{fill:#e1e8ed;}.cls-5{fill:#ecd2a7;}.cls-6{fill:#aa8dd8;}.cls-7{fill:#55acee;}.cls-8{fill:#88c9f9;}.cls-9{fill:#9266cc;}.cls-10{fill:#553788;}.cls-11{fill:#292f33;}.cls-12{fill:#664500;}.cls-13{fill:#825d0e;}</style></defs><path class="cls-1" d="M5.91,11.29l3,23c0,1.66,4,3,9,3s9-1.34,9-3l3-23Z"/><path class="cls-2" d="M6.91,11.29l3,22.64c0,1.25,3.58,2.25,8,2.25s8-1,8-2.25l3-22.64Z"/><path class="cls-3" d="M27.67,20.83l1.24-9.54h-22l1.24,9.54Z"/><path class="cls-4" d="M25.89,20.83l1-9.54h-18l1,9.54Z"/><ellipse class="cls-5" cx="17.91" cy="20.74" rx="9.76" ry="2.35"/><path class="cls-6" d="M21.75,20.43,23.37,2.37l-3-.27L18.73,20.43Z"/><path class="cls-7" d="M5.61,11.29c-.18,1.05-.17,2.37.41,2.53s1.1-.09,1.64.18,1,1,1.5,1.15c1,.35,1.68-.3,2.31-.22,1.18.14,1.72,1.28,2.7,1.37s1.78-.74,2.7-.71.94.77,2.48.8,1.77-1,2.66-1,1.47.55,2.3.4,1.18-1,1.86-1.2,1,.33,1.64.18.91-1.17,1.26-1.44,1.57,1.26,1.28-1.66c-.54-5.33-19.13-.57-20.88-.68S6,9.12,5.61,11.29Z"/><ellipse class="cls-8" cx="17.91" cy="11.3" rx="12.35" ry="3.8"/><path class="cls-9" d="M23.37,2.37l-3-.27-.85,9.47v0c0,.28.67.5,1.5.5s1.5-.22,1.5-.5h0Z"/><path class="cls-10" d="M23.37,2.37c0,.27-.71.43-1.54.36s-1.47-.36-1.45-.63.72-.44,1.54-.37S23.4,2.09,23.37,2.37Z"/><ellipse class="cls-6" cx="20.22" cy="20.48" rx="1.5" ry="0.5"/><path class="cls-11" d="M11.2,30.84a.93.93,0,0,1-1.3-.11,1,1,0,0,1-.12-1.31,1,1,0,0,1,1.31.12A.93.93,0,0,1,11.2,30.84Zm2.94,4.35a.79.79,0,1,1-.59-.83A.73.73,0,0,1,14.14,35.19Zm3.55-6.59a.74.74,0,0,1-.92.48.7.7,0,1,1,.92-.48Z"/><ellipse class="cls-11" cx="17.13" cy="35.09" rx="1.07" ry="0.9"/><path class="cls-11" d="M25.06,27.87A.9.9,0,1,1,24,27.26.86.86,0,0,1,25.06,27.87Zm-3,4.5a1,1,0,0,1-1.26.71,1.07,1.07,0,0,1,.67-2A1,1,0,0,1,22.06,32.37Zm-5.12-.48a1,1,0,0,1-.63,1.25,1,1,0,0,1-.6-1.92A1,1,0,0,1,16.94,31.89Zm2.38-.29a.9.9,0,1,1,.41-1.23A.92.92,0,0,1,19.32,31.6ZM21,34.21a1.11,1.11,0,1,1-1.23-.74A1,1,0,0,1,21,34.21Zm-6.76-3.89A1,1,0,0,1,12.93,30a1,1,0,0,1-.06-1.37A1,1,0,0,1,14.2,29,1,1,0,0,1,14.26,30.32ZM23.71,34A1,1,0,0,1,22,35.11,1,1,0,0,1,23.71,34Zm1.78-.82a1,1,0,0,1-1,1.51.82.82,0,0,1,0-1.13A.81.81,0,0,1,25.49,33.19ZM9.64,26.72c.28,0,.52.34.54.79s-.18.82-.45.83-.53-.33-.55-.78S9.36,26.74,9.64,26.72Zm14.11,3.47a.73.73,0,0,1-.32,1,.74.74,0,0,1-1-.2.73.73,0,0,1,.33-1A.72.72,0,0,1,23.75,30.19Zm-5.29,2.47a.62.62,0,0,1,.11.88.62.62,0,0,1-.86.22.62.62,0,0,1-.11-.88A.62.62,0,0,1,18.46,32.66Zm7.33-2.31c.29.08.44.49.32.93s-.44.72-.74.65-.44-.5-.32-.93S25.49,30.27,25.79,30.35Zm.12-1.93c.23.06.34.4.24.77s-.36.61-.59.55-.34-.41-.24-.77S25.68,28.36,25.91,28.42Zm-1.27,3.39a1,1,0,0,1-1.29,1.42.86.86,0,0,1,.1-1.2A.88.88,0,0,1,24.64,31.81Zm-11.46.69a.9.9,0,0,1-1.25.1.9.9,0,0,1-.37-1.2.89.89,0,0,1,1.25-.09A.89.89,0,0,1,13.18,32.5Zm9-3.5a1,1,0,1,1-1-.75A.92.92,0,0,1,22.17,29Zm-7.09,5a.9.9,0,0,1-1.25,0,.8.8,0,1,1,1.25,0Zm-3.38-.59a.93.93,0,0,1,0,1.3.92.92,0,0,1-1.25-.34.92.92,0,0,1,0-1.3A1,1,0,0,1,11.7,33.43Z"/><path class="cls-12" d="M32,5.13a7,7,0,0,1-5.08,2.12C26.56,5.71,25.19,0,22.45,0c-2.4,0-3.27,1.09-4.5,1.09S15.85,0,13.45,0C10.71,0,9.34,5.71,9,7.25,7.13,7.08,5.14,6.57,4,5.13,1.8,2.52-1,4.44.39,7.3,2.67,11.82,8.18,15,18,15s15.28-3.18,17.56-7.7C37,4.44,34.1,2.52,32,5.13Z"/><path class="cls-13" d="M21.45,2C19.58,2,19,3,18,3s-1.63-1-3.5-1C12,2,11,8.75,11,8.75S12.23,11,18,11s7-2.25,7-2.25S24,2,21.45,2Z"/><path class="cls-12" d="M11,5S13,7,18,7s7-2,7-2V7s-2.22,2-7,2-7-2-7-2Z"/></svg>