<svg id="Layer_1" data-name="Layer 1" xmlns="http://www.w3.org/2000/svg" viewBox="0 0 39.07 36.49"><defs><style>.cls-1{fill:#3e721d;}.cls-2{fill:#5c913b;}.cls-3{fill:#77b255;}.cls-4{fill:#a6d388;}.cls-5{fill:#c6e5b3;}.cls-6{fill:#664500;}.cls-7{fill:#825d0e;}</style></defs><path class="cls-1" d="M20,23.53a.53.53,0,0,1-.53-.45C18.36,16,20.34,5.66,24.9,2.14a.53.53,0,0,1,.74.09.54.54,0,0,1-.09.75c-4.15,3.2-6.09,13.17-5.07,19.94a.53.53,0,0,1-.44.61Z"/><path class="cls-1" d="M20,15.73c.06.4,1.26.55,2.69.33s2.53-.71,2.47-1.11-1.27-.56-2.69-.34S19.91,15.33,20,15.73Zm.09,1.74c.07.4,1.36.54,2.9.3s2.74-.75,2.68-1.15-1.36-.53-2.9-.3S20,17.07,20.06,17.47Z"/><ellipse class="cls-1" cx="23.05" cy="18.74" rx="3.08" ry="0.74" transform="translate(-2.55 3.67) rotate(-8.63)"/><path class="cls-1" d="M20.32,14.24c.1.39,1.24.43,2.53.09S25.11,13.4,25,13s-1.24-.43-2.53-.09S20.22,13.84,20.32,14.24Zm.18-1.77c.12.39,1.15.41,2.3,0s2-1,1.85-1.35-1.14-.41-2.29-.05S20.38,12.08,20.5,12.47Zm.1-1.58c.13.32,1.07.26,2.1-.14s1.77-1,1.65-1.32-1.07-.26-2.1.14S20.48,10.56,20.6,10.89Zm.8-1.74c.12.29.9.26,1.76-.08S24.61,8.24,24.5,8s-.9-.26-1.75.07S21.29,8.86,21.4,9.15Zm.66-1.92c.05.31.71.46,1.49.33s1.36-.48,1.31-.78-.72-.46-1.49-.33S22,6.92,22.06,7.23ZM22.84,6c.05.32.79.47,1.64.33s1.51-.52,1.46-.84-.79-.47-1.65-.33S22.79,5.63,22.84,6ZM24,4.51c.05.29.72.42,1.5.3s1.36-.47,1.32-.75-.72-.42-1.49-.29S24,4.23,24,4.51Zm1-1.35c0,.25.61.37,1.26.26s1.15-.4,1.11-.65-.61-.37-1.26-.26S24.9,2.91,24.94,3.16Z"/><path class="cls-1" d="M25.66,2.36c.12.22.69.13,1.26-.21s.93-.79.8-1S27,1,26.45,1.36,25.53,2.14,25.66,2.36Z"/><path class="cls-1" d="M25.29,2.3c.24.07.6-.38.79-1S26.22.08,26,0s-.6.38-.79,1S25.05,2.23,25.29,2.3ZM14.49,15.5c0,.41,1.17.74,2.61.74s2.61-.33,2.61-.74-1.17-.73-2.61-.73S14.49,15.1,14.49,15.5ZM14.16,17c0,.4,1.09.84,2.52,1s2.63-.08,2.67-.48-1.09-.85-2.52-1S14.2,16.56,14.16,17Zm-.54,1.65c0,.41,1.22.86,2.81,1s2.92-.05,2.95-.45-1.22-.86-2.81-1S13.66,18.21,13.62,18.61Zm1.64-4.93c0,.4,1,.82,2.24.92s2.32-.13,2.36-.54-1-.82-2.24-.92S15.3,13.27,15.26,13.68ZM16,12.27c0,.41.91.78,2.06.83s2.12-.23,2.14-.64-.91-.77-2.07-.83S16.06,11.87,16,12.27Z"/><path class="cls-1" d="M17.05,10.69c-.07.35.65.79,1.61,1s1.79.05,1.86-.3-.65-.79-1.61-1S17.12,10.34,17.05,10.69Zm.46-1.8c-.13.33.49.9,1.4,1.26s1.74.4,1.88.07S20.3,9.32,19.4,9,17.65,8.55,17.51,8.89Zm.38-2c-.18.27.34,1,1.18,1.54s1.68.82,1.87.55S20.6,8,19.76,7.4,18.08,6.58,17.89,6.86ZM19,6c-.19.27.25.9,1,1.41s1.48.68,1.67.41-.25-.91-1-1.41S19.21,5.7,19,6Zm.7-1.54c-.24.23.09.93.73,1.55s1.34.93,1.57.69-.09-.94-.73-1.56S20,4.2,19.73,4.44Zm.91-1.11c-.23.24.05.9.64,1.47s1.25.84,1.48.6-.05-.9-.64-1.47S20.87,3.09,20.64,3.33Zm.94-1c-.23.24,0,.85.55,1.37s1.16.75,1.38.51,0-.85-.55-1.36S21.81,2.12,21.58,2.36Z"/><ellipse class="cls-1" cx="23.41" cy="2.45" rx="0.59" ry="1.35" transform="matrix(0.84, -0.54, 0.54, 0.84, 2.36, 12.98)"/><path class="cls-1" d="M24,.55c-.26.09-.31.65-.1,1.25s.59,1,.85.92.31-.65.1-1.25S24.29.46,24,.55Z"/><path class="cls-1" d="M18.11,23.64a.53.53,0,0,1-.45-.58c.75-8.17-2.37-14-8.78-16.32a.53.53,0,0,1-.32-.68.53.53,0,0,1,.68-.32c6.91,2.54,10.28,8.72,9.48,17.42a.54.54,0,0,1-.58.48Z"/><path class="cls-1" d="M17.89,16.82c0,.41-1.18.71-2.62.69s-2.61-.38-2.6-.79S13.85,16,15.29,16,17.9,16.41,17.89,16.82Zm0,1.76c0,.4-1.18.71-2.63.69s-2.91-.48-2.9-.89,1.49-.61,2.93-.58S17.89,18.17,17.89,18.58Z"/><path class="cls-2" d="M18.3,20.11c0,.4-1.18.71-2.62.69s-2.91-.48-2.9-.89,1.49-.61,2.93-.58S18.31,19.7,18.3,20.11Z"/><path class="cls-1" d="M17.72,15.53c0,.4-1.17.58-2.5.4s-2.35-.65-2.3-1,1.17-.58,2.5-.4S17.78,15.13,17.72,15.53ZM17,13.76c-.05.4-1.06.6-2.26.44s-2.11-.62-2.06-1,1.07-.6,2.26-.44S17,13.36,17,13.76Z"/><path class="cls-1" d="M16.54,12.11c0,.35-.89.64-2,.65s-2-.26-2-.61.89-.64,2-.65S16.53,11.76,16.54,12.11ZM15.15,10.8c0,.31-.74.57-1.66.58s-1.66-.23-1.66-.55.73-.57,1.65-.58S15.14,10.48,15.15,10.8ZM13.83,9.26c.06.31-.5.69-1.27.86s-1.44.07-1.51-.24.5-.69,1.27-.86S13.76,9,13.83,9.26Zm-1.21-.89c.07.32-.55.73-1.4.92s-1.58.08-1.66-.23.56-.73,1.4-.92S12.55,8.05,12.62,8.37ZM11,7.46c.07.29-.5.66-1.27.83s-1.44.08-1.51-.2.51-.66,1.28-.83S11,7.18,11,7.46Zm-1.38-.9c0,.24-.42.56-1.07.71s-1.21.06-1.27-.19.42-.57,1.07-.71S9.57,6.31,9.63,6.56Z"/><path class="cls-1" d="M8.67,6.08c0,.25-.6.38-1.25.28S6.26,6,6.3,5.72s.6-.37,1.26-.27S8.71,5.83,8.67,6.08Z"/><path class="cls-2" d="M9,5.89c-.2.16-.7-.13-1.11-.65S7.29,4.18,7.49,4s.7.13,1.11.65S9.19,5.73,9,5.89Zm14.18,9.73c.06.4-1,.91-2.46,1.14s-2.63.09-2.69-.31,1-.91,2.45-1.14S23.1,15.22,23.17,15.62Zm.88,1.28c.07.4-1.48,1.2-2.9,1.43s-2.63.09-2.69-.31,1-.92,2.45-1.14S24,16.5,24.05,16.9Zm.55,1.68c.07.4-1.87,1.3-3.3,1.53s-2.62.09-2.69-.31,1-.92,2.46-1.14S24.54,18.18,24.6,18.58ZM22,13.71c.12.39-.76,1-2,1.4s-2.3.4-2.42,0,.76-1,2-1.41S21.89,13.32,22,13.71Zm-.8-1.42c.12.39-.67,1-1.77,1.34s-2.1.33-2.23-.05.67-1,1.78-1.34S21.09,11.91,21.22,12.29ZM19.76,10.6c.19.3-.31,1-1.13,1.5s-1.65.72-1.84.42.31-1,1.13-1.51S19.57,10.3,19.76,10.6Zm-1.1-1.5c.25.26-.12,1-.82,1.7s-1.47,1-1.72.76.11-1,.82-1.7S18.41,8.84,18.66,9.1ZM17.55,7.36c.28.19.05,1-.52,1.87s-1.25,1.39-1.52,1.2,0-1,.51-1.87S17.27,7.18,17.55,7.36ZM16.17,7c.28.18.11.93-.39,1.67s-1.11,1.19-1.39,1-.1-.94.39-1.68S15.89,6.78,16.17,7ZM15,5.8c.3.13.26.9-.1,1.71S14,8.87,13.64,8.74s-.26-.91.1-1.72S14.64,5.66,15,5.8Zm-1.26-.69c.3.14.28.86,0,1.6S12.79,8,12.49,7.82s-.29-.85,0-1.6S13.38,5,13.69,5.11Zm-1.24-.55c.3.14.3.8,0,1.48s-.79,1.12-1.09,1-.3-.79,0-1.47S12.15,4.43,12.45,4.56Z"/><path class="cls-2" d="M11,4c.32.06.47.71.33,1.44s-.51,1.28-.83,1.21-.48-.7-.34-1.43S10.71,3.94,11,4ZM9.5,3.79c.28,0,.53.49.56,1.13s-.17,1.16-.44,1.17S9.09,5.6,9.06,5,9.23,3.81,9.5,3.79ZM20.1,25.1H20a.52.52,0,0,1-.46-.59c1.48-11,8.28-16,12.22-16.49a.53.53,0,0,1,.6.46.52.52,0,0,1-.46.59c-3.62.48-9.9,5.13-11.3,15.58A.54.54,0,0,1,20.1,25.1Z"/><path class="cls-2" d="M22.11,18.2c0,.41,1.11.83,2.55.94s2.62-.12,2.65-.52-1.1-.83-2.54-.94S22.15,17.8,22.11,18.2Z"/><ellipse class="cls-2" cx="24.83" cy="16.85" rx="2.42" ry="0.74" transform="translate(-0.59 0.9) rotate(-2.06)"/><path class="cls-2" d="M23.32,15.25c0,.4,1,.7,2.2.65s2.16-.4,2.15-.81-1-.7-2.2-.66S23.3,14.84,23.32,15.25Z"/><path class="cls-2" d="M23.92,13.65c0,.35.82.72,1.93.85s2-.07,2.06-.41-.82-.73-1.93-.85S24,13.3,23.92,13.65Zm1.51-1.17c0,.31.68.64,1.59.74s1.67-.07,1.71-.38-.68-.65-1.59-.74S25.46,12.17,25.43,12.48Zm1.46-1.4c-.09.29.43.73,1.18,1s1.42.2,1.52-.09-.42-.74-1.17-1S27,10.78,26.89,11.08Zm1.29-.77c-.1.31.48.78,1.3,1s1.57.24,1.68-.07-.48-.78-1.31-1S28.28,10,28.18,10.31Zm1.69-.75c-.09.28.44.7,1.19.95s1.42.22,1.51,0-.44-.7-1.18-1S30,9.29,29.87,9.56Zm1.47-.76c-.08.24.36.6,1,.81s1.2.18,1.28-.06-.36-.61-1-.82S31.42,8.55,31.34,8.8Z"/><path class="cls-2" d="M32.34,8.42c0,.25.56.43,1.22.39s1.18-.27,1.17-.52-.56-.43-1.22-.4S32.32,8.16,32.34,8.42Z"/><path class="cls-3" d="M32,8.2c.18.17.7-.07,1.17-.54s.68-1,.5-1.18-.7.06-1.16.54S31.86,8,32,8.2ZM17,16.49c-.11.4.94,1,2.33,1.38s2.61.34,2.71-.05-.94-1-2.33-1.37S17.08,16.1,17,16.49Zm1.33-1.79c-.16.38.65,1.09,1.82,1.6s2.25.61,2.41.24-.66-1.09-1.83-1.59S18.47,14.33,18.31,14.7Zm.93-1.33c-.16.38.57,1.05,1.64,1.51s2.05.53,2.21.16-.57-1-1.63-1.51S19.4,13,19.24,13.37Zm1.62-1.54c-.23.28.21,1,1,1.61s1.56.87,1.79.59-.22-1-1-1.61S21.08,11.55,20.86,11.83Zm1.24-1.38c-.27.23,0,1,.65,1.76s1.37,1.16,1.64.93,0-1-.65-1.77S22.37,10.21,22.1,10.45Zm1.28-1.63c-.3.16-.15,1,.33,1.91s1.1,1.51,1.4,1.35.14-1-.33-1.91S23.67,8.67,23.38,8.82Zm1.4-.25c-.29.15-.19.92.23,1.7s1,1.29,1.28,1.14.2-.92-.22-1.71S25.08,8.41,24.78,8.57Zm1.34-1.05c-.32.11-.35.87-.07,1.72s.76,1.44,1.08,1.33.35-.87.07-1.71S26.43,7.42,26.12,7.52ZM27.44,7c-.32.11-.37.82-.11,1.6s.72,1.32,1,1.22.36-.82.11-1.6S27.75,6.86,27.44,7Zm1.28-.42c-.31.1-.38.76-.14,1.46s.67,1.2,1,1.1.37-.76.14-1.47S29,6.43,28.72,6.54Z"/><path class="cls-3" d="M30.18,6.12c-.32,0-.53.65-.47,1.39s.38,1.32.71,1.3.54-.66.48-1.4S30.51,6.09,30.18,6.12Zm1.55-.06c-.27,0-.57.43-.66,1.06s.05,1.17.32,1.21.57-.43.67-1.06S32,6.1,31.73,6.06Z"/><path class="cls-2" d="M18.17,23.48a.53.53,0,0,1-.48-.41c-.07-.31-1.86-7.43-12.71-7.74a.54.54,0,0,1-.52-.55A.54.54,0,0,1,5,14.26c11.69.33,13.7,8.49,13.72,8.57a.54.54,0,0,1-.4.64Z"/><path class="cls-3" d="M17.42,21.22c.15.38-.8,1.12-2.14,1.66s-2.54.68-2.69.3.8-1.12,2.14-1.66S17.27,20.84,17.42,21.22Zm-.66-1.12c.11.39-.85,1-2.14,1.35s-2.42.33-2.53-.06.85-1,2.14-1.35S16.65,19.7,16.76,20.1Zm-1.38-1.34c.11.39-.74,1-1.9,1.29s-2.19.27-2.3-.12.75-1,1.9-1.29S15.27,18.37,15.38,18.76Z"/><path class="cls-3" d="M14.33,17.42c.14.32-.57.94-1.59,1.39s-2,.55-2.09.23.57-.94,1.58-1.39S14.18,17.1,14.33,17.42Zm-1.8-.66c.13.29-.45.82-1.29,1.19s-1.62.44-1.75.15.46-.82,1.29-1.19S12.4,16.48,12.53,16.76Zm-1.82-.89c.18.25-.18.83-.82,1.29s-1.3.62-1.48.37.18-.83.82-1.29S10.53,15.61,10.71,15.87Zm-1.46-.35c.19.27-.22.89-.92,1.4s-1.43.7-1.62.44.22-.89.93-1.4S9.06,15.26,9.25,15.52Zm-1.83-.2c.17.24-.21.8-.85,1.26s-1.29.65-1.46.41.21-.8.85-1.26S7.25,15.09,7.42,15.32ZM5.79,15c.15.21-.17.69-.7,1.08s-1.1.53-1.25.33.17-.69.71-1.08S5.64,14.83,5.79,15Z"/><path class="cls-3" d="M4.72,15c.06.24-.4.58-1,.74s-1.21.1-1.28-.14.41-.58,1.05-.75S4.66,14.73,4.72,15Z"/><path class="cls-2" d="M4.94,14.68c-.12.22-.69.15-1.28-.16s-1-.75-.83-1,.69-.15,1.27.16S5.06,14.45,4.94,14.68ZM21.8,18c.22.34-.59,1.24-1.81,2s-2.38,1.12-2.6.78.6-1.25,1.81-2S21.58,17.69,21.8,18ZM20,16.73c.27.31-.29,1.24-1.26,2.07s-1.95,1.26-2.22,1,.3-1.23,1.26-2.07S19.73,16.43,20,16.73Zm-1.29-1c.27.3-.23,1.17-1.1,1.93s-1.8,1.13-2.07.82.23-1.17,1.1-1.93S18.43,15.44,18.7,15.75Zm-2-1c.3.21.1,1-.45,1.83s-1.23,1.3-1.52,1.1-.1-1,.45-1.82S16.4,14.56,16.69,14.76Zm-1.6-.94c.33.14.29,1-.09,1.88s-.95,1.52-1.28,1.38-.29-1,.09-1.88S14.76,13.68,15.09,13.82Zm-1.7-1.16c.32.06.44.92.26,1.92s-.6,1.76-.93,1.7-.45-.92-.26-1.92S13.06,12.6,13.39,12.66ZM12,12.84c.33.06.47.82.31,1.69s-.56,1.53-.89,1.47-.46-.82-.3-1.69S11.64,12.78,12,12.84Zm-1.58-.6c.33,0,.59.73.58,1.62s-.29,1.6-.62,1.6-.6-.73-.59-1.62S10,12.24,10.38,12.24ZM9,12.11c.34,0,.6.67.59,1.49s-.29,1.48-.63,1.47-.59-.67-.58-1.49S8.62,12.11,9,12.11Zm-1.35,0c.33,0,.59.61.58,1.36s-.29,1.34-.61,1.34S7,14.18,7,13.43,7.27,12.09,7.6,12.09Z"/><path class="cls-2" d="M6.08,12.13c.32-.07.71.46.87,1.19s0,1.38-.29,1.45-.71-.46-.87-1.19S5.76,12.2,6.08,12.13Zm-1.49.41c.24-.12.67.25,1,.82s.3,1.13,0,1.25-.67-.24-1-.81S4.34,12.67,4.59,12.54Z"/><path class="cls-3" d="M19.67,24.41h0a.54.54,0,0,1-.51-.56c.05-1.16-.05-7.06-7.12-9.3a.53.53,0,0,1,.32-1C20.15,16,20.26,22.6,20.2,23.9A.54.54,0,0,1,19.67,24.41Z"/><path class="cls-4" d="M19.67,23.47c-.06.4-1.18.57-2.51.39s-2.35-.67-2.29-1.07,1.18-.58,2.5-.39S19.72,23.07,19.67,23.47Z"/><path class="cls-5" d="M19.6,22c-.06.4-1.07.59-2.26.42s-2.11-.63-2.05-1,1.07-.59,2.26-.43S19.66,21.58,19.6,22Zm-.68-1.87c0,.35-.9.63-2,.64s-2-.28-2-.63.9-.64,2-.64S18.92,19.76,18.92,20.11Zm-.78-1.23c0,.31-.74.57-1.66.57s-1.66-.25-1.66-.56.74-.57,1.66-.57S18.14,18.57,18.14,18.88Zm-1.31-1.55c.06.31-.5.69-1.27.85s-1.44.06-1.51-.25.5-.69,1.27-.85S16.76,17,16.83,17.33Zm-1.2-.9c.07.32-.56.73-1.41.91s-1.58.07-1.65-.25.56-.72,1.4-.9S15.56,16.11,15.63,16.43Zm-1.09-1c.06.28-.52.65-1.28.81s-1.45.07-1.51-.21.51-.65,1.28-.82S14.48,15.16,14.54,15.45Zm-1.7-.79c.05.25-.43.56-1.07.7s-1.22.05-1.27-.2.43-.56,1.07-.7S12.79,14.41,12.84,14.66Zm-1.14-.55c0,.25-.6.37-1.26.27S9.29,14,9.33,13.73s.6-.37,1.26-.26S11.74,13.86,11.7,14.11Z"/><path class="cls-4" d="M12,13.93c-.2.15-.7-.14-1.11-.66s-.58-1.07-.38-1.23.7.14,1.11.66S12.22,13.77,12,13.93Zm12.33,8c.12.39-.76,1-2,1.39s-2.3.37-2.42,0,.77-1,2-1.39S24.23,21.58,24.35,22Zm-.69-1.36c.12.39-.68,1-1.78,1.33s-2.11.31-2.23-.08.68-1,1.79-1.33S23.54,20.22,23.66,20.61Zm-1.1-1.89c.19.3-.32,1-1.14,1.49s-1.65.7-1.84.4.32-1,1.14-1.5S22.37,18.41,22.56,18.72Zm-.9-1.51c.25.26-.12,1-.83,1.69s-1.48,1-1.73.74.13-1,.83-1.68S21.41,17,21.66,17.21Zm-1.09-1.75c.27.19,0,1-.54,1.87s-1.25,1.37-1.53,1.19,0-1,.53-1.87S20.29,15.27,20.57,15.46Zm-1.38-.4c.28.18.1.93-.4,1.67s-1.12,1.18-1.4,1-.1-.94.4-1.67S18.91,14.87,19.19,15.06ZM18,13.88c.3.13.25.9-.12,1.71s-.91,1.35-1.21,1.22-.25-.91.11-1.72S17.67,13.74,18,13.88Zm-1.26-.7c.31.14.28.86-.06,1.6s-.85,1.24-1.16,1.1-.28-.85.06-1.6S16.42,13.05,16.72,13.18Zm-1.23-.56c.3.14.29.8,0,1.48s-.8,1.12-1.1,1-.29-.79,0-1.47S15.19,12.49,15.49,12.62Z"/><path class="cls-4" d="M14.08,12.05c.32.06.47.71.32,1.44s-.52,1.27-.84,1.21-.47-.71-.32-1.44S13.76,12,14.08,12.05Zm-1.53-.22c.28,0,.52.49.55,1.13s-.18,1.16-.46,1.17-.52-.49-.54-1.13S12.27,11.84,12.55,11.83Zm8.88,12.32h0a.52.52,0,0,1-.49-.57,9.42,9.42,0,0,1,8.88-8.27.53.53,0,0,1,.57.49.52.52,0,0,1-.49.57A8.38,8.38,0,0,0,22,23.66.53.53,0,0,1,21.43,24.15Z"/><path class="cls-4" d="M21.18,22.49c0,.41,1,.76,2.16.78s2.19-.28,2.2-.69-1-.75-2.17-.78S21.19,22.09,21.18,22.49Zm1-1.74c-.06.35.78.78,1.88,1s2,.05,2.08-.29-.78-.78-1.87-1S22.22,20.41,22.16,20.75Zm1-1.08c-.05.31.64.68,1.54.83s1.68,0,1.73-.28-.64-.69-1.54-.84S23.18,19.36,23.13,19.67Zm1.54-1.32c-.11.29.38.76,1.11,1s1.42.29,1.53,0-.38-.76-1.11-1S24.79,18.06,24.67,18.35Zm1.17-.91c-.12.3.44.8,1.24,1.12s1.56.33,1.67,0-.43-.81-1.24-1.13S26,17.13,25.84,17.44Z"/><path class="cls-4" d="M27.24,16.87c-.11.27.4.72,1.13,1s1.41.3,1.52,0-.4-.72-1.14-1S27.34,16.6,27.24,16.87Zm1.8-.51c-.09.24.33.62.94.87s1.19.25,1.29,0-.33-.63-.95-.87S29.13,16.12,29,16.36Z"/><path class="cls-5" d="M30.25,16c0,.25.54.46,1.2.46s1.2-.2,1.2-.45-.54-.46-1.2-.47S30.26,15.75,30.25,16Z"/><path class="cls-5" d="M30,15.77c.17.19.71,0,1.2-.47s.74-1,.57-1.15-.71,0-1.2.47S29.8,15.58,30,15.77ZM17.71,20.64c-.18.36.51,1.08,1.55,1.6s2,.65,2.21.29-.51-1.08-1.55-1.6S17.9,20.28,17.71,20.64Z"/><path class="cls-5" d="M19.1,19.17c-.24.27.16,1,.89,1.66s1.51,1,1.75.69-.16-1-.88-1.66S19.34,18.9,19.1,19.17Zm.82-1.72c-.29.22,0,1,.55,1.8s1.3,1.23,1.58,1,0-1-.54-1.8S20.21,17.23,19.92,17.45Zm1.37-1.55c-.31.14-.21,1,.22,1.93s1,1.56,1.32,1.42.2-1-.22-1.93S21.59,15.76,21.29,15.9Zm1.42-.17c-.31.14-.25.9.12,1.71s.92,1.35,1.22,1.21.25-.91-.12-1.72S23,15.59,22.71,15.73Zm1.39-1c-.33.08-.4.85-.17,1.71s.68,1.48,1,1.39.4-.85.17-1.71S24.42,14.67,24.1,14.76Zm1.35-.48c-.33.09-.42.8-.2,1.59s.64,1.36,1,1.27.42-.8.2-1.59S25.77,14.19,25.45,14.28Zm1.3-.36c-.32.09-.42.74-.22,1.46s.6,1.23.92,1.15.42-.74.23-1.46S27.07,13.84,26.75,13.92Z"/><path class="cls-5" d="M28.24,13.59c-.33,0-.58.62-.56,1.36s.31,1.34.64,1.33.58-.62.55-1.36S28.57,13.58,28.24,13.59Zm1.54,0c-.27-.06-.59.4-.72,1s0,1.18.26,1.23.59-.4.72-1S30.05,13.67,29.78,13.62Z"/><path class="cls-6" d="M4.29,30.68c1.31-1.55,3.49-2.13,5.55-2.24.32,1.68,1.74,7.91,4.72,7.94,2.62,0,3.58-1.14,4.91-1.13s2.28,1.21,4.89,1.24c3,0,4.54-6.16,4.9-7.83,2.06.21,4.22.79,5.5,2.37,2.31,2.87,5.43.81,3.9-2.32-2.43-4.94-8.38-8.47-19-8.59S3,23.39.44,28.28C-1.16,31.37,1.92,33.5,4.29,30.68Z"/><path class="cls-7" d="M15.68,34.22c2,0,2.73-1.06,3.82-1s1.76,1.11,3.79,1.14c2.72,0,3.9-7.31,3.9-7.31s-1.37-2.46-7.59-2.53S12,26.83,12,26.83,13,34.19,15.68,34.22Z"/><path class="cls-6" d="M27.14,31.08s-2.23-2.2-7.59-2.26-7.64,2.09-7.64,2.09l0-2.18s2.44-2.14,7.64-2.08,7.59,2.26,7.59,2.26Z"/></svg>