<svg id="Layer_1" data-name="Layer 1" xmlns="http://www.w3.org/2000/svg" viewBox="0 0 37.49 44.94"><defs><style>.cls-1{fill:#5c913b;}.cls-2{fill:#ff886c;}.cls-3{fill:#77b255;}.cls-4{fill:#dd2e44;}.cls-5{fill:#664500;}.cls-6{fill:#825d0e;}</style></defs><path class="cls-1" d="M.06,14.16s4.88-5,10-5A8.27,8.27,0,0,1,18,14.09a4.88,4.88,0,0,1,5-4,9.53,9.53,0,0,1,6.94,3.13s-3.56,2.12-4.63,2.56c-2.8,1.15-11.37,3.56-15.37,2.56A55.43,55.43,0,0,1,.06,14.16Z"/><path class="cls-2" d="M17,15s1-.89,6-.89c6.54,0,12,4.81,12,12.92,0,11.53-15,17.88-15,17.88S0,43.86,0,27c0-10,6.75-13,11-13C16,14,17,15,17,15Z"/><path class="cls-3" d="M.06,14.16s4.88-5,10-5A8.27,8.27,0,0,1,18,14.09s-4.06,5.25-8.06,4.25A55.43,55.43,0,0,1,.06,14.16Z"/><path class="cls-4" d="M22,39a1,1,0,0,1-.83-1.55S23,34.57,23,28a14,14,0,0,0-4.62-10.22,1,1,0,0,1-.16-1.4,1,1,0,0,1,1.4-.16A15.83,15.83,0,0,1,25,28c0,7.22-2.08,10.42-2.17,10.56A1,1,0,0,1,22,39Z"/><path class="cls-5" d="M33.79,10.15a7,7,0,0,1-5.47.62c.13-1.56.4-7.43-2.23-8.19-2.31-.67-3.45.14-4.63-.2s-1.71-1.64-4-2.3c-2.63-.76-5.53,4.34-6.26,5.73C9.4,5.12,7.63,4.08,6.89,2.36c-1.34-3.1-4.61-2-4,1.1.93,5,5.34,9.56,14.72,12.28s15.57,1.19,19-2.52C38.78,10.88,36.58,8.24,33.79,10.15Z"/><path class="cls-6" d="M24.57,4.22c-1.8-.52-2.68.27-3.64,0S19.64,2.8,17.85,2.28c-2.4-.7-5.24,5.51-5.24,5.51s.6,2.51,6.1,4.1,7.35-.21,7.35-.21S27,4.92,24.57,4.22Z"/><path class="cls-5" d="M13.65,4.18s1.43,2.5,6.17,3.87,7.28,0,7.28,0L26.54,10s-2.69,1.3-7.28,0-6.17-3.86-6.17-3.86Z"/><path class="cls-5" d="M16.3,26.63a.64.64,0,0,0-.6,0,6.89,6.89,0,0,1-3.7.9,6.89,6.89,0,0,1-3.7-.9.64.64,0,0,0-.6,0,.73.73,0,0,0-.2.6c.1.1,1.5,3.3,4.5,3.3s4.4-3.2,4.5-3.3A.73.73,0,0,0,16.3,26.63Zm10,0a.64.64,0,0,0-.6,0,6.89,6.89,0,0,1-3.7.9,6.89,6.89,0,0,1-3.7-.9.64.64,0,0,0-.6,0c-.2.1-.2.4-.1.6s1.5,3.3,4.5,3.3,4.4-3.2,4.5-3.3C26.5,27,26.5,26.83,26.3,26.63ZM21,37H13a1,1,0,0,1,0-2h8a1,1,0,0,1,0,2ZM5,23a1,1,0,0,1,0-2,8.36,8.36,0,0,0,6.2-3.6,1,1,0,0,1,1.6,1.2A10.25,10.25,0,0,1,5,23Zm24,0a10.65,10.65,0,0,1-7.8-4.4,1,1,0,0,1,1.6-1.2A8.51,8.51,0,0,0,29,21a1.08,1.08,0,0,1,1,1A.94.94,0,0,1,29,23Z"/></svg>