<svg id="Layer_1" data-name="Layer 1" xmlns="http://www.w3.org/2000/svg" viewBox="0 0 36 37.84"><defs><style>.cls-1{fill:#d99e82;}.cls-2{fill:#cc927a;}.cls-3{fill:#ffe8b6;}.cls-4{fill:#664500;}.cls-5{fill:#825d0e;}.cls-6{fill:#231f20;}</style></defs><path class="cls-1" d="M36,16.34c0-4.56-4.43-8.27-10-8.48v0H10v0c-5.57.21-10,3.92-10,8.48a7.46,7.46,0,0,0,2,5V33.84a4,4,0,0,0,4,4H30a4,4,0,0,0,4-4V21.32A7.46,7.46,0,0,0,36,16.34Z"/><path class="cls-2" d="M19,21.32H34v1.5H19Z"/><path class="cls-3" d="M21,16.34c0-3.46-3.54-6.29-8-6.49H10.5c-4.69,0-8.5,2.91-8.5,6.5a5.63,5.63,0,0,0,2,4.18V32.84a3,3,0,0,0,3,3h9a3,3,0,0,0,3-3V20.52A5.68,5.68,0,0,0,21,16.34Z"/><path class="cls-4" d="M23.67,3.67A5,5,0,0,1,20,5.19C19.82,4.09,18.83,0,16.87,0c-1.71,0-2.34.78-3.22.78S12.15,0,10.43,0c-2,0-2.94,4.09-3.16,5.19A5.2,5.2,0,0,1,3.63,3.67C2.09,1.8.05,3.18,1.09,5.22c1.63,3.24,5.57,5.52,12.56,5.52S24.59,8.46,26.22,5.22C27.25,3.18,25.21,1.8,23.67,3.67Z"/><path class="cls-5" d="M16.16,1.43c-1.34,0-1.79.72-2.51.72s-1.16-.72-2.5-.72c-1.79,0-2.51,4.83-2.51,4.83s.92,1.61,5,1.61,5-1.61,5-1.61S18,1.43,16.16,1.43Z"/><path class="cls-4" d="M8.64,3.58S10.12,5,13.65,5s5-1.43,5-1.43V5a7.75,7.75,0,0,1-5,1.43A7.75,7.75,0,0,1,8.64,5Z"/><path class="cls-6" d="M11,19.52a.49.49,0,0,0-.44,0,5,5,0,0,1-2.7.66,5,5,0,0,1-2.71-.66.49.49,0,0,0-.44,0,.56.56,0,0,0-.14.44c.07.07,1.09,2.41,3.29,2.41S11.06,20,11.13,20A.56.56,0,0,0,11,19.52Zm7.31,0a.49.49,0,0,0-.44,0,5,5,0,0,1-2.71.66,5,5,0,0,1-2.7-.66.49.49,0,0,0-.44,0c-.14.07-.14.29-.07.44s1.09,2.41,3.29,2.41S18.44,20,18.52,20C18.44,19.81,18.44,19.67,18.3,19.52Zm-3.88,7.6H8.58a.73.73,0,0,1,0-1.46h5.84a.73.73,0,0,1,0,1.46ZM2.73,16.89a.73.73,0,1,1,0-1.46A6.13,6.13,0,0,0,7.26,12.8a.73.73,0,1,1,1.17.87A7.48,7.48,0,0,1,2.73,16.89Zm17.54,0a7.76,7.76,0,0,1-5.7-3.22.73.73,0,0,1,1.17-.87,6.25,6.25,0,0,0,4.53,2.63.79.79,0,0,1,.73.73A.69.69,0,0,1,20.27,16.89Z"/></svg>