<svg id="Layer_1" data-name="Layer 1" xmlns="http://www.w3.org/2000/svg" viewBox="0 0 35.9 40.99"><defs><style>.cls-1{fill:#da9f83;}.cls-2{fill:#8a4b38;}.cls-3{fill:#664500;}.cls-4{fill:#825d0e;}.cls-5{fill:#231f20;}</style></defs><path class="cls-1" d="M35,23.87c.41,4.65-2.09,8.73-4.83,12.21-2.31,2.55-5.61,3.63-8.91,4.28a12.12,12.12,0,0,1-9.71-.89,17.38,17.38,0,0,1-3.17-1.18c-2.88-1.85-4.52-4.93-5.78-8C1,27.35.83,23.78,1.16,20.52a17.12,17.12,0,0,1,1.39-3.05A13,13,0,0,1,6.12,12a17.16,17.16,0,0,1,2.3-2.44,17.11,17.11,0,0,1,3.14-1.19,16.64,16.64,0,0,1,3.07-1.3A17.83,17.83,0,0,1,18,7.17,20.7,20.7,0,0,1,24.54,8a17.88,17.88,0,0,1,2.7,2A17.57,17.57,0,0,1,30,11.78,18.94,18.94,0,0,1,34,17.23,24.59,24.59,0,0,1,35,23.87Z" transform="translate(0 0)"/><path class="cls-2" d="M22.64,23A2.24,2.24,0,1,1,24,27.22c-1.18.38-3.87.2-4.25-1S21.46,23.33,22.64,23Zm8.57-.68a1.07,1.07,0,1,1-1.64-1.37c.38-.45,1.51-1.06,2-.68S31.59,21.82,31.21,22.27Zm-22-7A1.07,1.07,0,1,1,7.57,13.9c.38-.45,1.51-1.06,2-.68S9.59,14.82,9.21,15.27ZM21.3,13.38A1.61,1.61,0,0,1,23,10.67c.75.48,1.88,2.05,1.4,2.8S22.05,13.86,21.3,13.38ZM13.38,19.6a2.14,2.14,0,1,1,3.86-1.86c.52,1.07.69,3.64-.38,4.16S13.89,20.67,13.38,19.6Zm1,14.1a1.92,1.92,0,0,1,2.67-.5,1.94,1.94,0,0,1,.49,2.68c-.6.87-2.53,2.15-3.4,1.54S13.79,34.57,14.4,33.7Zm10-.41A1.47,1.47,0,1,1,26,30.81c.68.44,1.71,1.88,1.27,2.56S25.1,33.73,24.41,33.29ZM5.54,24.42a2.07,2.07,0,0,1,3.08,2.76c-.76.85-3,1.95-3.84,1.19S4.77,25.27,5.54,24.42Z" transform="translate(0 0)"/><path class="cls-3" d="M32,5.13a7,7,0,0,1-5.08,2.12C26.56,5.71,25.19,0,22.45,0c-2.4,0-3.27,1.09-4.5,1.09S15.85,0,13.45,0C10.71,0,9.34,5.71,9,7.25,7.13,7.08,5.14,6.57,4,5.13,1.8,2.52-1,4.44.39,7.3,2.67,11.82,8.18,15,18,15s15.28-3.18,17.56-7.7C37,4.44,34.1,2.52,32,5.13Z" transform="translate(0 0)"/><path class="cls-4" d="M21.45,2C19.58,2,19,3,18,3s-1.63-1-3.5-1C12,2,11,8.75,11,8.75S12.23,11,18,11s7-2.25,7-2.25S24,2,21.45,2Z" transform="translate(0 0)"/><path class="cls-3" d="M11,5S13,7,18,7s7-2,7-2V7s-2.22,2-7,2-7-2-7-2Z" transform="translate(0 0)"/><path class="cls-5" d="M17.3,23.6a.64.64,0,0,0-.6,0,6.89,6.89,0,0,1-3.7.9,6.89,6.89,0,0,1-3.7-.9.64.64,0,0,0-.6,0,.73.73,0,0,0-.2.6c.1.1,1.5,3.3,4.5,3.3s4.4-3.2,4.5-3.3A.73.73,0,0,0,17.3,23.6Zm10,0a.64.64,0,0,0-.6,0,6.89,6.89,0,0,1-3.7.9,6.89,6.89,0,0,1-3.7-.9.64.64,0,0,0-.6,0c-.2.1-.2.4-.1.6s1.5,3.3,4.5,3.3,4.4-3.2,4.5-3.3C27.5,24,27.5,23.8,27.3,23.6ZM22,34H14a1,1,0,0,1,0-2h8a1,1,0,0,1,0,2ZM6,20a1,1,0,0,1,0-2,8.36,8.36,0,0,0,6.2-3.6,1,1,0,0,1,1.6,1.2A10.25,10.25,0,0,1,6,20Zm24,0a10.65,10.65,0,0,1-7.8-4.4,1,1,0,0,1,1.6-1.2A8.51,8.51,0,0,0,30,18a1.08,1.08,0,0,1,1,1A.94.94,0,0,1,30,20Z" transform="translate(0 0)"/></svg>