<svg id="Layer_1" data-name="Layer 1" xmlns="http://www.w3.org/2000/svg" viewBox="0 0 32.95 38.52"><defs><style>.cls-1{fill:#ffdc5d;}.cls-2{fill:#b7755e;}.cls-3{fill:#e6e7e8;}.cls-4{fill:#d1d3d4;}.cls-5{fill:#7a0b1c;}.cls-6{fill:#a0232f;}.cls-7{fill:#841021;}.cls-8{fill:#664500;}</style></defs><path class="cls-1" d="M6.6,23.52c0,2.21-1.12,4-2.5,4s-2.5-1.79-2.5-4,1.12-4,2.5-4S6.6,21.32,6.6,23.52Z"/><path class="cls-1" d="M4.6,21.09c0-8.53,5.38-15.44,12-15.44s12,6.91,12,15.44-5.37,15.43-12,15.43S4.6,29.61,4.6,21.09Z"/><path class="cls-1" d="M31.6,23.52c0,2.21-1.12,4-2.5,4s-2.5-1.79-2.5-4,1.12-4,2.5-4S31.6,21.32,31.6,23.52Z"/><path class="cls-2" d="M17.6,28.52h-2a1,1,0,1,1,0-2h2a1,1,0,0,1,0,2Z"/><path class="cls-3" d="M28.6,27.52c0-2-2.29-.7-3,0-1,1-3,3-5,2-2.82-1.41-4-1-4-1s-1.17-.41-4,1c-2,1-4-1-5-2-.7-.7-3-2-3,0s1,2,1,2a2.19,2.19,0,0,0,1,3,2.94,2.94,0,0,0,3,3c0,3,4,2,4,2a5,5,0,0,0,6,0s4,1,4-2a2.94,2.94,0,0,0,3-3,2.19,2.19,0,0,0,1-3S28.6,29.52,28.6,27.52Z"/><path class="cls-1" d="M16.6,30.52c7,0,4,2,0,2S9.6,30.52,16.6,30.52Z"/><ellipse class="cls-4" cx="4.6" cy="16.52" rx="2" ry="4"/><ellipse class="cls-4" cx="27.6" cy="16.52" rx="2" ry="4"/><path class="cls-5" d="M29.32,4.71a6.45,6.45,0,0,1-4.66,1.94C24.38,5.24,23.12,0,20.61,0c-2.21,0-3,1-4.13,1s-1.93-1-4.13-1C9.83,0,8.57,5.24,8.29,6.65A6.61,6.61,0,0,1,3.63,4.71c-2-2.4-4.59-.63-3.27,2,2.09,4.15,7.15,7.07,16.12,7.07s14-2.92,16.11-7.07C33.91,4.08,31.3,2.31,29.32,4.71Z"/><path class="cls-6" d="M19.69,1.84c-1.72,0-2.3.91-3.21.91s-1.5-.91-3.22-.91C11,1.84,10.05,8,10.05,8s1.18,2.07,6.43,2.07S22.9,8,22.9,8,22,1.84,19.69,1.84Z"/><path class="cls-7" d="M10.05,4.59S12,6.42,16.48,6.42,22.9,4.59,22.9,4.59V6.42s-2,1.84-6.42,1.84-6.43-1.84-6.43-1.84Z"/><path class="cls-8" d="M15.64,21.5a.45.45,0,0,0-.42,0,4.8,4.8,0,0,1-2.57.62,4.8,4.8,0,0,1-2.57-.62.45.45,0,0,0-.42,0,.49.49,0,0,0-.14.41c.07.07,1.05,2.3,3.13,2.3s3.06-2.23,3.13-2.3A.49.49,0,0,0,15.64,21.5Zm7,0a.43.43,0,0,0-.41,0,4.86,4.86,0,0,1-2.58.62A4.84,4.84,0,0,1,17,21.5a.45.45,0,0,0-.42,0c-.13.07-.13.27-.07.41s1.05,2.3,3.13,2.3,3.06-2.23,3.13-2.3S22.73,21.64,22.59,21.5ZM19.38,32.22H13.82a.7.7,0,0,1,0-1.39h5.56a.7.7,0,1,1,0,1.39ZM7.79,19a.65.65,0,0,1-.7-.69.66.66,0,0,1,.7-.7,5.83,5.83,0,0,0,4.31-2.5.74.74,0,0,1,1-.14.75.75,0,0,1,.14,1A7.15,7.15,0,0,1,7.79,19Zm16.68,0a7.4,7.4,0,0,1-5.42-3,.75.75,0,0,1,.14-1,.74.74,0,0,1,1,.14,5.92,5.92,0,0,0,4.31,2.5.74.74,0,0,1,.69.7A.65.65,0,0,1,24.47,19Z"/></svg>