<svg id="Layer_1" data-name="Layer 1" xmlns="http://www.w3.org/2000/svg" viewBox="0 0 36 41.03"><defs><style>.cls-1{fill:#f4900c;}.cls-2{fill:#3f7123;}.cls-3{fill:#642116;}.cls-4{fill:#664500;}.cls-5{fill:#825d0e;}</style></defs><path class="cls-1" d="M32.66,8.52C29.36,5.13,23.42,4.75,18,4.75S6.64,5.13,3.34,8.52C.58,11.34,0,15.75,0,19.79,0,25.05,2,31.1,6.36,34c3,2,7.59,1.84,11.64,1.84s8.64.18,11.64-1.84C34,31.1,36,25.05,36,19.79,36,15.75,35.42,11.34,32.66,8.52Z" transform="translate(0 5.15)"/><path class="cls-2" d="M20.78,5.44a.64.64,0,0,1-.64.77H15.69A.64.64,0,0,1,15,5.44L15.78,1a1,1,0,0,1,.91-.76h2.45A1,1,0,0,1,20,1Z" transform="translate(0 5.15)"/><path class="cls-3" d="M20.57,23.72,19,21.13a1.31,1.31,0,0,0-1.06-.82,1.31,1.31,0,0,0-1.06.82l-1.59,2.59c-.59,1.1.87,1.72,2.65,1.72S21.15,24.82,20.57,23.72ZM5.79,32A.36.36,0,0,0,6,32h.84A.37.37,0,0,0,7,32l2.24-1.33L12,32a.34.34,0,0,0,.18,0,.38.38,0,0,0,.17,0l2.43-1.75,3,1.93.05,0,0,0H18l.05,0,.05,0,3.07-1.85,2.39,1.8a.38.38,0,0,0,.17.06.52.52,0,0,0,.18,0l2.71-1.23,2.22,1.39a.44.44,0,0,0,.18,0h.84a.27.27,0,0,0,.21-.07.09.09,0,0,0,0-.14L27.41,29a.29.29,0,0,0-.17-.07.34.34,0,0,0-.2,0l-2,.82-3-2.15a.35.35,0,0,0-.18-.05h0a.38.38,0,0,0-.16,0L18,29.5l-3.62-1.95a.47.47,0,0,0-.17,0h0a.29.29,0,0,0-.17.05l-3,2.07-2-.87a.34.34,0,0,0-.2,0,.3.3,0,0,0-.16.07l-2.79,3A.1.1,0,0,0,5.79,32ZM28,14.4c.75,2,.37,3.87-1.91,4.72s-3.78-.32-4.53-2.31-.32-5.26,1.46-5.92S27.21,12.4,28,14.4ZM8.06,14.35c-.78,2-.42,3.87,1.84,4.75s3.79-.27,4.56-2.25.4-5.26-1.37-5.94S8.83,12.37,8.06,14.35Z" transform="translate(0 5.15)"/><path class="cls-4" d="M32,0A7,7,0,0,1,26.92,2.1C26.61.56,25.24-5.15,22.5-5.15c-2.4,0-3.27,1.09-4.5,1.09s-2.1-1.09-4.5-1.09C10.76-5.15,9.39.56,9.08,2.1,7.18,1.93,5.19,1.42,4,0,1.85-2.63-1-.71.44,2.15,2.72,6.67,8.23,9.85,18,9.85s15.28-3.18,17.56-7.7C37-.71,34.15-2.63,32,0Z" transform="translate(0 5.15)"/><path class="cls-5" d="M21.5-3.15c-1.87,0-2.5,1-3.5,1s-1.63-1-3.5-1C12-3.15,11,3.6,11,3.6s1.28,2.25,7,2.25S25,3.6,25,3.6,24-3.15,21.5-3.15Z" transform="translate(0 5.15)"/><path class="cls-4" d="M11-.15s2.07,2,7,2,7-2,7-2v2s-2.22,2-7,2-7-2-7-2Z" transform="translate(0 5.15)"/></svg>