<svg id="Layer_1" data-name="Layer 1" xmlns="http://www.w3.org/2000/svg" viewBox="0 0 32.06 41.34"><defs><style>.cls-1{fill:#ccd6dd;}.cls-2{fill:#231f20;}.cls-3{fill:#664500;}.cls-4{fill:#825d0e;}</style></defs><path class="cls-1" d="M34,16C34,6,26.84,0,18,0S2,6,2,16c0,5.57,0,10.39,6,12.64V33a3,3,0,0,0,6,0V29.84l1,.07V33a3,3,0,0,0,6,0V29.92l1-.07V33a3,3,0,0,0,6,0V28.64C34,26.39,34,21.57,34,16Z" transform="translate(-1.94 5.34)"/><path class="cls-2" d="M17.3,16.92a.64.64,0,0,0-.6,0,6.89,6.89,0,0,1-3.7.9,6.89,6.89,0,0,1-3.7-.9.64.64,0,0,0-.6,0,.73.73,0,0,0-.2.6c.1.1,1.5,3.3,4.5,3.3s4.4-3.2,4.5-3.3A.73.73,0,0,0,17.3,16.92Zm10,0a.64.64,0,0,0-.6,0,6.89,6.89,0,0,1-3.7.9,6.89,6.89,0,0,1-3.7-.9.64.64,0,0,0-.6,0c-.2.1-.2.4-.1.6s1.5,3.3,4.5,3.3,4.4-3.2,4.5-3.3C27.5,17.32,27.5,17.12,27.3,16.92ZM22,27.32H14a1,1,0,0,1,0-2h8a1,1,0,0,1,0,2Zm-16-14a1,1,0,0,1,0-2,8.36,8.36,0,0,0,6.2-3.6,1.08,1.08,0,0,1,1.4-.2,1.08,1.08,0,0,1,.2,1.4A10.25,10.25,0,0,1,6,13.32Zm24,0a10.65,10.65,0,0,1-7.8-4.4,1.08,1.08,0,0,1,.2-1.4,1.08,1.08,0,0,1,1.4.2,8.51,8.51,0,0,0,6.2,3.6,1.08,1.08,0,0,1,1,1A.94.94,0,0,1,30,13.32Z" transform="translate(-1.94 5.34)"/><path class="cls-3" d="M29.63-.89A6.1,6.1,0,0,1,25.23.94C25-.39,23.77-5.34,21.4-5.34c-2.08,0-2.83,1-3.9,1s-1.82-1-3.9-1c-2.37,0-3.56,5-3.83,6.28A6.27,6.27,0,0,1,5.37-.89C3.5-3.16,1-1.49,2.28,1,4.26,4.9,9,7.66,17.5,7.66S30.74,4.9,32.72,1C34-1.49,31.5-3.16,29.63-.89Z" transform="translate(-1.94 5.34)"/><path class="cls-4" d="M20.53-3.61c-1.62,0-2.16.87-3,.87s-1.41-.87-3-.87c-2.17,0-3,5.85-3,5.85s1.11,2,6.07,2,6.07-1.95,6.07-1.95S22.7-3.61,20.53-3.61Z" transform="translate(-1.94 5.34)"/><path class="cls-3" d="M11.43-1S13.23.73,17.5.73,23.57-1,23.57-1V.73S21.64,2.46,17.5,2.46,11.43.73,11.43.73Z" transform="translate(-1.94 5.34)"/></svg>