<svg id="Layer_1" data-name="Layer 1" xmlns="http://www.w3.org/2000/svg" viewBox="0 0 35.9 42"><defs><style>.cls-1{fill:#bf6952;}.cls-2{fill:#854836;}.cls-3{fill:#aa8dd8;}.cls-4{fill:#744eaa;}.cls-5{fill:#231f20;}.cls-6{fill:#664500;}.cls-7{fill:#825d0e;}</style></defs><path class="cls-1" d="M28.74,34.77l-21.46.07L5.63,39.68a1.29,1.29,0,0,0-.07.58,2,2,0,0,0,2,1.74h20.9a2,2,0,0,0,2-1.74,1.29,1.29,0,0,0-.07-.58Z" transform="translate(0 0)"/><path class="cls-2" d="M28.74,34.77l-.19-.56a1.46,1.46,0,0,0-1.39-1H8.88a1.46,1.46,0,0,0-1.39,1l-.21.63a17.07,17.07,0,0,0,21.46-.07Z" transform="translate(0 0)"/><circle class="cls-3" cx="17.96" cy="21.49" r="15.29"/><circle class="cls-4" cx="23.27" cy="18.37" r="4.2"/><circle class="cls-4" cx="14.88" cy="24.66" r="3.15"/><circle class="cls-4" cx="15.92" cy="11.03" r="2.1"/><path class="cls-5" d="M17.3,23.6a.64.64,0,0,0-.6,0,6.89,6.89,0,0,1-3.7.9,6.89,6.89,0,0,1-3.7-.9.64.64,0,0,0-.6,0,.73.73,0,0,0-.2.6c.1.1,1.5,3.3,4.5,3.3s4.4-3.2,4.5-3.3A.73.73,0,0,0,17.3,23.6Zm10,0a.64.64,0,0,0-.6,0,6.89,6.89,0,0,1-3.7.9,6.89,6.89,0,0,1-3.7-.9.64.64,0,0,0-.6,0c-.2.1-.2.4-.1.6s1.5,3.3,4.5,3.3,4.4-3.2,4.5-3.3C27.5,24,27.5,23.8,27.3,23.6ZM22,34H14a1,1,0,0,1,0-2h8a1,1,0,0,1,0,2ZM6,20a1,1,0,0,1,0-2,8.36,8.36,0,0,0,6.2-3.6,1,1,0,0,1,1.6,1.2A10.25,10.25,0,0,1,6,20Zm24,0a10.65,10.65,0,0,1-7.8-4.4,1,1,0,0,1,1.6-1.2A8.51,8.51,0,0,0,30,18a1.08,1.08,0,0,1,1,1A.94.94,0,0,1,30,20Z" transform="translate(0 0)"/><path class="cls-6" d="M32,5.13a7,7,0,0,1-5.08,2.12C26.56,5.71,25.19,0,22.45,0c-2.4,0-3.27,1.09-4.5,1.09S15.85,0,13.45,0C10.71,0,9.34,5.71,9,7.25,7.13,7.08,5.14,6.57,4,5.13,1.8,2.52-1,4.44.39,7.3,2.67,11.82,8.18,15,18,15s15.28-3.18,17.56-7.7C37,4.44,34.1,2.52,32,5.13Z" transform="translate(0 0)"/><path class="cls-7" d="M21.45,2C19.58,2,19,3,18,3s-1.63-1-3.5-1C12,2,11,8.75,11,8.75S12.23,11,18,11s7-2.25,7-2.25S24,2,21.45,2Z" transform="translate(0 0)"/><path class="cls-6" d="M11,5S13,7,18,7s7-2,7-2V7s-2.22,2-7,2-7-2-7-2Z" transform="translate(0 0)"/></svg>