<svg id="Layer_1" data-name="Layer 1" xmlns="http://www.w3.org/2000/svg" viewBox="0 0 36 43.5"><defs><style>.cls-1{fill:#da2f47;}.cls-2{fill:#664500;}.cls-3{fill:#825d0e;}.cls-4{fill:#231f20;}</style></defs><path class="cls-1" d="M36,25.5a18,18,0,1,1-18-18,18,18,0,0,1,18,18"/><path class="cls-2" d="M32,5.13a7,7,0,0,1-5.08,2.12C26.61,5.71,25.24,0,22.5,0,20.1,0,19.23,1.09,18,1.09S15.9,0,13.5,0C10.76,0,9.39,5.71,9.08,7.25,7.18,7.08,5.19,6.57,4,5.13,1.85,2.52-1,4.44.44,7.3,2.72,11.82,8.23,15,18,15s15.28-3.18,17.56-7.7C37,4.44,34.15,2.52,32,5.13Z"/><path class="cls-3" d="M21.5,2C19.63,2,19,3,18,3s-1.63-1-3.5-1C12,2,11,8.75,11,8.75S12.28,11,18,11s7-2.25,7-2.25S24,2,21.5,2Z"/><path class="cls-2" d="M11,5s2.07,2,7,2,7-2,7-2V7s-2.22,2-7,2-7-2-7-2Z"/><path class="cls-4" d="M17.24,25.84a.7.7,0,0,0-.66,0,7.48,7.48,0,0,1-4,1,7.52,7.52,0,0,1-4-1,.68.68,0,0,0-.65,0,.8.8,0,0,0-.22.65c.11.11,1.63,3.6,4.9,3.6s4.8-3.49,4.91-3.6A.8.8,0,0,0,17.24,25.84Zm10.89,0a.68.68,0,0,0-.65,0,7.52,7.52,0,0,1-4,1,7.48,7.48,0,0,1-4-1,.7.7,0,0,0-.66,0c-.22.11-.22.44-.11.65s1.64,3.6,4.91,3.6,4.79-3.49,4.9-3.6C28.35,26.28,28.35,26.06,28.13,25.84ZM22.36,37.17H13.64a1.09,1.09,0,1,1,0-2.18h8.72a1.09,1.09,0,1,1,0,2.18ZM4.93,21.92a1.09,1.09,0,1,1,0-2.18,9.1,9.1,0,0,0,6.75-3.92,1.17,1.17,0,0,1,1.53-.22,1.17,1.17,0,0,1,.21,1.52A11.15,11.15,0,0,1,4.93,21.92Zm26.14,0a11.58,11.58,0,0,1-8.49-4.8,1.09,1.09,0,1,1,1.74-1.3,9.26,9.26,0,0,0,6.75,3.92,1.16,1.16,0,0,1,1.09,1.09A1,1,0,0,1,31.07,21.92Z"/></svg>