<svg id="Layer_1" data-name="Layer 1" xmlns="http://www.w3.org/2000/svg" viewBox="0 0 36.45 43.5"><defs><style>.cls-1{fill:#4289c1;}.cls-2{fill:#fee7b8;}.cls-3{fill:#ff7892;}.cls-4{fill:none;}.cls-5{fill:#bb1a34;}.cls-6{fill:#da2f47;}.cls-7{fill:#664500;}.cls-8{fill:#825d0e;}</style></defs><circle class="cls-1" cx="29" cy="10.5" r="2"/><circle class="cls-1" cx="33" cy="15.5" r="3"/><circle class="cls-1" cx="33" cy="11.5" r="3"/><circle class="cls-1" cx="7" cy="10.5" r="2"/><circle class="cls-1" cx="3" cy="15.5" r="3"/><circle class="cls-1" cx="3" cy="11.5" r="3"/><path class="cls-2" d="M36,25.5a18,18,0,1,1-18-18,18,18,0,0,1,18,18"/><circle class="cls-1" cx="30.5" cy="12" r="2.5"/><circle class="cls-1" cx="32" cy="14.5" r="2"/><circle class="cls-1" cx="5.5" cy="12" r="2.5"/><circle class="cls-1" cx="4" cy="14.5" r="2"/><circle class="cls-3" cx="6.93" cy="28.5" r="4"/><circle class="cls-3" cx="28.93" cy="28.5" r="4"/><path class="cls-4" d="M27.33,31.13a.5.5,0,0,0-.63,0A16.26,16.26,0,0,1,18,34a16.3,16.3,0,0,1-8.7-2.9.5.5,0,0,0-.73.66C8.7,32,11.79,38.5,18,38.5s9.3-6.53,9.43-6.74A.5.5,0,0,0,27.33,31.13Z"/><circle class="cls-5" cx="18.5" cy="27" r="3.5"/><path class="cls-6" d="M22.5,36.72h-8a1,1,0,1,1,0-2h8a1,1,0,1,1,0,2Z"/><path class="cls-7" d="M17.93,19.34a.64.64,0,0,0-.6,0,6.89,6.89,0,0,1-3.7.9,6.89,6.89,0,0,1-3.7-.9.64.64,0,0,0-.6,0,.73.73,0,0,0-.2.6c.1.1,1.5,3.3,4.5,3.3s4.4-3.2,4.5-3.3A.73.73,0,0,0,17.93,19.34Z"/><path class="cls-7" d="M27.93,19.34a.64.64,0,0,0-.6,0,6.89,6.89,0,0,1-3.7.9,6.89,6.89,0,0,1-3.7-.9.64.64,0,0,0-.6,0c-.2.1-.2.4-.1.6s1.5,3.3,4.5,3.3,4.4-3.2,4.5-3.3C28.13,19.74,28.13,19.54,27.93,19.34Z"/><path class="cls-7" d="M6.63,18.49a1,1,0,1,1,0-2,8.36,8.36,0,0,0,6.2-3.6,1,1,0,0,1,1.6,1.2A10.25,10.25,0,0,1,6.63,18.49Z"/><path class="cls-7" d="M30.49,18.49a10.65,10.65,0,0,1-7.8-4.4,1,1,0,0,1,1.6-1.2,8.51,8.51,0,0,0,6.2,3.6,1.08,1.08,0,0,1,1,1A.94.94,0,0,1,30.49,18.49Z"/><path class="cls-7" d="M32.5,5.13a7,7,0,0,1-5.08,2.12C27.11,5.71,25.74,0,23,0c-2.4,0-3.27,1.09-4.5,1.09S16.4,0,14,0C11.26,0,9.89,5.71,9.58,7.25c-1.9-.17-3.89-.68-5.08-2.12C2.35,2.52-.5,4.44.94,7.3,3.22,11.82,8.73,15,18.5,15s15.28-3.18,17.56-7.7C37.5,4.44,34.65,2.52,32.5,5.13Z"/><path class="cls-8" d="M22,2c-1.87,0-2.5,1-3.5,1S16.87,2,15,2c-2.5,0-3.5,6.75-3.5,6.75S12.78,11,18.5,11s7-2.25,7-2.25S24.5,2,22,2Z"/><path class="cls-7" d="M11.5,5s2.07,2,7,2,7-2,7-2V7s-2.22,2-7,2-7-2-7-2Z"/></svg>