<svg id="Layer_1" data-name="Layer 1" xmlns="http://www.w3.org/2000/svg" viewBox="0 0 36 42"><defs><style>.cls-1{fill:#da2f47;}.cls-2{fill:#292f33;}.cls-3{fill:#fff;}.cls-4{fill:#231f20;}.cls-5{fill:#664500;}.cls-6{fill:#825d0e;}</style></defs><path class="cls-1" d="M36,24A18,18,0,1,1,18,6,18,18,0,0,1,36,24"/><path class="cls-2" d="M29.74,39H6.26A2.27,2.27,0,0,1,4,36.74V31a2.27,2.27,0,0,1,2.26-2.26H29.74A2.27,2.27,0,0,1,32,31v5.74A2.27,2.27,0,0,1,29.74,39Z"/><path class="cls-3" d="M7.84,33.23H7a.43.43,0,0,1-.45-.46A.42.42,0,0,1,7,32.32H8l.21-1.53c.05-.35.19-.46.48-.46a.41.41,0,0,1,.44.38.93.93,0,0,1,0,.23l-.19,1.38H9.8L10,30.79c.05-.35.19-.46.47-.46a.41.41,0,0,1,.44.38.93.93,0,0,1,0,.23l-.19,1.38h.82a.46.46,0,1,1,0,.91h-.95l-.15,1.08h.81a.46.46,0,1,1,0,.92h-1l-.21,1.53c0,.34-.19.45-.47.45a.41.41,0,0,1-.44-.38,1,1,0,0,1,0-.23l.19-1.37H8.47l-.21,1.53c0,.34-.19.45-.48.45a.4.4,0,0,1-.43-.38,1.93,1.93,0,0,1,0-.23l.19-1.37H6.74a.46.46,0,0,1,0-.92h1Zm.77,1.08h.9l.16-1.08H8.76Zm4.62-2.5a1.47,1.47,0,1,1,1.46,1.53A1.48,1.48,0,0,1,13.23,31.81Zm2,0a.53.53,0,0,0-.5-.57.52.52,0,0,0-.49.57.5.5,0,0,0,.49.56A.51.51,0,0,0,15.19,31.81Zm2.31-1.29c.12-.24.21-.3.43-.3a.55.55,0,0,1,.56.53.53.53,0,0,1-.07.28l-3.2,6c-.14.2-.2.31-.42.31a.57.57,0,0,1-.55-.52.81.81,0,0,1,.1-.35Zm-.93,5.22A1.47,1.47,0,1,1,18,37.27,1.49,1.49,0,0,1,16.57,35.74Zm2,0a.51.51,0,0,0-.49-.57.52.52,0,0,0-.5.57.5.5,0,1,0,1,0Zm2.49.79a.74.74,0,1,1,.74.74A.74.74,0,0,1,21,36.53Zm.05-5.61a.69.69,0,0,1,1.37,0v3.66a.69.69,0,0,1-1.37,0Zm8.08,6.41a.53.53,0,0,1-.43-.2L28,36.34l-.07.07a2.9,2.9,0,0,1-2,.91,2,2,0,0,1-2.23-2,2.45,2.45,0,0,1,1.39-2.06l.11-.07-.09-.1a1.72,1.72,0,0,1-.6-1.27,1.69,1.69,0,0,1,1.9-1.57c.76,0,1.84.46,1.84,1.46a2.06,2.06,0,0,1-1.16,1.65l-.11.06,1.16,1.34.44-.53c.25-.3.39-.43.65-.43a.48.48,0,0,1,.42.53,1.72,1.72,0,0,1-.5.87l-.29.34.7.84a.55.55,0,0,1,.19.42A.59.59,0,0,1,29.15,37.33ZM25.7,33.85a1.6,1.6,0,0,0-.86,1.29,1,1,0,0,0,1.09,1.08,1.69,1.69,0,0,0,1.27-.6l.08-.07-1.5-1.75Zm.68-2.71a.67.67,0,0,0-.67.6c0,.35.17.56.53.93l.05,0,.06,0q.75-.39.75-.87A.67.67,0,0,0,26.38,31.14Z"/><path class="cls-4" d="M16.84,21.58a.64.64,0,0,0-.6,0,6.89,6.89,0,0,1-3.7.9,6.89,6.89,0,0,1-3.7-.9.64.64,0,0,0-.6,0,.73.73,0,0,0-.2.6c.1.1,1.5,3.3,4.5,3.3s4.4-3.2,4.5-3.3A.73.73,0,0,0,16.84,21.58Z"/><path class="cls-4" d="M26.84,21.58a.64.64,0,0,0-.6,0,6.89,6.89,0,0,1-3.7.9,6.89,6.89,0,0,1-3.7-.9.64.64,0,0,0-.6,0c-.2.1-.2.4-.1.6s1.5,3.3,4.5,3.3,4.4-3.2,4.5-3.3C27,22,27,21.78,26.84,21.58Z"/><path class="cls-4" d="M5.54,18a1,1,0,1,1,0-2,8.36,8.36,0,0,0,6.2-3.6,1,1,0,1,1,1.6,1.2A10.25,10.25,0,0,1,5.54,18Z"/><path class="cls-4" d="M29.54,18a10.65,10.65,0,0,1-7.8-4.4,1,1,0,0,1,1.6-1.2,8.51,8.51,0,0,0,6.2,3.6,1.08,1.08,0,0,1,1,1A.94.94,0,0,1,29.54,18Z"/><path class="cls-5" d="M32,5.13a7,7,0,0,1-5.08,2.12C26.61,5.71,25.24,0,22.5,0,20.1,0,19.23,1.09,18,1.09S15.9,0,13.5,0C10.76,0,9.39,5.71,9.08,7.25,7.18,7.08,5.19,6.57,4,5.13,1.85,2.52-1,4.44.44,7.3,2.72,11.82,8.23,15,18,15s15.28-3.18,17.56-7.7C37,4.44,34.15,2.52,32,5.13Z"/><path class="cls-6" d="M21.5,2C19.63,2,19,3,18,3s-1.63-1-3.5-1C12,2,11,8.75,11,8.75S12.28,11,18,11s7-2.25,7-2.25S24,2,21.5,2Z"/><path class="cls-5" d="M11,5s2.07,2,7,2,7-2,7-2V7s-2.22,2-7,2-7-2-7-2Z"/></svg>