<svg id="Layer_1" data-name="Layer 1" xmlns="http://www.w3.org/2000/svg" viewBox="0 0 35.9 40.33"><defs><style>.cls-1{fill:#77b255;}.cls-2{fill:#ea564b;}.cls-3{fill:#f97253;}.cls-4{fill:#231f20;}.cls-5{fill:#664500;}.cls-6{fill:#825d0e;}</style></defs><path class="cls-1" d="M26.38,9.54c.48,0,1.26-.66,1.66-.6a4.77,4.77,0,0,1,1.67,1.29c.1.2-.63,1.18-.74,1.48s-.64.24-1.51-.55A3.59,3.59,0,0,1,26.38,9.54Z" transform="translate(0 0)"/><path class="cls-2" d="M12.3,9.14C16.85,6.48,23.57,6.53,26,8.56a16.8,16.8,0,0,0,4.47,3c2,.8,3.69,3.15,4.41,5.38,1,3,1.68,12.58-8,18.52-6.24,3.81-17.66,5.36-19,4.72a13.38,13.38,0,0,1-6.67-6.45C-.84,29.38-1.32,17.11,12.3,9.14Z" transform="translate(0 0)"/><path class="cls-3" d="M17.33,8.61c5.25-1.48,9.17,2.13,6.75,2.39-4.36.46-9,5-12.63,8.38-6.62,6.25-8.12,13.75-9,12.5C1,29.84,1,22.73,6,16.49S15.12,9.23,17.33,8.61Z" transform="translate(0 0)"/><path class="cls-1" d="M28.27,10.28c2.17.69,5,4.56,4.95,7.81-.12,8.65-4.14,12-4.14,12s-2.55-9.32-2.17-12.72c.28-2.48,1.65-3.16,1.89-4.57A4,4,0,0,0,28.27,10.28Z" transform="translate(0 0)"/><path class="cls-4" d="M17.3,23.6a.64.64,0,0,0-.6,0,6.89,6.89,0,0,1-3.7.9,6.89,6.89,0,0,1-3.7-.9.64.64,0,0,0-.6,0,.73.73,0,0,0-.2.6c.1.1,1.5,3.3,4.5,3.3s4.4-3.2,4.5-3.3A.73.73,0,0,0,17.3,23.6Zm10,0a.64.64,0,0,0-.6,0,6.89,6.89,0,0,1-3.7.9,6.89,6.89,0,0,1-3.7-.9.64.64,0,0,0-.6,0c-.2.1-.2.4-.1.6s1.5,3.3,4.5,3.3,4.4-3.2,4.5-3.3C27.5,24,27.5,23.8,27.3,23.6ZM22,34H14a1,1,0,0,1,0-2h8a1,1,0,0,1,0,2ZM6,20a1,1,0,0,1,0-2,8.36,8.36,0,0,0,6.2-3.6,1,1,0,0,1,1.6,1.2A10.25,10.25,0,0,1,6,20Zm24,0a10.65,10.65,0,0,1-7.8-4.4,1,1,0,0,1,1.6-1.2A8.51,8.51,0,0,0,30,18a1.08,1.08,0,0,1,1,1A.94.94,0,0,1,30,20Z" transform="translate(0 0)"/><path class="cls-5" d="M32,5.13a7,7,0,0,1-5.08,2.12C26.56,5.71,25.19,0,22.45,0c-2.4,0-3.27,1.09-4.5,1.09S15.85,0,13.45,0C10.71,0,9.34,5.71,9,7.25,7.13,7.08,5.14,6.57,4,5.13,1.8,2.52-1,4.44.39,7.3,2.67,11.82,8.18,15,18,15s15.28-3.18,17.56-7.7C37,4.44,34.1,2.52,32,5.13Z" transform="translate(0 0)"/><path class="cls-6" d="M21.45,2C19.58,2,19,3,18,3s-1.63-1-3.5-1C12,2,11,8.75,11,8.75S12.23,11,18,11s7-2.25,7-2.25S24,2,21.45,2Z" transform="translate(0 0)"/><path class="cls-5" d="M11,5S13,7,18,7s7-2,7-2V7s-2.22,2-7,2-7-2-7-2Z" transform="translate(0 0)"/></svg>