<svg id="Layer_1" data-name="Layer 1" xmlns="http://www.w3.org/2000/svg" viewBox="0 0 34.1 36.89"><defs><style>.cls-1{fill:#ffac33;}.cls-2{fill:#ffd983;}.cls-3{fill:#f4900c;}.cls-4{fill:#664500;}.cls-5{fill:#825d0e;}</style></defs><path class="cls-1" d="M10.79,8.3v3.32l5.35-1.39-2.94-2ZM32.25,25.72A2.21,2.21,0,0,1,34,23.48V11.82C30,10.86,0,19,0,19v3.54a3.37,3.37,0,0,1,2.75,3.31A3.37,3.37,0,0,1,0,29.17v7.72l34-6.48V28A2.22,2.22,0,0,1,32.25,25.72Z"/><path class="cls-2" d="M14.59,4.48,10.74,8.32c.74.17,1.26.59,1.26,1.08,0,.65-.9,1.17-2,1.17a2.94,2.94,0,0,1-1.24-.26L0,19.06c13.17-2.91,22-5.28,34.1-7.22C29.24,5.35,17.83,4.48,14.59,4.48Z"/><path class="cls-1" d="M19,7.4c0,.65-.9,1.17-2,1.17s-2-.52-2-1.17.9-1.17,2-1.17S19,6.76,19,7.4Zm-4.93,6.4c0,1-1.36,1.77-3,1.77s-3-.8-3-1.77S9.36,12,11,12,14.07,12.82,14.07,13.8ZM28,10.59c0,1.09-1.52,2-3.4,2s-3.39-.89-3.39-2,1.52-2,3.39-2S28,9.49,28,10.59Z"/><path class="cls-3" d="M32.62,17.85a2.2,2.2,0,1,1-4.37,0,2.2,2.2,0,1,1,4.37,0ZM10.38,22.72A2.18,2.18,0,0,1,8.31,25a2.29,2.29,0,0,1,0-4.55A2.18,2.18,0,0,1,10.38,22.72Zm17.15,5a1.3,1.3,0,1,1-.08-1.93A1.36,1.36,0,0,1,27.53,27.7Zm-9.68-7.38a1.75,1.75,0,1,1-2.67-2.23,1.75,1.75,0,1,1,2.67,2.23Zm.87,10a3.48,3.48,0,0,1-4.81.94,3.48,3.48,0,0,1-.46-4.88,3.47,3.47,0,0,1,4.81-.93A3.47,3.47,0,0,1,18.72,30.33Z"/><path class="cls-4" d="M17.35,24a.53.53,0,0,0-.49,0,5.58,5.58,0,0,1-3,.73,5.62,5.62,0,0,1-3-.73.53.53,0,0,0-.49,0,.6.6,0,0,0-.16.49c.08.08,1.22,2.68,3.66,2.68s3.58-2.6,3.66-2.68A.6.6,0,0,0,17.35,24Zm8.14,0A.53.53,0,0,0,25,24a5.62,5.62,0,0,1-3,.73A5.62,5.62,0,0,1,19,24a.53.53,0,0,0-.49,0c-.16.08-.16.32-.08.49s1.22,2.68,3.66,2.68,3.58-2.6,3.66-2.68C25.65,24.3,25.65,24.14,25.49,24Zm-4.31,8.46H14.67a.77.77,0,0,1-.82-.81.78.78,0,0,1,.82-.82h6.51a.77.77,0,0,1,.81.82A.77.77,0,0,1,21.18,32.44Zm-13-11.39a.82.82,0,1,1,0-1.63,6.79,6.79,0,0,0,5-2.93.89.89,0,0,1,1.14-.16.86.86,0,0,1,.16,1.14A8.33,8.33,0,0,1,8.16,21.05Zm19.53,0a8.64,8.64,0,0,1-6.35-3.58.87.87,0,0,1,.16-1.14.89.89,0,0,1,1.14.16,6.92,6.92,0,0,0,5.05,2.93.88.88,0,0,1,.81.82A.77.77,0,0,1,27.69,21.05Z"/><path class="cls-4" d="M29.56,4.26A5.85,5.85,0,0,1,25.34,6c-.26-1.28-1.4-6-3.68-6-2,0-2.72.91-3.74.91S16.18,0,14.18,0c-2.28,0-3.42,4.75-3.67,6A6,6,0,0,1,6.28,4.26c-1.78-2.17-4.15-.57-3,1.81,1.9,3.76,6.48,6.4,14.6,6.4s12.7-2.64,14.6-6.4C33.72,3.69,31.35,2.09,29.56,4.26Z"/><path class="cls-5" d="M20.83,1.66c-1.55,0-2.08.83-2.91.83S16.57,1.66,15,1.66c-2.08,0-2.91,5.61-2.91,5.61s1.07,1.87,5.82,1.87,5.82-1.87,5.82-1.87S22.91,1.66,20.83,1.66Z"/><path class="cls-4" d="M12.1,4.16s1.72,1.66,5.82,1.66,5.82-1.66,5.82-1.66V5.82s-1.85,1.66-5.82,1.66S12.1,5.82,12.1,5.82Z"/></svg>