<?xml version="1.0" encoding="utf-8"?>
<!-- Generator: Adobe Illustrator 25.2.3, SVG Export Plug-In . SVG Version: 6.00 Build 0)  -->
<svg version="1.1" id="Layer_1" xmlns="http://www.w3.org/2000/svg" xmlns:xlink="http://www.w3.org/1999/xlink" x="0px" y="0px"
	 viewBox="0 0 26 20" style="enable-background:new 0 0 26 20;" xml:space="preserve">
<style type="text/css">
	.st0{fill:#664500;}
</style>
<path class="st0" d="M12.3,9.6c-0.2-0.1-0.4-0.1-0.6,0c0,0-1.3,0.9-3.7,0.9c-2.4,0-3.7-0.9-3.7-0.9c-0.2-0.1-0.4-0.1-0.6,0
	C3.5,9.8,3.5,10,3.5,10.2C3.6,10.3,5,13.5,8,13.5c3,0,4.4-3.2,4.5-3.3C12.5,10,12.5,9.8,12.3,9.6z M22.3,9.6c-0.2-0.1-0.4-0.1-0.6,0
	c0,0-1.3,0.9-3.7,0.9c-2.4,0-3.7-0.9-3.7-0.9c-0.2-0.1-0.4-0.1-0.6,0c-0.2,0.1-0.2,0.4-0.1,0.6c0.1,0.1,1.5,3.3,4.5,3.3
	c3,0,4.4-3.2,4.5-3.3C22.5,10,22.5,9.8,22.3,9.6z M17,20H9c-0.6,0-1-0.4-1-1s0.4-1,1-1h8c0.6,0,1,0.4,1,1S17.6,20,17,20z M1,6
	C0.4,6,0,5.6,0,5c0-0.6,0.4-1,1-1c0.2,0,3.6-0.1,6.2-3.6c0.3-0.4,1-0.5,1.4-0.2c0.4,0.3,0.5,1,0.2,1.4C5.5,6,1.2,6,1,6z M25,6
	c-0.2,0-4.5-0.1-7.8-4.4c-0.3-0.4-0.2-1.1,0.2-1.4c0.4-0.3,1.1-0.2,1.4,0.2C21.4,3.9,24.9,4,25,4c0.5,0,1,0.5,1,1
	C26,5.6,25.6,6,25,6z"/>
</svg>
