<?xml version='1.0' encoding='ASCII' standalone='yes'?>
<svg xmlns="http://www.w3.org/2000/svg" xmlns:xlink="http://www.w3.org/1999/xlink" version="1.1" width="36.0px" viewBox="0 0 36.0 42.0" height="42.0px">
  <g>
    <g transform="translate(0, 6) scale(1 1) ">
      <circle fill="#88C9F9" cx="18" cy="18" r="18"/>
      <path fill="#5C913B" d="M25.716 1.756c-1.022.568-1.872 1.528-3.028 1.181-1.875-.562-4.375-1.812-6-.25s-2 3 0 2.938 3.375-2.438 4.375-1.438.749 1.813-1.625 2.125S14.5 7 13.125 7s-1.688.812-.75 1.688-.563.937-2.125 1.812.375 1.25 1.688 2 2.312-.188 2.875-1.438 2.981-2.75 3.99-2.562c1.01.188 1.01.688.822 1.562s.75.625.812-.375 1.188-1.75 2.062-1.812 1.625 1.188.625 1.812-2 1.125-.75 1.438 2.125 1.938.688 2.625-3.937 1.125-5.062.562-3.688-1.375-4.375-.938-1.062.89-1.875 1.195c-.812.305-4.125 1.805-4.188 3.743S7.438 22.438 8.75 22.5s4.5-.812 5.5-1.625 2.375-.625 2.812.312.125 1.5-.312 3 .286 2.25.987 3.562c.701 1.312 1.263 2.062 1.263 3s1 1.875 2.5.312 2.875-4.625 3.5-5.75 1.125-3.625 1.875-4.125 1.938-1.688 1.062-1.5-2.625-.062-3.062-1.312-2.312-3.625-1.438-3.875 1.875 1.39 2.25 2.164c.375.774.875 1.711 1.625 1.961s2.375-1.673 2.875-1.961c.5-.289.125-1.476-.875-1.351s-2.312 0-2.312-.624 1.25-1.438 2.25-1.25 1.75.5 2.375 1.25 1.875 2.125 2.375 3 .875 1 1.125-.562c.166-1.038.387-1.609.59-2.222-1.013-5.829-4.82-10.683-9.999-13.148z"/>
    </g>
    <g>
      <defs>
        <style>.cls-1{fill:#664500;}.cls-2{fill:#825d0e;}</style>
      </defs>
      <path class="cls-1" d="M32,6.13c-1.19,1.44-3.18,2-5.08,2.12C26.61,6.71,25.24,1,22.5,1,20.1,1,19.23,2.09,18,2.09S15.9,1,13.5,1C10.76,1,9.39,6.71,9.08,8.25,7.18,8.08,5.19,7.57,4,6.13,1.85,3.52-1,5.44.44,8.3,2.72,12.82,8.23,16,18,16s15.28-3.18,17.56-7.7C37,5.44,34.15,3.52,32,6.13Z" transform="translate(-0.05 -1)"/>
      <path class="cls-2" d="M21.5,3C19.63,3,19,4,18,4s-1.63-1-3.5-1C12,3,11,9.75,11,9.75S12.28,12,18,12s7-2.25,7-2.25S24,3,21.5,3Z" transform="translate(-0.05 -1)"/>
      <path class="cls-1" d="M11,6s2.07,2,7,2,7-2,7-2V8s-2.22,2-7,2-7-2-7-2Z" transform="translate(-0.05 -1)"/>
    </g>
    <g transform="translate(5, 14) scale(1 1) "><style type="text/css">
	.st0{fill:#664500;}
</style>
<path class="st0" d="M12.3,9.6c-0.2-0.1-0.4-0.1-0.6,0c0,0-1.3,0.9-3.7,0.9c-2.4,0-3.7-0.9-3.7-0.9c-0.2-0.1-0.4-0.1-0.6,0  C3.5,9.8,3.5,10,3.5,10.2C3.6,10.3,5,13.5,8,13.5c3,0,4.4-3.2,4.5-3.3C12.5,10,12.5,9.8,12.3,9.6z M22.3,9.6c-0.2-0.1-0.4-0.1-0.6,0  c0,0-1.3,0.9-3.7,0.9c-2.4,0-3.7-0.9-3.7-0.9c-0.2-0.1-0.4-0.1-0.6,0c-0.2,0.1-0.2,0.4-0.1,0.6c0.1,0.1,1.5,3.3,4.5,3.3  c3,0,4.4-3.2,4.5-3.3C22.5,10,22.5,9.8,22.3,9.6z M17,20H9c-0.6,0-1-0.4-1-1s0.4-1,1-1h8c0.6,0,1,0.4,1,1S17.6,20,17,20z M1,6  C0.4,6,0,5.6,0,5c0-0.6,0.4-1,1-1c0.2,0,3.6-0.1,6.2-3.6c0.3-0.4,1-0.5,1.4-0.2c0.4,0.3,0.5,1,0.2,1.4C5.5,6,1.2,6,1,6z M25,6  c-0.2,0-4.5-0.1-7.8-4.4c-0.3-0.4-0.2-1.1,0.2-1.4c0.4-0.3,1.1-0.2,1.4,0.2C21.4,3.9,24.9,4,25,4c0.5,0,1,0.5,1,1  C26,5.6,25.6,6,25,6z"/>
</g>
  </g>
</svg>
