<svg id="Layer_1" data-name="Layer 1" xmlns="http://www.w3.org/2000/svg" viewBox="0 0 34 39.8"><defs><style>.cls-1{fill:#77b255;}.cls-2{fill:#3e721d;}.cls-3{fill:#664500;}.cls-4{fill:#825d0e;}.cls-5{fill:#231f20;}</style></defs><path class="cls-1" d="M29,8.32a4,4,0,0,0-4,4v9.12a2.92,2.92,0,0,1-2,2.45V10.32a6,6,0,0,0-12,0V27.94a2.89,2.89,0,0,1-2-2.5V20.32a4,4,0,0,0-8,0v7c0,2.2,1.75,3.87,3.38,4.81A19.32,19.32,0,0,0,11,33.78v3.54c0,3.31,12,3.31,12,0V29.77a20.25,20.25,0,0,0,6.48-1.64C31.1,27.19,33,25.52,33,23.32v-11A4,4,0,0,0,29,8.32Z"/><circle class="cls-2" cx="11" cy="10.32" r="1"/><circle class="cls-2" cx="22" cy="7.32" r="1"/><circle class="cls-2" cx="20" cy="13.32" r="1"/><circle class="cls-2" cx="13" cy="20.32" r="1"/><circle class="cls-2" cx="19" cy="24.32" r="1"/><circle class="cls-2" cx="12" cy="30.32" r="1"/><circle class="cls-2" cx="4" cy="31.32" r="1"/><circle class="cls-2" cx="8" cy="24.32" r="1"/><circle class="cls-2" cx="1" cy="22.32" r="1"/><circle class="cls-2" cx="33" cy="12.32" r="1"/><circle class="cls-2" cx="27" cy="15.32" r="1"/><circle class="cls-2" cx="31" cy="20.32" r="1"/><circle class="cls-2" cx="28" cy="28.32" r="1"/><circle class="cls-2" cx="21" cy="34.32" r="1"/><path class="cls-3" d="M28.85,4.29a5.89,5.89,0,0,1-4.24,1.77C24.35,4.77,23.2,0,20.91,0c-2,0-2.73.91-3.76.91S15.39,0,13.39,0C11.09,0,10,4.77,9.69,6.06A6.08,6.08,0,0,1,5.44,4.29c-1.79-2.18-4.18-.58-3,1.81C4.37,9.88,9,12.54,17.15,12.54S29.92,9.88,31.83,6.1C33,3.71,30.65,2.11,28.85,4.29Z"/><path class="cls-4" d="M20.07,1.67c-1.56,0-2.09.84-2.92.84s-1.36-.84-2.93-.84c-2.09,0-2.92,5.65-2.92,5.65S12.37,9.2,17.15,9.2,23,7.32,23,7.32,22.16,1.67,20.07,1.67Z"/><path class="cls-3" d="M11.3,4.18S13,5.85,17.15,5.85,23,4.18,23,4.18V5.85s-1.86,1.67-5.85,1.67S11.3,5.85,11.3,5.85Z"/><path class="cls-5" d="M16.4,20.11a.4.4,0,0,0-.37,0,4.15,4.15,0,0,1-2.24.55,4.11,4.11,0,0,1-2.24-.55.4.4,0,0,0-.37,0,.44.44,0,0,0-.12.36c.06.06.91,2,2.73,2s2.67-1.94,2.73-2A.44.44,0,0,0,16.4,20.11Zm6.06,0a.38.38,0,0,0-.36,0,4.17,4.17,0,0,1-2.25.55,4.15,4.15,0,0,1-2.24-.55.38.38,0,0,0-.36,0c-.13.06-.13.24-.07.36s.91,2,2.73,2,2.67-1.94,2.73-2S22.58,20.23,22.46,20.11Zm-3.21,6.31H14.4a.61.61,0,1,1,0-1.22h4.85a.61.61,0,0,1,0,1.22Zm-7.57-8.29a.61.61,0,0,1,0-1.22,5,5,0,0,0,3.75-2.18.66.66,0,0,1,.85-.12.64.64,0,0,1,.12.85A6.2,6.2,0,0,1,11.68,18.13Zm10.29,0a6.45,6.45,0,0,1-4.73-2.67.61.61,0,0,1,1-.73A5.15,5.15,0,0,0,22,16.91a.65.65,0,0,1,.6.61A.57.57,0,0,1,22,18.13Z"/></svg>