<svg id="Layer_1" data-name="Layer 1" xmlns="http://www.w3.org/2000/svg" viewBox="0 0 42.21 43.06"><defs><style>.cls-1{fill:#662113;}.cls-2{fill:#5c913b;}.cls-3{fill:#3e721d;}.cls-4{fill:#231f20;}.cls-5{fill:#664500;}.cls-6{fill:#825d0e;}</style></defs><path class="cls-1" d="M25.44,40.06c0,2.21-1.79,3-4,3s-4-.79-4-3l1-9c0-2.21.79-2,3-2s3-.21,3,2Z"/><path class="cls-2" d="M37.44,24.06c0,8.84-7.16,12-16,12s-16-3.16-16-12,9-17,16-17S37.44,15.22,37.44,24.06Z"/><ellipse class="cls-3" cx="9.44" cy="28.06" rx="2" ry="1"/><ellipse class="cls-3" cx="33.44" cy="28.06" rx="2" ry="1"/><ellipse class="cls-3" cx="13.44" cy="32.06" rx="2" ry="1"/><ellipse class="cls-3" cx="17.44" cy="29.06" rx="2" ry="1"/><ellipse class="cls-3" cx="13.44" cy="23.06" rx="2" ry="1"/><ellipse class="cls-3" cx="10.44" cy="19.06" rx="2" ry="1"/><ellipse class="cls-3" cx="32.44" cy="19.06" rx="2" ry="1"/><ellipse class="cls-3" cx="17.44" cy="17.06" rx="2" ry="1"/><ellipse class="cls-3" cx="25.44" cy="17.06" rx="2" ry="1"/><ellipse class="cls-3" cx="29.44" cy="23.06" rx="2" ry="1"/><ellipse class="cls-3" cx="21.44" cy="24.06" rx="2" ry="1"/><ellipse class="cls-3" cx="25.44" cy="29.06" rx="2" ry="1"/><ellipse class="cls-3" cx="21.44" cy="33.06" rx="2" ry="1"/><ellipse class="cls-3" cx="29.44" cy="32.06" rx="2" ry="1"/><path class="cls-4" d="M20.88,23a.74.74,0,0,0-.68,0A7.8,7.8,0,0,1,16,24a7.79,7.79,0,0,1-4.2-1,.74.74,0,0,0-.68,0,.83.83,0,0,0-.23.68c.12.12,1.71,3.75,5.11,3.75s5-3.63,5.12-3.75A.83.83,0,0,0,20.88,23Zm11.36,0a.74.74,0,0,0-.68,0,7.8,7.8,0,0,1-4.21,1,7.79,7.79,0,0,1-4.2-1,.74.74,0,0,0-.68,0c-.23.12-.23.46-.11.68s1.7,3.75,5.11,3.75,5-3.63,5.11-3.75C32.47,23.45,32.47,23.22,32.24,23Zm-6,11.82H17.13a1.14,1.14,0,1,1,0-2.28h9.09a1.14,1.14,0,0,1,0,2.28ZM8,18.9a1.14,1.14,0,0,1,0-2.27,9.5,9.5,0,0,0,7.05-4.09,1.23,1.23,0,0,1,1.59-.23,1.24,1.24,0,0,1,.22,1.6A11.65,11.65,0,0,1,8,18.9Zm27.27,0a12.07,12.07,0,0,1-8.86-5,1.14,1.14,0,1,1,1.81-1.37,9.66,9.66,0,0,0,7.05,4.09,1.22,1.22,0,0,1,1.13,1.14A1.07,1.07,0,0,1,35.31,18.9Z"/><path class="cls-5" d="M37.57,6c-1.4,1.7-3.74,2.35-6,2.49C31.23,6.71,29.62,0,26.4,0c-2.82,0-3.85,1.28-5.29,1.28S18.64,0,15.82,0C12.59,0,11,6.71,10.62,8.52,8.38,8.32,6,7.73,4.64,6,2.12,3-1.23,5.22.46,8.58c2.68,5.32,9.16,9.06,20.65,9.06s18-3.74,20.64-9.06C43.45,5.22,40.1,3,37.57,6Z"/><path class="cls-6" d="M25.22,2.35c-2.2,0-2.94,1.18-4.11,1.18S19.19,2.35,17,2.35c-2.94,0-4.11,7.94-4.11,7.94s1.5,2.64,8.23,2.64,8.23-2.64,8.23-2.64S28.16,2.35,25.22,2.35Z"/><path class="cls-5" d="M12.88,5.88s2.43,2.35,8.23,2.35,8.23-2.35,8.23-2.35V8.23s-2.61,2.35-8.23,2.35-8.23-2.35-8.23-2.35Z"/></svg>