<svg id="Layer_1" data-name="Layer 1" xmlns="http://www.w3.org/2000/svg" viewBox="0 0 46.51 41.9"><defs><style>.cls-1{fill:#744eaa;}.cls-2{fill:#77b255;}.cls-3{fill:#664500;}.cls-4{fill:#825d0e;}.cls-5{fill:#fff;}</style></defs><path class="cls-1" d="M17.51,9.9c3,0,5,2,8,6s8,7.19,12,8a10.88,10.88,0,0,1,9,11c0,4.89-3.85,7-9,7s-9-3-14-8-10-14-10-18S14.51,9.9,17.51,9.9Z"/><path class="cls-2" d="M15,5.9c1.25,0,1.25,1.24,1.25,2.49,0,1.76,1.25,1.13,2.5,1.13s3.74,2.38,3.74,2.38H18.77c-1.25,0,0,2.61-1.25,2.61s-1.25-1.19-2.5-1.19-1.51,3.58-1.51,3.58-1.61-4.16.27-6C15,9.62,12.53,5.9,15,5.9Z"/><path class="cls-3" d="M23.79,1.55A5.58,5.58,0,0,1,20.52,4.4c-.62-1.08-3.06-5-5.1-4.32C13.63.67,13.25,1.7,12.33,2s-1.84-.29-3.63.3C6.65,3,7,7.59,7.19,8.82A5.66,5.66,0,0,1,2.88,8.5C.62,7.08-1,9.22.76,11c2.82,2.81,7.72,3.82,15,1.4S26.4,6.23,27,2.29C27.35-.2,24.74-.93,23.79,1.55Z"/><path class="cls-4" d="M15.17,1.82c-1.4.46-1.62,1.37-2.37,1.62s-1.46-.35-2.86.12C8.07,4.18,9,9.47,9,9.47s1.51,1.36,5.79-.06S19.46,6,19.46,6,17,1.2,15.17,1.82Z"/><path class="cls-3" d="M8.07,6.66s2,1,5.72-.24,4.74-3.23,4.74-3.23L19,4.69s-1.16,2-4.73,3.23-5.72.24-5.72.24Z"/><path class="cls-5" d="M26.7,27.87a.44.44,0,0,0-.32.26,4.75,4.75,0,0,1-1.58,2.1,4.75,4.75,0,0,1-2.36,1.14.43.43,0,0,0-.32.26.53.53,0,0,0,.15.41c.1,0,2.25,1.1,3.85-.21s.94-3.63.95-3.73A.49.49,0,0,0,26.7,27.87ZM32,23.18a.46.46,0,0,0-.32.27,4.75,4.75,0,0,1-1.58,2.1,4.76,4.76,0,0,1-2.37,1.14.43.43,0,0,0-.32.26c-.06.14.07.3.21.36s2.25,1.11,3.84-.21.95-3.63,1-3.73S32.21,23.2,32,23.18Zm4.63,7.57-6,5a1,1,0,1,1-1.23-1.5l6-5a1,1,0,1,1,1.23,1.5ZM21.14,28.59a.65.65,0,0,1-1-.1.65.65,0,0,1,.09-1A5.72,5.72,0,0,0,22,22.89a.76.76,0,0,1,.66-.72.74.74,0,0,1,.72.66A7.09,7.09,0,0,1,21.14,28.59Zm9.05-6.46a7.41,7.41,0,0,1-6.09,1.06.74.74,0,0,1-.51-.83.76.76,0,0,1,.84-.51,5.87,5.87,0,0,0,4.88-.79.75.75,0,0,1,1,.09A.66.66,0,0,1,30.19,22.13Z"/></svg>