<?xml version="1.0" encoding="utf-8"?>
<!-- Generator: Adobe Illustrator 25.2.3, SVG Export Plug-In . SVG Version: 6.00 Build 0)  -->
<svg version="1.1" id="Layer_1" xmlns="http://www.w3.org/2000/svg" xmlns:xlink="http://www.w3.org/1999/xlink" x="0px" y="0px"
	 viewBox="0 0 36 39.3" style="enable-background:new 0 0 36 39.3;" xml:space="preserve">
<style type="text/css">
	.st0{fill:#F4900C;}
	.st1{fill:#3F7123;}
	.st2{fill:#642116;}
	.st3{fill:#664500;}
	.st4{fill:#825D0E;}
</style>
<path class="st0" d="M32.7,11.9C29.4,8.5,23.5,8.1,18,8.1S6.7,8.5,3.4,11.9C0.6,14.7,0,19.1,0,23.2c0,5.3,2,11.3,6.4,14.2
	c3,2,7.6,1.8,11.6,1.8s8.6,0.2,11.6-1.8c4.4-2.9,6.4-9,6.4-14.2C36,19.1,35.5,14.7,32.7,11.9z"/>
<path class="st1" d="M20.8,8.8c0.1,0.4-0.2,0.8-0.6,0.8h-4.5c-0.4,0-0.7-0.3-0.6-0.8l0.7-4.5c0.1-0.4,0.5-0.8,0.9-0.8h2.5
	c0.4,0,0.8,0.3,0.9,0.8C20.1,4.3,20.8,8.8,20.8,8.8z"/>
<path class="st2" d="M20.6,26.3l-1.6-2c-0.3-0.4-0.7-0.6-1.1-0.6c-0.4,0-0.8,0.2-1.1,0.6l-1.6,2c-0.6,0.8,0.9,1.3,2.7,1.3
	S21.2,27.2,20.6,26.3z M5.8,34.7c0,0.1,0.1,0.1,0.2,0.1h0.8c0.1,0,0.1,0,0.2-0.1L9.3,33l2.7,1.7c0.1,0,0.1,0,0.2,0
	c0.1,0,0.1,0,0.2-0.1l2.4-2.4l3.1,2.5c0,0,0,0,0,0c0,0,0,0,0,0c0,0,0,0,0,0c0,0,0,0,0.1,0s0,0,0.1,0c0,0,0,0,0,0c0,0,0,0,0,0
	c0,0,0,0,0,0l3.1-2.5l2.4,2.4c0,0,0.1,0.1,0.2,0.1c0.1,0,0.1,0,0.2,0l2.7-1.7l2.2,1.8c0,0,0.1,0.1,0.2,0.1h0.8c0.1,0,0.2,0,0.2-0.1
	c0-0.1,0-0.1,0-0.2l-2.8-4c0,0-0.1-0.1-0.2-0.1s-0.1,0-0.2,0l-2,1.1l-3-2.8c0,0-0.1-0.1-0.2-0.1l0,0c-0.1,0-0.1,0-0.2,0l-3.7,2.5
	l-3.6-2.5c0,0-0.1,0-0.2,0l0,0c-0.1,0-0.1,0-0.2,0.1l-3,2.8l-2-1.1c-0.1,0-0.1,0-0.2,0c-0.1,0-0.1,0-0.2,0.1l-2.8,4
	C5.7,34.6,5.7,34.7,5.8,34.7z"/>
<path class="st2" d="M16.5,20.6c-0.2-0.1-0.4-0.1-0.6,0c0,0-1.3,0.9-3.7,0.9s-3.7-0.9-3.7-0.9c-0.2-0.1-0.4-0.1-0.6,0
	c-0.2,0.2-0.2,0.4-0.2,0.6c0.1,0.1,1.5,3.3,4.5,3.3s4.4-3.2,4.5-3.3C16.7,21,16.7,20.8,16.5,20.6z"/>
<path class="st2" d="M28.2,20.6c-0.2-0.1-0.4-0.1-0.6,0c0,0-1.3,0.9-3.7,0.9s-3.7-0.9-3.7-0.9c-0.2-0.1-0.4-0.1-0.6,0
	c-0.2,0.1-0.2,0.4-0.1,0.6c0.1,0.1,1.5,3.3,4.5,3.3s4.4-3.2,4.5-3.3C28.4,21,28.4,20.8,28.2,20.6z"/>
<path class="st2" d="M5.2,20c-0.6,0-1-0.4-1-1c0-0.6,0.4-1,1-1c0.2,0,3.6-0.1,6.2-3.6c0.3-0.4,1-0.5,1.4-0.2s0.5,1,0.2,1.4
	C9.7,20,5.4,20,5.2,20z"/>
<path class="st2" d="M30.9,20c-0.2,0-4.5-0.1-7.8-4.4c-0.3-0.4-0.2-1.1,0.2-1.4c0.4-0.3,1.1-0.2,1.4,0.2c2.6,3.5,6.1,3.6,6.2,3.6
	c0.5,0,1,0.5,1,1C31.9,19.6,31.5,20,30.9,20z"/>
<path class="st3" d="M32,5.1c-1.2,1.4-3.2,2-5.1,2.1C26.6,5.7,25.2,0,22.5,0c-2.4,0-3.3,1.1-4.5,1.1S15.9,0,13.5,0
	C10.7,0,9.3,5.7,9,7.2C7.1,7.1,5.1,6.6,4,5.1C1.8,2.5-1,4.4,0.4,7.3C2.7,11.8,8.2,15,18,15s15.3-3.2,17.6-7.7
	C37,4.4,34.1,2.5,32,5.1z"/>
<path class="st4" d="M21.5,2C19.6,2,19,3,18,3s-1.6-1-3.5-1C12,2,11,8.8,11,8.8s1.3,2.2,7,2.2s7-2.2,7-2.2S24,2,21.5,2z"/>
<path class="st3" d="M11,5c0,0,2.1,2,7,2s7-2,7-2v2c0,0-2.2,2-7,2s-7-2-7-2V5z"/>
</svg>
