<svg id="Layer_1" data-name="Layer 1" xmlns="http://www.w3.org/2000/svg" viewBox="0 0 36 41.94"><defs><style>.cls-1{fill:#553788;}.cls-2{fill:#744eaa;}.cls-3{fill:#9266cc;}.cls-4{fill:#231f20;}.cls-5{fill:#664500;}.cls-6{fill:#825d0e;}</style></defs><path class="cls-1" d="M10,18.27c3,5,0,10.69-3,9.69s-4,2-1,3,9.46-.46,13-4a3.1,3.1,0,0,1,2-1Z"/><path class="cls-1" d="M26,18.27c-3,5,0,10.69,3,9.69s4,2,1,3-9.47-.46-13-4a3.1,3.1,0,0,0-2-1Z"/><path class="cls-2" d="M30.19,22.27c-3,5,0,10.69,3,9.69s4,2,1,3-9.47-.46-13-4a3.1,3.1,0,0,0-2-1Zm-24.38,0c3,5,0,10.69-3,9.69s-4,2-1,3,9.47-.46,13-4a3.1,3.1,0,0,1,2-1Z"/><path class="cls-3" d="M33.19,37.65c-2.73.91-6.43-5.63-4.81-10.58A23,23,0,0,0,31,17.27c0-7.18-5.82-11-13-11s-13,3.82-13,11a23,23,0,0,0,2.62,9.8c1.62,5-2.08,11.49-4.81,10.58-3-1-4,3-1,4s8.31-.63,12-4a6.83,6.83,0,0,1,4.19-2,6.83,6.83,0,0,1,4.19,2c3.69,3.37,9,5,12,4S36.19,36.65,33.19,37.65Z"/><path class="cls-4" d="M17.38,20.79a.43.43,0,0,0-.44,0,5.11,5.11,0,0,1-2.73.66,5.12,5.12,0,0,1-2.74-.66.43.43,0,0,0-.44,0,.53.53,0,0,0-.15.44c.08.07,1.11,2.44,3.33,2.44s3.25-2.37,3.32-2.44A.53.53,0,0,0,17.38,20.79Zm7.39,0a.43.43,0,0,0-.44,0,5.11,5.11,0,0,1-2.73.66,5.12,5.12,0,0,1-2.74-.66.43.43,0,0,0-.44,0c-.15.07-.15.29-.07.44s1.1,2.44,3.32,2.44S24.92,21.3,25,21.23C24.92,21.08,24.92,20.94,24.77,20.79Zm-3.91,7.68H15A.74.74,0,0,1,15,27h5.91a.74.74,0,0,1,0,1.48ZM9,18.13a.74.74,0,0,1,0-1.48A6.18,6.18,0,0,0,13.62,14a.79.79,0,0,1,1-.15.8.8,0,0,1,.15,1A7.59,7.59,0,0,1,9,18.13Zm17.74,0A7.87,7.87,0,0,1,21,14.88.74.74,0,1,1,22.19,14a6.26,6.26,0,0,0,4.58,2.66.8.8,0,0,1,.74.74A.7.7,0,0,1,26.77,18.13Z"/><path class="cls-5" d="M30,4.45a6.14,6.14,0,0,1-4.41,1.83C25.36,5,24.18,0,21.8,0,19.72,0,19,.94,17.9.94S16.08,0,14,0c-2.37,0-3.56,5-3.83,6.28a6.27,6.27,0,0,1-4.4-1.83c-1.86-2.27-4.33-.6-3.09,1.88C4.66,10.24,9.43,13,17.9,13s13.24-2.76,15.22-6.67C34.37,3.85,31.9,2.18,30,4.45Z"/><path class="cls-6" d="M20.94,1.73c-1.63,0-2.17.87-3,.87s-1.41-.87-3-.87c-2.17,0-3,5.85-3,5.85s1.1,1.95,6.06,1.95S24,7.58,24,7.58,23.1,1.73,20.94,1.73Z"/><path class="cls-5" d="M11.84,4.33s1.79,1.74,6.06,1.74S24,4.33,24,4.33V6.07S22,7.8,17.9,7.8s-6.06-1.73-6.06-1.73Z"/></svg>