<svg id="Layer_1" data-name="Layer 1" xmlns="http://www.w3.org/2000/svg" viewBox="0 0 35.9 38.27"><defs><style>.cls-1{fill:#d99e82;}.cls-2{fill:#f4c7b5;}.cls-3{fill:#292f33;}.cls-4{fill:#662113;}.cls-5{fill:#380f09;}.cls-6{fill:#231f20;}.cls-7{fill:#664500;}.cls-8{fill:#825d0e;}</style></defs><path class="cls-1" d="M31.9,27c0,6.27-5,6.27-5,6.27H8.9s-5,0-5-6.27c0-6.73,5-18.62,14-18.62S31.9,21.27,31.9,27Z"/><path class="cls-2" d="M18,26.38c-7,0-10,3.53-10,6.39a5.5,5.5,0,0,0,5.5,5.5,4.22,4.22,0,0,0,4.05-2.76.49.49,0,0,1,.9,0,4.22,4.22,0,0,0,4.05,2.76,5.5,5.5,0,0,0,5.5-5.5C28,29.91,25,26.38,18,26.38Z"/><path class="cls-3" d="M15,28.27c-1,1,2,4,3,4s4-3,3-4S16,27.27,15,28.27Z"/><path class="cls-4" d="M15,9c-1.06-1.41-3.32-2.73-12.17.59C-1.37,11.13.66,23.18,3.89,24c1.1,0,4.42,0,4.42-8.85v-.62A16.47,16.47,0,0,1,15,9Zm18.17.59C24.27,6.26,22,7.58,21,9a16.47,16.47,0,0,1,6.64,5.5v.62C27.59,24,30.91,24,32,24,35.24,23.18,37.27,11.13,33.12,9.58Z"/><circle class="cls-1" cx="23.45" cy="30.88" r="0.5"/><circle class="cls-1" cx="11.45" cy="30.88" r="0.5"/><circle class="cls-1" cx="25.45" cy="32.88" r="0.5"/><circle class="cls-1" cx="10.45" cy="32.88" r="0.5"/><circle class="cls-1" cx="22.95" cy="33.38" r="1"/><circle class="cls-1" cx="12.95" cy="33.38" r="1"/><path class="cls-5" d="M9.83,12.61a5.63,5.63,0,0,0-1.17-1.94,1,1,0,1,0-1.42,1.42,4.91,4.91,0,0,1,1.07,2.34A7.83,7.83,0,0,1,9.83,12.61Zm16.22,0a5.51,5.51,0,0,1,1.18-1.94,1,1,0,0,1,1.41,0,1,1,0,0,1,0,1.42,4.91,4.91,0,0,0-1.07,2.34A7.57,7.57,0,0,0,26.05,12.61Z"/><path class="cls-6" d="M22.14,37.15h-8a1,1,0,0,1,0-2h8a1,1,0,0,1,0,2ZM16.25,21.82a.64.64,0,0,0-.6,0,6.89,6.89,0,0,1-3.7.9,6.89,6.89,0,0,1-3.7-.9.64.64,0,0,0-.6,0,.73.73,0,0,0-.2.6c.1.1,1.5,3.3,4.5,3.3s4.4-3.2,4.5-3.3A.73.73,0,0,0,16.25,21.82Zm11.5,0a.64.64,0,0,0-.6,0,6.89,6.89,0,0,1-3.7.9,6.89,6.89,0,0,1-3.7-.9.64.64,0,0,0-.6,0,.73.73,0,0,0-.2.6c.1.1,1.5,3.3,4.5,3.3s4.4-3.2,4.5-3.3A.73.73,0,0,0,27.75,21.82ZM7.46,20.18a1,1,0,0,1,0-2,8.36,8.36,0,0,0,6.2-3.6,1,1,0,0,1,1.6,1.2A10.25,10.25,0,0,1,7.46,20.18Zm21,0a10.65,10.65,0,0,1-7.8-4.4,1,1,0,1,1,1.6-1.2,8.51,8.51,0,0,0,6.2,3.6,1.08,1.08,0,0,1,1,1A.94.94,0,0,1,28.44,20.18Z"/><path class="cls-7" d="M32,5.13a7,7,0,0,1-5.08,2.12C26.56,5.71,25.19,0,22.45,0c-2.4,0-3.27,1.09-4.5,1.09S15.85,0,13.45,0C10.71,0,9.34,5.71,9,7.25,7.13,7.08,5.14,6.57,4,5.13,1.8,2.52-1,4.44.39,7.3,2.67,11.82,8.18,15,18,15s15.28-3.18,17.56-7.7C37,4.44,34.1,2.52,32,5.13Z"/><path class="cls-8" d="M21.45,2C19.58,2,19,3,18,3s-1.63-1-3.5-1C12,2,11,8.75,11,8.75S12.23,11,18,11s7-2.25,7-2.25S24,2,21.45,2Z"/><path class="cls-7" d="M11,5S13,7,18,7s7-2,7-2V7s-2.22,2-7,2-7-2-7-2Z"/></svg>