<svg id="Layer_1" data-name="Layer 1" xmlns="http://www.w3.org/2000/svg" viewBox="0 0 36 38.49"><defs><style>.cls-1{fill:#e1e8ed;}.cls-2{fill:#664500;}.cls-3{fill:#825d0e;}.cls-4{fill:#231f20;}</style></defs><path class="cls-1" d="M36,11a2,2,0,0,0-4,0s0,3.28-3,3.89V12A11,11,0,0,0,7,12v3.24c-5.22,1.57-7,8-7,11.76a2,2,0,0,0,4,0s0-3.54,3.34-4C7.84,27.88,9,33,11,33h1c4,0,3,2,7,2s3-2,6-2,2.4,2,6,2a3,3,0,0,0,3-3c0-.67-2.27-5-3.76-9.27C36,21.35,36,14.58,36,11Z" transform="translate(0 3.49)"/><path class="cls-2" d="M29.4.68a5.73,5.73,0,0,1-4.14,1.73c-.25-1.25-1.36-5.9-3.6-5.9-1.95,0-2.66.88-3.66.88s-1.71-.88-3.66-.88c-2.24,0-3.35,4.65-3.6,5.9A5.89,5.89,0,0,1,6.6.68C4.85-1.44,2.53.12,3.7,2.45,5.56,6.13,10,8.72,18,8.72S30.44,6.13,32.3,2.45C33.47.12,31.15-1.44,29.4.68Z" transform="translate(0 3.49)"/><path class="cls-3" d="M20.85-1.86c-1.52,0-2,.81-2.85.81s-1.33-.81-2.85-.81c-2,0-2.85,5.49-2.85,5.49s1,1.83,5.7,1.83,5.7-1.83,5.7-1.83S22.89-1.86,20.85-1.86Z" transform="translate(0 3.49)"/><path class="cls-2" d="M12.3.58S14,2.21,18,2.21,23.7.58,23.7.58V2.21S21.89,3.84,18,3.84s-5.7-1.63-5.7-1.63Z" transform="translate(0 3.49)"/><path class="cls-4" d="M17.45,17.67a.51.51,0,0,0-.48,0,5.41,5.41,0,0,1-2.93.72,5.36,5.36,0,0,1-2.92-.72.51.51,0,0,0-.48,0,.59.59,0,0,0-.16.48c.08.08,1.19,2.61,3.56,2.61s3.49-2.53,3.56-2.61A.61.61,0,0,0,17.45,17.67Zm7.91,0a.51.51,0,0,0-.48,0,5.36,5.36,0,0,1-2.92.72A5.41,5.41,0,0,1,19,17.67a.51.51,0,0,0-.48,0c-.15.08-.15.32-.08.48s1.19,2.61,3.57,2.61,3.48-2.53,3.56-2.61C25.52,18,25.52,17.83,25.36,17.67ZM21.17,25.9H14.83a.79.79,0,0,1,0-1.58h6.34a.79.79,0,0,1,0,1.58ZM8.5,14.82a.79.79,0,1,1,0-1.58,6.62,6.62,0,0,0,4.91-2.85.79.79,0,0,1,1.27.95A8.12,8.12,0,0,1,8.5,14.82Zm19,0a8.39,8.39,0,0,1-6.18-3.48.79.79,0,0,1,1.27-.95,6.74,6.74,0,0,0,4.91,2.85.86.86,0,0,1,.79.79A.75.75,0,0,1,27.5,14.82Z" transform="translate(0 3.49)"/></svg>