<svg id="Layer_1" data-name="Layer 1" xmlns="http://www.w3.org/2000/svg" viewBox="0 0 36.01 39.16"><defs><style>.cls-1{fill:#bf6952;}.cls-2{fill:#292f33;}.cls-3{fill:#f2abba;}.cls-4{fill:#231f20;}.cls-5{fill:#664500;}.cls-6{fill:#825d0e;}</style></defs><path class="cls-1" d="M33.54,27.43a8.15,8.15,0,0,0-3.73-8.72A5.57,5.57,0,0,0,29.49,15a6.27,6.27,0,0,0-4.71-3.56,2.91,2.91,0,0,0,0-2.17c-1-3-5-1-8-5A5.69,5.69,0,0,0,13.9,9.76a22.66,22.66,0,0,0-3.8.93h0A3.68,3.68,0,0,0,8,15.47a3.64,3.64,0,0,0,.57,1L8,16.67H8a5.91,5.91,0,0,0-4,5.44A5.44,5.44,0,0,0,4.79,25,8,8,0,0,0,0,32.23a8.12,8.12,0,0,0,8.24,8h0a31.26,31.26,0,0,0,9.54-1.67c2.24,1,5.69,1.67,10.89,1.67a7.32,7.32,0,0,0,4.87-12.8Z" transform="translate(0 -1.07)"/><path class="cls-2" d="M28,33.25a.57.57,0,0,1-.12.8.62.62,0,0,1-.42.1l-18,.16a.57.57,0,0,1-.56-.89s2.53-5.13,9.53-5.19S28,33.25,28,33.25Z" transform="translate(0 -1.07)"/><path class="cls-3" d="M18.41,32.23c2.77,0,5.15-1,6.27-2.31a11.53,11.53,0,0,0-6.27-1.69A11.43,11.43,0,0,0,12.11,30C13.25,31.35,15.65,32.25,18.41,32.23Z" transform="translate(0 -1.07)"/><path class="cls-4" d="M17.42,23.41a.55.55,0,0,0-.5,0,5.57,5.57,0,0,1-3.06.75,5.78,5.78,0,0,1-3.07-.75.55.55,0,0,0-.5,0,.66.66,0,0,0-.16.5c.08.08,1.24,2.74,3.73,2.74S17.5,24,17.59,23.91A.62.62,0,0,0,17.42,23.41Z" transform="translate(0 -1.07)"/><path class="cls-4" d="M25.71,23.41a.55.55,0,0,0-.5,0,5.78,5.78,0,0,1-3.07.75,5.57,5.57,0,0,1-3.06-.75.55.55,0,0,0-.5,0,.37.37,0,0,0-.08.5c.08.08,1.24,2.74,3.73,2.74S25.87,24,26,23.91A1.49,1.49,0,0,0,25.71,23.41Z" transform="translate(0 -1.07)"/><path class="cls-4" d="M8.06,20.43a.83.83,0,1,1,0-1.66h0a6.93,6.93,0,0,0,5.13-3,.89.89,0,0,1,1.16-.17.88.88,0,0,1,.17,1.16A8.52,8.52,0,0,1,8.06,20.43Z" transform="translate(0 -1.07)"/><path class="cls-4" d="M27.94,20.43a8.81,8.81,0,0,1-6.46-3.65.88.88,0,0,1,.17-1.16.89.89,0,0,1,1.16.17,7,7,0,0,0,5.13,3,.88.88,0,0,1,.83.83.78.78,0,0,1-.75.81Z" transform="translate(0 -1.07)"/><path class="cls-5" d="M31.32,7.49a6.1,6.1,0,0,1-4.6,1.27c-.11-1.3-.66-6.41-3-6.71-2.06-.26-2.93.58-4,.45S18,1.34,16,1.08c-2.35-.3-4.15,4.52-4.58,5.75A6.25,6.25,0,0,1,7.24,4.47C5.65,2,3,3.33,3.94,6c1.48,4.13,5.87,7.46,14.25,8.51s13.48-1.09,15.93-4.72C35.69,7.44,33.43,5.47,31.32,7.49Z" transform="translate(0 -1.07)"/><path class="cls-6" d="M22.63,3.66c-1.62-.2-2.26.59-3.08.49s-1.29-1-2.87-1.24C14.52,2.64,13,8.34,13,8.34s.75,2.06,5.65,2.68,6.27-1.18,6.27-1.18S24.77,3.93,22.63,3.66Z" transform="translate(0 -1.07)"/><path class="cls-5" d="M13.32,5.11s1.52,1.95,5.73,2.48,6.24-1,6.24-1l-.21,1.72S23,9.82,18.84,9.3,13.1,6.84,13.1,6.84Z" transform="translate(0 -1.07)"/></svg>