<svg id="Layer_1" data-name="Layer 1" xmlns="http://www.w3.org/2000/svg" viewBox="0 0 35.95 43.13"><defs><style>.cls-1{fill:#ccd6dd;}.cls-2{fill:#e1e8ed;}.cls-3{fill:#dd2e44;}.cls-4{fill:#664500;}.cls-5{fill:#825d0e;}.cls-6{fill:#231f20;}</style></defs><path class="cls-1" d="M32,10.13H6a3,3,0,0,0-3,3v26a3,3,0,0,0,3,3H32a3,3,0,0,0,3-3v-26A3,3,0,0,0,32,10.13Z"/><path class="cls-2" d="M32,9.13H6a4,4,0,0,0-4,4v26a4,4,0,0,0,4,4H32a4,4,0,0,0,4-4v-26A4,4,0,0,0,32,9.13Zm0,2a2,2,0,0,1,2,2v4H28v-6Zm-4,16h6v6H28Zm0-2v-6h6v6Zm-2-14v6H20v-6Zm-6,8h6v6H20Zm0,8h6v6H20Zm-2-16v6H12v-6Zm-6,8h6v6H12Zm0,8h6v6H12Zm-8-14a2,2,0,0,1,2-2h4v6H4Zm0,6h6v6H4Zm0,8h6v6H4Zm2,14a2,2,0,0,1-2-2v-4h6v6Zm6,0v-6h6v6Zm8,0v-6h6v6Zm12,0H28v-6h6v4A2,2,0,0,1,32,41.13Z"/><path class="cls-3" d="M6,41.13a1.92,1.92,0,0,1-1-.24,2,2,0,0,1-.81-2.71l7-13a2,2,0,0,1,1.47-1,2,2,0,0,1,1.7.57l6.08,6.07L30.18,12.2a2,2,0,0,1,3.54,1.86l-11,21a2,2,0,0,1-3.18.49l-6.1-6.1L7.71,40.08A2,2,0,0,1,6,41.13Z"/><path class="cls-4" d="M32,5.13a7,7,0,0,1-5.08,2.12C26.56,5.71,25.19,0,22.45,0c-2.4,0-3.27,1.09-4.5,1.09S15.85,0,13.45,0C10.71,0,9.34,5.71,9,7.25,7.13,7.08,5.14,6.57,4,5.13,1.8,2.52-1,4.44.39,7.3,2.67,11.82,8.18,15,18,15s15.28-3.18,17.56-7.7C37,4.44,34.1,2.52,32,5.13Z"/><path class="cls-5" d="M21.45,2C19.58,2,19,3,18,3s-1.63-1-3.5-1C12,2,11,8.75,11,8.75S12.23,11,18,11s7-2.25,7-2.25S24,2,21.45,2Z"/><path class="cls-4" d="M11,5S13,7,18,7s7-2,7-2V7s-2.22,2-7,2-7-2-7-2Z"/><path class="cls-6" d="M18.55,27.13a.64.64,0,0,0-.6,0,6.89,6.89,0,0,1-3.7.9,6.89,6.89,0,0,1-3.7-.9.64.64,0,0,0-.6,0,.73.73,0,0,0-.2.6c.1.1,1.5,3.3,4.5,3.3s4.4-3.2,4.5-3.3A.73.73,0,0,0,18.55,27.13Zm10,0a.64.64,0,0,0-.6,0,6.89,6.89,0,0,1-3.7.9,6.89,6.89,0,0,1-3.7-.9.64.64,0,0,0-.6,0c-.2.1-.2.4-.1.6s1.5,3.3,4.5,3.3,4.4-3.2,4.5-3.3C28.75,27.53,28.75,27.33,28.55,27.13Zm-5.3,10.4h-8a1,1,0,0,1,0-2h8a1,1,0,0,1,0,2Zm-16-14a1,1,0,0,1,0-2,8.36,8.36,0,0,0,6.2-3.6,1,1,0,0,1,1.6,1.2A10.25,10.25,0,0,1,7.25,23.53Zm24,0a10.65,10.65,0,0,1-7.8-4.4,1,1,0,0,1,1.6-1.2,8.51,8.51,0,0,0,6.2,3.6,1.08,1.08,0,0,1,1,1A.94.94,0,0,1,31.25,23.53Z"/></svg>