<svg id="Layer_1" data-name="Layer 1" xmlns="http://www.w3.org/2000/svg" viewBox="0 0 36 43.28"><defs><style>.cls-1{fill:#ffcc4d;}.cls-2{fill:#5dadec;}.cls-3{fill:#664500;}.cls-4{fill:#825d0e;}</style></defs><path class="cls-1" d="M36,25.28a18,18,0,1,1-18-18,18,18,0,0,1,18,18"/><path class="cls-2" d="M24,23.28h4v19l-4,0Zm-16,19,4,0v-19H8Z"/><ellipse class="cls-2" cx="18" cy="41.28" rx="18" ry="2"/><path class="cls-3" d="M22,34.78H14a1,1,0,0,1,0-2h8a1,1,0,0,1,0,2Z"/><path class="cls-3" d="M14.3,21.37a.64.64,0,0,0-.6,0,6.89,6.89,0,0,1-3.7.9,6.89,6.89,0,0,1-3.7-.9.64.64,0,0,0-.6,0,.73.73,0,0,0-.2.6c.1.1,1.5,3.3,4.5,3.3s4.4-3.2,4.5-3.3A.73.73,0,0,0,14.3,21.37Z"/><path class="cls-3" d="M30.23,21.37a.64.64,0,0,0-.6,0,6.89,6.89,0,0,1-3.7.9,6.89,6.89,0,0,1-3.7-.9.64.64,0,0,0-.6,0c-.2.1-.2.4-.1.6s1.5,3.3,4.5,3.3,4.4-3.2,4.5-3.3C30.43,21.77,30.43,21.57,30.23,21.37Z"/><path class="cls-3" d="M6,18.61a1,1,0,0,1,0-2A8.36,8.36,0,0,0,12.2,13a1,1,0,1,1,1.6,1.2A10.25,10.25,0,0,1,6,18.61Z"/><path class="cls-3" d="M30,18.61a10.65,10.65,0,0,1-7.8-4.4A1,1,0,0,1,23.8,13a8.51,8.51,0,0,0,6.2,3.6,1.08,1.08,0,0,1,1,1A.94.94,0,0,1,30,18.61Z"/><path class="cls-3" d="M30.13,4.45a6.1,6.1,0,0,1-4.4,1.83C25.46,5,24.27,0,21.9,0c-2.08,0-2.83.94-3.9.94S16.18,0,14.1,0c-2.37,0-3.56,5-3.83,6.28a6.27,6.27,0,0,1-4.4-1.83C4,2.18,1.53,3.85,2.78,6.33,4.76,10.24,9.53,13,18,13s13.24-2.76,15.22-6.67C34.47,3.85,32,2.18,30.13,4.45Z"/><path class="cls-4" d="M21,1.73c-1.62,0-2.16.87-3,.87s-1.41-.87-3-.87c-2.17,0-3,5.85-3,5.85S13,9.53,18,9.53s6.07-1.95,6.07-1.95S23.2,1.73,21,1.73Z"/><path class="cls-3" d="M11.93,4.33S13.73,6.07,18,6.07s6.07-1.74,6.07-1.74V6.07S22.14,7.8,18,7.8s-6.07-1.73-6.07-1.73Z"/></svg>