<svg id="Layer_1" data-name="Layer 1" xmlns="http://www.w3.org/2000/svg" viewBox="0 0 36 43.97"><defs><style>.cls-1{fill:#ffcc4d;}.cls-2{fill:#664500;}.cls-3{fill:#f5f8fa;}.cls-4{fill:#e1e8ed;}.cls-5{fill:#825d0e;}</style></defs><path class="cls-1" d="M36,26A18,18,0,1,1,18,8,18,18,0,0,1,36,26"/><path class="cls-2" d="M17.3,22.57a.64.64,0,0,0-.6,0,6.89,6.89,0,0,1-3.7.9,6.89,6.89,0,0,1-3.7-.9.64.64,0,0,0-.6,0,.73.73,0,0,0-.2.6c.1.1,1.5,3.3,4.5,3.3s4.4-3.2,4.5-3.3A.73.73,0,0,0,17.3,22.57Zm10,0a.64.64,0,0,0-.6,0,6.89,6.89,0,0,1-3.7.9,6.89,6.89,0,0,1-3.7-.9.64.64,0,0,0-.6,0c-.2.1-.2.4-.1.6s1.5,3.3,4.5,3.3,4.4-3.2,4.5-3.3C27.5,23,27.5,22.77,27.3,22.57ZM22,37H14a1,1,0,0,1,0-2h8a1,1,0,0,1,0,2ZM6,19a1,1,0,0,1,0-2,8.36,8.36,0,0,0,6.2-3.6,1,1,0,1,1,1.6,1.2A10.25,10.25,0,0,1,6,19Zm24,0a10.65,10.65,0,0,1-7.8-4.4,1,1,0,0,1,1.6-1.2A8.51,8.51,0,0,0,30,17a1.08,1.08,0,0,1,1,1A.94.94,0,0,1,30,19Z"/><path class="cls-3" d="M15.39,28.05a1,1,0,0,0-1.24.39l-5,8a1,1,0,0,0,0,1A1,1,0,0,0,10,38h3a1,1,0,0,0,1-.75l2-8A1,1,0,0,0,15.39,28.05Zm11.46,8.39-5-8a1,1,0,0,0-1.82.78l2,8A1,1,0,0,0,23,38h3a1,1,0,0,0,.87-.51A1,1,0,0,0,26.85,36.44Z"/><path class="cls-4" d="M32,38.15A1,1,0,0,0,32,38a3,3,0,0,0-5.47-1.69A3.91,3.91,0,0,0,25,36a4,4,0,1,0,3.29,6.27A3,3,0,1,0,32,38.15ZM11,36a3.91,3.91,0,0,0-1.53.31A3,3,0,0,0,4,38a1,1,0,0,0,0,.18,3,3,0,1,0,3.69,4.09A4,4,0,1,0,11,36Z"/><path class="cls-2" d="M29.63,4.45a6.1,6.1,0,0,1-4.4,1.83C25,5,23.77,0,21.4,0c-2.08,0-2.83.94-3.9.94S15.68,0,13.6,0C11.23,0,10,5,9.77,6.28a6.27,6.27,0,0,1-4.4-1.83C3.5,2.18,1,3.85,2.28,6.33,4.26,10.24,9,13,17.5,13s13.24-2.76,15.22-6.67C34,3.85,31.5,2.18,29.63,4.45Z"/><path class="cls-5" d="M20.53,1.73c-1.62,0-2.16.87-3,.87s-1.41-.87-3-.87c-2.17,0-3,5.85-3,5.85s1.11,1.95,6.07,1.95,6.07-1.95,6.07-1.95S22.7,1.73,20.53,1.73Z"/><path class="cls-2" d="M11.43,4.33s1.8,1.74,6.07,1.74,6.07-1.74,6.07-1.74V6.07S21.64,7.8,17.5,7.8s-6.07-1.73-6.07-1.73Z"/></svg>