<svg id="Layer_1" data-name="Layer 1" xmlns="http://www.w3.org/2000/svg" viewBox="0 0 36 43.39"><defs><style>.cls-1{fill:#ffcc4d;}.cls-2{fill:#e75a70;}.cls-3{fill:#f18f26;}.cls-4{fill:#fee7b8;}.cls-5{fill:#231f20;}.cls-6{fill:#664500;}.cls-7{fill:#825d0e;}</style></defs><path class="cls-1" d="M35.74,27.32A18.24,18.24,0,0,0,34,20.39s3-9,1-12.7c-.67-1.25-7.4,1.69-10,3.7a35.48,35.48,0,0,0-7-1,35.48,35.48,0,0,0-7,1c-2.59-2-9.32-4.95-10-3.7-2,3.7,1,12.7,1,12.7A18.26,18.26,0,0,0,.27,27.32,15,15,0,0,0,1,34.39a22.76,22.76,0,0,0,5,5c4,3,10,4,12,4s8-1,12-4a22.76,22.76,0,0,0,5-5A15.05,15.05,0,0,0,35.74,27.32Z"/><path class="cls-2" d="M18,26.89c3,0,3,.5,3,1.5s-1.5,3-3,3-3-2-3-3S15,26.89,18,26.89Z"/><path class="cls-3" d="M2,10.39c.45-1.34,5.64,1,6.64,2,0,0-4.64,3-5.64,6C3,18.39,1,13.39,2,10.39Zm32,0c-.45-1.34-5.64,1-6.64,2,0,0,4.64,3,5.64,6C33,18.39,35,13.39,34,10.39Z"/><path class="cls-1" d="M4.94,13c0-1.41,6.06,1.4,5.06,2.4S8,17,7,18,4.94,14,4.94,13Zm26.13,0c0-1.41-6.07,1.4-5.07,2.4S28,17,29,18,31.07,14,31.07,13Z"/><path class="cls-4" d="M.7,32.39a.5.5,0,0,1-.31-.89c.16-.13,4-3.12,10.65-2.61a.5.5,0,0,1,.46.54.49.49,0,0,1-.54.46A15.14,15.14,0,0,0,1,32.28.51.51,0,0,1,.7,32.39Zm8.87-4.66a.4.4,0,0,1-.15,0,16.56,16.56,0,0,0-8.78-.33.5.5,0,0,1-.28-1,17.23,17.23,0,0,1,9.36.34.51.51,0,0,1,.33.63A.51.51,0,0,1,9.57,27.73ZM35.3,32.39a.51.51,0,0,0,.39-.19.49.49,0,0,0-.08-.7c-.16-.13-4-3.12-10.65-2.61a.5.5,0,0,0-.46.54.49.49,0,0,0,.54.46,15.14,15.14,0,0,1,10,2.39A.51.51,0,0,0,35.3,32.39Zm-8.87-4.66a.4.4,0,0,0,.15,0,16.56,16.56,0,0,1,8.78-.33.5.5,0,0,0,.29-1,17.28,17.28,0,0,0-9.37.34.5.5,0,0,0,.15,1Z"/><path class="cls-5" d="M17.3,23.76a.64.64,0,0,0-.6,0,6.89,6.89,0,0,1-3.7.9,6.89,6.89,0,0,1-3.7-.9.64.64,0,0,0-.6,0,.73.73,0,0,0-.2.6c.1.1,1.5,3.3,4.5,3.3s4.4-3.2,4.5-3.3A.73.73,0,0,0,17.3,23.76Z"/><path class="cls-5" d="M27.3,23.76a.64.64,0,0,0-.6,0,6.89,6.89,0,0,1-3.7.9,6.89,6.89,0,0,1-3.7-.9.64.64,0,0,0-.6,0c-.2.1-.2.4-.1.6s1.5,3.3,4.5,3.3,4.4-3.2,4.5-3.3C27.5,24.16,27.5,24,27.3,23.76Z"/><path class="cls-5" d="M6,20.16a1,1,0,0,1,0-2,8.36,8.36,0,0,0,6.2-3.6,1,1,0,0,1,1.6,1.2A10.25,10.25,0,0,1,6,20.16Z"/><path class="cls-5" d="M30,20.16a10.65,10.65,0,0,1-7.8-4.4,1,1,0,0,1,1.6-1.2,8.51,8.51,0,0,0,6.2,3.6,1.08,1.08,0,0,1,1,1A.94.94,0,0,1,30,20.16Z"/><path class="cls-5" d="M22,38.53H14a1,1,0,0,1,0-2h8a1,1,0,0,1,0,2Z"/><path class="cls-6" d="M30.17,4.46A6.1,6.1,0,0,1,25.76,6.3C25.49,5,24.3,0,21.91,0,19.83,0,19.07,1,18,1S16.18,0,14.09,0c-2.38,0-3.57,5-3.84,6.3A6.27,6.27,0,0,1,5.83,4.46C4,2.19,1.48,3.86,2.73,6.35,4.72,10.28,9.51,13,18,13s13.29-2.76,15.27-6.69C34.52,3.86,32,2.19,30.17,4.46Z"/><path class="cls-7" d="M21,1.74c-1.62,0-2.17.87-3,.87s-1.42-.87-3-.87c-2.18,0-3,5.87-3,5.87s1.11,2,6.08,2,6.09-1.95,6.09-1.95S23.22,1.74,21,1.74Z"/><path class="cls-6" d="M11.92,4.35S13.71,6.09,18,6.09s6.09-1.74,6.09-1.74V6.09S22.16,7.82,18,7.82s-6.08-1.73-6.08-1.73Z"/></svg>