<svg id="Layer_1" data-name="Layer 1" xmlns="http://www.w3.org/2000/svg" viewBox="0 0 36 42.43"><defs><style>.cls-1{fill:#ffcc4d;}.cls-2{fill:#f5f8fa;}.cls-3{fill:#664500;}.cls-4{fill:#825d0e;}</style></defs><path class="cls-1" d="M36,24.43a18,18,0,1,1-18-18,18,18,0,0,1,18,18"/><path class="cls-2" d="M27,28.52l9-4.09a17.92,17.92,0,0,0-.11-1.95l-8.89,4V25.43a2,2,0,0,0-2-2H11a2,2,0,0,0-2,2v1.09l-8.89-4A17.92,17.92,0,0,0,0,24.43l9,4.09v4.55L1.55,31.71a18.11,18.11,0,0,0,1.18,2.22L9,35.07v1.36a2,2,0,0,0,2,2H25a2,2,0,0,0,2-2V35.07l6.27-1.14a18.11,18.11,0,0,0,1.18-2.22L27,33.07Z"/><path class="cls-3" d="M17.3,18.58a.64.64,0,0,0-.6,0,6.89,6.89,0,0,1-3.7.9,6.89,6.89,0,0,1-3.7-.9.64.64,0,0,0-.6,0,.73.73,0,0,0-.2.6c.1.1,1.5,3.3,4.5,3.3s4.4-3.2,4.5-3.3A.73.73,0,0,0,17.3,18.58Z"/><path class="cls-3" d="M27.3,18.58a.64.64,0,0,0-.6,0,6.89,6.89,0,0,1-3.7.9,6.89,6.89,0,0,1-3.7-.9.64.64,0,0,0-.6,0c-.2.1-.2.4-.1.6s1.5,3.3,4.5,3.3,4.4-3.2,4.5-3.3C27.5,19,27.5,18.78,27.3,18.58Z"/><path class="cls-3" d="M6,15a1,1,0,0,1,0-2,8.36,8.36,0,0,0,6.2-3.6,1,1,0,0,1,1.6,1.2A10.25,10.25,0,0,1,6,15Z"/><path class="cls-3" d="M30,15a10.65,10.65,0,0,1-7.8-4.4,1,1,0,0,1,1.6-1.2A8.51,8.51,0,0,0,30,13a1.08,1.08,0,0,1,1,1A.94.94,0,0,1,30,15Z"/><path class="cls-3" d="M29.27,4.13a5.69,5.69,0,0,1-4.09,1.71C24.93,4.6,23.83,0,21.62,0,19.69,0,19,.88,18,.88S16.31,0,14.38,0c-2.21,0-3.31,4.6-3.56,5.84A5.86,5.86,0,0,1,6.73,4.13C5,2,2.7,3.57,3.86,5.88c1.84,3.64,6.27,6.2,14.14,6.2s12.3-2.56,14.14-6.2C33.3,3.57,31,2,29.27,4.13Z"/><path class="cls-4" d="M20.82,1.61c-1.51,0-2,.81-2.82.81s-1.31-.81-2.82-.81c-2,0-2.82,5.43-2.82,5.43s1,1.82,5.64,1.82S23.64,7,23.64,7,22.83,1.61,20.82,1.61Z"/><path class="cls-3" d="M12.36,4S14,5.64,18,5.64,23.64,4,23.64,4V5.64S21.85,7.25,18,7.25s-5.64-1.61-5.64-1.61Z"/></svg>