<?xml version='1.0' encoding='ASCII' standalone='yes'?>
<svg xmlns="http://www.w3.org/2000/svg" xmlns:xlink="http://www.w3.org/1999/xlink" version="1.1" width="36.0px" viewBox="0 0 36.0 42.0" height="42.0px">
  <g>
    <g transform="translate(0, 6) scale(1 1) ">
      <circle fill="#C1694F" cx="18" cy="18" r="18"/>
    </g>
    <g>
      <defs>
        <style>.cls-1{fill:#664500;}.cls-2{fill:#825d0e;}</style>
      </defs>
      <path class="cls-1" d="M32,6.13c-1.19,1.44-3.18,2-5.08,2.12C26.61,6.71,25.24,1,22.5,1,20.1,1,19.23,2.09,18,2.09S15.9,1,13.5,1C10.76,1,9.39,6.71,9.08,8.25,7.18,8.08,5.19,7.57,4,6.13,1.85,3.52-1,5.44.44,8.3,2.72,12.82,8.23,16,18,16s15.28-3.18,17.56-7.7C37,5.44,34.15,3.52,32,6.13Z" transform="translate(-0.05 -1)"/>
      <path class="cls-2" d="M21.5,3C19.63,3,19,4,18,4s-1.63-1-3.5-1C12,3,11,9.75,11,9.75S12.28,12,18,12s7-2.25,7-2.25S24,3,21.5,3Z" transform="translate(-0.05 -1)"/>
      <path class="cls-1" d="M11,6s2.07,2,7,2,7-2,7-2V8s-2.22,2-7,2-7-2-7-2Z" transform="translate(-0.05 -1)"/>
    </g>
    <g transform="translate(5, 14) scale(1 1) "><style type="text/css">
	.st0{fill:#664500;}
</style>
<path class="st0" d="M12.3,9.6c-0.2-0.1-0.4-0.1-0.6,0c0,0-1.3,0.9-3.7,0.9c-2.4,0-3.7-0.9-3.7-0.9c-0.2-0.1-0.4-0.1-0.6,0  C3.5,9.8,3.5,10,3.5,10.2C3.6,10.3,5,13.5,8,13.5c3,0,4.4-3.2,4.5-3.3C12.5,10,12.5,9.8,12.3,9.6z M22.3,9.6c-0.2-0.1-0.4-0.1-0.6,0  c0,0-1.3,0.9-3.7,0.9c-2.4,0-3.7-0.9-3.7-0.9c-0.2-0.1-0.4-0.1-0.6,0c-0.2,0.1-0.2,0.4-0.1,0.6c0.1,0.1,1.5,3.3,4.5,3.3  c3,0,4.4-3.2,4.5-3.3C22.5,10,22.5,9.8,22.3,9.6z M17,20H9c-0.6,0-1-0.4-1-1s0.4-1,1-1h8c0.6,0,1,0.4,1,1S17.6,20,17,20z M1,6  C0.4,6,0,5.6,0,5c0-0.6,0.4-1,1-1c0.2,0,3.6-0.1,6.2-3.6c0.3-0.4,1-0.5,1.4-0.2c0.4,0.3,0.5,1,0.2,1.4C5.5,6,1.2,6,1,6z M25,6  c-0.2,0-4.5-0.1-7.8-4.4c-0.3-0.4-0.2-1.1,0.2-1.4c0.4-0.3,1.1-0.2,1.4,0.2C21.4,3.9,24.9,4,25,4c0.5,0,1,0.5,1,1  C26,5.6,25.6,6,25,6z"/>
</g>
  </g>
</svg>
