<svg id="Layer_1" data-name="Layer 1" xmlns="http://www.w3.org/2000/svg" viewBox="0 0 36 40.07"><defs><style>.cls-1{fill:#f4900c;}.cls-2{fill:#ffac33;}.cls-3{fill:#ffcc4d;}.cls-4{fill:#269;}.cls-5{fill:#55acee;}.cls-6{fill:#3b88c3;}.cls-7{fill:#f5f8fa;}.cls-8{fill:#ccd6dd;}.cls-9{fill:#231f20;}.cls-10{fill:#d32027;}.cls-11{fill:#664500;}.cls-12{fill:#825d0e;}</style></defs><ellipse class="cls-1" cx="33.5" cy="19.57" rx="2.5" ry="3.5"/><ellipse class="cls-1" cx="2.5" cy="19.57" rx="2.5" ry="3.5"/><path class="cls-2" d="M34,24.07a1,1,0,0,1-1,1H30a1,1,0,0,1-1-1v-9a1,1,0,0,1,1-1h3a1,1,0,0,1,1,1Zm-27,0a1,1,0,0,1-1,1H3a1,1,0,0,1-1-1v-9a1,1,0,0,1,1-1H6a1,1,0,0,1,1,1Z" transform="translate(0 0)"/><path class="cls-3" d="M28,10.07c0,2.76-4.48,4-10,4s-10-1.24-10-4,4.48-5,10-5S28,7.31,28,10.07Z" transform="translate(0 0)"/><path class="cls-1" d="M25,9.16c0,1.61-3.14,2.91-7,2.91s-7-1.3-7-2.91,3.13-2.92,7-2.92S25,7.55,25,9.16Z" transform="translate(0 0)"/><path class="cls-4" d="M30,10.57c0,1.38-1.12,1.5-2.5,1.5H8.5C7.12,12.07,6,12,6,10.57a2.5,2.5,0,0,1,2.5-2.5h19A2.5,2.5,0,0,1,30,10.57Z" transform="translate(0 0)"/><path class="cls-5" d="M30,11.07H6a2,2,0,0,0-2,2v26H32v-26A2,2,0,0,0,30,11.07Z" transform="translate(0 0)"/><path class="cls-6" d="M35,38.07v-1a2,2,0,0,0-2-2H22.07l-3.36,3.37a1,1,0,0,1-1.41,0h0l-3.36-3.37H3a2,2,0,0,0-2,2v1c0,1.11-.1,2,1,2H34C35.1,40.07,35,39.18,35,38.07Z" transform="translate(0 0)"/><path class="cls-7" d="M29,30.57a2.5,2.5,0,0,1-2.5,2.5H9.5a2.5,2.5,0,0,1,0-5h17A2.5,2.5,0,0,1,29,30.57Z" transform="translate(0 0)"/><path class="cls-8" d="M17,28.07h2v5H17Zm-5,0h2v5H12Zm10,0h2v5H22ZM7,30.57A2.5,2.5,0,0,0,9,33V28.1A2.51,2.51,0,0,0,7,30.57Zm20-2.45V33a2.5,2.5,0,0,0,0-4.9Z" transform="translate(0 0)"/><path class="cls-9" d="M30,15.05a8.53,8.53,0,0,1-6.2-3.6,1,1,0,0,0-1.6,1.2,10.66,10.66,0,0,0,7.8,4.4.94.94,0,0,0,1-.88v-.12A1.08,1.08,0,0,0,30,15.05Z" transform="translate(0 0)"/><path class="cls-9" d="M13.8,12.65a1,1,0,1,0-1.6-1.2A8.37,8.37,0,0,1,6,15.05a1,1,0,0,0,0,2A10.25,10.25,0,0,0,13.8,12.65Z" transform="translate(0 0)"/><path class="cls-10" d="M23.1,24.55c3,0,4.4-3.2,4.5-3.3-.1-.2-.1-.4-.3-.6a.64.64,0,0,0-.6,0,6.93,6.93,0,0,1-3.7.9,6.93,6.93,0,0,1-3.7-.9.64.64,0,0,0-.6,0c-.2.1-.2.4-.1.6S20.1,24.55,23.1,24.55Z" transform="translate(0 0)"/><path class="cls-10" d="M13,24.55c3,0,4.4-3.2,4.5-3.3a.74.74,0,0,0-.2-.6.64.64,0,0,0-.6,0,6.93,6.93,0,0,1-3.7.9,6.93,6.93,0,0,1-3.7-.9.64.64,0,0,0-.6,0,.74.74,0,0,0-.2.6C8.6,21.35,10,24.55,13,24.55Z" transform="translate(0 0)"/><path class="cls-11" d="M30.13,4.45a6.12,6.12,0,0,1-4.4,1.83C25.46,5,24.27,0,21.9,0c-2.08,0-2.83.94-3.9.94S16.18,0,14.1,0c-2.37,0-3.56,5-3.83,6.28a6.27,6.27,0,0,1-4.4-1.83C4,2.18,1.53,3.85,2.78,6.33,4.76,10.24,9.53,13,18,13s13.24-2.76,15.22-6.67C34.47,3.85,32,2.18,30.13,4.45Z" transform="translate(0 0)"/><path class="cls-12" d="M21,1.73c-1.62,0-2.16.87-3,.87s-1.41-.87-3-.87c-2.17,0-3,5.85-3,5.85s1,1.95,6,1.95,6.07-1.95,6.07-1.95S23.2,1.73,21,1.73Z" transform="translate(0 0)"/><path class="cls-11" d="M11.93,4.33S13.73,6.07,18,6.07s6.07-1.74,6.07-1.74V6.07S22.14,7.8,18,7.8s-6.07-1.73-6.07-1.73Z" transform="translate(0 0)"/></svg>