<svg id="Layer_1" data-name="Layer 1" xmlns="http://www.w3.org/2000/svg" viewBox="0 0 44.32 44.09"><defs><style>.cls-1{fill:#ffcb4c;}.cls-2{fill:#664500;}.cls-3{fill:#825d0e;}.cls-4{fill:#64aadd;}</style></defs><path class="cls-1" d="M39.05,13.36a18,18,0,1,1-25.46,0,18,18,0,0,1,25.46,0h0"/><path class="cls-2" d="M17.16,2.94A6.43,6.43,0,0,1,16,7.82c-1.3-.59-6.25-2.59-7.69-.56-1.28,1.78-.92,3-1.57,3.91s-1.87,1-3.19,2.75C2.15,16,5.65,20,6.62,21a6.56,6.56,0,0,1-4.24,2.69C-.7,23.88-.8,27,2.11,27.44c4.54.7,9.85-1.7,15-8.93s5.72-13,3.57-17.07C19.29-1.13,16.36,0,17.16,2.94Z"/><path class="cls-3" d="M9.29,9.06c-1,1.38-.58,2.38-1.1,3.12s-1.61.67-2.59,2.06C4.29,16.09,8.75,20.4,8.75,20.4s2.35.23,5.36-4,2-6.39,2-6.39S10.61,7.2,9.29,9.06Z"/><path class="cls-2" d="M6,18.41s2.58-.47,5.18-4.12,2.22-6.24,2.22-6.24l1.48,1.06s.31,2.69-2.22,6.23-5.18,4.13-5.18,4.13Z"/><path class="cls-2" d="M23.65,25.4a.75.75,0,0,0-.41.52,7.44,7.44,0,0,1-1.71,3.82,7.42,7.42,0,0,1-3.3,2.61.71.71,0,0,0-.4.52.78.78,0,0,0,.38.58c.16,0,3.88.92,5.9-1.69s.18-6,.17-6.13A.8.8,0,0,0,23.65,25.4Zm6.74-8.69a.72.72,0,0,0-.41.52A7.48,7.48,0,0,1,28.23,21,7.48,7.48,0,0,1,25,23.64a.72.72,0,0,0-.41.52c-.05.24.22.45.46.49s3.87.92,5.9-1.68.18-6,.16-6.14A1.91,1.91,0,0,0,30.39,16.71Zm5.46,11.61-5.39,7a1.1,1.1,0,0,1-1.56.17,1.12,1.12,0,0,1-.17-1.56l5.38-7a1,1,0,0,1,1.38-.32,1.09,1.09,0,0,1,.17.13A1,1,0,0,1,36,28.11.87.87,0,0,1,35.85,28.32ZM12.91,32.79a1.1,1.1,0,0,1-1.82-1.23l.08-.11a9.19,9.19,0,0,0,1.06-7.82A1.19,1.19,0,0,1,13,22.28a1.19,1.19,0,0,1,1.35.77A11.25,11.25,0,0,1,12.91,32.79ZM29.08,11.94A11.74,11.74,0,0,1,20,15.75a1.18,1.18,0,0,1-1.08-1.12A1.2,1.2,0,0,1,20,13.55a9.31,9.31,0,0,0,7.31-3,1.18,1.18,0,0,1,1.54-.19,1,1,0,0,1,.37,1.37A.87.87,0,0,1,29.08,11.94Z"/><path class="cls-4" d="M38.42,20.15a5,5,0,1,0,1.21-9.93h0C36.89,9.89,29.23,13,29.1,14S35.68,19.81,38.42,20.15ZM20.48,38.09a5,5,0,1,1-9.93,1.21c-.32-2.74,2.76-10.41,3.76-10.53S20.14,35.35,20.48,38.09Z"/></svg>