<svg id="Layer_1" data-name="Layer 1" xmlns="http://www.w3.org/2000/svg" viewBox="0 0 43.59 45.61"><defs><style>.cls-1{fill:#5c913b;}.cls-2{fill:#679e44;}.cls-3{fill:#3e721d;}.cls-4{fill:#77b255;}.cls-5{fill:#a6d388;}.cls-6{fill:#231f20;}.cls-7{fill:#664500;}.cls-8{fill:#825d0e;}</style></defs><path class="cls-1" d="M29.61,34.48c2.53-.84,5.89-4.2,5.89-5.88s-2.52-.84-1.68-3.36,1.68-5,0-6.73-3.36,0-5.05-1.68,0-3.36-1.68-5-4.2-.84-6.72,0S18.69,10.11,17,10.11,12,13.47,11.12,16s-2.52.84-3.36,3.36c-.78,2.34.18,4.83-2,9.75-1,1.62-2,3.18-2.9,4.54A16.44,16.44,0,0,0,.2,45.41,16.47,16.47,0,0,0,12,42.72c1.37-.91,2.92-1.88,4.55-2.9,4.92-2.15,7.4-1.2,9.74-2C28.77,37,27.09,35.32,29.61,34.48Z"/><path class="cls-2" d="M34,28.87a.6.6,0,0,0-.75-.38,12.36,12.36,0,0,1-7,.35,65.45,65.45,0,0,0,7.22-8.59.58.58,0,0,0-.15-.82.6.6,0,0,0-.83.15,54.72,54.72,0,0,1-3.88,5,15.59,15.59,0,0,0-1.32-7.24.6.6,0,1,0-1.08.5A15.1,15.1,0,0,1,27.27,26c-1.37,1.49-2.84,3-4.35,4.4a11.65,11.65,0,0,0-1.56-7.33.6.6,0,1,0-1,.67c2,2.87,1.35,7,1.18,7.92a71.69,71.69,0,0,1-7.33,5.84,13.93,13.93,0,0,0,2-10.85.59.59,0,0,0-.72-.43.61.61,0,0,0-.43.73c1.68,6.55-3.33,12-3.78,12.45a46.19,46.19,0,0,1-8.4,4.38A.59.59,0,0,0,3.07,45a.58.58,0,0,0,.19,0c.16,0,4-1.35,11.06-6,1.36-.9,2.77-1.93,4.17-3A9.83,9.83,0,0,0,23.66,37a19.64,19.64,0,0,0,2.71-.19.59.59,0,0,0-.15-1.17c-3.71.49-5.78-.14-6.72-.58,2-1.62,3.94-3.4,5.8-5.24a11.27,11.27,0,0,0,3.73.59,14.75,14.75,0,0,0,4.6-.76A.62.62,0,0,0,34,28.87Z"/><path class="cls-3" d="M12.5,34.18l1.61-.28c3.81-.63,7.75-1.29,7.75-3.73a3.33,3.33,0,0,0-1.1-2.43c.25-.08.59-.15.83-.2,1.07-.23,2.4-.51,3-1.69a3.06,3.06,0,0,0-.14-2.64,11.25,11.25,0,0,1,2.31-.9c1.79-.58,3.49-1.12,4-2.51a2.28,2.28,0,0,0-.4-2.14l0-.05a2.86,2.86,0,0,1-2.12-1.72,19.08,19.08,0,0,0,1.12,2.49c2,2.87-7.32,2.53-6,5.24,1.54,3.23-2.91,2.21-3.75,3.47s1.12,1.4,1.12,3.08S14.87,32.44,12.26,33C7,34,.2,45.41.2,45.41a9.59,9.59,0,0,0,1.36.16C3.61,42.25,8.82,34.91,12.5,34.18Z"/><path class="cls-4" d="M12.26,33c2.61-.51,8.35-1.1,8.35-2.79s-2-1.82-1.12-3.08,5.29-.24,3.75-3.46c-1.3-2.72,8.06-2.38,6-5.25a18.07,18.07,0,0,1-1.2-2.73c-.36-1.29.32-2.57-1-3.86-1.68-1.68-4.2-.84-6.72,0S18.69,10.11,17,10.11,12,13.47,11.12,16s-2.52.84-3.36,3.36c-.78,2.34.18,4.83-2,9.75-1,1.62-2,3.18-2.9,4.54A16.44,16.44,0,0,0,.2,45.41S7,34,12.26,33Z"/><path class="cls-5" d="M28.15,18.15a15.77,15.77,0,0,0-7.24-1.33,58.48,58.48,0,0,1,4.94-3.88.59.59,0,0,0,.16-.82.61.61,0,0,0-.83-.16,66.23,66.23,0,0,0-8.59,7.23,12.49,12.49,0,0,1,.35-7,.59.59,0,1,0-1.13-.37,13.07,13.07,0,0,0-.17,8.33C13.8,22,12,24,10.4,25.94c-.44-.94-1.07-3-.58-6.72a.6.6,0,1,0-1.18-.16c-.61,4.63.41,7,.95,7.88-1.11,1.41-2.14,2.81-3,4.18-4.68,7.06-6,10.9-6,11.05a.6.6,0,0,0,.37.76l.19,0a.61.61,0,0,0,.57-.41A46.65,46.65,0,0,1,6,34.14c.47-.44,5.89-5.46,12.46-3.77a.61.61,0,0,0,.72-.43.6.6,0,0,0-.43-.73,13.94,13.94,0,0,0-10.84,2,70.26,70.26,0,0,1,5.83-7.34c.93-.17,5.05-.78,7.93,1.18a.59.59,0,0,0,.67-1A11.62,11.62,0,0,0,15,22.52c1.43-1.52,2.91-3,4.4-4.35a15,15,0,0,1,8.24,1.06.7.7,0,0,0,.25.05.59.59,0,0,0,.53-.34A.58.58,0,0,0,28.15,18.15Z"/><path class="cls-6" d="M21.35,26.54a.64.64,0,0,0-.6,0,6.89,6.89,0,0,1-3.7.9,6.89,6.89,0,0,1-3.7-.9.64.64,0,0,0-.6,0,.73.73,0,0,0-.2.6c.1.1,1.5,3.3,4.5,3.3s4.4-3.2,4.5-3.3A.73.73,0,0,0,21.35,26.54Zm10,0a.64.64,0,0,0-.6,0,6.89,6.89,0,0,1-3.7.9,6.89,6.89,0,0,1-3.7-.9.64.64,0,0,0-.6,0c-.2.1-.2.4-.1.6s1.5,3.3,4.5,3.3,4.4-3.2,4.5-3.3C31.55,26.94,31.55,26.74,31.35,26.54Zm-5.3,10.4h-8a1,1,0,1,1,0-2h8a1,1,0,0,1,0,2Zm-16-14a1,1,0,0,1,0-2,8.36,8.36,0,0,0,6.2-3.6,1,1,0,1,1,1.6,1.2A10.25,10.25,0,0,1,10.05,22.94Zm24,0a10.65,10.65,0,0,1-7.8-4.4,1,1,0,0,1,1.6-1.2,8.51,8.51,0,0,0,6.2,3.6,1.08,1.08,0,0,1,1,1A.94.94,0,0,1,34.05,22.94Z"/><path class="cls-7" d="M38.93,9c-1.64,1.54-4.11,1.91-6.4,1.77-.14-1.89-.93-8.94-4.21-9.36-2.88-.36-4.09.82-5.56.63S20.41.38,17.53,0c-3.28-.41-5.79,6.22-6.39,8-2.25-.49-4.56-1.4-5.77-3.3C3.19,1.28-.52,3.16.78,6.8,2.83,12.56,9,17.21,20.66,18.68s18.8-1.51,22.21-6.59C45,8.88,41.9,6.15,38.93,9Z"/><path class="cls-8" d="M26.82,3.62c-2.24-.28-3.15.82-4.35.67s-1.8-1.44-4-1.72c-3-.38-5.21,7.56-5.21,7.56s1.19,2.89,8,3.75S30,12.24,30,12.24,29.82,4,26.82,3.62Z"/><path class="cls-7" d="M13.78,5.64S16,8.34,21.87,9.09s8.69-1.35,8.69-1.35l-.3,2.4s-3,2.07-8.69,1.34S13.48,8,13.48,8Z"/></svg>