<?xml version='1.0' encoding='ASCII' standalone='yes'?>
<svg xmlns="http://www.w3.org/2000/svg" xmlns:xlink="http://www.w3.org/1999/xlink" version="1.1" width="36.0px" viewBox="0 0 36.0 42.0" height="42.0px">
  <g>
    <g transform="translate(0, 6) scale(1 1) ">
      <path fill="#F5F8FA" d="M4.66 7.479c1.928.786 5.193 1.693 8.25 2.556 2.76.78 4.727 1.8 4.727 4.279 0 1.126-.136 4.519-.185 8.533.41-.104.791-.153 1.196-.117l-.001-.134c-.038-4.321-.179-8.044-.178-9.239.003-2.529 1.817-2.208 4.667-2.996 1.297-.359 7.232-1.686 9.209-2.103 1.658-.35 1.012-1.059.494-1.617-.034.107-.147.202-.383.273-1.51.453-10.716 2.236-12.941 2.859-1.569.439-3.591-.367-6.007-1.349-2.416-.981-8.53-2.416-9.738-2.869-.25-.094-.432-.222-.57-.362-.094.052-.19.103-.278.161.066-.003.12-.011.19-.012.477-.008-.195 1.427 1.548 2.137z"/>
      <path fill="#ADD3E0" d="M1.009 10.872c.096 2.553.356 9.03.119 11.941-.157 1.923.24 3.361.996 4.403.204-.333.64-.608 1.36-.736 3.752-.669 9.878-2.385 12.344-3.136.654-.199 1.16-.378 1.625-.496.049-4.014.185-7.407.185-8.533 0-2.479-1.967-3.499-4.727-4.279-3.058-.864-6.323-1.771-8.251-2.557-1.743-.71-1.071-2.145-1.548-2.138-.069.001-.123.01-.19.012C1.293 6.432.919 8.508 1.009 10.872z"/>
      <path fill="#C1E1EA" d="M33.208 27.8c.425.097.866.309 1.268.583.438-.907.341-2.082.275-3.431-.119-2.436.059-10.099.238-13.604.148-2.909-.822-4.267-2.167-4.907.037.071.038.137.019.2.517.558 1.163 1.267-.494 1.617-1.978.417-7.912 1.745-9.209 2.103-2.85.788-4.664.467-4.667 2.996-.001 1.195.14 4.919.178 9.239l.001.134c.47.042.98.194 1.638.526 1.367.691 10.883 4.079 12.92 4.544z"/>
      <path fill="#D2ECF3" d="M13.509 8.424c2.416.981 4.437 1.788 6.007 1.349 2.225-.622 11.431-2.406 12.941-2.859.237-.071.35-.166.383-.273-.109-.117-.211-.228-.286-.327-.193-.076-.391-.142-.595-.194-2.554-.654-8.436-2.495-10.931-3.386-1.977-.706-4.487-.591-6.594-.119-2.34.524-7.081 1.706-9.446 2.02-.71.094-1.296.289-1.788.559.138.139.32.268.57.362 1.209.452 7.323 1.886 9.739 2.868z"/>
      <path opacity=".5" fill="#CFE1EA" d="M18.648 22.73c-.405-.036-.786.014-1.196.117l-.006.493c-.048 4.716.194 8.644.127 9.281-.046.438-.315.814-.717 1.072.821.1 1.641.088 2.424-.042-.451-.385-.71-.998-.771-1.608-.064-.655.176-4.556.139-9.313z"/>
      <path fill="#9BC2D4" d="M17.573 32.621c.067-.637-.176-4.564-.127-9.281l.006-.493c-.465.117-.971.297-1.625.496-2.466.751-8.592 2.467-12.344 3.136-.719.128-1.156.404-1.36.736.548.754 1.279 1.308 2.152 1.657 2.079.832 6.772 2.495 9.743 3.98.9.45 1.868.721 2.838.84.403-.257.671-.633.717-1.071zm14.505-2.62c1.347-.331 2.046-.888 2.398-1.618-.402-.274-.843-.486-1.268-.583-2.037-.465-11.554-3.853-12.922-4.544-.658-.332-1.168-.485-1.638-.526.037 4.758-.203 8.658-.138 9.313.061.611.32 1.223.771 1.608.503-.083.991-.207 1.451-.382 2.019-.773 8.197-2.496 11.346-3.268z"/>
      <path fill="#C1E1EA" d="M7.571 18.69c-3.911 3.322-5.322 9.72-5.206 6.824.096-2.391-.017-9.487-.006-12.439.009-2.491.416-4.634 3.725-3.095 2.538 1.18 7.2 2.114 9.384 3.59 1.411.954-2.464.505-7.897 5.12z"/>
      <path fill="#D2ECF3" d="M30.169 15.439c2.65 1.793 3.569 5.587 3.497 3.781-.06-1.491.006-4.939 0-6.779-.006-1.553.19-2.874-1.997-2.245-1.88.54-5.124.847-6.486 1.767-.88.594 1.408 1.056 4.986 3.476z"/>
    </g>
    <g>
      <defs>
        <style>.cls-1{fill:#664500;}.cls-2{fill:#825d0e;}</style>
      </defs>
      <path class="cls-1" d="M32,6.13c-1.19,1.44-3.18,2-5.08,2.12C26.61,6.71,25.24,1,22.5,1,20.1,1,19.23,2.09,18,2.09S15.9,1,13.5,1C10.76,1,9.39,6.71,9.08,8.25,7.18,8.08,5.19,7.57,4,6.13,1.85,3.52-1,5.44.44,8.3,2.72,12.82,8.23,16,18,16s15.28-3.18,17.56-7.7C37,5.44,34.15,3.52,32,6.13Z" transform="translate(-0.05 -1)"/>
      <path class="cls-2" d="M21.5,3C19.63,3,19,4,18,4s-1.63-1-3.5-1C12,3,11,9.75,11,9.75S12.28,12,18,12s7-2.25,7-2.25S24,3,21.5,3Z" transform="translate(-0.05 -1)"/>
      <path class="cls-1" d="M11,6s2.07,2,7,2,7-2,7-2V8s-2.22,2-7,2-7-2-7-2Z" transform="translate(-0.05 -1)"/>
    </g>
    <g transform="translate(5, 14) scale(1 1) "><style type="text/css">
	.st0{fill:#664500;}
</style>
<path class="st0" d="M12.3,9.6c-0.2-0.1-0.4-0.1-0.6,0c0,0-1.3,0.9-3.7,0.9c-2.4,0-3.7-0.9-3.7-0.9c-0.2-0.1-0.4-0.1-0.6,0  C3.5,9.8,3.5,10,3.5,10.2C3.6,10.3,5,13.5,8,13.5c3,0,4.4-3.2,4.5-3.3C12.5,10,12.5,9.8,12.3,9.6z M22.3,9.6c-0.2-0.1-0.4-0.1-0.6,0  c0,0-1.3,0.9-3.7,0.9c-2.4,0-3.7-0.9-3.7-0.9c-0.2-0.1-0.4-0.1-0.6,0c-0.2,0.1-0.2,0.4-0.1,0.6c0.1,0.1,1.5,3.3,4.5,3.3  c3,0,4.4-3.2,4.5-3.3C22.5,10,22.5,9.8,22.3,9.6z M17,20H9c-0.6,0-1-0.4-1-1s0.4-1,1-1h8c0.6,0,1,0.4,1,1S17.6,20,17,20z M1,6  C0.4,6,0,5.6,0,5c0-0.6,0.4-1,1-1c0.2,0,3.6-0.1,6.2-3.6c0.3-0.4,1-0.5,1.4-0.2c0.4,0.3,0.5,1,0.2,1.4C5.5,6,1.2,6,1,6z M25,6  c-0.2,0-4.5-0.1-7.8-4.4c-0.3-0.4-0.2-1.1,0.2-1.4c0.4-0.3,1.1-0.2,1.4,0.2C21.4,3.9,24.9,4,25,4c0.5,0,1,0.5,1,1  C26,5.6,25.6,6,25,6z"/>
</g>
  </g>
</svg>
