<?xml version='1.0' encoding='ASCII' standalone='yes'?>
<svg xmlns="http://www.w3.org/2000/svg" xmlns:xlink="http://www.w3.org/1999/xlink" version="1.1" width="36.0px" viewBox="0 0 36.0 42.0" height="42.0px">
  <g>
    <g transform="translate(0, 6) scale(1 1) ">
      <path fill="#F4900C" d="M18 35.8c-.39 0-.745-.218-.921-.565l-1.8-3.554-3.024 2.596c-.191.161-.43.247-.672.247-.133 0-.267-.025-.394-.078-.359-.148-.606-.487-.634-.873l-.304-3.976-3.788 1.241c-.105.034-.213.051-.321.051-.27 0-.532-.106-.73-.303-.274-.273-.371-.681-.25-1.051l1.24-3.788-3.972-.301c-.387-.031-.726-.275-.875-.634-.148-.361-.083-.772.17-1.067l2.594-3.024-3.554-1.8C.418 18.745.2 18.388.2 18s.218-.745.565-.921l3.554-1.8-2.594-3.024c-.252-.295-.318-.708-.17-1.066.149-.359.487-.606.875-.634l3.972-.304-1.24-3.788c-.121-.37-.024-.775.25-1.051.198-.196.46-.301.73-.301.108 0 .216.017.321.051l3.788 1.24.304-3.972c.029-.388.275-.726.634-.875.127-.052.261-.078.394-.078.242 0 .481.084.672.248l3.024 2.594 1.8-3.554C17.255.418 17.61.2 18 .2c.388 0 .745.218.92.565l1.802 3.554 3.024-2.594c.19-.164.431-.248.671-.248.135 0 .268.026.396.078.358.149.603.487.634.875l.303 3.972 3.785-1.24c.105-.035.215-.051.321-.051.27 0 .534.105.729.301.276.276.373.682.252 1.051l-1.241 3.788 3.976.304c.386.029.725.275.873.634.148.358.084.771-.169 1.066l-2.596 3.024 3.554 1.8c.348.177.566.533.566.921s-.218.744-.565.921l-3.554 1.8 2.596 3.024c.253.295.317.706.169 1.067-.148.358-.487.603-.876.634l-3.973.301 1.241 3.788c.121.371.024.777-.252 1.051-.195.197-.46.303-.729.303-.106 0-.216-.017-.321-.051l-3.785-1.241-.303 3.973c-.031.389-.275.728-.634.876-.129.053-.262.078-.396.078-.24 0-.48-.086-.671-.247l-3.024-2.596-1.802 3.554c-.176.347-.533.565-.921.565z"/>
      <path fill="#FFCC4D" d="M31 18c0 7.179-5.821 13-13 13S5 25.18 5 18 10.821 5 18 5s13 5.821 13 13"/>
      <path d="M18 23.471c-6.222 0-8-2.328-8-1.228 0 1.102 3.556 3.98 8 3.98s8-2.879 8-3.98c0-1.1-1.777 1.228-8 1.228m8-8.804c0 1.473-1.194 2.667-2.667 2.667-1.472 0-2.666-1.194-2.666-2.667S21.861 12 23.333 12C24.806 12 26 13.193 26 14.667m-10.667 0c0 1.473-1.195 2.667-2.667 2.667-1.472 0-2.667-1.194-2.667-2.667S11.195 12 12.667 12c1.472 0 2.666 1.193 2.666 2.667" fill="#F4900C"/>
    </g>
    <g>
      <defs>
        <style>.cls-1{fill:#664500;}.cls-2{fill:#825d0e;}</style>
      </defs>
      <path class="cls-1" d="M32,6.13c-1.19,1.44-3.18,2-5.08,2.12C26.61,6.71,25.24,1,22.5,1,20.1,1,19.23,2.09,18,2.09S15.9,1,13.5,1C10.76,1,9.39,6.71,9.08,8.25,7.18,8.08,5.19,7.57,4,6.13,1.85,3.52-1,5.44.44,8.3,2.72,12.82,8.23,16,18,16s15.28-3.18,17.56-7.7C37,5.44,34.15,3.52,32,6.13Z" transform="translate(-0.05 -1)"/>
      <path class="cls-2" d="M21.5,3C19.63,3,19,4,18,4s-1.63-1-3.5-1C12,3,11,9.75,11,9.75S12.28,12,18,12s7-2.25,7-2.25S24,3,21.5,3Z" transform="translate(-0.05 -1)"/>
      <path class="cls-1" d="M11,6s2.07,2,7,2,7-2,7-2V8s-2.22,2-7,2-7-2-7-2Z" transform="translate(-0.05 -1)"/>
    </g>
  </g>
</svg>
