<?xml version='1.0' encoding='ASCII' standalone='yes'?>
<svg xmlns="http://www.w3.org/2000/svg" xmlns:xlink="http://www.w3.org/1999/xlink" version="1.1" width="36.0px" viewBox="0 0 36.0 42.0" height="42.0px">
  <g>
    <g transform="translate(0, 6) scale(1 1) ">
      <path fill="#66757F" d="M36 18c0 9.94-8.06 18-18 18-9.941 0-18-8.06-18-18C0 8.059 8.059 0 18 0c9.94 0 18 8.059 18 18"/>
      <g fill="#5B6876">
        <circle cx="9.5" cy="7.5" r="3.5"/>
        <circle cx="24.5" cy="28.5" r="3.5"/>
        <circle cx="22" cy="5" r="2"/>
        <circle cx="3" cy="18" r="1"/>
        <circle cx="30" cy="9" r="1"/>
        <circle cx="16" cy="31" r="1"/>
        <circle cx="32" cy="19" r="2"/>
        <circle cx="6" cy="26" r="2"/>
      </g>
      <path d="M18 24.904c-7 0-9-2.618-9-1.381C9 24.762 13 28 18 28s9-3.238 9-4.477c0-1.237-2 1.381-9 1.381M27 15c0 1.657-1.344 3-3 3s-3-1.343-3-3 1.344-3 3-3 3 1.343 3 3m-12 0c0 1.657-1.344 3-3 3s-3-1.343-3-3 1.344-3 3-3 3 1.343 3 3" fill="#292F33"/>
    </g>
    <g>
      <defs>
        <style>.cls-1{fill:#664500;}.cls-2{fill:#825d0e;}</style>
      </defs>
      <path class="cls-1" d="M32,6.13c-1.19,1.44-3.18,2-5.08,2.12C26.61,6.71,25.24,1,22.5,1,20.1,1,19.23,2.09,18,2.09S15.9,1,13.5,1C10.76,1,9.39,6.71,9.08,8.25,7.18,8.08,5.19,7.57,4,6.13,1.85,3.52-1,5.44.44,8.3,2.72,12.82,8.23,16,18,16s15.28-3.18,17.56-7.7C37,5.44,34.15,3.52,32,6.13Z" transform="translate(-0.05 -1)"/>
      <path class="cls-2" d="M21.5,3C19.63,3,19,4,18,4s-1.63-1-3.5-1C12,3,11,9.75,11,9.75S12.28,12,18,12s7-2.25,7-2.25S24,3,21.5,3Z" transform="translate(-0.05 -1)"/>
      <path class="cls-1" d="M11,6s2.07,2,7,2,7-2,7-2V8s-2.22,2-7,2-7-2-7-2Z" transform="translate(-0.05 -1)"/>
    </g>
  </g>
</svg>
