<svg id="Layer_1" data-name="Layer 1" xmlns="http://www.w3.org/2000/svg" viewBox="0 0 33.69 42.13"><defs><style>.cls-1{fill:#ffd983;}.cls-2{fill:#ffcc4d;}.cls-3{fill:#292f33;}.cls-4{fill:#664500;}.cls-5{fill:#825d0e;}</style></defs><path class="cls-1" d="M15.34,19.12A19,19,0,0,1,20.42,6.23,18,18,0,1,0,33.69,38.09a19.09,19.09,0,0,1-16.35-10.5c-.62-1.24,2.8-1.21,3-3.49s-5-2.74-5-5"/><circle class="cls-2" cx="14.84" cy="34.62" r="3.5"/><circle class="cls-2" cx="13.34" cy="13.12" r="1"/><circle class="cls-2" cx="22.34" cy="38.12" r="1"/><circle class="cls-2" cx="7.34" cy="26.12" r="2"/><path class="cls-3" d="M20.55,32.15a20.21,20.21,0,0,1-2.11-2.66c-5.45,1.23-7.63-.27-7.31.81s4.79,3,9.42,1.85M14.34,20.59a2.5,2.5,0,1,1-2.5-2.5,2.49,2.49,0,0,1,2.5,2.5"/><path class="cls-4" d="M26.56,4.26A5.81,5.81,0,0,1,22.34,6c-.26-1.28-1.4-6-3.67-6-2,0-2.72.91-3.74.91S13.19,0,11.19,0C8.92,0,7.78,4.74,7.52,6A6,6,0,0,1,3.3,4.26C1.52,2.09-.85,3.69.3,6.06c1.9,3.76,6.47,6.4,14.59,6.4s12.69-2.64,14.58-6.4C30.71,3.69,28.34,2.09,26.56,4.26Z"/><path class="cls-5" d="M17.84,1.66c-1.56,0-2.08.83-2.91.83s-1.35-.83-2.87-.83c-2.07,0-2.9,5.61-2.9,5.61S10.22,9.14,15,9.14s5.81-1.87,5.81-1.87S19.91,1.66,17.84,1.66Z"/><path class="cls-4" d="M9.12,4.15s1.71,1.66,5.81,1.66,5.81-1.66,5.81-1.66V5.81S18.9,7.48,14.93,7.48,9.12,5.81,9.12,5.81Z"/></svg>