<?xml version='1.0' encoding='ASCII' standalone='yes'?>
<svg xmlns="http://www.w3.org/2000/svg" xmlns:xlink="http://www.w3.org/1999/xlink" version="1.1" width="36.0px" viewBox="0 0 36.0 42.0" height="42.0px">
  <g>
    <g transform="translate(0, 6) scale(1 1) ">
      <path fill="#F4900C" d="M13.917 36c-.091 0-.182-.029-.258-.089-.157-.124-.204-.341-.113-.518L17 29h-5.078c-.174 0-.438-.031-.562-.297-.114-.243-.057-.474.047-.703L15 19c.078-.067 6.902.393 7 .393.09 0 .182.029.257.089.157.124.204.341.112.519l-3.817 6h5.032c.174 0 .329.108.391.271.06.163.013.347-.119.461l-9.666 9.166c-.079.067-.176.101-.273.101z"/>
      <path fill="#E1E8ED" d="M28 4c-.825 0-1.62.125-2.369.357C24.744 1.822 22.338 0 19.5 0c-3.044 0-5.592 2.096-6.299 4.921C12.447 4.351 11.519 4 10.5 4 8.015 4 6 6.015 6 8.5c0 .604.123 1.178.339 1.704C5.91 10.085 5.467 10 5 10c-2.762 0-5 2.238-5 5s2.238 5 5 5h23c4.418 0 8-3.581 8-8 0-4.418-3.582-8-8-8z"/>
    </g>
    <g>
      <defs>
        <style>.cls-1{fill:#664500;}.cls-2{fill:#825d0e;}</style>
      </defs>
      <path class="cls-1" d="M32,6.13c-1.19,1.44-3.18,2-5.08,2.12C26.61,6.71,25.24,1,22.5,1,20.1,1,19.23,2.09,18,2.09S15.9,1,13.5,1C10.76,1,9.39,6.71,9.08,8.25,7.18,8.08,5.19,7.57,4,6.13,1.85,3.52-1,5.44.44,8.3,2.72,12.82,8.23,16,18,16s15.28-3.18,17.56-7.7C37,5.44,34.15,3.52,32,6.13Z" transform="translate(-0.05 -1)"/>
      <path class="cls-2" d="M21.5,3C19.63,3,19,4,18,4s-1.63-1-3.5-1C12,3,11,9.75,11,9.75S12.28,12,18,12s7-2.25,7-2.25S24,3,21.5,3Z" transform="translate(-0.05 -1)"/>
      <path class="cls-1" d="M11,6s2.07,2,7,2,7-2,7-2V8s-2.22,2-7,2-7-2-7-2Z" transform="translate(-0.05 -1)"/>
    </g>
  </g>
</svg>
