<?xml version='1.0' encoding='ASCII' standalone='yes'?>
<svg xmlns="http://www.w3.org/2000/svg" xmlns:xlink="http://www.w3.org/1999/xlink" version="1.1" width="36.0px" viewBox="0 0 36.0 42.0" height="42.0px">
  <g>
    <g transform="translate(0, 6) scale(1 1) ">
      <path fill="#E1E8ED" d="M28 4c-.825 0-1.62.125-2.369.357C24.744 1.822 22.338 0 19.5 0c-3.044 0-5.592 2.096-6.299 4.921C12.447 4.351 11.519 4 10.5 4 8.015 4 6 6.015 6 8.5c0 .604.123 1.178.339 1.704C5.91 10.085 5.467 10 5 10c-2.762 0-5 2.238-5 5s2.238 5 5 5h23c4.418 0 8-3.581 8-8 0-4.418-3.582-8-8-8z"/>
      <path fill="#5DADEC" d="M11.999 24.961l-.113-3.421-2.87 1.708c-.638.345-1.062 1.024-1.036 1.799.037 1.103.966 1.976 2.076 1.953 1.109-.023 1.98-.937 1.943-2.039zm-1.979 7.46L9.907 29l-2.87 1.708c-.638.345-1.062 1.024-1.036 1.799.037 1.103.966 1.976 2.076 1.953 1.11-.023 1.98-.937 1.943-2.039zm-5-4.46l-.113-3.421-2.87 1.708c-.638.345-1.062 1.024-1.036 1.799.037 1.102.966 1.975 2.076 1.953 1.11-.023 1.98-.937 1.943-2.039zm18-3l-.113-3.421-2.869 1.708c-.639.345-1.062 1.024-1.036 1.799.037 1.103.966 1.976 2.076 1.953 1.109-.023 1.979-.937 1.942-2.039zm-6.021 4l-.113-3.421-2.869 1.708c-.639.345-1.062 1.024-1.036 1.799.037 1.103.966 1.976 2.076 1.953 1.109-.023 1.979-.937 1.942-2.039zm5.021 4.46L21.906 30l-2.869 1.708c-.639.345-1.062 1.024-1.036 1.799.037 1.103.966 1.976 2.076 1.953 1.11-.023 1.98-.937 1.943-2.039zm6.979-5.46l-.113-3.421-2.869 1.708c-.639.345-1.062 1.024-1.036 1.799.037 1.103.966 1.976 2.076 1.953 1.109-.023 1.979-.937 1.942-2.039z"/>
    </g>
    <g>
      <defs>
        <style>.cls-1{fill:#664500;}.cls-2{fill:#825d0e;}</style>
      </defs>
      <path class="cls-1" d="M32,6.13c-1.19,1.44-3.18,2-5.08,2.12C26.61,6.71,25.24,1,22.5,1,20.1,1,19.23,2.09,18,2.09S15.9,1,13.5,1C10.76,1,9.39,6.71,9.08,8.25,7.18,8.08,5.19,7.57,4,6.13,1.85,3.52-1,5.44.44,8.3,2.72,12.82,8.23,16,18,16s15.28-3.18,17.56-7.7C37,5.44,34.15,3.52,32,6.13Z" transform="translate(-0.05 -1)"/>
      <path class="cls-2" d="M21.5,3C19.63,3,19,4,18,4s-1.63-1-3.5-1C12,3,11,9.75,11,9.75S12.28,12,18,12s7-2.25,7-2.25S24,3,21.5,3Z" transform="translate(-0.05 -1)"/>
      <path class="cls-1" d="M11,6s2.07,2,7,2,7-2,7-2V8s-2.22,2-7,2-7-2-7-2Z" transform="translate(-0.05 -1)"/>
    </g>
  </g>
</svg>
