<?xml version='1.0' encoding='ASCII' standalone='yes'?>
<svg xmlns="http://www.w3.org/2000/svg" xmlns:xlink="http://www.w3.org/1999/xlink" version="1.1" width="36.0px" viewBox="0 0 36.0 42.0" height="42.0px">
  <g>
    <g transform="translate(0, 6) scale(1 1) ">
      <path fill="#77B255" d="M30 4c-2.209 0-4 1.791-4 4v9.125c0 1.086-.887 1.96-2 2.448V6c0-3.313-2.687-6-6-6s-6 2.687-6 6v17.629c-1.122-.475-2-1.371-2-2.504V16c0-2.209-1.791-4-4-4s-4 1.791-4 4v7c0 2.209 1.75 3.875 3.375 4.812 1.244.718 4.731 1.6 6.625 1.651V33c0 3.313 12 3.313 12 0v-7.549c1.981-.119 5.291-.953 6.479-1.639C32.104 22.875 34 21.209 34 19V8c0-2.209-1.791-4-4-4z"/>
      <g fill="#3E721D">
        <circle cx="12" cy="6" r="1"/>
        <circle cx="23" cy="3" r="1"/>
        <circle cx="21" cy="9" r="1"/>
        <circle cx="14" cy="16" r="1"/>
        <circle cx="20" cy="20" r="1"/>
        <circle cx="13" cy="26" r="1"/>
        <circle cx="5" cy="27" r="1"/>
        <circle cx="9" cy="20" r="1"/>
        <circle cx="2" cy="18" r="1"/>
        <circle cx="34" cy="8" r="1"/>
        <circle cx="28" cy="11" r="1"/>
        <circle cx="32" cy="16" r="1"/>
        <circle cx="29" cy="24" r="1"/>
        <circle cx="22" cy="30" r="1"/>
      </g>
    </g>
    <g>
      <defs>
        <style>.cls-1{fill:#664500;}.cls-2{fill:#825d0e;}</style>
      </defs>
      <path class="cls-1" d="M32,6.13c-1.19,1.44-3.18,2-5.08,2.12C26.61,6.71,25.24,1,22.5,1,20.1,1,19.23,2.09,18,2.09S15.9,1,13.5,1C10.76,1,9.39,6.71,9.08,8.25,7.18,8.08,5.19,7.57,4,6.13,1.85,3.52-1,5.44.44,8.3,2.72,12.82,8.23,16,18,16s15.28-3.18,17.56-7.7C37,5.44,34.15,3.52,32,6.13Z" transform="translate(-0.05 -1)"/>
      <path class="cls-2" d="M21.5,3C19.63,3,19,4,18,4s-1.63-1-3.5-1C12,3,11,9.75,11,9.75S12.28,12,18,12s7-2.25,7-2.25S24,3,21.5,3Z" transform="translate(-0.05 -1)"/>
      <path class="cls-1" d="M11,6s2.07,2,7,2,7-2,7-2V8s-2.22,2-7,2-7-2-7-2Z" transform="translate(-0.05 -1)"/>
    </g>
  </g>
</svg>
