<svg id="Layer_1" data-name="Layer 1" xmlns="http://www.w3.org/2000/svg" viewBox="0 0 46.51 41.9"><defs><style>.cls-1{fill:#744eaa;}.cls-2{fill:#77b255;}.cls-3{fill:#664500;}.cls-4{fill:#825d0e;}</style></defs><path class="cls-1" d="M17.51,9.9c3,0,5,2,8,6s8,7.19,12,8a10.88,10.88,0,0,1,9,11c0,4.89-3.85,7-9,7s-9-3-14-8-10-14-10-18S14.51,9.9,17.51,9.9Z"/><path class="cls-2" d="M15,5.9c1.25,0,1.25,1.24,1.25,2.49,0,1.76,1.25,1.13,2.5,1.13s3.74,2.38,3.74,2.38H18.77c-1.25,0,0,2.61-1.25,2.61s-1.25-1.19-2.5-1.19-1.51,3.58-1.51,3.58-1.61-4.16.27-6C15,9.62,12.53,5.9,15,5.9Z"/><path class="cls-3" d="M23.79,1.55A5.58,5.58,0,0,1,20.52,4.4c-.62-1.08-3.06-5-5.1-4.32C13.63.67,13.25,1.7,12.33,2s-1.84-.29-3.63.3C6.65,3,7,7.59,7.19,8.82A5.66,5.66,0,0,1,2.88,8.5C.62,7.08-1,9.22.76,11c2.82,2.81,7.72,3.82,15,1.4S26.4,6.23,27,2.29C27.35-.2,24.74-.93,23.79,1.55Z"/><path class="cls-4" d="M15.17,1.82c-1.4.46-1.62,1.37-2.37,1.62s-1.46-.35-2.86.12C8.07,4.18,9,9.47,9,9.47s1.51,1.36,5.79-.06S19.46,6,19.46,6,17,1.2,15.17,1.82Z"/><path class="cls-3" d="M8.07,6.66s2,1,5.72-.24,4.74-3.23,4.74-3.23L19,4.69s-1.16,2-4.73,3.23-5.72.24-5.72.24Z"/></svg>