<svg id="Layer_1" data-name="Layer 1" xmlns="http://www.w3.org/2000/svg" viewBox="0 0 35 36.83"><defs><style>.cls-1{fill:#77b255;}.cls-2{fill:#553788;}.cls-3{fill:#9266cc;}.cls-4{fill:#aa8dd8;}.cls-5{fill:#744eaa;}.cls-6{fill:#664500;}.cls-7{fill:#825d0e;}</style></defs><path class="cls-1" d="M9,12.83a1.06,1.06,0,0,1-.45-.11C4.17,10.53,1.07,5.2.05,2.14A1,1,0,0,1,2,1.51C2.83,4.14,5.64,9,9.45,10.93a1,1,0,0,1,.45,1.35A1,1,0,0,1,9,12.83Z"/><circle class="cls-2" cx="18" cy="29.83" r="7"/><circle class="cls-3" cx="9" cy="15.83" r="7"/><circle class="cls-4" cx="18" cy="12.83" r="7"/><circle class="cls-5" cx="26" cy="18.83" r="7"/><circle class="cls-5" cx="8" cy="26.83" r="7"/><circle class="cls-3" cx="17" cy="21.83" r="7"/><circle class="cls-3" cx="28" cy="29.83" r="7"/><path class="cls-6" d="M28.14,3.72a5.12,5.12,0,0,1-3.68,1.53C24.24,4.14,23.24,0,21.26,0,19.52,0,18.89.79,18,.79S16.48,0,14.74,0c-2,0-3,4.14-3.2,5.25A5.24,5.24,0,0,1,7.86,3.72C6.3,1.83,4.24,3.22,5.28,5.29,6.93,8.56,10.92,10.86,18,10.86s11.07-2.3,12.72-5.57C31.76,3.22,29.7,1.83,28.14,3.72Z"/><path class="cls-7" d="M20.53,1.45c-1.35,0-1.81.72-2.53.72s-1.18-.72-2.53-.72c-1.82,0-2.54,4.89-2.54,4.89S13.86,8,18,8s5.07-1.63,5.07-1.63S22.35,1.45,20.53,1.45Z"/><path class="cls-6" d="M12.93,3.62S14.43,5.07,18,5.07s5.07-1.45,5.07-1.45V5.07A7.84,7.84,0,0,1,18,6.52a7.84,7.84,0,0,1-5.07-1.45Z"/></svg>