<?xml version='1.0' encoding='ASCII' standalone='yes'?>
<svg xmlns="http://www.w3.org/2000/svg" xmlns:xlink="http://www.w3.org/1999/xlink" version="1.1" width="36.0px" viewBox="0 0 36.0 42.0" height="42.0px">
  <g>
    <g transform="translate(0, 6) scale(1 1) ">
      <path fill="#A6D388" d="M31.924 10.982c4.418 7.652 1.99 17.326-5.424 21.607-7.414 4.28-16.505 2.413-20.924-5.241C.577 18.688 3.086 9.156 10.5 4.876c7.414-4.28 17.924.044 21.424 6.106z"/>
      <path fill="#77B255" d="M24 6c3 1 6 4 8 7 .836 1.254.729-.078-.294-2.348C28.02 4.768 17.777.675 10.5 4.876c-3.01 1.738-5.194 4.349-6.413 7.408C4.808 11.471 5.52 11 6 11c1 0-1.896 3.279 1 11 3 8 3 4 3 4s-2-9-1-12 2-5 3-4 5 9 7 14c2.259 5.647 2-1-1-8-2.841-6.628-3-8-2-8s3.465 1.464 7 5c2 2 3 5 4 6s1-1 0-4c-.707-2.121-3-6-6-8-2.496-1.664 0-2 3-1z"/>
      <path fill="#5C913B" d="M11.934 6.358c-.479.276-1.091.112-1.367-.366-1.104-1.914-1.26-4.303-1.266-4.404-.033-.55.387-1.022.937-1.058.552-.034 1.025.385 1.061.936.001.021.137 2.027 1.001 3.525.275.479.112 1.091-.366 1.367z"/>
      <path fill="#77B255" d="M11.961 30.533C11 30 10.234 28.557 9.552 27.308c-.682-1.249.276-1.276.886-.159.681 1.249 1.204 1.612 1.886 2.861.682 1.249.194.832-.363.523zm9.543.373c-.874-2.059-.812-3.057-1.686-5.114-.874-2.059-.749-4.055.124-1.997.874 2.059 1.748 4.118 1.687 5.115-.064.999-.125 1.996-.125 1.996zM27 19c1 3 0 2 1 5s1 5 1 0c0-3.162-1-6-2-7-1.581-1.581 0 2 0 2z"/>
    </g>
    <g>
      <defs>
        <style>.cls-1{fill:#664500;}.cls-2{fill:#825d0e;}</style>
      </defs>
      <path class="cls-1" d="M32,6.13c-1.19,1.44-3.18,2-5.08,2.12C26.61,6.71,25.24,1,22.5,1,20.1,1,19.23,2.09,18,2.09S15.9,1,13.5,1C10.76,1,9.39,6.71,9.08,8.25,7.18,8.08,5.19,7.57,4,6.13,1.85,3.52-1,5.44.44,8.3,2.72,12.82,8.23,16,18,16s15.28-3.18,17.56-7.7C37,5.44,34.15,3.52,32,6.13Z" transform="translate(-0.05 -1)"/>
      <path class="cls-2" d="M21.5,3C19.63,3,19,4,18,4s-1.63-1-3.5-1C12,3,11,9.75,11,9.75S12.28,12,18,12s7-2.25,7-2.25S24,3,21.5,3Z" transform="translate(-0.05 -1)"/>
      <path class="cls-1" d="M11,6s2.07,2,7,2,7-2,7-2V8s-2.22,2-7,2-7-2-7-2Z" transform="translate(-0.05 -1)"/>
    </g>
  </g>
</svg>
