<svg id="Layer_1" data-name="Layer 1" xmlns="http://www.w3.org/2000/svg" viewBox="0 0 48.79 36"><defs><style>.cls-1{fill:#77b255;}.cls-2{fill:#5c913b;}.cls-3{fill:#be1931;}.cls-4{fill:#664500;}.cls-5{fill:#825d0e;}</style></defs><path class="cls-1" d="M31.73,24a1,1,0,0,1-.57-.18C24.62,19.24,19,11.45,15.76,6.38c1.7,10.53,1,16.46,1,16.74a1,1,0,0,1-1.12.87,1,1,0,0,1-.87-1.11c0-.08.94-8-2-21.67A1,1,0,0,1,13.39.06a1,1,0,0,1,1.23.47c.07.15,8,14.87,17.69,21.65a1,1,0,0,1,.24,1.39A1,1,0,0,1,31.73,24Z"/><path class="cls-2" d="M32.28,8.82c-3.48,1-5.05,2.54-10.75.67-4.72-1.56-7-4.21-6.34-6.31S18.37,0,23.09,1.57,27.21,5,32.28,8.82Z"/><circle class="cls-3" cx="31.73" cy="28" r="8"/><circle class="cls-3" cx="16.73" cy="28" r="8"/><path class="cls-4" d="M24.28,13.55a5.63,5.63,0,0,1-3.37,2.82c-.6-1.1-3-5.13-5.09-4.48-1.83.57-2.24,1.61-3.17,1.9S10.79,13.46,9,14c-2.09.65-1.78,5.33-1.65,6.58a5.83,5.83,0,0,1-4.38-.41C.68,18.72-1,20.86.74,22.7c2.81,2.9,7.76,4,15.21,1.7s10.89-6.06,11.56-10C27.92,11.84,25.3,11.05,24.28,13.55Z"/><path class="cls-5" d="M15.53,13.66c-1.43.44-1.67,1.35-2.43,1.59s-1.48-.38-2.91.07c-1.9.59-1.06,6-1.06,6s1.51,1.41,5.87.06S19.8,18,19.8,18,17.44,13.06,15.53,13.66Z"/><path class="cls-4" d="M8.24,18.44s2,1,5.81-.14,4.86-3.19,4.86-3.19l.48,1.53s-1.22,2.05-4.87,3.18S8.71,20,8.71,20Z"/><path class="cls-4" d="M45.86,19.67a5.6,5.6,0,0,1-4.28.63c.06-1.24.13-5.85-2-6.38-1.83-.47-2.7.19-3.64,0s-1.39-1.24-3.21-1.71c-2.09-.53-4.24,3.55-4.77,4.67a5.7,5.7,0,0,1-3.46-2.6c-1.13-2.41-3.67-1.5-3.13,1,.86,3.88,4.44,7.37,11.88,9.27S45.54,25,48.15,22C49.8,20.11,48,18.1,45.86,19.67Z"/><path class="cls-5" d="M38.47,15.25c-1.42-.37-2.1.27-2.86.08s-1-1.08-2.47-1.44c-1.9-.48-4,4.46-4,4.46s.54,2,4.89,3.07,5.77-.35,5.77-.35S40.37,15.73,38.47,15.25Z"/><path class="cls-4" d="M29.89,15.5s1.19,1.92,5,2.88,5.71-.17,5.71-.17l-.38,1.52s-2.08,1.1-5.72.17S29.51,17,29.51,17Z"/></svg>