<?xml version='1.0' encoding='ASCII' standalone='yes'?>
<svg xmlns="http://www.w3.org/2000/svg" xmlns:xlink="http://www.w3.org/1999/xlink" version="1.1" width="36.0px" viewBox="0 0 36.0 42.0" height="42.0px">
  <g>
    <g transform="translate(0, 6) scale(1 1) ">
      <path fill="#D99E82" d="M36 13.5c0-4.558-4.435-8.267-10-8.479V5H10v.021C4.435 5.233 0 8.942 0 13.5c0 1.861.747 3.576 2 4.976V31c0 2.209 1.791 4 4 4h24c2.209 0 4-1.791 4-4V18.476c1.253-1.4 2-3.115 2-4.976z"/>
      <path fill="#CC927A" d="M19 18.476h15v1.5H19z"/>
      <path fill="#FFE8B6" d="M21 13.5c0-3.461-3.538-6.291-8-6.489C12.835 7.004 10.668 7 10.5 7 5.806 7 2 9.91 2 13.5c0 1.595.754 3.053 2 4.184V30c0 1.657 1.343 3 3 3h9c1.657 0 3-1.343 3-3V17.679c1.244-1.131 2-2.586 2-4.179z"/>
    </g>
    <g>
      <defs>
        <style>.cls-1{fill:#664500;}.cls-2{fill:#825d0e;}</style>
      </defs>
      <path class="cls-1" d="M32,6.13c-1.19,1.44-3.18,2-5.08,2.12C26.61,6.71,25.24,1,22.5,1,20.1,1,19.23,2.09,18,2.09S15.9,1,13.5,1C10.76,1,9.39,6.71,9.08,8.25,7.18,8.08,5.19,7.57,4,6.13,1.85,3.52-1,5.44.44,8.3,2.72,12.82,8.23,16,18,16s15.28-3.18,17.56-7.7C37,5.44,34.15,3.52,32,6.13Z" transform="translate(-0.05 -1)"/>
      <path class="cls-2" d="M21.5,3C19.63,3,19,4,18,4s-1.63-1-3.5-1C12,3,11,9.75,11,9.75S12.28,12,18,12s7-2.25,7-2.25S24,3,21.5,3Z" transform="translate(-0.05 -1)"/>
      <path class="cls-1" d="M11,6s2.07,2,7,2,7-2,7-2V8s-2.22,2-7,2-7-2-7-2Z" transform="translate(-0.05 -1)"/>
    </g>
  </g>
</svg>
