<?xml version='1.0' encoding='ASCII' standalone='yes'?>
<svg xmlns="http://www.w3.org/2000/svg" xmlns:xlink="http://www.w3.org/1999/xlink" version="1.1" width="36.0px" viewBox="0 0 36.0 42.0" height="42.0px">
  <g>
    <g transform="translate(0, 6) scale(1 1) ">
      <path fill="#EEE" d="M35 26c0 9.389-7.609 9-17 9s-17 .389-17-9C1 18 9 7 14 3c2.75-2 5.129-2.051 8 0 7 5 13 18 13 23z"/>
      <path fill="#CCD6DD" d="M27.258 29.642c-.461.316-1.091.199-1.406-.263-.316-.46-.198-1.091.262-1.406l1.67-1.144c.46-.315 1.089-.198 1.405.263.315.46.198 1.091-.263 1.405l-1.668 1.145zm2.438-7.095c-.512-.207-.758-.792-.549-1.303.209-.512.793-.758 1.304-.549l1.852.755c.511.208.757.791.549 1.303-.208.512-.792.758-1.304.549l-1.852-.755zm-4.494-5.256c-.519-.21-.767-.801-.555-1.318.209-.517.801-.766 1.316-.556l1.875.764c.516.211.765.801.554 1.318-.211.517-.8.766-1.318.555l-1.872-.763zm-21.001 7c-.517-.21-.766-.801-.554-1.318.21-.517.801-.766 1.317-.556l1.873.764c.518.211.766.801.556 1.318-.211.518-.802.767-1.318.556l-1.874-.764zm3.557-6.149c-.461.316-1.091.199-1.406-.264-.315-.46-.198-1.09.262-1.405l1.67-1.144c.46-.315 1.089-.198 1.405.263.315.46.198 1.091-.263 1.406l-1.668 1.144zm9.028 3.739c-.767-.312-1.137-1.188-.824-1.956.314-.766 1.189-1.135 1.956-.823l2.778 1.134c.767.312 1.136 1.186.824 1.953-.312.768-1.188 1.137-1.956.824l-2.778-1.132zm-6.184 6.052c.522-.199 1.106.062 1.306.586.197.519-.066 1.105-.588 1.303l-1.892.721c-.519.199-1.104-.063-1.302-.586-.2-.524.062-1.107.585-1.307l1.891-.717z"/>
      <path fill="#292F33" d="M24 21H12c-1.104 0-2 .896-2 2v11.812c2.384.224 5.107.188 8 .188s5.616.036 8-.188V23c0-1.104-.896-2-2-2z"/>
    </g>
    <g>
      <defs>
        <style>.cls-1{fill:#664500;}.cls-2{fill:#825d0e;}</style>
      </defs>
      <path class="cls-1" d="M32,6.13c-1.19,1.44-3.18,2-5.08,2.12C26.61,6.71,25.24,1,22.5,1,20.1,1,19.23,2.09,18,2.09S15.9,1,13.5,1C10.76,1,9.39,6.71,9.08,8.25,7.18,8.08,5.19,7.57,4,6.13,1.85,3.52-1,5.44.44,8.3,2.72,12.82,8.23,16,18,16s15.28-3.18,17.56-7.7C37,5.44,34.15,3.52,32,6.13Z" transform="translate(-0.05 -1)"/>
      <path class="cls-2" d="M21.5,3C19.63,3,19,4,18,4s-1.63-1-3.5-1C12,3,11,9.75,11,9.75S12.28,12,18,12s7-2.25,7-2.25S24,3,21.5,3Z" transform="translate(-0.05 -1)"/>
      <path class="cls-1" d="M11,6s2.07,2,7,2,7-2,7-2V8s-2.22,2-7,2-7-2-7-2Z" transform="translate(-0.05 -1)"/>
    </g>
  </g>
</svg>
