<svg id="Layer_1" data-name="Layer 1" xmlns="http://www.w3.org/2000/svg" viewBox="0 0 37.42 43.28"><defs><style>.cls-1{fill:#ffac33;}.cls-2{fill:#ffcc4d;}.cls-3{fill:#f4900c;}.cls-4{fill:#eee;}.cls-5{fill:#664500;}.cls-6{fill:#825d0e;}</style></defs><path class="cls-1" d="M33.42,13h-6v4h4a2,2,0,0,1,2,2V31a2,2,0,0,1-2,2h-4v4h6a4,4,0,0,0,4-4V17A4,4,0,0,0,33.42,13Z"/><path class="cls-2" d="M29.42,13.28h-24v26a4,4,0,0,0,4,4h16a4,4,0,0,0,4-4Z"/><path class="cls-3" d="M10.92,39.28a1,1,0,0,1-1-1v-16a1,1,0,0,1,2,0v16A1,1,0,0,1,10.92,39.28Zm6.5,0a1,1,0,0,1-1-1v-16a1,1,0,0,1,2,0v16A1,1,0,0,1,17.42,39.28Zm6.5,0a1,1,0,0,1-1-1v-16a1,1,0,0,1,2,0v16A1,1,0,0,1,23.92,39.28Z"/><path class="cls-1" d="M5.42,12.28v7.44a3.91,3.91,0,0,0,2,.56,4,4,0,0,0,3.7-2.49,2,2,0,0,0,2.94-.36,4,4,0,0,0,6.54.26,2.49,2.49,0,0,0,4.51.28l.15-.37a3.37,3.37,0,0,0,1.66.44A3.47,3.47,0,0,0,29.42,17V12.28Z"/><path class="cls-4" d="M26.42,7.28h-20a3,3,0,0,0-3,3v4a4,4,0,0,0,7.7,1.51,2,2,0,0,0,2.94-.36,4,4,0,0,0,6.54.26,2.49,2.49,0,0,0,4.51.28,3,3,0,0,0,1.31.31,3,3,0,0,0,3-3v-3A3,3,0,0,0,26.42,7.28Z"/><path class="cls-5" d="M31,5A6.83,6.83,0,0,1,26.08,7c-.3-1.5-1.63-7-4.29-7-2.33,0-3.17,1.06-4.37,1.06S15.39,0,13.06,0c-2.66,0-4,5.54-4.29,7C6.92,6.87,5,6.38,3.83,5,1.75,2.45-1,4.31.38,7.09c2.21,4.38,7.56,7.47,17,7.47s14.83-3.09,17-7.47C35.87,4.31,33.1,2.45,31,5Z"/><path class="cls-6" d="M20.82,1.94c-1.81,0-2.43,1-3.4,1s-1.58-1-3.39-1c-2.43,0-3.4,6.55-3.4,6.55s1.24,2.19,6.79,2.19,6.8-2.19,6.8-2.19S23.25,1.94,20.82,1.94Z"/><path class="cls-5" d="M10.63,4.85s2,1.94,6.79,1.94,6.8-1.94,6.8-1.94V6.79s-2.16,2-6.8,2-6.79-1.95-6.79-1.95Z"/></svg>