<svg id="Layer_1" data-name="Layer 1" xmlns="http://www.w3.org/2000/svg" viewBox="0 0 36 34.95"><defs><style>.cls-1{fill:#939598;}.cls-2{fill:#f1f2f2;}.cls-3{fill:#fff;}.cls-4{fill:#e1e8ed;}.cls-5{fill:#ffac33;}.cls-6{fill:#ffd983;}.cls-7{fill:#664500;}.cls-8{fill:#825d0e;}</style></defs><ellipse class="cls-1" cx="18" cy="24.95" rx="18" ry="10"/><ellipse class="cls-2" cx="18" cy="22.95" rx="18" ry="10"/><ellipse class="cls-3" cx="18" cy="22.56" rx="14.8" ry="7.61"/><path class="cls-4" d="M8,30.15c0-3,.42-7.21,0-13.87.6-1.38,6.15-2.48,6.63-3.8C16,8.94,13.46,6.57,16,4.15c2.05-1.95,5-2,6,1,2-2,6-1,6,2,4-1,6,3,3,6,0,1-1,9-1,11s-.21,1.79-5.21,2.79S8,30.15,8,30.15Z" transform="translate(0 -2.2)"/><path class="cls-5" d="M8,29.15v-12s21-7,21-2.46V25.15Z" transform="translate(0 -2.2)"/><path class="cls-6" d="M8,28.15v-10s12.38-4.21,20-4v10Z" transform="translate(0 -2.2)"/><path class="cls-5" d="M8,23.15v-1l21-4v1Z" transform="translate(0 -2.2)"/><path class="cls-4" d="M8,16.15l9-9c2,0,8,1,11,5Z" transform="translate(0 -2.2)"/><path class="cls-3" d="M30,12.15c1-1,1-5-3-4a3.14,3.14,0,0,0-5-2c0-1-5-2-6,0C26,9.15,30,12.15,30,12.15Z" transform="translate(0 -2.2)"/><path class="cls-7" d="M29.49,5.58A4.69,4.69,0,0,1,26.14,7c-.25-1-1.15-4.79-3-4.79-1.55,0-2.15.71-3,.71s-1.39-.71-3-.71C15.43,2.2,14.52,6,14.32,7A4.83,4.83,0,0,1,11,5.58C9.55,3.86,7.69,5.13,8.62,7c1.5,3,5.14,5.08,11.59,5.08S30.27,10,31.83,7C32.76,5.13,30.87,3.86,29.49,5.58Z" transform="translate(0 -2.2)"/><path class="cls-8" d="M22.52,3.52c-1.24,0-1.65.65-2.33.65s-1.08-.65-2.34-.65C16.2,3.52,15.51,8,15.51,8s.84,1.48,4.62,1.48S24.82,8,24.82,8,24.17,3.52,22.52,3.52Z" transform="translate(0 -2.2)"/><path class="cls-7" d="M15.59,5.5S17,6.82,20.21,6.82,24.82,5.5,24.82,5.5V6.82a7.14,7.14,0,0,1-4.63,1.32,7.08,7.08,0,0,1-4.61-1.32Z" transform="translate(0 -2.2)"/></svg>