<svg id="Layer_1" data-name="Layer 1" xmlns="http://www.w3.org/2000/svg" viewBox="0 0 32.95 37.45"><defs><style>.cls-1{fill:#ffdc5d;}.cls-2{fill:#662113;}.cls-3{fill:#b7755e;}.cls-4{fill:#e6e7e8;}.cls-5{fill:#d1d3d4;}.cls-6{fill:#7a0b1c;}.cls-7{fill:#a0232f;}.cls-8{fill:#841021;}</style></defs><path class="cls-1" d="M6.47,22.45c0,2.21-1.12,4-2.5,4s-2.5-1.79-2.5-4,1.12-4,2.5-4S6.47,20.25,6.47,22.45Z"/><path class="cls-1" d="M4.47,20c0-8.53,5.38-15.44,12-15.44s12,6.91,12,15.44-5.37,15.43-12,15.43S4.47,28.54,4.47,20Z"/><path class="cls-1" d="M31.47,22.45c0,2.21-1.12,4-2.5,4s-2.5-1.79-2.5-4,1.12-4,2.5-4S31.47,20.25,31.47,22.45Z"/><path class="cls-2" d="M11.47,22.45a1,1,0,0,1-1-1v-2a1,1,0,0,1,2,0v2A1,1,0,0,1,11.47,22.45Zm10,0a1,1,0,0,1-1-1v-2a1,1,0,0,1,2,0v2A1,1,0,0,1,21.47,22.45Z"/><path class="cls-3" d="M17.47,27.45h-2a1,1,0,0,1,0-2h2a1,1,0,0,1,0,2Z"/><path class="cls-4" d="M28.47,26.45c0-2-2.29-.7-3,0-1,1-3,3-5,2-2.82-1.41-4-1-4-1s-1.17-.41-4,1c-2,1-4-1-5-2-.7-.7-3-2-3,0s1,2,1,2a2.19,2.19,0,0,0,1,3,2.94,2.94,0,0,0,3,3c0,3,4,2,4,2a5,5,0,0,0,6,0s4,1,4-2a2.94,2.94,0,0,0,3-3,2.19,2.19,0,0,0,1-3S28.47,28.45,28.47,26.45Z"/><path class="cls-1" d="M16.47,29.45c7,0,4,2,0,2S9.47,29.45,16.47,29.45Z"/><ellipse class="cls-5" cx="4.47" cy="15.45" rx="2" ry="4"/><ellipse class="cls-5" cx="27.47" cy="15.45" rx="2" ry="4"/><path class="cls-6" d="M29.32,4.71a6.49,6.49,0,0,1-4.66,1.94C24.38,5.24,23.12,0,20.61,0c-2.21,0-3,1-4.13,1s-1.93-1-4.13-1C9.83,0,8.57,5.24,8.29,6.65A6.59,6.59,0,0,1,3.63,4.71c-2-2.4-4.59-.63-3.27,2,2.09,4.15,7.15,7.07,16.12,7.07s14-2.92,16.11-7.07C33.91,4.08,31.3,2.31,29.32,4.71Z"/><path class="cls-7" d="M19.69,1.84c-1.72,0-2.3.91-3.21.91s-1.5-.91-3.22-.91C11,1.84,10.05,8,10.05,8s1.18,2.07,6.43,2.07S22.9,8,22.9,8,22,1.84,19.69,1.84Z"/><path class="cls-8" d="M10.05,4.59S12,6.42,16.48,6.42,22.9,4.59,22.9,4.59V6.42s-2,1.84-6.42,1.84-6.43-1.84-6.43-1.84Z"/></svg>