<?xml version='1.0' encoding='ASCII' standalone='yes'?>
<svg xmlns="http://www.w3.org/2000/svg" xmlns:xlink="http://www.w3.org/1999/xlink" version="1.1" width="36.0px" viewBox="0 0 36.0 42.0" height="42.0px">
  <g>
    <g transform="translate(0, 6) scale(1 1) ">
      <path fill="#292F33" d="M6 15h24v2H6zm15 15c0 2.208-.792 4-3 4-2.209 0-3-1.792-3-4s.791-2 3-2c2.208 0 3-.208 3 2z"/>
      <path fill="#66757F" d="M18 31c-6.627 0-10 1.343-10 3v2h20v-2c0-1.657-3.373-3-10-3z"/>
      <path fill="#99AAB5" d="M18 0c-4.971 0-9 4.029-9 9v7h18V9c0-4.971-4.029-9-9-9z"/>
      <g fill="#292F33">
        <circle cx="15.5" cy="2.5" r="1.5"/>
        <circle cx="20.5" cy="2.5" r="1.5"/>
        <circle cx="17.5" cy="6.5" r="1.5"/>
        <circle cx="22.5" cy="6.5" r="1.5"/>
        <circle cx="12.5" cy="6.5" r="1.5"/>
        <circle cx="15.5" cy="10.5" r="1.5"/>
        <circle cx="10.5" cy="10.5" r="1.5"/>
        <circle cx="20.5" cy="10.5" r="1.5"/>
        <circle cx="25.5" cy="10.5" r="1.5"/>
        <circle cx="17.5" cy="14.5" r="1.5"/>
        <circle cx="22.5" cy="14.5" r="1.5"/>
        <circle cx="12.5" cy="14.5" r="1.5"/>
      </g>
      <path fill="#66757F" d="M9 15.062V17c0 4.971 4.029 9 9 9s9-4.029 9-9v-1.938H9z"/>
      <path fill="#66757F" d="M30 14c-.553 0-1 .448-1 1v2c0 6.074-4.925 11-11 11S7 23.074 7 17v-2c0-.552-.448-1-1-1s-1 .448-1 1v2c0 7.18 5.82 13 13 13s13-5.82 13-13v-2c0-.552-.447-1-1-1z"/>
    </g>
    <g>
      <defs>
        <style>.cls-1{fill:#664500;}.cls-2{fill:#825d0e;}</style>
      </defs>
      <path class="cls-1" d="M32,6.13c-1.19,1.44-3.18,2-5.08,2.12C26.61,6.71,25.24,1,22.5,1,20.1,1,19.23,2.09,18,2.09S15.9,1,13.5,1C10.76,1,9.39,6.71,9.08,8.25,7.18,8.08,5.19,7.57,4,6.13,1.85,3.52-1,5.44.44,8.3,2.72,12.82,8.23,16,18,16s15.28-3.18,17.56-7.7C37,5.44,34.15,3.52,32,6.13Z" transform="translate(-0.05 -1)"/>
      <path class="cls-2" d="M21.5,3C19.63,3,19,4,18,4s-1.63-1-3.5-1C12,3,11,9.75,11,9.75S12.28,12,18,12s7-2.25,7-2.25S24,3,21.5,3Z" transform="translate(-0.05 -1)"/>
      <path class="cls-1" d="M11,6s2.07,2,7,2,7-2,7-2V8s-2.22,2-7,2-7-2-7-2Z" transform="translate(-0.05 -1)"/>
    </g>
  </g>
</svg>
