<?xml version='1.0' encoding='ASCII' standalone='yes'?>
<svg xmlns="http://www.w3.org/2000/svg" xmlns:xlink="http://www.w3.org/1999/xlink" version="1.1" width="36.0px" viewBox="0 0 36.0 42.0" height="42.0px">
  <g>
    <g transform="translate(0, 6) scale(1 1) ">
      <path fill="#D99E82" d="M18 3.143c-9.941 0-18 6.908-18 15.428 0 1.066.126 2.107.367 3.112C2.146 24.744 3.377 22.812 9 20c5.727-2.864 0 4-2 8-.615 1.23-.282 2.271.56 3.124C10.506 32.928 14.104 34 18 34c9.941 0 18-6.907 18-15.429 0-8.52-8.059-15.428-18-15.428zm2.849 24.447c-.395 1.346-2.46 1.924-4.613 1.291-2.153-.632-3.578-2.234-3.183-3.581.395-1.346 2.46-1.924 4.613-1.29 2.153.631 3.578 2.233 3.183 3.58z"/>
      <circle fill="#5C913B" cx="10" cy="11" r="3"/>
      <circle fill="#269" cx="20" cy="9" r="3"/>
      <circle fill="#DD2E44" cx="29" cy="15" r="3"/>
      <circle fill="#FFCC4D" cx="28" cy="24" r="3"/>
    </g>
    <g>
      <defs>
        <style>.cls-1{fill:#664500;}.cls-2{fill:#825d0e;}</style>
      </defs>
      <path class="cls-1" d="M32,6.13c-1.19,1.44-3.18,2-5.08,2.12C26.61,6.71,25.24,1,22.5,1,20.1,1,19.23,2.09,18,2.09S15.9,1,13.5,1C10.76,1,9.39,6.71,9.08,8.25,7.18,8.08,5.19,7.57,4,6.13,1.85,3.52-1,5.44.44,8.3,2.72,12.82,8.23,16,18,16s15.28-3.18,17.56-7.7C37,5.44,34.15,3.52,32,6.13Z" transform="translate(-0.05 -1)"/>
      <path class="cls-2" d="M21.5,3C19.63,3,19,4,18,4s-1.63-1-3.5-1C12,3,11,9.75,11,9.75S12.28,12,18,12s7-2.25,7-2.25S24,3,21.5,3Z" transform="translate(-0.05 -1)"/>
      <path class="cls-1" d="M11,6s2.07,2,7,2,7-2,7-2V8s-2.22,2-7,2-7-2-7-2Z" transform="translate(-0.05 -1)"/>
    </g>
  </g>
</svg>
