<?xml version='1.0' encoding='ASCII' standalone='yes'?>
<svg xmlns="http://www.w3.org/2000/svg" xmlns:xlink="http://www.w3.org/1999/xlink" version="1.1" width="36.0px" viewBox="0 0 36.0 42.0" height="42.0px">
  <g>
    <g transform="translate(0, 6) scale(1 1) ">
      <circle fill="#F4900C" cx="18" cy="18" r="18"/>
      <path fill="#231F20" d="M36 17h-8.981c.188-5.506 1.943-9.295 4.784-10.546-.445-.531-.926-1.027-1.428-1.504-2.83 1.578-5.145 5.273-5.354 12.049H19V0h-2v17h-6.021c-.208-6.776-2.523-10.471-5.353-12.049-.502.476-.984.972-1.428 1.503C7.039 7.705 8.793 11.494 8.981 17H0v2h8.981c-.188 5.506-1.942 9.295-4.783 10.546.445.531.926 1.027 1.428 1.504 2.831-1.578 5.145-5.273 5.353-12.05H17v17h2V19h6.021c.209 6.776 2.523 10.471 5.354 12.05.502-.476.984-.973 1.428-1.504-2.841-1.251-4.595-5.04-4.784-10.546H36v-2z"/>
    </g>
    <g>
      <defs>
        <style>.cls-1{fill:#664500;}.cls-2{fill:#825d0e;}</style>
      </defs>
      <path class="cls-1" d="M32,6.13c-1.19,1.44-3.18,2-5.08,2.12C26.61,6.71,25.24,1,22.5,1,20.1,1,19.23,2.09,18,2.09S15.9,1,13.5,1C10.76,1,9.39,6.71,9.08,8.25,7.18,8.08,5.19,7.57,4,6.13,1.85,3.52-1,5.44.44,8.3,2.72,12.82,8.23,16,18,16s15.28-3.18,17.56-7.7C37,5.44,34.15,3.52,32,6.13Z" transform="translate(-0.05 -1)"/>
      <path class="cls-2" d="M21.5,3C19.63,3,19,4,18,4s-1.63-1-3.5-1C12,3,11,9.75,11,9.75S12.28,12,18,12s7-2.25,7-2.25S24,3,21.5,3Z" transform="translate(-0.05 -1)"/>
      <path class="cls-1" d="M11,6s2.07,2,7,2,7-2,7-2V8s-2.22,2-7,2-7-2-7-2Z" transform="translate(-0.05 -1)"/>
    </g>
  </g>
</svg>
