<?xml version='1.0' encoding='ASCII' standalone='yes'?>
<svg xmlns="http://www.w3.org/2000/svg" xmlns:xlink="http://www.w3.org/1999/xlink" version="1.1" width="36.0px" viewBox="0 0 36.0 42.0" height="42.0px">
  <g>
    <g transform="translate(0, 6) scale(1 1) ">
      <circle fill="#E6E7E8" cx="18" cy="18" r="18"/>
      <path fill="#99AAB5" d="M32.809 7.779c-2.156-.087-5.324.186-8.21 1.966-.009.005-.019.004-.028.009-.02.011-.031.03-.05.042-2.148 1.348-4.131 3.539-5.411 7.054-2.395-.049-4.569-.286-6.488-.715C16.789 4.13 25.77 3.83 29.699 4.337c-.91-.78-1.894-1.473-2.948-2.061-5.071.24-12.398 2.611-16.065 13.335-1.797-.578-3.319-1.35-4.534-2.312.051-.075.098-.155.128-.246C9.604 2.972 18.478.735 21.108.286 20.097.11 19.062 0 18 0c-1.037 0-2.046.107-3.035.275C11.227 2.109 6.884 5.52 4.609 11.794 3.499 10.42 3.071 9.078 2.91 8.206c-.501.771-.943 1.583-1.323 2.43.425.984 1.077 2.074 2.096 3.137 3.168 3.307 8.495 5.01 15.807 5.088.641 2.235.969 4.287 1.064 6.152-11.714.419-17.645-4.414-20.49-8.277C.035 17.155 0 17.573 0 18c0 .589.033 1.171.088 1.746 3.422 3.627 9.303 7.297 19.114 7.297.445 0 .907-.016 1.368-.032-.07 1.93-.382 3.629-.817 5.094-9.528-.256-14.941-3.361-17.932-6.255.931 1.915 2.182 3.641 3.698 5.102 3.275 1.666 7.681 2.906 13.566 3.029-.316.757-.654 1.429-.99 2.014.8-.004 1.583-.076 2.356-.181 1.828-3.749 3.305-9.756.842-17.938l-.197-.613c.91-2.363 2.181-4.011 3.592-5.144 4.465 9.084 2.105 17.699-.101 22.62.94-.37 1.837-.82 2.692-1.336 2.027-5.501 3.435-13.744-.906-22.383 1.404-.729 2.848-1.075 4.144-1.213.008.014.008.031.017.045 4.295 6.693 2.406 15.067-.073 21.119 1.599-1.536 2.906-3.364 3.853-5.399 1.399-6.064.893-11.461-1.516-15.822.486.027.91.073 1.248.122-.369-.726-.777-1.428-1.237-2.093z"/>
    </g>
    <g>
      <defs>
        <style>.cls-1{fill:#664500;}.cls-2{fill:#825d0e;}</style>
      </defs>
      <path class="cls-1" d="M32,6.13c-1.19,1.44-3.18,2-5.08,2.12C26.61,6.71,25.24,1,22.5,1,20.1,1,19.23,2.09,18,2.09S15.9,1,13.5,1C10.76,1,9.39,6.71,9.08,8.25,7.18,8.08,5.19,7.57,4,6.13,1.85,3.52-1,5.44.44,8.3,2.72,12.82,8.23,16,18,16s15.28-3.18,17.56-7.7C37,5.44,34.15,3.52,32,6.13Z" transform="translate(-0.05 -1)"/>
      <path class="cls-2" d="M21.5,3C19.63,3,19,4,18,4s-1.63-1-3.5-1C12,3,11,9.75,11,9.75S12.28,12,18,12s7-2.25,7-2.25S24,3,21.5,3Z" transform="translate(-0.05 -1)"/>
      <path class="cls-1" d="M11,6s2.07,2,7,2,7-2,7-2V8s-2.22,2-7,2-7-2-7-2Z" transform="translate(-0.05 -1)"/>
    </g>
  </g>
</svg>
