<svg id="Layer_1" data-name="Layer 1" xmlns="http://www.w3.org/2000/svg" viewBox="0 0 35 40.23"><defs><style>.cls-1{fill:#3e721d;}.cls-2{fill:#77b255;}.cls-3{fill:#292f33;}.cls-4{fill:#fff;}.cls-5{fill:#5c913b;}.cls-6{fill:#664500;}.cls-7{fill:#825d0e;}</style></defs><path class="cls-1" d="M12.43,34.07C13.06,27.36,8,26.52,6,28c-1.1.8-1.36,2.33-.48,1.52,1.54-1.41,2.08-.37.91.38S5.08,32,6.37,31.07,8,30.73,7,32c-.61.75,0,1.44,1.16-.06.94-1.25,3.2-1.29,2.67,3C10.62,36.65,12.3,35.5,12.43,34.07Zm8-21c-.59-3.5-1.13-5.24-4.63-5.83A9,9,0,0,0,9.33,9s.59-3.5,2.34-4.67C12.35,3.84,12.83,6,13.42,6s1.16-1.75,2.91-1.75c.59,0,.59,1.75,1.17,1.75s2.24-.57,2.33,0c.13.82-.16,1.73.29,2.11S21.68,8,22,8.64s-.61,1.55-.53,2,.72.58.53,1.37-.65.84-.7,1.42.89,1.08.7,1.69-.65.68-.86,1.45.54.65.33,1.44-1,1-1.21,1.77.67.94.21,1.69-1.29.88-1.33,1.33.21.82,0,1.56-1.13.36-1.21.94.21.88.21,1.59-.71.83-.63,1.54.75.17,1.17,1S18.5,31,19,31.48s1.08-.67,1.71-.25.68,1.25,1.36,1.38.89-1.3,1.39-1.25,1.62.71,2.21.41.54-1.46,1-2,1,0,1.45-.58-.14-1.17-.06-2,.86-1.24.81-1.86-.66-.63-.91-1.29.46-1.25.21-1.88-1.34-.83-1.3-1.46.46-1.33.25-2S26,17.57,26,17a10.34,10.34,0,0,1,.59-1.64c.08-.4-.75-.81-.67-1.48s.62-.62.83-1.22-.75-.9-.25-1.68.75-.27,1.17-.68,0-1.34.42-1.55,1.25,0,1.66-.33.42-.71.88-.87,1,.54,1.41.54,1.05-.71,1.55-.54,1.58,1.33.91,1.68-5.75.61-5.79,2.94,2.79,12.92,2,15.59S26.42,36.11,22.46,35s-8.67-3.51-7.54-7.21S19.67,16.52,20.38,13Z"/><path class="cls-2" d="M21,12.13c0,4-2.38,8.14-5.83,7.57-5.33-.89-5.61-2.59-6.42-1.55C5.83,21.89,4.11,17.66,3.44,17,3.28,16.79,0,15.82,0,14c0-1.2,1.75-2.42,2.92-1.23,1.72-.05,8.16-6.16,12.25-6.16A5.51,5.51,0,0,1,21,12.13Z"/><path class="cls-3" d="M14.58,11.29a1.17,1.17,0,1,1-1.16-1.16A1.16,1.16,0,0,1,14.58,11.29Z"/><path class="cls-1" d="M2.92,14.5c0,.49-.39.3-.88.3s-.87.19-.87-.3a.88.88,0,0,1,1.75,0Z"/><path class="cls-4" d="M11.08,15.38c0,.64-.39.58-.87.58s-.88.06-.88-.58.4-2.34.88-2.34S11.08,14.73,11.08,15.38ZM8.75,16c0,.64-.39.58-.87.58S7,16.6,7,16s.39-2.33.88-2.33S8.75,15.32,8.75,16Z"/><path class="cls-1" d="M11,15.38A74.94,74.94,0,0,0,3.44,17a11.94,11.94,0,0,1,.71,1,67.47,67.47,0,0,1,7-1.44.58.58,0,0,0,.49-.66A.59.59,0,0,0,11,15.38Z"/><path class="cls-2" d="M21,13.17c0,4.37-1.72,8.2-2.95,11.17-1.33,3.21-1,9,4,9s6.51-3.19,7-5c1.36-5-2-8-2-13,0-9,8-7,8-6s-6.93,1.37-3,9,4,21.89-10,21.89S8,31.34,10,27.34c1.42-2.83,4-7.11.5-9C8.22,17,21,13.17,21,13.17Z"/><path class="cls-1" d="M11.34,12a1,1,0,0,1-.71-.29,1,1,0,0,1,0-1.41A7.93,7.93,0,0,1,16,8.25a1,1,0,0,1,0,2,6.13,6.13,0,0,0-4,1.46A1,1,0,0,1,11.34,12Z"/><path class="cls-5" d="M10.71,29.57c.63-6.71-5.42-7.55-7.42-6.09-1.1.8-1.35,2.33-.48,1.52,1.54-1.41,2.09-.37.92.38s-1.38,2.14-.08,1.19,1.64-.34.64.89c-.6.75,0,1.44,1.17-.06.94-1.25,4.2-1.29,3.66,3C8.9,32.15,10.58,31,10.71,29.57Z"/><path class="cls-6" d="M24,3.46a4.74,4.74,0,0,1-3.43,1.43c-.21-1-1.14-4.89-3-4.89-1.62,0-2.21.74-3,.74S13.17,0,11.54,0c-1.85,0-2.77,3.86-3,4.89A4.84,4.84,0,0,1,5.13,3.46C3.68,1.7,1.76,3,2.73,4.93,4.27,8,8,10.13,14.58,10.13S24.9,8,26.44,4.93C27.41,3,25.49,1.7,24,3.46Z"/><path class="cls-7" d="M17,1.35c-1.27,0-1.69.68-2.37.68s-1.1-.68-2.36-.68c-1.69,0-2.36,4.56-2.36,4.56s.86,1.52,4.72,1.52,4.73-1.52,4.73-1.52S18.63,1.35,17,1.35Z"/><path class="cls-6" d="M9.86,3.38s1.39,1.35,4.72,1.35,4.73-1.35,4.73-1.35V4.73a7.32,7.32,0,0,1-4.73,1.35A7.3,7.3,0,0,1,9.86,4.73Z"/></svg>