<svg id="Layer_1" data-name="Layer 1" xmlns="http://www.w3.org/2000/svg" viewBox="0 0 42.98 35.77"><defs><style>.cls-1{fill:#292f33;}.cls-2{fill:#66757f;}.cls-3{fill:#e1e8ed;}.cls-4{fill:#99aab5;}.cls-5{fill:#ffcc4d;}.cls-6{fill:#664500;}.cls-7{fill:#825d0e;}</style></defs><path class="cls-1" d="M32.23,34.77c-2.75,0-2-6-2-6,0-1.1,2.64-2,3.75-2s3.25-.1,3.25,1C37.23,27.77,35,34.77,32.23,34.77Z"/><path class="cls-2" d="M35.23,35.77c-2.75,0-2-6-2-6,0-1.1,2.64-2,3.75-2s3.25-.1,3.25,1C40.23,28.77,38,35.77,35.23,35.77Z"/><path class="cls-1" d="M21.23,34.77c-2.75,0-4-6-4-6,0-1.1,2.64-2,3.75-2s3.25-.1,3.25,1C24.23,27.77,24,34.77,21.23,34.77Z"/><path class="cls-2" d="M24.23,35.77c-2.75,0-4-6-4-6,0-1.1,2.64-2,3.75-2s3.25-.1,3.25,1C27.23,28.77,27,35.77,24.23,35.77Z"/><path class="cls-3" d="M43,21.16c0,7.78-4.5,11.41-14.52,11.41S15,28.94,15,21.16,18.43,9.75,28.46,9.75,43,13.37,43,21.16Z"/><path class="cls-4" d="M24.23,17.44c0,9.33-4.66,11.33-9,11.33s-7-6.64-7-11.33,2.73-5.67,7-5.67S24.23,12.75,24.23,17.44Z"/><circle class="cls-1" cx="11.73" cy="20.27" r="1.5"/><path class="cls-3" d="M23,12.52c-1.75,3.25-2.13,2.61-7.13,4.61-3.08,1.23-8.62.89-8.62-3.86,0-1.93,3.68-2.5,7-2.5S24.63,9.44,23,12.52Z"/><path class="cls-5" d="M23.23,13.47c3.35,2.43,5.43,6.14,3.72,11.09-1.37,4-6.82,3.11-9.62,1.13s-2.64-4.8-1.73-6.3,4.16-1.22,6,.1c.94.66.29,1.56-.72,1.07-2.29-1.12-3,1.44-1.24,2.88,1.26,1,3.27,1,3.65-1,.67-3.63-3.5-6.27-7.46-5.3C18.23,15.77,20.39,11.41,23.23,13.47Z"/><path class="cls-6" d="M26.65,4.28a5.87,5.87,0,0,1-4.23,1.77c-.26-1.29-1.4-6-3.69-6-2,0-2.73.91-3.75.91S13.22,0,11.22,0C8.94,0,7.79,4.76,7.53,6.05A6,6,0,0,1,3.3,4.28C1.5,2.1-.88,3.7.33,6.09,2.23,9.86,6.82,12.51,15,12.51S27.72,9.86,29.62,6.09C30.83,3.7,28.45,2.1,26.65,4.28Z"/><path class="cls-7" d="M17.9,1.67c-1.56,0-2.09.83-2.92.83s-1.36-.83-2.92-.83C10,1.67,9.14,7.3,9.14,7.3S10.2,9.18,15,9.18,20.81,7.3,20.81,7.3,20,1.67,17.9,1.67Z"/><path class="cls-6" d="M9.14,4.17S10.86,5.84,15,5.84s5.83-1.67,5.83-1.67V5.84S19,7.51,15,7.51,9.14,5.84,9.14,5.84Z"/></svg>