<svg id="Layer_1" data-name="Layer 1" xmlns="http://www.w3.org/2000/svg" viewBox="0 0 38.12 29.79"><defs><style>.cls-1{fill:#ffac33;}.cls-2{fill:#292f33;}.cls-3{fill:#664500;}.cls-4{fill:#825d0e;}</style></defs><path class="cls-1" d="M34.45,10.65a5.76,5.76,0,0,0-1.33-.86c-2-1-5,0-9,0-2,0-3.91-3-9-3-.81,0-2.26.64-4.35.89,0-1-.61-1.89-1.32-1.89s-1.33.9-1.33,2a.71.71,0,0,0,0,.15c-2.82.77-6,4.44-6,6.23,0,2,2,3.62,2,3.62a13.16,13.16,0,0,1,5-1h3l1,10a3.49,3.49,0,0,1-2,1c-1,0-1,2-1,2h6l1-8h3a35.36,35.36,0,0,0,6-1,12,12,0,0,0,4,4v2l-2,1c-2,1-1,2-1,2h6s1-8,2-13a18.76,18.76,0,0,0,.38-2.88,3.23,3.23,0,0,1,.62,1.88c0,2.93,0,5.7-1.84,8.45a1,1,0,0,0,.83,1.55,1,1,0,0,0,.84-.44c2.17-3.25,2.17-6.46,2.17-9.56A5.61,5.61,0,0,0,34.45,10.65Z"/><circle class="cls-2" cx="7.12" cy="10.79" r="1"/><path class="cls-2" d="M2.12,13.79s0,2,1,2c0-2,1-2,1-2A1.39,1.39,0,0,0,2.12,13.79Zm16,5c2.15-2.87,2.75-7.79,2.93-10.34a12.73,12.73,0,0,0-2.81-1.23A21.07,21.07,0,0,1,18.12,18.79Zm4-2c1.26-1.89,1.72-5,1.9-7A6.05,6.05,0,0,1,21.49,8.7,15.5,15.5,0,0,1,22.12,16.79Zm3-1a15,15,0,0,0,1.81-6.14c-.59.06-1.22.09-1.87.12A15.18,15.18,0,0,1,25.12,15.79Zm3-1a13.76,13.76,0,0,0,1.71-5.4c-.51,0-1,.08-1.63.14A15.1,15.1,0,0,1,28.12,14.79Zm3,2.45c1.36-2,1.79-5.49,1.93-7.47a5.44,5.44,0,0,0-2.49-.41A15.44,15.44,0,0,1,31.12,17.24Zm-16-2.45c1.45-2.18,1.85-5.94,2-7.83a11.61,11.61,0,0,0-2-.17,3.24,3.24,0,0,0-.57.08A15.54,15.54,0,0,1,15.12,14.79Z"/><path class="cls-3" d="M19,2.09a4.28,4.28,0,0,1-2.81,1.79C15.87,3,14.46-.27,12.82,0,11.39.27,11,1,10.25,1.14S8.88.71,7.45,1C5.81,1.25,5.59,4.8,5.57,5.75A4.41,4.41,0,0,1,2.31,5C.75,3.68-.75,5.13.41,6.69,2.25,9.15,5.87,10.47,11.7,9.45S20.5,6,21.39,3C22,1.15,20,.3,19,2.09Z"/><path class="cls-4" d="M12.43,1.32c-1.11.19-1.38.86-2,1s-1.08-.43-2.2-.23c-1.49.26-1.38,4.4-1.38,4.4s1,1.21,4.42.61S15.23,5,15.23,5,13.93,1.06,12.43,1.32Z"/><path class="cls-3" d="M6.48,4.21s1.44,1,4.39.46,4-1.93,4-1.93l.21,1.2a6.59,6.59,0,0,1-4,1.92A6.56,6.56,0,0,1,6.69,5.4Z"/></svg>