<svg id="Layer_1" data-name="Layer 1" xmlns="http://www.w3.org/2000/svg" viewBox="0 0 40.23 35.41"><defs><style>.cls-1{fill:#292f33;}.cls-2{fill:#c3c914;}.cls-3{fill:#66757f;}.cls-4{fill:#7f676d;}.cls-5{fill:#664500;}.cls-6{fill:#825d0e;}</style></defs><path class="cls-1" d="M14.71,21.94s.7,2.28-.34,8c-.18,1-.46,2.07-.59,2.93-1.76,0-1.86,2-1.48,2h2.09c1.34,0,3-3.34,3.86-8A3.9,3.9,0,0,0,14.71,21.94Zm13,3.71a4.55,4.55,0,0,1,2.19,4.08c0,1.13-.25,2.09-.35,3-1.84,0-1.84,2-1.31,2h1.86c.92,0,3-3.16,3.38-7.29S27.75,25.65,27.75,25.65Z"/><path class="cls-1" d="M40.23,8C40.23,3,36.09.5,31.23.5a1,1,0,0,0,0,2C33,2.5,38,3.44,38,8c0,2.88-1.57,5.46-3.77,6-.16-.07-.34-.1-.51-.19-7.24-3.92-13.46.9-15.22-.29s-.54-3.25-2.83-5.24c-.33-1.84-1.07-4.48-1.79-4.48-.55,0-1.27,1.83-1.74,3.66C11.5,6,10.72,4.63,10.23,4.63,9.59,4.63,9,6.9,8.63,8.87a5.92,5.92,0,0,0-2.9,4.76c0,2.7,4,3.36,5.4,3.41s3,3.56,3.58,5.07c1.24,4.37,2.05,8.7,2.7,11.19-1.65,0-1.8,2.11-1.35,2.11h2.23c1.38,0,2-4.71,2-8.85,0-.21,0-.63,0-.63s1.93.51,6-.21a5.05,5.05,0,0,1,5.75,3.17c.52,1.7,1.4,3.3,1.86,4.48-1.58,0-1.54,2-1.08,2,.79,0,1.8,0,2.18,0,1.47-.06.65-7.58,1-10.1s1.27-5.58-.23-8.8C39.09,14.74,40.23,11,40.23,8Z"/><circle class="cls-2" cx="10.23" cy="11.27" r="0.9"/><path class="cls-3" d="M7.22,12.36c-.68.43-.68,1.78-1,1.78s-1-.79-1-1.78S8.05,11.84,7.22,12.36Zm3.59,1.49a.22.22,0,0,1-.14,0A6.06,6.06,0,0,0,8.12,14a.35.35,0,0,1-.41-.19.33.33,0,0,1,.15-.42,5.26,5.26,0,0,1,2.94-.21c.14,0,.19.19.19.37A.46.46,0,0,1,10.81,13.85Zm-.47,2.34a.17.17,0,0,1-.14,0,6,6,0,0,0-2.4-.86.34.34,0,0,1,0-.67,5.07,5.07,0,0,1,2.78.94c.12.08.11.25,0,.42A.43.43,0,0,1,10.34,16.19Z"/><path class="cls-4" d="M12.09,7.39a3.82,3.82,0,0,1,.86,0,4.4,4.4,0,0,1,.58-.89,8.36,8.36,0,0,1,.39,1.18c0,.12.22.12.32.19s0-3.46-.86-3.84A11.1,11.1,0,0,0,12.09,7.39ZM8.63,8.86s.39-.26.89-.57A13.07,13.07,0,0,1,10.08,7a5.41,5.41,0,0,1,.35.81,2.37,2.37,0,0,1,.4-.19s-.11-2.29-1.1-2.53A12.91,12.91,0,0,0,8.63,8.86Z"/><path class="cls-3" d="M22.68,23.15a2.62,2.62,0,0,0-2.38,2.78s1.93.51,6-.21a5.57,5.57,0,0,1,3.11.38C27.84,23.05,25.13,22.62,22.68,23.15Z"/><path class="cls-1" d="M10.21,10.49a1.21,1.21,0,0,1,.32.77,2.18,2.18,0,0,1-.25.84,1.59,1.59,0,0,1-.32-.83A1.11,1.11,0,0,1,10.21,10.49Z"/><path class="cls-5" d="M21.52,3.45a4.78,4.78,0,0,1-3.43,1.43c-.2-1-1.13-4.88-3-4.88-1.62,0-2.2.73-3,.73S10.67,0,9.06,0c-1.85,0-2.77,3.85-3,4.88A4.86,4.86,0,0,1,2.66,3.45C1.21,1.7-.71,3,.26,4.92,1.8,8,5.51,10.1,12.09,10.1S22.38,8,23.91,4.92C24.88,3,23,1.7,21.52,3.45Z"/><path class="cls-6" d="M14.44,1.35c-1.25,0-1.68.67-2.35.67S11,1.35,9.73,1.35c-1.68,0-2.36,4.54-2.36,4.54s.87,1.52,4.72,1.52S16.8,5.89,16.8,5.89,16.13,1.35,14.44,1.35Z"/><path class="cls-5" d="M7.37,3.37s1.4,1.34,4.72,1.34S16.8,3.37,16.8,3.37V4.71a7.25,7.25,0,0,1-4.71,1.35A7.3,7.3,0,0,1,7.37,4.71Z"/></svg>