<svg id="Layer_1" data-name="Layer 1" xmlns="http://www.w3.org/2000/svg" viewBox="0 0 37.3 28.97"><defs><style>.cls-1{fill:#3b88c3;}.cls-2{fill:#55acee;}.cls-3{fill:#292f33;}.cls-4{fill:#664500;}.cls-5{fill:#825d0e;}</style></defs><path class="cls-1" d="M37.3,0c-2,3-2-1-5,2-3-2-3,3-6,0a7.53,7.53,0,0,0,6.1,4.93c-.28,1.78.2,3.94-2.1,6.07-2,1.86-3,.31-8-3-3-2-5-4-10-3-5.88,1.18-11,6-11,8s3,14,21,14a13,13,0,0,0,8-3c5.95-5,5.88-15.35,4.58-19.46C36.66,5.42,37.3,2.39,37.3,0Z"/><path class="cls-2" d="M31.51,24.81c.15-.16.29-.34.43-.51A17.63,17.63,0,0,0,35.3,16c-2,5-3,10-14,10s-15-13-20-11c0,2,3,14,21,14a13,13,0,0,0,8-3c.32-.27.61-.56.9-.85C31.3,25,31.41,24.93,31.51,24.81Z"/><circle class="cls-3" cx="7.8" cy="14.5" r="1.5"/><path class="cls-4" d="M24.29,4.06a5.38,5.38,0,0,1-3.86,1.61C20.19,4.5,19.15.16,17.07.16c-1.83,0-2.49.82-3.42.82S12.05.16,10.22.16C8.14.16,7.1,4.5,6.86,5.67A5.55,5.55,0,0,1,3,4.06C1.37,2.07-.8,3.53.3,5.71,2,9.14,6.22,11.56,13.65,11.56S25.26,9.14,27,5.71C28.09,3.53,25.92,2.07,24.29,4.06Z"/><path class="cls-5" d="M16.31,1.68c-1.43,0-1.9.76-2.66.76S12.41,1.68,11,1.68c-1.91,0-2.67,5.13-2.67,5.13s1,1.71,5.33,1.71S19,6.81,19,6.81,18.21,1.68,16.31,1.68Z"/><path class="cls-4" d="M8.32,4S9.9,5.48,13.65,5.48,19,4,19,4V5.48S17.28,7,13.65,7,8.32,5.48,8.32,5.48Z"/></svg>