<svg id="Layer_1" data-name="Layer 1" xmlns="http://www.w3.org/2000/svg" viewBox="0 0 36 27.9"><defs><style>.cls-1{fill:#3e721d;}.cls-2{fill:#5c913b;}.cls-3{fill:#292f33;}.cls-4{fill:#77b255;}.cls-5{fill:#fff;}.cls-6{fill:#664500;}.cls-7{fill:#825d0e;}</style></defs><path class="cls-1" d="M19,23.9a4,4,0,0,1-3.33,3c-1.61,0-1.67-1.34-1.67-3a3,3,0,0,1,2.92-3C18.53,20.9,19,22.24,19,23.9Zm11,0a4,4,0,0,1-3.33,3c-1.61,0-1.67-1.34-1.67-3a3,3,0,0,1,2.92-3C29.53,20.9,30,22.24,30,23.9Z"/><path class="cls-2" d="M36,16.9c0-6-3.17-9.17-6-12-1-1-1.4.32-1,1,.51.86,3,8-2,8H25c-5,0-6.17-1.17-9-4-4.5-4.5-7,0-9,0-6,0-7-1.81-7,2,0,3,3,4,6,4s3,1,5,4a11.75,11.75,0,0,0,5,4.15c.25,1.12,2.8,3.85,4.33,3.85S22,26.56,22,24.9h6a4,4,0,0,0,3.33,3c1.61,0,1.67-1.34,1.67-3a2.82,2.82,0,0,0-.14-.86C34.61,23.09,36,21.11,36,16.9Z"/><path class="cls-3" d="M10,10a1.5,1.5,0,0,0,3,0c0-.83-.67,0-1.5,0S10,9.19,10,10Z"/><ellipse class="cls-4" cx="27.5" cy="15.9" rx="1.5" ry="1"/><ellipse class="cls-4" cx="23.5" cy="15.9" rx="1.5" ry="1"/><ellipse class="cls-4" cx="19.5" cy="15.9" rx="1.5" ry="1"/><ellipse class="cls-4" cx="21.5" cy="17.9" rx="1.5" ry="1"/><ellipse class="cls-4" cx="25.5" cy="17.9" rx="1.5" ry="1"/><path class="cls-5" d="M6,13.9c-.39,0-1-1-1-1H7S6.39,13.9,6,13.9Zm-2,.47c-.39,0-1-1.47-1-1.47H5S4.39,14.37,4,14.37ZM2,14.9c-.39,0-1-2-1-2H3S2.39,14.9,2,14.9Z"/><path class="cls-6" d="M23.71,6.49a4.54,4.54,0,0,1-3.48.39c.09-1,.27-4.73-1.41-5.22-1.46-.43-2.19.07-2.94-.15S14.79.48,13.33.05c-1.68-.49-3.55,2.75-4,3.64a4.62,4.62,0,0,1-2.72-2.2C5.76-.5,3.68.18,4,2.18,4.63,5.34,7.47,8.29,13.4,10s9.9.81,12.1-1.57C26.89,7,25.5,5.27,23.71,6.49Z"/><path class="cls-7" d="M17.86,2.7c-1.14-.34-1.7.17-2.32,0s-.78-.9-2-1.24C12.05,1,10.2,4.94,10.2,4.94s.38,1.6,3.88,2.62,4.75-.1,4.75-.1S19.39,3.14,17.86,2.7Z"/><path class="cls-6" d="M10.87,2.64s.9,1.6,3.92,2.48a7,7,0,0,0,4.71,0L19.15,6.4a6.91,6.91,0,0,1-4.64,0,6.88,6.88,0,0,1-4-2.49Z"/></svg>