<svg id="Layer_1" data-name="Layer 1" xmlns="http://www.w3.org/2000/svg" viewBox="0 0 38.19 29"><defs><style>.cls-1{fill:#ffcc4d;}.cls-2{fill:#292f33;}.cls-3{fill:#f4900c;}.cls-4{fill:#ffac33;}.cls-5{fill:#664500;}.cls-6{fill:#825d0e;}</style></defs><path class="cls-1" d="M35.05,9.48A8.51,8.51,0,0,0,34.19,9c-2-1-5,0-9,0-2,0-4.9-3-10-3-.8,0-2.25.63-4.34.89,0-1-.61-1.89-1.32-1.89s-1.34.89-1.34,2c0,0,0,.1,0,.15-2.82.77-6,4.44-6,6.22,0,2,2,3.63,2,3.63s1,0,3-2c1.59-1.58,5-1,5-1l1,12a3.49,3.49,0,0,1-2,1c-1,0-1,2-1,2h6l1-9h3a56.38,56.38,0,0,0,7-1,12,12,0,0,0,4,4v3l-2,1c-2,1-1,2-1,2h6s1-8,2-13v5a1,1,0,0,0,2,0V14A4.27,4.27,0,0,0,35.05,9.48Z"/><circle class="cls-2" cx="6.19" cy="10" r="1"/><path class="cls-2" d="M2.19,13s0,2,1,2c0-2,1-2,1-2A1.39,1.39,0,0,0,2.19,13Z"/><circle class="cls-3" cx="12.69" cy="9.5" r="2"/><circle class="cls-3" cx="19.69" cy="9.5" r="2"/><circle class="cls-3" cx="16.69" cy="14.5" r="2"/><circle class="cls-3" cx="23.69" cy="16.5" r="2"/><circle class="cls-3" cx="26.69" cy="11.5" r="2"/><circle class="cls-3" cx="30.69" cy="16.5" r="2"/><circle class="cls-3" cx="33.69" cy="11.5" r="2"/><circle class="cls-4" cx="12.69" cy="9.5" r="1"/><circle class="cls-4" cx="19.69" cy="9.5" r="1"/><circle class="cls-4" cx="16.69" cy="14.5" r="1"/><circle class="cls-4" cx="23.69" cy="16.5" r="1"/><circle class="cls-4" cx="26.69" cy="11.5" r="1"/><circle class="cls-4" cx="30.69" cy="16.5" r="1"/><circle class="cls-4" cx="33.69" cy="11.5" r="1"/><path class="cls-5" d="M15.89,1.26A3.62,3.62,0,0,1,13.65,3c-.37-.72-1.85-3.38-3.22-3C9.23.37,9,1,8.34,1.21S7.14,1,5.94,1.3c-1.37.39-1.25,3.43-1.19,4.24a3.77,3.77,0,0,1-2.83-.35C.48,4.19-.67,5.55.45,6.77c1.77,1.94,5,2.75,9.84,1.38S17.46,4.42,18,1.85C18.28.22,16.59-.34,15.89,1.26Z"/><path class="cls-6" d="M10.21,1.18c-.93.26-1.11.85-1.6,1s-1-.27-1.89,0C5.47,2.51,5.92,6,5.92,6s1,.94,3.81.14S12.9,4.05,12.9,4.05,11.46.82,10.21,1.18Z"/><path class="cls-5" d="M5.39,4.15a5.42,5.42,0,0,0,3.78,0,5.34,5.34,0,0,0,3.21-2l.28,1a5.62,5.62,0,0,1-3.21,2,5.61,5.61,0,0,1-3.78,0Z"/></svg>