<svg id="Layer_1" data-name="Layer 1" xmlns="http://www.w3.org/2000/svg" viewBox="0 0 37.74 27.5"><defs><style>.cls-1{fill:#ea596e;}.cls-2{fill:#ccd6dd;}.cls-3{fill:#f4abba;}.cls-4{fill:#dd2e44;}.cls-5{fill:#664500;}.cls-6{fill:#825d0e;}</style></defs><path class="cls-1" d="M31.74,27.5h-13a1,1,0,1,1,0-2h13c2.54,0,4-1.37,4-3.75,0-1.54-1.65-3.25-4-3.25h-7a1,1,0,1,1,0-2h7c3.58,0,6,2.71,6,5.25C37.74,25.24,35.38,27.5,31.74,27.5Z"/><path class="cls-2" d="M13.74,18.22c0-2.85,3-7,0-7-4,0-10.14,6.57-10.14,8.44S10,21.5,12.89,21.5,13.74,21.06,13.74,18.22Z"/><path class="cls-2" d="M34.74,15.4c0-8-6.56-9.75-11.39-8.79C14,8.49,12.22,13.06,12.22,16.81c0,4.92,9.15,4.69,14.07,4.69S34.74,20.32,34.74,15.4Z"/><path class="cls-2" d="M26.74,14,9.63,15.87l3.53,5.63H26.74ZM18.65,8.64A4.67,4.67,0,0,0,14.2,3.78,4.67,4.67,0,0,0,9.74,8.64,4.67,4.67,0,0,0,14.2,13.5,4.67,4.67,0,0,0,18.65,8.64Z"/><path class="cls-3" d="M16.11,9.18c0,1.79-1.15,3.24-2.55,3.24S11,11,11,9.18s1.14-3.24,2.55-3.24S16.11,7.39,16.11,9.18Z"/><circle class="cls-4" cx="10.24" cy="16" r="1.5"/><path class="cls-5" d="M20.5,1.62a5,5,0,0,1-2.6,3c-.69-.89-3.37-4.13-5.13-3.26-1.55.76-1.76,1.73-2.55,2.12s-1.7,0-3.24.72c-1.76.87-.84,5-.55,6.06a5.21,5.21,0,0,1-3.94.24C.28,9.46-.94,11.6.89,13c2.89,2.19,7.44,2.49,13.72-.6s8.82-6.87,8.86-10.49C23.49-.41,21.05-.74,20.5,1.62Z"/><path class="cls-6" d="M12.76,2.92c-1.21.59-1.3,1.43-1.94,1.75s-1.36-.13-2.57.46c-1.6.79-.11,5.45-.11,5.45s1.53,1,5.21-.77,3.79-3.66,3.79-3.66S14.36,2.13,12.76,2.92Z"/><path class="cls-5" d="M7,8.17s2,.63,5.13-.93S16,3.74,16,3.74L16.59,5a7.78,7.78,0,0,1-3.87,3.5,7.75,7.75,0,0,1-5.14.92Z"/></svg>