<svg id="Layer_1" data-name="Layer 1" xmlns="http://www.w3.org/2000/svg" viewBox="0 0 31.11 37.45"><defs><style>.cls-1{fill:#e1e8ed;}.cls-2{fill:#dd2e44;}.cls-3{fill:#f4900c;}.cls-4{fill:#ffac33;}.cls-5{fill:#292f33;}.cls-6{fill:#664500;}.cls-7{fill:#825d0e;}</style></defs><path class="cls-1" d="M17.7,33.66a2.15,2.15,0,1,1-2.14-2.14A2.14,2.14,0,0,1,17.7,33.66Z"/><path class="cls-1" d="M25.2,17.09a9.65,9.65,0,0,0-19.29,0c0,5.36-1.07,16.57-1.07,16.57a2.15,2.15,0,0,0,4.29,0,2.14,2.14,0,0,0,4.28,0H17.7a2.15,2.15,0,0,0,4.29,0,2.14,2.14,0,0,0,4.28,0S25.2,22.45,25.2,17.09Z"/><path class="cls-2" d="M17.56,4.45c0,2.2-1.45,6-2,6s-2-3.8-2-6,1.45-3,2-3S17.56,2.24,17.56,4.45Zm-4.37,30c0-2.62,1.71-8,2.37-8s2.36,5.38,2.36,8-1.71,3-2.36,3S13.19,37.06,13.19,34.45Z"/><ellipse class="cls-3" cx="15.56" cy="23.95" rx="7" ry="4.5"/><path class="cls-4" d="M22.56,24c0,1.5-14,1.5-14,0s4.79-4.5,7-4.5S22.56,22.45,22.56,24Z"/><circle class="cls-5" cx="9.06" cy="19.95" r="1.5"/><circle class="cls-5" cx="22.06" cy="19.95" r="1.5"/><path class="cls-6" d="M27.69,4.45a6.12,6.12,0,0,1-4.4,1.83C23,5,21.83,0,19.46,0c-2.08,0-2.84.94-3.9.94S13.74,0,11.66,0C9.28,0,8.1,5,7.83,6.28A6.31,6.31,0,0,1,3.42,4.45C1.56,2.18-.91,3.85.34,6.33,2.31,10.24,7.09,13,15.56,13S28.8,10.24,30.78,6.33C32,3.85,29.55,2.18,27.69,4.45Z"/><path class="cls-7" d="M18.59,1.73c-1.62,0-2.17.87-3,.87s-1.42-.87-3-.87c-2.16,0-3,5.85-3,5.85s1.11,1.95,6.07,1.95,6.06-1.95,6.06-1.95S20.76,1.73,18.59,1.73Z"/><path class="cls-6" d="M9.49,4.33s1.79,1.74,6.07,1.74,6.06-1.74,6.06-1.74V6.07S19.7,7.8,15.56,7.8,9.49,6.07,9.49,6.07Z"/></svg>