<svg id="Layer_1" data-name="Layer 1" xmlns="http://www.w3.org/2000/svg" viewBox="0 0 37.97 37.91"><defs><style>.cls-1{fill:#ffac33;}.cls-2{fill:#ffcc4d;}.cls-3{fill:#e1e8ed;}.cls-4{fill:#ccd6dd;}.cls-5{fill:#292f33;}.cls-6{fill:#664500;}.cls-7{fill:#825d0e;}</style></defs><path class="cls-1" d="M9.92,9.62c-1-4,3.69-6,8-4,.91.42.95,1.32,0,1-3-1-6,1-4,4C15,12.29,10.69,12.69,9.92,9.62Z"/><path class="cls-2" d="M8.62,7.91c-1-4,3.68-6,8-4,.9.42.95,1.31,0,1-3-1-6,1-4,4C13.73,10.57,9.38,11,8.62,7.91Z"/><path class="cls-3" d="M7.48,16.91c0,4-2,4.82-2,4,0-2-1,0-1-1v-3c0-1.66.67-3,1.5-3S7.48,15.25,7.48,16.91Z"/><path class="cls-4" d="M37.64,12.61a4.45,4.45,0,0,0-4.16-2.7,1,1,0,0,0,0,2,2.44,2.44,0,0,1,2.31,1.47A2.72,2.72,0,0,1,35.34,16a5.62,5.62,0,0,0-4.86-2.61,91.65,91.65,0,0,0-10.83,1.28,3,3,0,0,0-.17-.28c-2-3-4-8.16-7-8.16-4,0-10,5-10,9.16,0,2.54,5.74,2.92,7.49,3,.7,1.43,1.41,2.94,2.23,4.33a6.69,6.69,0,0,0,.28.69c3,6,3.12,14.5,4.5,14.5s2.5-4.86,2.5-9v-.45a20.1,20.1,0,0,0,9.67-.61c1.45,5,1.77,10.06,2.83,10.06,1.34,0,2.44-8.82,2.5-13.12a7.22,7.22,0,0,0,2-4.88,7,7,0,0,0-.25-1.85A5,5,0,0,0,37.64,12.61Z"/><circle class="cls-5" cx="9.48" cy="11.41" r="1"/><path class="cls-6" d="M20.61,3.31a4.54,4.54,0,0,1-3.27,1.37c-.2-1-1.09-4.68-2.86-4.68-1.54,0-2.11.7-2.9.7S10.23,0,8.68,0C6.91,0,6,3.68,5.83,4.68A4.68,4.68,0,0,1,2.55,3.31C1.16,1.63-.68,2.86.25,4.71c1.47,2.92,5,5,11.33,5s9.86-2,11.33-5C23.84,2.86,22,1.63,20.61,3.31Z"/><path class="cls-7" d="M13.84,1.29c-1.21,0-1.61.65-2.26.65s-1.05-.65-2.26-.65c-1.61,0-2.26,4.36-2.26,4.36S7.89,7.1,11.58,7.1,16.1,5.65,16.1,5.65,15.45,1.29,13.84,1.29Z"/><path class="cls-6" d="M7.06,3.23S8.4,4.52,11.58,4.52,16.1,3.23,16.1,3.23V4.52a7,7,0,0,1-4.52,1.29A7,7,0,0,1,7.06,4.52Z"/></svg>