<?xml version='1.0' encoding='ASCII' standalone='yes'?>
<svg xmlns="http://www.w3.org/2000/svg" xmlns:xlink="http://www.w3.org/1999/xlink" version="1.1" width="36.0px" viewBox="0 0 36.0 42.0" height="42.0px">
  <g>
    <g transform="translate(0, 6) scale(1 1) ">
      <path fill="#553788" d="M10 12c3 5 0 10.692-3 9.692s-4 2-1 3 9.465-.465 13-4c1-1 2-1 2-1L10 12z"/>
      <path fill="#553788" d="M26 12c-3 5 0 10.692 3 9.692s4 2 1 3-9.465-.465-13-4c-1-1-2-1-2-1L26 12z"/>
      <path fill="#744EAA" d="M30.188 16c-3 5 0 10.692 3 9.692s4 2 1 3-9.465-.465-13-4c-1-1-2-1-2-1l11-7.692zM5.812 16c3 5 0 10.692-3 9.692s-4 2-1 3 9.465-.465 13-4c1-1 2-1 2-1L5.812 16z"/>
      <path fill="#9266CC" d="M33.188 31.375c-2.729.91-6.425-5.626-4.812-10.578C30.022 17.554 31 13.94 31 11c0-7.18-5.82-11-13-11S5 3.82 5 11c0 2.94.978 6.554 2.624 9.797 1.613 4.952-2.083 11.488-4.812 10.578-3-1-4 3-1 4s8.31-.627 12-4c2.189-2 4.189-2 4.189-2s2 0 4.188 2c3.69 3.373 9 5 12 4s1.999-5-1.001-4z"/>
      <circle fill="#292F33" cx="14" cy="21" r="2"/>
      <circle fill="#292F33" cx="22" cy="21" r="2"/>
    </g>
    <g>
      <defs>
        <style>.cls-1{fill:#664500;}.cls-2{fill:#825d0e;}</style>
      </defs>
      <path class="cls-1" d="M32,6.13c-1.19,1.44-3.18,2-5.08,2.12C26.61,6.71,25.24,1,22.5,1,20.1,1,19.23,2.09,18,2.09S15.9,1,13.5,1C10.76,1,9.39,6.71,9.08,8.25,7.18,8.08,5.19,7.57,4,6.13,1.85,3.52-1,5.44.44,8.3,2.72,12.82,8.23,16,18,16s15.28-3.18,17.56-7.7C37,5.44,34.15,3.52,32,6.13Z" transform="translate(-0.05 -1)"/>
      <path class="cls-2" d="M21.5,3C19.63,3,19,4,18,4s-1.63-1-3.5-1C12,3,11,9.75,11,9.75S12.28,12,18,12s7-2.25,7-2.25S24,3,21.5,3Z" transform="translate(-0.05 -1)"/>
      <path class="cls-1" d="M11,6s2.07,2,7,2,7-2,7-2V8s-2.22,2-7,2-7-2-7-2Z" transform="translate(-0.05 -1)"/>
    </g>
  </g>
</svg>
