<?xml version='1.0' encoding='ASCII' standalone='yes'?>
<svg xmlns="http://www.w3.org/2000/svg" xmlns:xlink="http://www.w3.org/1999/xlink" version="1.1" width="36.0px" viewBox="0 0 36.0 42.0" height="42.0px">
  <g>
    <g transform="translate(0, 6) scale(1 1) ">
      <path fill="#99AAB5" d="M2.75 19.333L5 16l3 3 4-2 3 3 4-6 4 3 3-1 2 3 3-3 2 4-2 7-11 5-11-2-6-6z"/>
      <path fill="#FFCC4D" d="M29.956 14.712c.021-.287.044-.574.044-.866 0-5.943-4.324-10.864-9.996-11.819 1.189-.26 2.031-.509.996-1.027-1.115-.558-2.23.129-2.999.846h-.002C17.23 1.129 16.116.442 15 1c-1.035.518-.193.767.996 1.026C10.325 2.981 6 7.902 6 13.846c0 .292.023.579.044.867C5.562 21.313-.259 31 18 31s12.438-9.687 11.956-16.288z"/>
      <path fill="#F4900C" d="M21 14c0 1.657-1.343 2-3 2s-3-.343-3-2 1.343-3 3-3 3 1.343 3 3z"/>
      <circle fill="#662113" cx="11.5" cy="11.5" r="1.5"/>
      <circle fill="#662113" cx="24.5" cy="11.5" r="1.5"/>
      <path fill="#E1E8ED" d="M31 25l-3-1-4 6-3-5-2 2-4-2-3 4-3-6-3 2-3.294-7.765C2.249 18.584 2 20.016 2 21.5 2 29.509 9.164 36 18 36s16-6.491 16-14.5c0-1.244-.191-2.444-.517-3.597L31 25z"/>
    </g>
    <g>
      <defs>
        <style>.cls-1{fill:#664500;}.cls-2{fill:#825d0e;}</style>
      </defs>
      <path class="cls-1" d="M32,6.13c-1.19,1.44-3.18,2-5.08,2.12C26.61,6.71,25.24,1,22.5,1,20.1,1,19.23,2.09,18,2.09S15.9,1,13.5,1C10.76,1,9.39,6.71,9.08,8.25,7.18,8.08,5.19,7.57,4,6.13,1.85,3.52-1,5.44.44,8.3,2.72,12.82,8.23,16,18,16s15.28-3.18,17.56-7.7C37,5.44,34.15,3.52,32,6.13Z" transform="translate(-0.05 -1)"/>
      <path class="cls-2" d="M21.5,3C19.63,3,19,4,18,4s-1.63-1-3.5-1C12,3,11,9.75,11,9.75S12.28,12,18,12s7-2.25,7-2.25S24,3,21.5,3Z" transform="translate(-0.05 -1)"/>
      <path class="cls-1" d="M11,6s2.07,2,7,2,7-2,7-2V8s-2.22,2-7,2-7-2-7-2Z" transform="translate(-0.05 -1)"/>
    </g>
  </g>
</svg>
