<svg id="Layer_1" data-name="Layer 1" xmlns="http://www.w3.org/2000/svg" viewBox="0 0 36.93 39.6"><defs><style>.cls-1{fill:#4292e0;}.cls-2{fill:#1f2326;}.cls-3{fill:#77bcf7;}.cls-4{fill:#664500;}.cls-5{fill:#825d0e;}</style></defs><path class="cls-1" d="M33,11.65a10.45,10.45,0,0,1,3-5.86,1.19,1.19,0,0,0-1-2s-6.06,0-9.9,3.33a15.1,15.1,0,0,0-3.1-.33c-8,0-12,4-14,12-.45,1.78-.87,1.4-3,3-1.2.9-2.12,3,1,3s5,1,9,1c3.63,0,9.5-3.23,11.08-1.29a5.59,5.59,0,0,1,.6,6.67c-2.9,3.39-5.94.54-8.68-.38-3-1-1,1,0,2s1.31,4,0,6,3,0,5-3l0,0c7.8-.46,14-6,14-14A14.91,14.91,0,0,0,33,11.65Z"/><circle class="cls-2" cx="15.48" cy="17.79" r="2"/><path class="cls-3" d="M12.76,25.69A29.59,29.59,0,0,0,19.93,23c4.63-2.65,7.26-2.59,8.89-.82s2,6.59-2.89,9.67c2.6-2.75,1.15-8.35-2-7.58C15.76,26.23,15,25.81,12.76,25.69Z"/><path class="cls-1" d="M21.75,21.54l-2.92,1.28a.53.53,0,0,0-.41.56c.12,1.51.75,3.63,2.26,4.63,2.35,1.57,2.37,1.9,3,0,.77-2.3-.18-4.46-1.33-6.24A.55.55,0,0,0,21.75,21.54Z"/><path class="cls-4" d="M23.7,1.62a5.61,5.61,0,0,1-3.19,3C19.85,3.56,17.23-.3,15.19.46c-1.78.68-2.12,1.73-3,2.07S10.28,2.31,8.5,3c-2,.77-1.46,5.4-1.26,6.63a5.73,5.73,0,0,1-4.37-.15C.54,8.12-1,10.34.83,12.07c3,2.72,7.94,3.55,15.21.81S26.52,6.24,27,2.24C27.22-.29,24.56-.92,23.7,1.62Z"/><path class="cls-5" d="M15,2.23c-1.39.53-1.58,1.45-2.33,1.73s-1.49-.29-2.88.23c-1.86.7-.71,6-.71,6s1.58,1.32,5.83-.28S19.5,6.27,19.5,6.27,16.87,1.53,15,2.23Z"/><path class="cls-4" d="M8,7.4s2.1.91,5.76-.47,4.65-3.45,4.65-3.45L19,5s-1.09,2.11-4.65,3.45-5.76.47-5.76.47Z"/></svg>