<svg id="Layer_1" data-name="Layer 1" xmlns="http://www.w3.org/2000/svg" viewBox="0 0 34.99 34.25"><defs><style>.cls-1{fill:#c1694f;}.cls-2{fill:#292f33;}.cls-3{fill:#664500;}.cls-4{fill:#825d0e;}</style></defs><path class="cls-1" d="M30.59,14c-1.75-3.62-5.94-9-9.53-9C17,4.93,12.83,12.19,11,15.31c-.18.3-.33.58-.47.86C7.15,15,10,9.54,10,5.7a4,4,0,0,0-.44-2.12c.48-.6.58-1.34.19-1.69S8.54,1.72,8,2.34a2.31,2.31,0,0,0-.19.28,9,9,0,0,0-1.47-.1,16.32,16.32,0,0,0-4.23.79C-1,4.56,0,8,1,8H5c1,0,.75,2.31,0,4.72-.83,2.66-1.44,5.15-1,6.61.8,2.69,3.71,3.59,6.16,3.86a24.54,24.54,0,0,1,1.47,8c-.06,2,1.94,2.06,2,.06,0-1.21-.1-3.68.14-5.78a35.41,35.41,0,0,1,.9,7.31c-.06,2,1.94,2.06,2,.06.05-1.6-.18-6.36.56-9l1.62,0a53.31,53.31,0,0,0,5.51,0c1,1.59,2,3,2,3.44,0,1-1.12,4-1.15,5s.94,2,2,.06a16.49,16.49,0,0,0,1.54-5.42,2.4,2.4,0,0,1,.27.85c0,1-1,3.93-1,4.93s.94,2,2,0S32,27.8,31,25.77c-.79-1.72.44-4.17.83-7.92A7.06,7.06,0,0,1,33,21.31a1,1,0,0,0,2,0A8.91,8.91,0,0,0,30.59,14Z"/><path class="cls-2" d="M7.27,4.55a1,1,0,0,1-1,1,1,1,0,1,1,1-1Z"/><path class="cls-3" d="M29.61,3.18A4.37,4.37,0,0,1,26.46,4.5c-.2-1-1.05-4.5-2.75-4.5-1.49,0-2,.68-2.79.68S19.62,0,18.13,0c-1.7,0-2.55,3.54-2.74,4.5a4.52,4.52,0,0,1-3.16-1.32C10.9,1.56,9.13,2.76,10,4.53c1.42,2.8,4.84,4.78,10.9,4.78s9.48-2,10.9-4.78C32.71,2.76,30.94,1.56,29.61,3.18Z"/><path class="cls-4" d="M23.09,1.24c-1.16,0-1.55.62-2.17.62s-1-.62-2.17-.62c-1.55,0-2.17,4.19-2.17,4.19s.79,1.4,4.34,1.4,4.35-1.4,4.35-1.4S24.64,1.24,23.09,1.24Z"/><path class="cls-3" d="M16.58,3.1s1.28,1.24,4.34,1.24S25.27,3.1,25.27,3.1V4.34a6.74,6.74,0,0,1-4.35,1.24,6.72,6.72,0,0,1-4.34-1.24Z"/></svg>