<svg id="Layer_1" data-name="Layer 1" xmlns="http://www.w3.org/2000/svg" viewBox="0 0 34.62 40.68"><defs><style>.cls-1{fill:#c1694f;}.cls-2{fill:#292f33;}.cls-3{fill:#664500;}.cls-4{fill:#825d0e;}</style></defs><path class="cls-1" d="M34.59,26.5a23.65,23.65,0,0,0-3.44-7.2c-.11-.26-.23-.53-.37-.8-1.9-3.71-2.44-10.79-5.37-10.79S23.55,12,20.69,12s-2.08-4.28-5.23-4.28S12,14.78,10.16,17.9l-.08.15a3,3,0,0,1-.26-1.54,6.72,6.72,0,0,0-1.26-3.36c.69-.13,1.19-.56,1.16-1.05s-.73-1-1.56-.91a1.8,1.8,0,0,0-1.24.54,4.1,4.1,0,0,0-1-.33c-.56-.12-.54.91-3,.91s-4.13,4-1.85,4,4.39-.12,4.7,1.08-.59,3.54-.15,5A7.34,7.34,0,0,0,7.57,25.5c1.93,2.09,3.75,10.07,3.69,12.06s1.94,2.06,2,.06c0-1.21-.11-4,.14-6.44a44,44,0,0,1,.9,8c-.06,2,1.94,2.05,2,.05.05-1.62-.19-7.14.58-10l1.6,0a16.88,16.88,0,0,0,4.85-.57C24.6,31,26,33.15,26,33.69c0,1-1.11,4-1.14,5s.94,2,2,.06a17.91,17.91,0,0,0,1.41-5.07,8.26,8.26,0,0,1,1.08,2.29c0,1-1.06,2.13-1.09,3.13s.94,2,2,.06S32.31,36,31.37,34c-.72-1.55-.82-6.55-.35-9.7a6.11,6.11,0,0,0,.32-.74A21.34,21.34,0,0,1,32.65,27a1,1,0,0,0,1,.76,1,1,0,0,0,.24,0A1,1,0,0,0,34.59,26.5Z"/><path class="cls-2" d="M6.91,13.43a1,1,0,0,1-2-.06,1,1,0,0,1,2,.06Z"/><path class="cls-3" d="M29.19,3.32A4.55,4.55,0,0,1,25.9,4.7C25.7,3.7,24.81,0,23,0c-1.56,0-2.12.71-2.92.71S18.76,0,17.21,0c-1.78,0-2.67,3.7-2.87,4.7a4.67,4.67,0,0,1-3.29-1.38c-1.39-1.69-3.24-.44-2.3,1.41,1.47,2.93,5,5,11.37,5s9.9-2.06,11.38-5C32.43,2.88,30.58,1.63,29.19,3.32Z"/><path class="cls-4" d="M22.39,1.3c-1.21,0-1.62.64-2.27.64s-1.05-.64-2.27-.64c-1.62,0-2.26,4.37-2.26,4.37s.83,1.46,4.53,1.46,4.54-1.46,4.54-1.46S24,1.3,22.39,1.3Z"/><path class="cls-3" d="M15.59,3.24s1.34,1.29,4.53,1.29,4.54-1.29,4.54-1.29V4.53a7,7,0,0,1-4.54,1.3,7,7,0,0,1-4.53-1.3Z"/></svg>