<svg id="Layer_1" data-name="Layer 1" xmlns="http://www.w3.org/2000/svg" viewBox="0 0 35.9 43.5"><defs><style>.cls-1{fill:#c1694f;}.cls-2{fill:#e6aaaa;}.cls-3{fill:#dd2e44;}.cls-4{fill:#d99e82;}.cls-5{fill:#272b2b;}.cls-6{fill:#664500;}.cls-7{fill:#825d0e;}</style></defs><circle class="cls-1" cx="6.95" cy="13.5" r="6"/><circle class="cls-1" cx="28.95" cy="13.5" r="6"/><circle class="cls-2" cx="6.95" cy="13.5" r="4"/><circle class="cls-2" cx="28.95" cy="13.5" r="4"/><path class="cls-1" d="M35,29.5s-1.31-22-17-22-17,22-17,22c0,5.87,4.5,10.32,12.22,11.61a6,6,0,0,0,9.56,0C30.45,39.82,35,35.37,35,29.5Z"/><circle class="cls-3" cx="17.95" cy="37.5" r="4"/><path class="cls-4" d="M18,27.5s-11,3.69-11,7a6,6,0,0,0,11,3.32A6,6,0,0,0,29,34.5C29,31.19,18,27.5,18,27.5Z"/><path class="cls-5" d="M11,24.5a2,2,0,0,1,4,0v2a2,2,0,0,1-4,0Zm10,0a2,2,0,0,1,4,0v2a2,2,0,0,1-4,0Zm-7.87,8c-1.63,1,3.25,4,4.87,4s6.5-3,4.87-4S14.7,31.5,13.08,32.5Z"/><path class="cls-6" d="M32,5.13a7,7,0,0,1-5.08,2.12C26.56,5.71,25.19,0,22.45,0c-2.4,0-3.27,1.09-4.5,1.09S15.85,0,13.45,0C10.71,0,9.34,5.71,9,7.25,7.13,7.08,5.14,6.57,4,5.13,1.8,2.52-1,4.44.39,7.3,2.67,11.82,8.18,15,18,15s15.28-3.18,17.56-7.7C37,4.44,34.1,2.52,32,5.13Z"/><path class="cls-7" d="M21.45,2C19.58,2,19,3,18,3s-1.63-1-3.5-1C12,2,11,8.75,11,8.75S12.23,11,18,11s7-2.25,7-2.25S24,2,21.45,2Z"/><path class="cls-6" d="M11,5S13,7,18,7s7-2,7-2V7s-2.22,2-7,2-7-2-7-2Z"/></svg>