<?xml version='1.0' encoding='ASCII' standalone='yes'?>
<svg xmlns="http://www.w3.org/2000/svg" xmlns:xlink="http://www.w3.org/1999/xlink" version="1.1" width="36.0px" viewBox="0 0 36.0 42.0" height="42.0px">
  <g>
    <g transform="translate(0, 6) scale(1 1) ">
      <path fill="#C6E5B3" d="M36 22c0 7.456-8.059 12-18 12S0 29.456 0 22 8.059 7 18 7s18 7.544 18 15z"/>
      <path fill="#77B255" d="M31.755 12.676C33.123 11.576 34 9.891 34 8c0-3.313-2.687-6-6-6-2.861 0-5.25 2.004-5.851 4.685-1.288-.483-2.683-.758-4.149-.758-1.465 0-2.861.275-4.149.758C13.25 4.004 10.861 2 8 2 4.687 2 2 4.687 2 8c0 1.891.877 3.576 2.245 4.676C1.6 15.356 0 18.685 0 22c0 7.456 8.059 1 18 1s18 6.456 18-1c0-3.315-1.6-6.644-4.245-9.324z"/>
      <circle fill="#FFF" cx="7.5" cy="7.5" r="3.5"/>
      <circle fill="#292F33" cx="7.5" cy="7.5" r="1.5"/>
      <circle fill="#FFF" cx="28.5" cy="7.5" r="3.5"/>
      <circle fill="#292F33" cx="28.5" cy="7.5" r="1.5"/>
      <circle fill="#5C913B" cx="14" cy="20" r="1"/>
      <circle fill="#5C913B" cx="22" cy="20" r="1"/>
    </g>
    <g>
      <defs>
        <style>.cls-1{fill:#664500;}.cls-2{fill:#825d0e;}</style>
      </defs>
      <path class="cls-1" d="M32,6.13c-1.19,1.44-3.18,2-5.08,2.12C26.61,6.71,25.24,1,22.5,1,20.1,1,19.23,2.09,18,2.09S15.9,1,13.5,1C10.76,1,9.39,6.71,9.08,8.25,7.18,8.08,5.19,7.57,4,6.13,1.85,3.52-1,5.44.44,8.3,2.72,12.82,8.23,16,18,16s15.28-3.18,17.56-7.7C37,5.44,34.15,3.52,32,6.13Z" transform="translate(-0.05 -1)"/>
      <path class="cls-2" d="M21.5,3C19.63,3,19,4,18,4s-1.63-1-3.5-1C12,3,11,9.75,11,9.75S12.28,12,18,12s7-2.25,7-2.25S24,3,21.5,3Z" transform="translate(-0.05 -1)"/>
      <path class="cls-1" d="M11,6s2.07,2,7,2,7-2,7-2V8s-2.22,2-7,2-7-2-7-2Z" transform="translate(-0.05 -1)"/>
    </g>
  </g>
</svg>
