<svg id="Layer_1" data-name="Layer 1" xmlns="http://www.w3.org/2000/svg" viewBox="0 0 31.66 36"><defs><style>.cls-1{fill:#99aab5;}.cls-2{fill:#f4abba;}.cls-3{fill:#ccd6dd;}.cls-4{fill:#fff;}.cls-5{fill:#292f33;}.cls-6{fill:#664500;}.cls-7{fill:#825d0e;}</style></defs><path class="cls-1" d="M33.8,0c-.47-.17-8,4-10,9.14a23,23,0,0,0-1.65,8.11A9.19,9.19,0,0,0,18,16a9.19,9.19,0,0,0-4.18,1.25,23,23,0,0,0-1.65-8.11C10.2,4,2.67-.17,2.2,0s4.27,16.05,7,20.84C6.8,23.41,5,26.66,5,29.83S6.64,35,9,35.77c2.53.85,5-.94,9-.94s6.47,1.8,9,.94c2.36-.8,4-2.71,4-5.94s-1.81-6.43-4.23-9C29.53,16.05,34.26.18,33.8,0Z" transform="translate(-2.17 0)"/><path class="cls-2" d="M12.69,17.92a24.67,24.67,0,0,0-1.45-5.58c-1.54-4-5.69-7.25-6-7.11S7.81,15.37,10,20.09A20.05,20.05,0,0,1,12.69,17.92ZM26,20.09c2.16-4.72,5.1-14.74,4.78-14.86s-4.51,3.09-6,7.11a24.67,24.67,0,0,0-1.45,5.58A20.05,20.05,0,0,1,26,20.09Z" transform="translate(-2.17 0)"/><path class="cls-3" d="M25,30c0,2.76-3.06,5-6.83,5s-6.84-2.24-6.84-5,3.06-5,6.84-5S25,27.24,25,30Z" transform="translate(-2.17 0)"/><path class="cls-4" d="M21,30.58c0,2.76-.24,3-3,3s-3-.24-3-3C15,29.58,21,29.58,21,30.58Z" transform="translate(-2.17 0)"/><circle class="cls-5" cx="10.33" cy="24.33" r="1.5"/><circle class="cls-5" cx="21.33" cy="24.33" r="1.5"/><path class="cls-2" d="M21,25.83c0,1.65-2,3-3,3s-3-1.35-3-3S21,24.17,21,25.83Z" transform="translate(-2.17 0)"/><path class="cls-6" d="M30.3,14.27a6.09,6.09,0,0,1-4.4,1.84c-.27-1.33-1.46-6.28-3.83-6.28-2.08,0-2.84.94-3.9.94s-1.82-.94-3.9-.94c-2.38,0-3.57,4.95-3.83,6.28A6.3,6.3,0,0,1,6,14.27C4.17,12,1.7,13.68,3,16.15c2,3.92,6.75,6.68,15.22,6.68s13.24-2.76,15.22-6.68C34.63,13.68,32.16,12,30.3,14.27Z" transform="translate(-2.17 0)"/><path class="cls-7" d="M21.2,11.56c-1.62,0-2.17.87-3,.87s-1.42-.87-3-.87c-2.16,0-3,5.85-3,5.85s1.11,1.95,6.07,1.95,6.06-1.95,6.06-1.95S23.37,11.56,21.2,11.56Z" transform="translate(-2.17 0)"/><path class="cls-6" d="M12.1,14.16s1.79,1.73,6.07,1.73,6.06-1.73,6.06-1.73v1.73s-1.92,1.74-6.06,1.74-6.07-1.74-6.07-1.74Z" transform="translate(-2.17 0)"/></svg>