<?xml version='1.0' encoding='ASCII' standalone='yes'?>
<svg xmlns="http://www.w3.org/2000/svg" xmlns:xlink="http://www.w3.org/1999/xlink" version="1.1" width="36.0px" viewBox="0 0 36.0 42.0" height="42.0px">
  <g>
    <g transform="translate(0, 6) scale(1 1) ">
      <ellipse transform="rotate(-14.999 5.05 17.456)" fill="#D79E84" cx="5.05" cy="17.455" rx="3.818" ry="5.455"/>
      <ellipse transform="rotate(-75.001 31.05 17.455)" fill="#D79E84" cx="31.05" cy="17.455" rx="5.455" ry="3.818"/>
      <path fill="#BF6952" d="M19.018 36h-2.036C10.264 36 3.75 30.848 3.75 23.636c0-4.121 1.527-6.182 1.527-6.182s-.509-2.061-.509-4.121C4.768 7.152 11.282 2 18 2c6.718 0 13.232 6.182 13.232 11.333 0 2.061-.509 4.121-.509 4.121s1.527 2.061 1.527 6.182C32.25 30.848 25.736 36 19.018 36z"/>
      <path fill="#D79E84" d="M30 16.042C30 12.153 26.825 9 22.909 9c-1.907 0-3.635.752-4.909 1.968C16.726 9.752 14.998 9 13.091 9 9.175 9 6 12.153 6 16.042c0 2.359 1.172 4.441 2.965 5.719-.503 1.238-.783 2.6-.783 4.031C8.182 31.476 12.578 35 18 35s9.818-3.524 9.818-9.208c0-1.431-.28-2.793-.783-4.031C28.828 20.483 30 18.4 30 16.042z"/>
      <ellipse fill="#292F33" cx="13" cy="17" rx="2.25" ry="3.25"/>
      <ellipse fill="#292F33" cx="23" cy="17" rx="2.25" ry="3.25"/>
      <path fill="#642116" d="M18 32.727c2.838 0 5.254-1.505 6.162-3.61.375-.871-.262-1.844-1.21-1.844h-9.904c-.948 0-1.585.974-1.21 1.844.908 2.105 3.324 3.61 6.162 3.61z"/>
      <circle fill="#642116" cx="16.25" cy="23" r="1"/>
      <circle fill="#642116" cx="19.75" cy="23" r="1"/>
      <path fill="#BF6952" d="M22.66.175s-5.455-1.091-7.636 2.182 4.364 1.091 4.364 1.091S20.478.175 22.66.175z"/>
    </g>
    <g>
      <defs>
        <style>.cls-1{fill:#664500;}.cls-2{fill:#825d0e;}</style>
      </defs>
      <path class="cls-1" d="M32,6.13c-1.19,1.44-3.18,2-5.08,2.12C26.61,6.71,25.24,1,22.5,1,20.1,1,19.23,2.09,18,2.09S15.9,1,13.5,1C10.76,1,9.39,6.71,9.08,8.25,7.18,8.08,5.19,7.57,4,6.13,1.85,3.52-1,5.44.44,8.3,2.72,12.82,8.23,16,18,16s15.28-3.18,17.56-7.7C37,5.44,34.15,3.52,32,6.13Z" transform="translate(-0.05 -1)"/>
      <path class="cls-2" d="M21.5,3C19.63,3,19,4,18,4s-1.63-1-3.5-1C12,3,11,9.75,11,9.75S12.28,12,18,12s7-2.25,7-2.25S24,3,21.5,3Z" transform="translate(-0.05 -1)"/>
      <path class="cls-1" d="M11,6s2.07,2,7,2,7-2,7-2V8s-2.22,2-7,2-7-2-7-2Z" transform="translate(-0.05 -1)"/>
    </g>
  </g>
</svg>
