<?xml version='1.0' encoding='ASCII' standalone='yes'?>
<svg xmlns="http://www.w3.org/2000/svg" xmlns:xlink="http://www.w3.org/1999/xlink" version="1.1" width="36.0px" viewBox="0 0 36.0 42.0" height="42.0px">
  <g>
    <g transform="translate(0, 6) scale(1 1) ">
      <path fill="#F4ABBA" d="M34.193 13.329c.387-.371.733-.795 1.019-1.28 1.686-2.854.27-10.292-.592-10.8-.695-.411-5.529 1.05-8.246 3.132C23.876 2.884 21.031 2 18 2c-3.021 0-5.856.879-8.349 2.367C6.93 2.293 2.119.839 1.424 1.249c-.861.508-2.276 7.947-.592 10.8.278.471.615.884.989 1.249C.666 15.85 0 18.64 0 21.479 0 31.468 8.011 34 18 34s18-2.532 18-12.521c0-2.828-.66-5.606-1.807-8.15z"/>
      <path fill="#EA596E" d="M7.398 5.965c-2.166-1.267-4.402-2.08-4.8-1.845-.57.337-1.083 4.998-.352 8.265 1.273-2.483 3.04-4.682 5.152-6.42zm26.355 6.419c.733-3.267.219-7.928-.351-8.265-.398-.235-2.635.578-4.801 1.845 2.114 1.739 3.88 3.938 5.152 6.42zM28 23.125c0 4.487-3.097 9.375-10 9.375-6.904 0-10-4.888-10-9.375S11.096 17.5 18 17.5c6.903 0 10 1.138 10 5.625z"/>
      <path fill="#662113" d="M15 24.6c0 1.857-.34 2.4-1.5 2.4s-1.5-.543-1.5-2.4c0-1.856.34-2.399 1.5-2.399s1.5.542 1.5 2.399zm9 0c0 1.857-.34 2.4-1.5 2.4s-1.5-.543-1.5-2.4c0-1.856.34-2.399 1.5-2.399s1.5.542 1.5 2.399z"/>
      <circle fill="#292F33" cx="7" cy="17" r="2"/>
      <circle fill="#292F33" cx="29" cy="17" r="2"/>
    </g>
    <g>
      <defs>
        <style>.cls-1{fill:#664500;}.cls-2{fill:#825d0e;}</style>
      </defs>
      <path class="cls-1" d="M32,6.13c-1.19,1.44-3.18,2-5.08,2.12C26.61,6.71,25.24,1,22.5,1,20.1,1,19.23,2.09,18,2.09S15.9,1,13.5,1C10.76,1,9.39,6.71,9.08,8.25,7.18,8.08,5.19,7.57,4,6.13,1.85,3.52-1,5.44.44,8.3,2.72,12.82,8.23,16,18,16s15.28-3.18,17.56-7.7C37,5.44,34.15,3.52,32,6.13Z" transform="translate(-0.05 -1)"/>
      <path class="cls-2" d="M21.5,3C19.63,3,19,4,18,4s-1.63-1-3.5-1C12,3,11,9.75,11,9.75S12.28,12,18,12s7-2.25,7-2.25S24,3,21.5,3Z" transform="translate(-0.05 -1)"/>
      <path class="cls-1" d="M11,6s2.07,2,7,2,7-2,7-2V8s-2.22,2-7,2-7-2-7-2Z" transform="translate(-0.05 -1)"/>
    </g>
  </g>
</svg>
