<svg id="Layer_1" data-name="Layer 1" xmlns="http://www.w3.org/2000/svg" viewBox="0 0 39.84 41.3"><defs><style>.cls-1{fill:#3e721d;}.cls-2{fill:#77b255;}.cls-3{fill:#292f33;}.cls-4{fill:#fff;}.cls-5{fill:#664500;}.cls-6{fill:#825d0e;}</style></defs><path class="cls-1" d="M35.12,18.65A12.54,12.54,0,0,1,35.9,16c0-.65-1.56-.42-1.63-1-.21-1.8,1.89-3.32-1.74-3.32-1.36,0-.28-1.76-.28-2.72s-2.59-.15-3.55-.15-1-2.87-1.91-2.87C23.92,5.91,23,8.78,22,8.78s-1.74-3.62-2.87-2.87c-2.87,1.92-3.82,7.66-3.82,7.66s4.78-3.83,10.52-2.87c5.34.89,4.79,10.82,5.64,16.89L24.61,41.3H28c.34-1.5,1.94-.53,2.37-1.68s-.67-2-.09-3,1-.76,2.09-1.38,0-2.2,0-3.15,2.31-1.58,2.31-2.54c0-.63-1.06-1.29-.81-2.35S35.43,26,35.59,25c.14-.84-.92-1.45-.79-2.39S36,21.27,36,20.55,35.12,19.55,35.12,18.65Z"/><path class="cls-2" d="M34.44,18.76c0-4-2.87-9.08-9.57-9.08S7.61,19.7,4.78,19.77c-1.91-1.95-4.78.06-4.78,2,0,3,5.37,4.61,5.65,4.9,1.08,1.15,3.92,8.08,8.7,1.94.8-1,1.3-.42,3.48.55C25.07,33,16,41.3,16,41.3h9.57c4.78-4.78,8.87-13.84,8.87-22h0C34.42,19.13,34.44,19,34.44,18.76Z"/><path class="cls-3" d="M23.92,17.39A1.92,1.92,0,1,1,22,15.48,1.92,1.92,0,0,1,23.92,17.39Z"/><path class="cls-1" d="M4.78,22.65c0,.8-.64.48-1.43.48s-1.44.32-1.44-.48a1.44,1.44,0,0,1,2.87,0Z"/><path class="cls-4" d="M18.18,24.09c0,1.05-.65.95-1.44.95s-1.43.1-1.43-.95.64-3.83,1.43-3.83S18.18,23,18.18,24.09ZM14.35,25c0,1.06-.64,1-1.44,1s-1.43.1-1.43-1,.64-3.82,1.43-3.82S14.35,24,14.35,25Z"/><path class="cls-1" d="M18,24.1A114.82,114.82,0,0,0,5.65,26.69c.27.29.66.95,1.16,1.67A113.35,113.35,0,0,1,18.31,26,1,1,0,1,0,18,24.1Zm.55-6.19a1,1,0,0,1-.71-.29,1,1,0,0,1,0-1.41A12.39,12.39,0,0,1,26.24,13a1,1,0,1,1,0,2,10.64,10.64,0,0,0-6.95,2.58A1,1,0,0,1,18.59,17.91Z"/><path class="cls-5" d="M36.34,4.55a6.22,6.22,0,0,1-4.51,1.88C31.56,5.07,30.34,0,27.91,0c-2.13,0-2.9,1-4,1s-1.87-1-4-1C17.49,0,16.27,5.07,16,6.43a6.43,6.43,0,0,1-4.51-1.88C9.58,2.24,7.05,3.94,8.33,6.48c2,4,6.91,6.83,15.59,6.83S37.47,10.49,39.5,6.48C40.78,3.94,38.25,2.24,36.34,4.55Z"/><path class="cls-6" d="M27,1.77c-1.66,0-2.22.89-3.1.89s-1.45-.89-3.11-.89c-2.22,0-3.11,6-3.11,6s1.14,2,6.22,2,6.21-2,6.21-2S29.24,1.77,27,1.77Z"/><path class="cls-5" d="M17.7,4.44s1.84,1.77,6.22,1.77,6.21-1.77,6.21-1.77V6.21S28.16,8,23.92,8,17.7,6.21,17.7,6.21Z"/></svg>