<svg id="Layer_1" data-name="Layer 1" xmlns="http://www.w3.org/2000/svg" viewBox="0 0 41.91 49.52"><defs><style>.cls-1{fill:#ffdb5e;}.cls-2{fill:#ee9547;}.cls-3{fill:#664500;}.cls-4{fill:#825d0e;}</style></defs><path class="cls-1" d="M41.91,31.85a3.3,3.3,0,0,1-.32,1.4c-1.34,4.33-7.62,4-16.55,4.22-1.49,0-.64,1.8-.12,5.67.35,2.52-1.28,6.38-4,6.38-4.49,0-.17-3.55-4.14-12.32-2.13-4.69-6.88-2.06-6.88-6.77V19.71c0-1.83.18-3.59,2.76-3.88s1.94-2.07,5.54-2.07H36.24a3.32,3.32,0,0,1,2.63,5.36,3.28,3.28,0,0,1,1,4.91,3.31,3.31,0,0,1,1.73,2.9,3.36,3.36,0,0,1-1,2.34A3.29,3.29,0,0,1,41.91,31.85Z"/><path class="cls-2" d="M30,28.51h8.61a3.33,3.33,0,0,1,2.86,1.64.87.87,0,1,1-1.5.89,1.6,1.6,0,0,0-1.36-.78H29.77a1.59,1.59,0,1,0,0,3.17h5.88a.88.88,0,1,1,0,1.75H29.77a3.32,3.32,0,0,1-2.13-5.88,3.28,3.28,0,0,1-1-2.37,3.32,3.32,0,0,1,1.21-2.55,3.32,3.32,0,0,1,.42-5.08,3.32,3.32,0,0,1,2.48-5.54h5.49A3.34,3.34,0,0,1,39.1,15.4a.87.87,0,1,1-1.5.89,1.6,1.6,0,0,0-1.36-.78H30.75a1.59,1.59,0,0,0,0,3.17h6.51a3.34,3.34,0,0,1,2.86,1.63.87.87,0,0,1-1.5.9,1.57,1.57,0,0,0-1.36-.78H30.19a1.59,1.59,0,0,0,0,3.17h8.1a3.33,3.33,0,0,1,2.86,1.63.87.87,0,1,1-1.5.89,1.58,1.58,0,0,0-1.36-.77H30a1.58,1.58,0,1,0,0,3.16Z"/><path class="cls-3" d="M35.84,4.58c-1.15,1.77-3.32,2.65-5.44,3-.54-1.7-2.8-7.94-5.88-7.6C21.82.32,21,1.65,19.6,1.81s-2.5-1-5.2-.66c-3.08.34-3.9,6.93-4.05,8.7-2.16.05-4.46-.27-6-1.74C1.63,5.45-1.33,8,.64,11c3.14,4.79,9.73,7.67,20.71,6.44s16.78-5.5,18.77-10.87C41.38,3.18,37.93,1.38,35.84,4.58Z"/><path class="cls-4" d="M23.65,2.39C21.54,2.62,21,3.83,19.84,4s-2-.92-4.06-.68c-2.81.32-3.08,8-3.08,8s1.72,2.37,8.15,1.64,7.58-3.41,7.58-3.41S26.46,2.07,23.65,2.39Z"/><path class="cls-3" d="M12.22,7.08s2.58,2,8.12,1.37S28,5.32,28,5.32l.25,2.25S26,10.09,20.6,10.7s-8.12-1.37-8.12-1.37Z"/></svg>