<?xml version='1.0' encoding='ASCII' standalone='yes'?>
<svg xmlns="http://www.w3.org/2000/svg" xmlns:xlink="http://www.w3.org/1999/xlink" version="1.1" width="36.0px" viewBox="0 0 36.0 42.0" height="42.0px">
  <g>
    <g transform="translate(0, 6) scale(1 1) ">
      <ellipse fill="#F5F8FA" cx="8.828" cy="18" rx="7.953" ry="13.281"/>
      <path fill="#E1E8ED" d="M8.828 32.031C3.948 32.031.125 25.868.125 18S3.948 3.969 8.828 3.969 17.531 10.132 17.531 18s-3.823 14.031-8.703 14.031zm0-26.562C4.856 5.469 1.625 11.09 1.625 18s3.231 12.531 7.203 12.531S16.031 24.91 16.031 18 12.8 5.469 8.828 5.469z"/>
      <circle fill="#8899A6" cx="6.594" cy="18" r="4.96"/>
      <circle fill="#292F33" cx="6.594" cy="18" r="3.565"/>
      <circle fill="#F5F8FA" cx="7.911" cy="15.443" r="1.426"/>
      <ellipse fill="#F5F8FA" cx="27.234" cy="18" rx="7.953" ry="13.281"/>
      <path fill="#E1E8ED" d="M27.234 32.031c-4.88 0-8.703-6.163-8.703-14.031s3.823-14.031 8.703-14.031S35.938 10.132 35.938 18s-3.824 14.031-8.704 14.031zm0-26.562c-3.972 0-7.203 5.622-7.203 12.531 0 6.91 3.231 12.531 7.203 12.531S34.438 24.91 34.438 18 31.206 5.469 27.234 5.469z"/>
      <circle fill="#8899A6" cx="25" cy="18" r="4.96"/>
      <circle fill="#292F33" cx="25" cy="18" r="3.565"/>
      <circle fill="#F5F8FA" cx="26.317" cy="15.443" r="1.426"/>
    </g>
    <g>
      <defs>
        <style>.cls-1{fill:#664500;}.cls-2{fill:#825d0e;}</style>
      </defs>
      <path class="cls-1" d="M32,6.13c-1.19,1.44-3.18,2-5.08,2.12C26.61,6.71,25.24,1,22.5,1,20.1,1,19.23,2.09,18,2.09S15.9,1,13.5,1C10.76,1,9.39,6.71,9.08,8.25,7.18,8.08,5.19,7.57,4,6.13,1.85,3.52-1,5.44.44,8.3,2.72,12.82,8.23,16,18,16s15.28-3.18,17.56-7.7C37,5.44,34.15,3.52,32,6.13Z" transform="translate(-0.05 -1)"/>
      <path class="cls-2" d="M21.5,3C19.63,3,19,4,18,4s-1.63-1-3.5-1C12,3,11,9.75,11,9.75S12.28,12,18,12s7-2.25,7-2.25S24,3,21.5,3Z" transform="translate(-0.05 -1)"/>
      <path class="cls-1" d="M11,6s2.07,2,7,2,7-2,7-2V8s-2.22,2-7,2-7-2-7-2Z" transform="translate(-0.05 -1)"/>
    </g>
  </g>
</svg>
