<svg id="Layer_1" data-name="Layer 1" xmlns="http://www.w3.org/2000/svg" viewBox="0 0 36.29 36.02"><defs><style>.cls-1{fill:#ffdc5d;}.cls-2{fill:#292f33;}.cls-3{fill:#f9ca55;}.cls-4{fill:#ffac33;}.cls-5{fill:#c1694f;}.cls-6{fill:#662113;}.cls-7{fill:#664500;}.cls-8{fill:#825d0e;}</style></defs><path class="cls-1" d="M8.92,34.11c.13.78-2.1,1.45-2.38,1.32s1-.81,1-1.22c-.11-2.12-.91-2-.82-4.18a9.25,9.25,0,0,1-.1-5.42c.46-1.4,3.13.75,3,1.65-.21,1.49-.79,2.57-.82,3.75C9.2,31.9,8.61,32.26,8.92,34.11Zm7.18-.88c.36.72.73,2,.42,1.94a2.58,2.58,0,0,1-1.74-1.43c-.73-2-1.74-1.45-2.3-3.6a37.71,37.71,0,0,1-2.62-4.48c-.51-1.38,3.39-1.74,3.61-.86.5,1.91.51,3.36.83,4.49C15.25,31,15.27,31.55,16.1,33.23Z"/><path class="cls-1" d="M6.23,26.08a1.06,1.06,0,0,1-.66.21,2.76,2.76,0,0,1-1.06-.79c-.54-.65-2.66-1.33-3.23-2.72a1,1,0,0,1,.08-.86,20.55,20.55,0,0,1,2.84-3.8,2.78,2.78,0,0,1,1.56-.93c.54-.05,1.06,1.18.83,1.65-.75,1.53-3,2.61-3.65,3.49,1,.8.91,1.31,2.29,2.12a1.2,1.2,0,0,1,.53-.16.36.36,0,0,1,.24.39,1.71,1.71,0,0,1,.29.27A1.35,1.35,0,0,1,6.23,26.08Zm7.58.13a1.15,1.15,0,0,0,.68.14,3,3,0,0,0,1-.89c.47-.71,2.51-1.6,2.92-3a1,1,0,0,0-.16-.85,25.34,25.34,0,0,0-3-3.48c-.35-.32-1.15-1.14-1.56-.79s-1.37,1.32-1.09,1.76c.9,1.45,3.38,2.27,4.11,3.08-.93.9-.77,1.4-2.06,2.34a1.23,1.23,0,0,0-.55-.1.36.36,0,0,0-.2.41,1.7,1.7,0,0,0-.25.3A1.33,1.33,0,0,0,13.81,26.21Z"/><path class="cls-2" d="M14.49,17.38a4.36,4.36,0,0,0-2.42-.71H7.4a5.78,5.78,0,0,0-2.35.71c.19.62.43,2.1.69,3s1,2.16.8,3.16a22.23,22.23,0,0,0-.33,4.7c.91.08,2.08.18,3,.34.23-.73.44-1.51.42-1.48A3.6,3.6,0,0,0,10.4,27c.23.4.95,1.47.95,1.47s1.63-.28,2.79-.56a26.75,26.75,0,0,0-.92-4.42c-.28-.91.36-2.57.52-3.14S14.49,17.38,14.49,17.38Z"/><path class="cls-1" d="M12.41,17.36c0-.43-.12-.69-.67-.69v-3h-4v3c-.56,0-.67.26-.67.69,0,.24,0,2.27,2.67,2.27h0C12.41,19.63,12.41,17.6,12.41,17.36Z"/><path class="cls-3" d="M7.74,16.26a2.34,2.34,0,0,0,2,.86,2.34,2.34,0,0,0,2-.86v-.81h-4Z"/><path class="cls-4" d="M11.92,2.87c-1.13-.36-3.78-.26-4.44.6a4.4,4.4,0,0,0-4,3.64c-.27,2,.32,3,.53,4.51a2.71,2.71,0,0,0,2,2.52c1.12,1.48,2.32,1.42,4.32,1.42,3.9,0,5.76-2.62,5.92-7.06C16.33,5.82,14.75,3.79,11.92,2.87Z"/><path class="cls-1" d="M14.15,8.69A2.55,2.55,0,0,0,12.23,7.6a1.84,1.84,0,0,1,.83,1.16c0,.35.1.63-.22.28-1.26-1.39-2.63-.84-4-1.69A3.26,3.26,0,0,1,7.61,6.09S7.49,7,6.05,7.87A3,3,0,0,0,4.86,9.56a6.58,6.58,0,0,0-.14,2.09,5,5,0,0,0,10,0C14.76,10,14.58,9.29,14.15,8.69Z"/><path class="cls-5" d="M12,14.44H7.51a2.42,2.42,0,0,0,2.23,1.12A2.42,2.42,0,0,0,12,14.44ZM10.3,13.05H9.18a.29.29,0,0,1-.28-.28.28.28,0,0,1,.28-.28H10.3a.28.28,0,0,1,.28.28A.29.29,0,0,1,10.3,13.05Z"/><path class="cls-6" d="M7.51,11.09A.56.56,0,0,1,7,10.53V10a.56.56,0,1,1,1.12,0v.55A.56.56,0,0,1,7.51,11.09Zm4.46,0a.56.56,0,0,1-.56-.56V10a.56.56,0,0,1,1.12,0v.55A.56.56,0,0,1,12,11.09Z"/><path class="cls-2" d="M14.71,33.71c-.39.47.51,1.88,1.19,2.17a1.53,1.53,0,0,0,1.84-.45c.18-.37-1-1.84-1.43-1.93s.6.48-.35.56A2,2,0,0,1,14.71,33.71Zm-5.79.4c.5.43.65,1.47-1.07,1.8-1.27.24-2.23.08-2.35-.39S7,34.24,7.4,34.16s-.47.56.24.53A2.23,2.23,0,0,0,8.92,34.11Z"/><path class="cls-1" d="M26,34.11c.13.78-2.09,1.45-2.38,1.32s1-.81,1-1.22c-.11-2.12-.9-2-.82-4.18a9.23,9.23,0,0,1-.09-5.42c.45-1.4,3.12.75,3,1.65-.2,1.49-.79,2.57-.81,3.75C26.29,31.9,25.69,32.26,26,34.11Zm7.19-.88c.35.72.72,2,.41,1.94a2.57,2.57,0,0,1-1.73-1.43c-.74-2-1.75-1.45-2.31-3.6a39.18,39.18,0,0,1-2.62-4.48c-.51-1.38,3.39-1.74,3.62-.86.5,1.91.51,3.36.83,4.49C32.33,31,32.36,31.55,33.19,33.23Z"/><path class="cls-1" d="M23.31,26.08a1.06,1.06,0,0,1-.66.21,2.92,2.92,0,0,1-1.06-.79c-.54-.65-2.66-1.33-3.22-2.72a1,1,0,0,1,.08-.86,20.34,20.34,0,0,1,2.83-3.8,2.81,2.81,0,0,1,1.57-.93c.53-.05,1,1.18.82,1.65-.74,1.53-3,2.61-3.64,3.49,1,.8.91,1.31,2.28,2.12a1.23,1.23,0,0,1,.54-.16.36.36,0,0,1,.24.39,2.23,2.23,0,0,1,.28.27A1.31,1.31,0,0,1,23.31,26.08Zm7.58.13a1.17,1.17,0,0,0,.68.14,3,3,0,0,0,1-.89c.47-.71,2.51-1.6,2.93-3a1,1,0,0,0-.17-.85,25.78,25.78,0,0,0-3-3.48c-.36-.32-1.16-1.14-1.57-.79s-1.36,1.32-1.09,1.76c.9,1.45,3.38,2.27,4.11,3.08-.92.9-.77,1.4-2.06,2.34a1.23,1.23,0,0,0-.55-.1.37.37,0,0,0-.2.41,1.7,1.7,0,0,0-.25.3A1.33,1.33,0,0,0,30.89,26.21Z"/><path class="cls-2" d="M31.51,17.38a4.36,4.36,0,0,0-2.42-.71H24.42a5.78,5.78,0,0,0-2.35.71c.19.62.43,2.1.69,3s1,2.16.8,3.16a22.23,22.23,0,0,0-.33,4.7c.91.08,2.08.18,3,.34.23-.73.44-1.51.42-1.48a3.6,3.6,0,0,0,.81-.06c.23.4.95,1.47.95,1.47s1.63-.28,2.79-.56a26.75,26.75,0,0,0-.92-4.42c-.28-.91.36-2.57.52-3.14S31.51,17.38,31.51,17.38Z"/><path class="cls-1" d="M29.49,17.36c0-.43-.11-.69-.67-.69v-3h-4v3c-.55,0-.67.26-.67.69,0,.24,0,2.27,2.67,2.27h0C29.49,19.63,29.49,17.6,29.49,17.36Z"/><path class="cls-3" d="M24.82,16.26a2.34,2.34,0,0,0,2,.86,2.34,2.34,0,0,0,2-.86v-.81h-4Z"/><path class="cls-4" d="M29,2.87c-1.13-.36-3.78-.26-4.44.6a4.41,4.41,0,0,0-4,3.64c-.26,2,.32,3,.53,4.51a2.71,2.71,0,0,0,2,2.52c1.12,1.48,2.31,1.42,4.31,1.42,3.9,0,5.76-2.62,5.93-7.06C33.41,5.82,31.83,3.79,29,2.87Z"/><path class="cls-1" d="M31.23,8.69A2.53,2.53,0,0,0,29.31,7.6a1.84,1.84,0,0,1,.83,1.16c.05.35.1.63-.22.28-1.26-1.39-2.63-.84-4-1.69a3.26,3.26,0,0,1-1.24-1.26s-.12.88-1.56,1.78a3,3,0,0,0-1.19,1.69,6.58,6.58,0,0,0-.14,2.09,5,5,0,1,0,10,0C31.84,10,31.66,9.29,31.23,8.69Z"/><path class="cls-5" d="M29.05,14.44H24.59a2.42,2.42,0,0,0,2.23,1.12A2.4,2.4,0,0,0,29.05,14.44Zm-1.67-1.39H26.26a.29.29,0,0,1-.28-.28.28.28,0,0,1,.28-.28h1.12a.28.28,0,0,1,.28.28A.29.29,0,0,1,27.38,13.05Z"/><path class="cls-6" d="M24.59,11.09a.56.56,0,0,1-.56-.56V10a.56.56,0,1,1,1.12,0v.55A.56.56,0,0,1,24.59,11.09Zm4.46,0a.56.56,0,0,1-.56-.56V10a.56.56,0,1,1,1.12,0v.55A.56.56,0,0,1,29.05,11.09Z"/><path class="cls-2" d="M31.79,33.71c-.39.47.51,1.88,1.19,2.17a1.53,1.53,0,0,0,1.84-.45c.19-.37-1-1.84-1.43-1.93s.6.48-.35.56A2,2,0,0,1,31.79,33.71Zm-5.79.4c.5.43.65,1.47-1.07,1.8-1.27.24-2.23.08-2.35-.39s1.49-1.28,1.9-1.36-.47.56.24.53A2.23,2.23,0,0,0,26,34.11Z"/><path class="cls-7" d="M17.09,2.74a3.81,3.81,0,0,1-2.72,1.14C14.21,3.05,13.47,0,12,0,10.72,0,10.26.58,9.6.58S8.48,0,7.19,0C5.73,0,5,3.05,4.83,3.88A3.89,3.89,0,0,1,2.11,2.74C1,1.35-.56,2.37.21,3.9,1.43,6.32,4.38,8,9.6,8S17.77,6.32,19,3.9C19.76,2.37,18.24,1.35,17.09,2.74Z"/><path class="cls-8" d="M11.47,1.07c-1,0-1.33.53-1.87.53s-.87-.53-1.87-.53c-1.34,0-1.87,3.61-1.87,3.61s.68,1.2,3.74,1.2,3.75-1.2,3.75-1.2S12.81,1.07,11.47,1.07Z"/><path class="cls-7" d="M5.86,2.67A5.5,5.5,0,0,0,9.6,3.74a5.55,5.55,0,0,0,3.75-1.07V3.74A5.8,5.8,0,0,1,9.6,4.81,5.76,5.76,0,0,1,5.86,3.74Z"/><path class="cls-7" d="M34.17,2.74a3.78,3.78,0,0,1-2.71,1.14C31.29,3.05,30.56,0,29.09,0c-1.28,0-1.75.58-2.41.58S25.56,0,24.28,0c-1.47,0-2.2,3.05-2.37,3.88A3.87,3.87,0,0,1,19.2,2.74c-1.15-1.39-2.68-.37-1.91,1.16C18.51,6.32,21.46,8,26.68,8s8.18-1.7,9.4-4.12C36.85,2.37,35.32,1.35,34.17,2.74Z"/><path class="cls-8" d="M28.56,1.07c-1,0-1.34.53-1.88.53s-.87-.53-1.87-.53c-1.33,0-1.87,3.61-1.87,3.61s.69,1.2,3.74,1.2,3.75-1.2,3.75-1.2S29.89,1.07,28.56,1.07Z"/><path class="cls-7" d="M22.94,2.67a5.53,5.53,0,0,0,3.74,1.07,5.55,5.55,0,0,0,3.75-1.07V3.74a5.8,5.8,0,0,1-3.75,1.07,5.79,5.79,0,0,1-3.74-1.07Z"/></svg>