<?xml version='1.0' encoding='ASCII' standalone='yes'?>
<svg xmlns="http://www.w3.org/2000/svg" xmlns:xlink="http://www.w3.org/1999/xlink" version="1.1" width="36.0px" viewBox="0 0 36.0 42.0" height="42.0px">
  <g>
    <g transform="translate(0, 6) scale(1 1) ">
      <path fill="#CCD6DD" d="M35 17c0 9.389-13.223 19-17 19-3.778 0-17-9.611-17-19S8.611 0 18 0s17 7.611 17 17z"/>
      <path fill="#292F33" d="M13.503 14.845c3.124 3.124 4.39 6.923 2.828 8.485-1.562 1.562-5.361.297-8.485-2.828-3.125-3.124-4.391-6.923-2.828-8.485s5.361-.296 8.485 2.828zm8.994 0c-3.124 3.124-4.39 6.923-2.828 8.485 1.562 1.562 5.361.297 8.485-2.828 3.125-3.125 4.391-6.923 2.828-8.485-1.562-1.562-5.361-.297-8.485 2.828zM18 31c-2.347 0-3.575-1.16-3.707-1.293-.391-.391-.391-1.023 0-1.414.387-.387 1.013-.391 1.404-.01.051.047.806.717 2.303.717 1.519 0 2.273-.689 2.305-.719.398-.374 1.027-.363 1.408.029.379.393.38 1.011-.006 1.396C21.575 29.84 20.347 31 18 31z"/>
    </g>
    <g>
      <defs>
        <style>.cls-1{fill:#664500;}.cls-2{fill:#825d0e;}</style>
      </defs>
      <path class="cls-1" d="M32,6.13c-1.19,1.44-3.18,2-5.08,2.12C26.61,6.71,25.24,1,22.5,1,20.1,1,19.23,2.09,18,2.09S15.9,1,13.5,1C10.76,1,9.39,6.71,9.08,8.25,7.18,8.08,5.19,7.57,4,6.13,1.85,3.52-1,5.44.44,8.3,2.72,12.82,8.23,16,18,16s15.28-3.18,17.56-7.7C37,5.44,34.15,3.52,32,6.13Z" transform="translate(-0.05 -1)"/>
      <path class="cls-2" d="M21.5,3C19.63,3,19,4,18,4s-1.63-1-3.5-1C12,3,11,9.75,11,9.75S12.28,12,18,12s7-2.25,7-2.25S24,3,21.5,3Z" transform="translate(-0.05 -1)"/>
      <path class="cls-1" d="M11,6s2.07,2,7,2,7-2,7-2V8s-2.22,2-7,2-7-2-7-2Z" transform="translate(-0.05 -1)"/>
    </g>
  </g>
</svg>
