<?xml version='1.0' encoding='ASCII' standalone='yes'?>
<svg xmlns="http://www.w3.org/2000/svg" xmlns:xlink="http://www.w3.org/1999/xlink" version="1.1" width="36.0px" viewBox="0 0 36.0 42.0" height="42.0px">
  <g>
    <g transform="translate(0, 6) scale(1 1) ">
      <circle fill="#AA8DD8" cx="18" cy="18" r="18"/>
      <path fill="#AA8DD8" d="M10 4C7.42 4 4.369 1.534 3.414.586 2.843.014 1.981-.157 1.235.153.487.462 0 1.191 0 2c0 3.459 1.672 10 8 10 .757 0 1.45-.428 1.789-1.106l2-4c.31-.62.277-1.356-.088-1.946C11.337 4.359 10.693 4 10 4zM34.766.153c-.75-.311-1.607-.139-2.18.434C31.7 1.472 28.589 4 26 4c-.693 0-1.337.359-1.701.949-.364.589-.397 1.326-.088 1.946l2 4C26.55 11.572 27.242 12 28 12c6.328 0 8-6.541 8-10 0-.809-.487-1.538-1.234-1.847z"/>
      <path fill="#553986" d="M15.894 14.211l-6-3c-.988-.494-2.189-.093-2.684.895-.494.988-.093 2.189.895 2.684l4.212 2.106c-.306.533-.317 1.105-.317 1.105v2s0 2 2 2 2-2 2-2v-2s-.003-.109-.025-.263c.338-.189.628-.471.814-.843.494-.988.093-2.189-.895-2.684zm12.895-2.105c-.493-.986-1.694-1.391-2.684-.895l-6 3c-.988.494-1.389 1.695-.895 2.684.186.372.476.654.814.843-.021.154-.024.263-.024.263v2s0 2 2 2 2-2 2-2v-2s-.011-.572-.318-1.105l4.212-2.106c.989-.495 1.389-1.696.895-2.684zm-4.507 17.489c-.039-.165-.985-3.848-6.282-3.848-5.291 0-6.245 3.69-6.282 3.848-.063.26.047.525.274.661.227.135.515.098.703-.092.015-.016 1.583-1.522 5.306-1.522s5.291 1.507 5.305 1.521c.108.112.259.176.412.176.1 0 .199-.026.289-.079.224-.134.338-.407.275-.665z"/>
    </g>
    <g>
      <defs>
        <style>.cls-1{fill:#664500;}.cls-2{fill:#825d0e;}</style>
      </defs>
      <path class="cls-1" d="M32,6.13c-1.19,1.44-3.18,2-5.08,2.12C26.61,6.71,25.24,1,22.5,1,20.1,1,19.23,2.09,18,2.09S15.9,1,13.5,1C10.76,1,9.39,6.71,9.08,8.25,7.18,8.08,5.19,7.57,4,6.13,1.85,3.52-1,5.44.44,8.3,2.72,12.82,8.23,16,18,16s15.28-3.18,17.56-7.7C37,5.44,34.15,3.52,32,6.13Z" transform="translate(-0.05 -1)"/>
      <path class="cls-2" d="M21.5,3C19.63,3,19,4,18,4s-1.63-1-3.5-1C12,3,11,9.75,11,9.75S12.28,12,18,12s7-2.25,7-2.25S24,3,21.5,3Z" transform="translate(-0.05 -1)"/>
      <path class="cls-1" d="M11,6s2.07,2,7,2,7-2,7-2V8s-2.22,2-7,2-7-2-7-2Z" transform="translate(-0.05 -1)"/>
    </g>
  </g>
</svg>
