<?xml version='1.0' encoding='ASCII' standalone='yes'?>
<svg xmlns="http://www.w3.org/2000/svg" xmlns:xlink="http://www.w3.org/1999/xlink" version="1.1" width="36.0px" viewBox="0 0 36.0 42.0" height="42.0px">
  <g>
    <g transform="translate(0, 6) scale(1 1) ">
      <path fill="#E1E8ED" d="M36 11c0-1.104-.896-2-2-2s-2 .896-2 2c0 0-.011 3.285-3 3.894V12c0-6.075-4.925-11-11-11S7 5.925 7 12v3.237C1.778 16.806 0 23.231 0 27c0 1.104.896 2 2 2s2-.896 2-2c0 0 .002-3.54 3.336-3.958C7.838 27.883 8.954 33 11 33h1c4 0 3 2 7 2s3-2 6-2 2.395 2 6 2c1.657 0 3-1.343 3-3 0-.675-2.274-4.994-3.755-9.268C35.981 21.348 36 14.58 36 11z"/>
      <circle fill="#292F33" cx="13" cy="12" r="2"/>
      <circle fill="#292F33" cx="23" cy="12" r="4"/>
      <circle fill="#9AAAB4" cx="23" cy="13" r="2"/>
      <path fill="#292F33" d="M22.192 19.491c2.65 1.987 3.591 5.211 2.1 7.199-1.491 1.988-4.849 1.988-7.5 0-2.65-1.987-3.591-5.211-2.1-7.199 1.492-1.989 4.849-1.988 7.5 0z"/>
    </g>
    <g>
      <defs>
        <style>.cls-1{fill:#664500;}.cls-2{fill:#825d0e;}</style>
      </defs>
      <path class="cls-1" d="M32,6.13c-1.19,1.44-3.18,2-5.08,2.12C26.61,6.71,25.24,1,22.5,1,20.1,1,19.23,2.09,18,2.09S15.9,1,13.5,1C10.76,1,9.39,6.71,9.08,8.25,7.18,8.08,5.19,7.57,4,6.13,1.85,3.52-1,5.44.44,8.3,2.72,12.82,8.23,16,18,16s15.28-3.18,17.56-7.7C37,5.44,34.15,3.52,32,6.13Z" transform="translate(-0.05 -1)"/>
      <path class="cls-2" d="M21.5,3C19.63,3,19,4,18,4s-1.63-1-3.5-1C12,3,11,9.75,11,9.75S12.28,12,18,12s7-2.25,7-2.25S24,3,21.5,3Z" transform="translate(-0.05 -1)"/>
      <path class="cls-1" d="M11,6s2.07,2,7,2,7-2,7-2V8s-2.22,2-7,2-7-2-7-2Z" transform="translate(-0.05 -1)"/>
    </g>
  </g>
</svg>
