<?xml version='1.0' encoding='ASCII' standalone='yes'?>
<svg xmlns="http://www.w3.org/2000/svg" xmlns:xlink="http://www.w3.org/1999/xlink" version="1.1" width="36.0px" viewBox="0 0 36.0 42.0" height="42.0px">
  <g>
    <g transform="translate(0, 6) scale(1 1) ">
      <path fill="#AF7E57" d="M36 18.5c0-1.639-.97-3.004-2.273-3.385C32.367 7.658 25.85 2 18 2 10.15 2 3.633 7.658 2.273 15.115.97 15.496 0 16.861 0 18.5c0 1.736 1.087 3.168 2.51 3.442C4.269 28.868 10.527 34 18 34c7.473 0 13.731-5.132 15.49-12.058C34.912 21.668 36 20.236 36 18.5z"/>
      <path fill="#662214" d="M18 25c-3 0-4-1-4 1s2 4 4 4 4-2 4-4-1-1-4-1z"/>
      <circle fill="#662214" cx="22.5" cy="18.5" r="2.5"/>
      <circle fill="#662214" cx="13.5" cy="18.5" r="2.5"/>
      <path fill="#FFF" d="M18 26h2v1s0 1-1 1-1-1-1-1v-1z"/>
      <path fill="#845636" d="M17.982 11h-.031c-1.188 0-2.301-.458-3.135-1.304-.746-.756-1.138-1.787-1.076-2.847.032-.551.49-.96 1.057-.935.551.033.972.508.939 1.06-.029.495.155.983.503 1.336.459.466 1.071.725 1.725.729.653-.036 1.27-.247 1.735-.705 1.298-1.28 1.312-3.378.032-4.677-1.699-1.721-4.48-1.74-6.202-.042-.394.389-1.027.383-1.414-.01-.388-.393-.383-1.026.01-1.414 2.506-2.472 6.557-2.444 9.03.062 2.055 2.084 2.031 5.432-.052 7.486-.836.826-1.945 1.261-3.121 1.261z"/>
    </g>
    <g>
      <defs>
        <style>.cls-1{fill:#664500;}.cls-2{fill:#825d0e;}</style>
      </defs>
      <path class="cls-1" d="M32,6.13c-1.19,1.44-3.18,2-5.08,2.12C26.61,6.71,25.24,1,22.5,1,20.1,1,19.23,2.09,18,2.09S15.9,1,13.5,1C10.76,1,9.39,6.71,9.08,8.25,7.18,8.08,5.19,7.57,4,6.13,1.85,3.52-1,5.44.44,8.3,2.72,12.82,8.23,16,18,16s15.28-3.18,17.56-7.7C37,5.44,34.15,3.52,32,6.13Z" transform="translate(-0.05 -1)"/>
      <path class="cls-2" d="M21.5,3C19.63,3,19,4,18,4s-1.63-1-3.5-1C12,3,11,9.75,11,9.75S12.28,12,18,12s7-2.25,7-2.25S24,3,21.5,3Z" transform="translate(-0.05 -1)"/>
      <path class="cls-1" d="M11,6s2.07,2,7,2,7-2,7-2V8s-2.22,2-7,2-7-2-7-2Z" transform="translate(-0.05 -1)"/>
    </g>
  </g>
</svg>
