<svg id="Layer_1" data-name="Layer 1" xmlns="http://www.w3.org/2000/svg" viewBox="0 0 35.9 42.77"><defs><style>.cls-1{fill:#ccd6dd;}.cls-2{fill:#292f33;}.cls-3{fill:#664500;}.cls-4{fill:#825d0e;}</style></defs><path class="cls-1" d="M34,22.77c0-10-7.16-16-16-16s-16,6-16,16c0,5.58,0,10.39,6,12.64v4.36a3,3,0,0,0,6,0V36.62l1,.07v3.08a3,3,0,0,0,6,0V36.69l1-.07v3.15a3,3,0,0,0,6,0V35.41C34,33.16,34,28.35,34,22.77Z"/><circle class="cls-2" cx="10.95" cy="20.77" r="5"/><circle class="cls-2" cx="24.95" cy="20.77" r="5"/><path class="cls-2" d="M19.85,29.83A2,2,0,0,0,18,28.77a2,2,0,0,0-1.9,1.06,1.5,1.5,0,0,0,.4,2.94,1.49,1.49,0,0,0,1.41-1H18a1.5,1.5,0,1,0,1.81-1.94Z"/><path class="cls-3" d="M32,5.13a7,7,0,0,1-5.08,2.12C26.56,5.71,25.19,0,22.45,0c-2.4,0-3.27,1.09-4.5,1.09S15.85,0,13.45,0C10.71,0,9.34,5.71,9,7.25,7.13,7.08,5.14,6.57,4,5.13,1.8,2.52-1,4.44.39,7.3,2.67,11.82,8.18,15,18,15s15.28-3.18,17.56-7.7C37,4.44,34.1,2.52,32,5.13Z"/><path class="cls-4" d="M21.45,2C19.58,2,19,3,18,3s-1.63-1-3.5-1C12,2,11,8.75,11,8.75S12.23,11,18,11s7-2.25,7-2.25S24,2,21.45,2Z"/><path class="cls-3" d="M11,5S13,7,18,7s7-2,7-2V7s-2.22,2-7,2-7-2-7-2Z"/></svg>