<svg id="Layer_1" data-name="Layer 1" xmlns="http://www.w3.org/2000/svg" viewBox="0 0 42.64 38.44"><defs><style>.cls-1{fill:#f4abba;}.cls-2{fill:#ea596e;}.cls-3{fill:#dd2e44;}.cls-4{fill:#664500;}.cls-5{fill:#825d0e;}</style></defs><path class="cls-1" d="M35.77,16.24A9.86,9.86,0,0,0,17.89,10.5,9.87,9.87,0,0,0,0,16.24a9.67,9.67,0,0,0,.27,2.24C1.64,27,11.1,36,17.89,38.44,24.67,36,34.13,27,35.5,18.49A9.83,9.83,0,0,0,35.77,16.24Z"/><path class="cls-2" d="M31.31,17.78a7.4,7.4,0,0,0-13.42-4.3,7.4,7.4,0,0,0-13.43,4.3,7.72,7.72,0,0,0,.2,1.68c1,6.39,8.13,13.13,13.23,15,5.09-1.85,12.19-8.59,13.22-15A7.15,7.15,0,0,0,31.31,17.78Z"/><path class="cls-3" d="M27.08,19.24a5.07,5.07,0,0,0-9.19-2.95,5.07,5.07,0,0,0-9.2,2.95,4.83,4.83,0,0,0,.14,1.15c.7,4.38,5.57,9,9,10.26,3.49-1.27,8.36-5.88,9.06-10.26A4.83,4.83,0,0,0,27.08,19.24Z"/><path class="cls-4" d="M39.77,12a5.81,5.81,0,0,1-4.52-.28c.33-1.25,1.39-6-.64-7-1.78-.87-2.82-.38-3.73-.83S29.72,2.38,28,1.51c-2-1-5.12,2.73-5.9,3.76a5.9,5.9,0,0,1-3-3.41c-.65-2.71-3.45-2.33-3.43.31,0,4.17,3,8.53,10.2,12.08s12.46,3.19,15.79.67C43.72,13.33,42.31,10.88,39.77,12Z"/><path class="cls-5" d="M33.14,5.9c-1.38-.68-2.21-.17-2.95-.53S29.35,4,28,3.36c-1.85-.91-5,3.72-5,3.72s.13,2.13,4.36,4.21,6,.87,6,.87S35,6.8,33.14,5.9Z"/><path class="cls-4" d="M24.28,4.3s.81,2.24,4.46,4,5.9,1.06,5.9,1.06l-.72,1.48s-2.37.67-5.91-1.06-4.45-4-4.45-4Z"/></svg>