<svg id="Layer_1" data-name="Layer 1" xmlns="http://www.w3.org/2000/svg" viewBox="0 0 41.86 38.13"><defs><style>.cls-1{fill:#dd2e44;}.cls-2{fill:#664500;}.cls-3{fill:#825d0e;}</style></defs><path class="cls-1" d="M13.47,30.62a1.51,1.51,0,0,1,0-1.6l4.39-6.65-6-5.14a1.49,1.49,0,0,1-.31-1.91l4.3-7.17a9.77,9.77,0,0,0-6-2.09A9.87,9.87,0,0,0,0,15.93a9.74,9.74,0,0,0,.27,2.24c1.37,8.51,10.83,17.49,17.62,20l.07,0Z"/><path class="cls-1" d="M25.9,6.06a9.8,9.8,0,0,0-7,3l-4.05,6.74,6,5.18a1.49,1.49,0,0,1,.28,2l-4.61,7,4.16,6.93C27,33.29,34.32,25.56,35.5,18.17a9.74,9.74,0,0,0,.27-2.24A9.87,9.87,0,0,0,25.9,6.06Z"/><path class="cls-2" d="M39.51,13.7a5.12,5.12,0,0,1-3.9-.89c.46-1,2.06-5,.44-6.16-1.42-1-2.4-.73-3.13-1.25s-.78-1.53-2.2-2.54C29.09,1.7,25.87,4.51,25,5.29a5.29,5.29,0,0,1-2.12-3.4c-.17-2.45-2.67-2.51-3-.21-.55,3.64,1.37,7.84,7.16,12S37.45,18.2,40.7,16.49C42.76,15.4,41.89,13.06,39.51,13.7Z"/><path class="cls-3" d="M34.61,7.42c-1.11-.79-1.9-.46-2.49-.89s-.55-1.28-1.66-2.06C29,3.41,25.55,7,25.55,7s-.2,1.87,3.19,4.28,5.1,1.62,5.1,1.62S36.09,8.47,34.61,7.42Z"/><path class="cls-2" d="M27.13,4.77s.38,2.05,3.3,4.13,5,1.77,5,1.77l-.84,1.18a7.87,7.87,0,0,1-5-1.76C26.75,8.07,26.28,6,26.28,6Z"/></svg>