<svg id="Layer_1" data-name="Layer 1" xmlns="http://www.w3.org/2000/svg" viewBox="0 0 39.86 35.16"><defs><style>.cls-1{fill:#dd2e44;}.cls-2{fill:#fdcb58;}.cls-3{fill:#664500;}.cls-4{fill:#825d0e;}</style></defs><path class="cls-1" d="M33.84,15.44A8.75,8.75,0,0,0,18,10.34,8.75,8.75,0,0,0,2.31,17.43C3.53,25,11.93,33,18,35.16,24,33,32.39,25,33.61,17.43A8.74,8.74,0,0,0,33.84,15.44Z"/><path class="cls-2" d="M1.46,10.72A1,1,0,0,1,1,10.61,1,1,0,0,1,.56,9.27c1-2,3.8-5.2,7.29-5.59a1,1,0,0,1,.22,2C5.39,6,3.14,8.58,2.35,10.16A1,1,0,0,1,1.46,10.72ZM1,5.3a1,1,0,0,1-.56-.17A1,1,0,0,1,.17,3.74a7.08,7.08,0,0,1,4.68-3,1,1,0,0,1,1.06.93A1,1,0,0,1,5,2.71,5.11,5.11,0,0,0,1.83,4.86,1,1,0,0,1,1,5.3Zm33.92,0a1,1,0,0,1-.83-.44,5.11,5.11,0,0,0-3.15-2.15A1,1,0,0,1,30,1.65,1,1,0,0,1,31.06.72a7.07,7.07,0,0,1,4.69,3,1,1,0,0,1-.27,1.39A1,1,0,0,1,34.92,5.3Z"/><path class="cls-3" d="M37.52,13.7a5.15,5.15,0,0,1-3.91-.89c.47-1,2.06-5,.44-6.16-1.42-1-2.4-.73-3.12-1.25s-.79-1.53-2.21-2.54C27.1,1.7,23.88,4.51,23,5.29a5.28,5.28,0,0,1-2.11-3.4c-.17-2.45-2.67-2.51-3-.21-.56,3.64,1.36,7.84,7.15,12s10.39,4.56,13.65,2.85C40.77,15.4,39.89,13.06,37.52,13.7Z"/><path class="cls-4" d="M32.62,7.42c-1.11-.79-1.91-.46-2.5-.89s-.54-1.28-1.65-2.06C27,3.41,23.55,7,23.55,7s-.19,1.87,3.2,4.28,5.09,1.62,5.09,1.62S34.1,8.47,32.62,7.42Z"/><path class="cls-3" d="M25.13,4.77s.38,2.05,3.3,4.13,5,1.77,5,1.77l-.84,1.18a7.87,7.87,0,0,1-5-1.76A7.88,7.88,0,0,1,24.29,6Z"/></svg>