<?xml version='1.0' encoding='ASCII' standalone='yes'?>
<svg xmlns="http://www.w3.org/2000/svg" xmlns:xlink="http://www.w3.org/1999/xlink" version="1.1" width="36.0px" viewBox="0 0 36.0 42.0" height="42.0px">
  <g>
    <g transform="translate(0, 6) scale(1 1) ">
      <path fill="#BDDDF4" d="M35 12c0-3.866-3.134-7-7-7-1.167 0-2.265.29-3.232.794-2.082-2.827-5.425-4.669-9.205-4.669-5.132 0-9.475 3.38-10.923 8.036C1.982 9.778 0 12.155 0 15c0 2.979 2.174 5.445 5.021 5.913C5.237 24.862 8.498 28 12.5 28c2.176 0 4.13-.933 5.5-2.413C19.37 27.067 21.323 28 23.5 28c4.143 0 7.5-3.357 7.5-7.5 0-.71-.105-1.394-.289-2.045C33.23 17.396 35 14.905 35 12z"/>
      <circle fill="#BDDDF4" cx="4" cy="31" r="3"/>
    </g>
    <g>
      <defs>
        <style>.cls-1{fill:#664500;}.cls-2{fill:#825d0e;}</style>
      </defs>
      <path class="cls-1" d="M32,6.13c-1.19,1.44-3.18,2-5.08,2.12C26.61,6.71,25.24,1,22.5,1,20.1,1,19.23,2.09,18,2.09S15.9,1,13.5,1C10.76,1,9.39,6.71,9.08,8.25,7.18,8.08,5.19,7.57,4,6.13,1.85,3.52-1,5.44.44,8.3,2.72,12.82,8.23,16,18,16s15.28-3.18,17.56-7.7C37,5.44,34.15,3.52,32,6.13Z" transform="translate(-0.05 -1)"/>
      <path class="cls-2" d="M21.5,3C19.63,3,19,4,18,4s-1.63-1-3.5-1C12,3,11,9.75,11,9.75S12.28,12,18,12s7-2.25,7-2.25S24,3,21.5,3Z" transform="translate(-0.05 -1)"/>
      <path class="cls-1" d="M11,6s2.07,2,7,2,7-2,7-2V8s-2.22,2-7,2-7-2-7-2Z" transform="translate(-0.05 -1)"/>
    </g>
  </g>
</svg>
