<?xml version='1.0' encoding='ASCII' standalone='yes'?>
<svg xmlns="http://www.w3.org/2000/svg" xmlns:xlink="http://www.w3.org/1999/xlink" version="1.1" width="36.0px" viewBox="0 0 36.0 42.0" height="42.0px">
  <g>
    <g transform="translate(0, 6) scale(1 1) ">
      <path fill="#FFAC33" d="M4 5C1.791 5 0 6.791 0 9v18c0 2.209 1.791 4 4 4h28c2.209 0 4-1.791 4-4V9s0-4-4-4H4z"/>
      <path fill="#292F33" d="M0 10h36v5H0z"/>
      <path fill="#F4F7F9" d="M4 19h28v6H4z"/>
      <path fill="#8899A6" d="M19 24c-1.703 0-2.341-1.21-2.469-1.801-.547.041-1.08.303-1.805.764C13.961 23.449 13.094 24 12 24c-1.197 0-1.924-.675-2-2-.003-.056.038-.188.021-.188-1.858 0-3.202 1.761-3.215 1.779-.195.267-.499.409-.806.409-.206 0-.413-.063-.591-.194-.445-.327-.542-.953-.215-1.398C5.271 22.303 7.11 20 10 20c1.937 0 2.048 1.375 2.078 1.888l.007.109c.486-.034.991-.354 1.57-.723.961-.61 2.153-1.371 3.75-.962.871.223 1.007 1.031 1.059 1.336.013.076.032.19.049.226.007 0 .146.091.577.13.82.075 1.721-.279 2.675-.653.988-.388 2.01-.788 3.111-.788 3.389 0 4.767 1.635 4.913 1.821.34.435.264 1.063-.171 1.403-.175.137-.381.207-.587.213-.307.009-.613-.123-.817-.384-.024-.027-.93-1.054-3.337-1.054-.723 0-1.528.315-2.381.649-1.009.396-2.434.789-3.496.789z"/>
    </g>
    <g>
      <defs>
        <style>.cls-1{fill:#664500;}.cls-2{fill:#825d0e;}</style>
      </defs>
      <path class="cls-1" d="M32,6.13c-1.19,1.44-3.18,2-5.08,2.12C26.61,6.71,25.24,1,22.5,1,20.1,1,19.23,2.09,18,2.09S15.9,1,13.5,1C10.76,1,9.39,6.71,9.08,8.25,7.18,8.08,5.19,7.57,4,6.13,1.85,3.52-1,5.44.44,8.3,2.72,12.82,8.23,16,18,16s15.28-3.18,17.56-7.7C37,5.44,34.15,3.52,32,6.13Z" transform="translate(-0.05 -1)"/>
      <path class="cls-2" d="M21.5,3C19.63,3,19,4,18,4s-1.63-1-3.5-1C12,3,11,9.75,11,9.75S12.28,12,18,12s7-2.25,7-2.25S24,3,21.5,3Z" transform="translate(-0.05 -1)"/>
      <path class="cls-1" d="M11,6s2.07,2,7,2,7-2,7-2V8s-2.22,2-7,2-7-2-7-2Z" transform="translate(-0.05 -1)"/>
    </g>
  </g>
</svg>
