<?xml version='1.0' encoding='ASCII' standalone='yes'?>
<svg xmlns="http://www.w3.org/2000/svg" xmlns:xlink="http://www.w3.org/1999/xlink" version="1.1" width="36.0px" viewBox="0 0 36.0 42.0" height="42.0px">
  <g>
    <g transform="translate(0, 6) scale(1 1) ">
      <path fill="#C1694F" d="M32 34c0 1.104-.896 2-2 2H6c-1.104 0-2-.896-2-2V7c0-1.104.896-2 2-2h24c1.104 0 2 .896 2 2v27z"/>
      <path fill="#FFF" d="M29 32c0 .553-.447 1-1 1H8c-.552 0-1-.447-1-1V9c0-.552.448-1 1-1h20c.553 0 1 .448 1 1v23z"/>
      <path fill="#CCD6DD" d="M25 3h-4c0-1.657-1.343-3-3-3s-3 1.343-3 3h-4c-1.104 0-2 .896-2 2v5h18V5c0-1.104-.896-2-2-2z"/>
      <circle fill="#292F33" cx="18" cy="3" r="2"/>
      <path fill="#99AAB5" d="M20 14c0 .552-.447 1-1 1h-9c-.552 0-1-.448-1-1s.448-1 1-1h9c.553 0 1 .448 1 1zm7 4c0 .552-.447 1-1 1H10c-.552 0-1-.448-1-1s.448-1 1-1h16c.553 0 1 .448 1 1zm0 4c0 .553-.447 1-1 1H10c-.552 0-1-.447-1-1 0-.553.448-1 1-1h16c.553 0 1 .447 1 1zm0 4c0 .553-.447 1-1 1H10c-.552 0-1-.447-1-1 0-.553.448-1 1-1h16c.553 0 1 .447 1 1zm0 4c0 .553-.447 1-1 1h-9c-.552 0-1-.447-1-1 0-.553.448-1 1-1h9c.553 0 1 .447 1 1z"/>
    </g>
    <g>
      <defs>
        <style>.cls-1{fill:#664500;}.cls-2{fill:#825d0e;}</style>
      </defs>
      <path class="cls-1" d="M32,6.13c-1.19,1.44-3.18,2-5.08,2.12C26.61,6.71,25.24,1,22.5,1,20.1,1,19.23,2.09,18,2.09S15.9,1,13.5,1C10.76,1,9.39,6.71,9.08,8.25,7.18,8.08,5.19,7.57,4,6.13,1.85,3.52-1,5.44.44,8.3,2.72,12.82,8.23,16,18,16s15.28-3.18,17.56-7.7C37,5.44,34.15,3.52,32,6.13Z" transform="translate(-0.05 -1)"/>
      <path class="cls-2" d="M21.5,3C19.63,3,19,4,18,4s-1.63-1-3.5-1C12,3,11,9.75,11,9.75S12.28,12,18,12s7-2.25,7-2.25S24,3,21.5,3Z" transform="translate(-0.05 -1)"/>
      <path class="cls-1" d="M11,6s2.07,2,7,2,7-2,7-2V8s-2.22,2-7,2-7-2-7-2Z" transform="translate(-0.05 -1)"/>
    </g>
  </g>
</svg>
