<?xml version='1.0' encoding='ASCII' standalone='yes'?>
<svg xmlns="http://www.w3.org/2000/svg" xmlns:xlink="http://www.w3.org/1999/xlink" version="1.1" width="36.0px" viewBox="0 0 36.0 42.0" height="42.0px">
  <g>
    <g transform="translate(0, 6) scale(1 1) ">
      <path fill="#BF6952" d="M28.736 28.767l-21.458.076-1.649 4.835c-.062.187-.101.387-.073.582.145.984.993 1.74 2.017 1.74h20.894c1.024 0 1.872-.756 2.017-1.74.029-.195-.01-.395-.073-.582l-1.675-4.911z"/>
      <path fill="#854836" d="M28.736 28.767l-.19-.556c-.199-.598-.759-1.001-1.389-1.001H8.883c-.63 0-1.19.403-1.389 1.001l-.216.632c2.928 2.344 6.636 3.754 10.678 3.754 4.088 0 7.837-1.438 10.78-3.83z"/>
      <circle fill="#AA8DD8" cx="17.956" cy="15.488" r="15.288"/>
      <circle fill="#744EAA" cx="23.266" cy="12.37" r="4.195"/>
      <circle fill="#744EAA" cx="14.875" cy="18.662" r="3.146"/>
      <circle fill="#744EAA" cx="15.924" cy="5.028" r="2.098"/>
    </g>
    <g>
      <defs>
        <style>.cls-1{fill:#664500;}.cls-2{fill:#825d0e;}</style>
      </defs>
      <path class="cls-1" d="M32,6.13c-1.19,1.44-3.18,2-5.08,2.12C26.61,6.71,25.24,1,22.5,1,20.1,1,19.23,2.09,18,2.09S15.9,1,13.5,1C10.76,1,9.39,6.71,9.08,8.25,7.18,8.08,5.19,7.57,4,6.13,1.85,3.52-1,5.44.44,8.3,2.72,12.82,8.23,16,18,16s15.28-3.18,17.56-7.7C37,5.44,34.15,3.52,32,6.13Z" transform="translate(-0.05 -1)"/>
      <path class="cls-2" d="M21.5,3C19.63,3,19,4,18,4s-1.63-1-3.5-1C12,3,11,9.75,11,9.75S12.28,12,18,12s7-2.25,7-2.25S24,3,21.5,3Z" transform="translate(-0.05 -1)"/>
      <path class="cls-1" d="M11,6s2.07,2,7,2,7-2,7-2V8s-2.22,2-7,2-7-2-7-2Z" transform="translate(-0.05 -1)"/>
    </g>
  </g>
</svg>
