<svg id="Layer_1" data-name="Layer 1" xmlns="http://www.w3.org/2000/svg" viewBox="0 0 35.9 41.22"><defs><style>.cls-1{fill:#f4900c;}.cls-2{fill:#ffcc4d;}.cls-3{fill:#664500;}.cls-4{fill:#825d0e;}</style></defs><path class="cls-1" d="M35,19a17.05,17.05,0,0,0-1-5.87c-.46,5.39-3.33,8.16-6.34,6.87-2.81-1.21-.91-5.92-.77-8.17C27,8,26.79,3.62,19.87,0c2.87,5.5.33,8.92-2.34,9.12-3,.24-5.66-2.54-4.66-7a7.69,7.69,0,0,0-2.34,9c1.05,2.71,0,5-2.58,5.21-2.84.28-4.42-3-3-8.33A17,17,0,1,0,35,19Z"/><path class="cls-2" d="M28.34,24c.15,3.08-2.56,4.29-4,3.71-2.1-.85-1.54-2.3-2.08-5.3a7.58,7.58,0,0,0-5.71-6c2.25,6.34-1.24,8.67-3.08,9.09s-3.75,0-4-4A12,12,0,0,0,6,30c0,.37,0,.73,0,1.09a17,17,0,0,0,23.89,0A9.82,9.82,0,0,0,30,30,11.83,11.83,0,0,0,28.34,24Z"/><path class="cls-3" d="M4,36.18A7.05,7.05,0,0,1,9,34c.32,1.54,1.75,7.23,4.49,7.21,2.4,0,3.26-1.13,4.49-1.14s2.11,1.07,4.51,1c2.74,0,4-5.75,4.34-7.29,1.91.15,3.9.63,5.11,2.06,2.17,2.59,5,.64,3.53-2.2-2.32-4.5-7.87-7.62-17.64-7.52S2.61,29.51.37,34.05C-1,36.93,1.83,38.82,4,36.18Z"/><path class="cls-4" d="M14.49,39.2c1.87,0,2.49-1,3.49-1s1.64,1,3.51,1c2.5,0,3.43-6.78,3.43-6.78s-1.3-2.24-7-2.18-7,2.32-7,2.32S12,39.23,14.49,39.2Z"/><path class="cls-3" d="M25,36.1s-2.09-2-7-1.93-7,2.07-7,2.07l0-2s2.2-2,7-2.07,7,1.93,7,1.93Z"/></svg>