<svg id="Layer_1" data-name="Layer 1" xmlns="http://www.w3.org/2000/svg" viewBox="0 0 36 44"><defs><style>.cls-1{fill:#ffcc4d;}.cls-2{fill:#664500;}.cls-3{fill:#fff;}.cls-4{fill:#825d0e;}</style></defs><path class="cls-1" d="M36,26A18,18,0,1,1,18,8,18,18,0,0,1,36,26"/><ellipse class="cls-2" cx="11.5" cy="20.5" rx="2.5" ry="5.5"/><ellipse class="cls-2" cx="24.5" cy="20.5" rx="2.5" ry="5.5"/><path class="cls-2" d="M18,30a42.19,42.19,0,0,1-9-1c-.68-.13-2,0-2,2,0,4,4.59,9,11,9s11-5,11-9c0-2-1.32-2.13-2-2A42.19,42.19,0,0,1,18,30Z"/><path class="cls-3" d="M9,31a31.39,31.39,0,0,0,9,1,31.39,31.39,0,0,0,9-1s-2,4-9,4S9,31,9,31Z"/><path class="cls-2" d="M32,5.13a7,7,0,0,1-5.08,2.12C26.61,5.71,25.24,0,22.5,0,20.1,0,19.23,1.09,18,1.09S15.9,0,13.5,0C10.76,0,9.39,5.71,9.08,7.25,7.18,7.08,5.19,6.57,4,5.13,1.85,2.52-1,4.44.44,7.3,2.72,11.82,8.23,15,18,15s15.28-3.18,17.56-7.7C37,4.44,34.15,2.52,32,5.13Z"/><path class="cls-4" d="M21.5,2C19.63,2,19,3,18,3s-1.63-1-3.5-1C12,2,11,8.75,11,8.75S12.28,11,18,11s7-2.25,7-2.25S24,2,21.5,2Z"/><path class="cls-2" d="M11,5s2.07,2,7,2,7-2,7-2V7s-2.22,2-7,2-7-2-7-2Z"/></svg>