<?xml version='1.0' encoding='ASCII' standalone='yes'?>
<svg xmlns="http://www.w3.org/2000/svg" xmlns:xlink="http://www.w3.org/1999/xlink" version="1.1" width="36.0px" viewBox="0 0 36.0 42.0" height="42.0px">
  <g>
    <g transform="translate(0, 6) scale(1 1) ">
      <path fill="#FFCC4D" d="M36 18c0 9.941-8.059 18-18 18-9.94 0-18-8.059-18-18C0 8.06 8.06 0 18 0c9.941 0 18 8.06 18 18"/>
      <path fill="#664500" d="M28.457 17.797c-.06-.135-1.499-3.297-4.457-3.297-2.957 0-4.397 3.162-4.457 3.297-.092.207-.032.449.145.591.175.142.426.147.61.014.012-.009 1.262-.902 3.702-.902 2.426 0 3.674.881 3.702.901.088.066.194.099.298.099.11 0 .221-.037.312-.109.177-.142.238-.386.145-.594zm-12 0c-.06-.135-1.499-3.297-4.457-3.297-2.957 0-4.397 3.162-4.457 3.297-.092.207-.032.449.144.591.176.142.427.147.61.014.013-.009 1.262-.902 3.703-.902 2.426 0 3.674.881 3.702.901.088.066.194.099.298.099.11 0 .221-.037.312-.109.178-.142.237-.386.145-.594zM31 16c-.396 0-.772-.238-.929-.629-1.778-4.445-6.223-5.381-6.268-5.391-.541-.108-.893-.635-.784-1.177.108-.542.635-.891 1.177-.784.226.045 5.556 1.168 7.732 6.608.205.513-.045 1.095-.558 1.3-.12.05-.246.073-.37.073zM5 16c-.124 0-.249-.023-.371-.072-.513-.205-.762-.787-.557-1.3 2.176-5.44 7.506-6.563 7.732-6.608.543-.106 1.068.243 1.177.784.108.54-.242 1.066-.781 1.176-.185.038-4.506.98-6.271 5.391-.157.391-.533.629-.929.629zm13 6c-3.623 0-6.027-.422-9-1-.679-.131-2 0-2 2 0 4 4.595 9 11 9 6.404 0 11-5 11-9 0-2-1.321-2.132-2-2-2.973.578-5.377 1-9 1z"/>
      <path fill="#FFF" d="M9 23s3 1 9 1 9-1 9-1-2 4-9 4-9-4-9-4z"/>
      <path fill="#5DADEC" d="M10.847 28.229c-.68 2.677-3.4 4.295-6.077 3.615-2.676-.679-4.295-3.399-3.616-6.076.679-2.677 6.337-8.708 7.307-8.462.97.247 3.065 8.247 2.386 10.923zm14.286 0c.68 2.677 3.4 4.295 6.077 3.615 2.677-.679 4.296-3.399 3.616-6.076-.68-2.677-6.338-8.708-7.308-8.462-.968.247-3.064 8.247-2.385 10.923z"/>
    </g>
    <g>
      <defs>
        <style>.cls-1{fill:#664500;}.cls-2{fill:#825d0e;}</style>
      </defs>
      <path class="cls-1" d="M32,6.13c-1.19,1.44-3.18,2-5.08,2.12C26.61,6.71,25.24,1,22.5,1,20.1,1,19.23,2.09,18,2.09S15.9,1,13.5,1C10.76,1,9.39,6.71,9.08,8.25,7.18,8.08,5.19,7.57,4,6.13,1.85,3.52-1,5.44.44,8.3,2.72,12.82,8.23,16,18,16s15.28-3.18,17.56-7.7C37,5.44,34.15,3.52,32,6.13Z" transform="translate(-0.05 -1)"/>
      <path class="cls-2" d="M21.5,3C19.63,3,19,4,18,4s-1.63-1-3.5-1C12,3,11,9.75,11,9.75S12.28,12,18,12s7-2.25,7-2.25S24,3,21.5,3Z" transform="translate(-0.05 -1)"/>
      <path class="cls-1" d="M11,6s2.07,2,7,2,7-2,7-2V8s-2.22,2-7,2-7-2-7-2Z" transform="translate(-0.05 -1)"/>
    </g>
  </g>
</svg>
