<?xml version='1.0' encoding='ASCII' standalone='yes'?>
<svg xmlns="http://www.w3.org/2000/svg" xmlns:xlink="http://www.w3.org/1999/xlink" version="1.1" width="36.0px" viewBox="0 0 36.0 42.0" height="42.0px">
  <g>
    <g transform="translate(0, 6) scale(1 1) ">
      <path fill="#FFCC4D" d="M36 18c0 9.941-8.059 18-18 18S0 27.941 0 18 8.059 0 18 0s18 8.059 18 18"/>
      <circle fill="#FF7892" cx="7" cy="18" r="5"/>
      <circle fill="#FF7892" cx="29" cy="18" r="5"/>
      <path fill="#664500" d="M27.335 21.629c-.178-.161-.444-.171-.635-.029-.039.029-3.922 2.9-8.7 2.9-4.766 0-8.662-2.871-8.7-2.9-.191-.142-.457-.13-.635.029-.177.16-.217.424-.094.628C8.7 22.472 11.788 27.5 18 27.5s9.301-5.028 9.429-5.243c.123-.205.084-.468-.094-.628zM7.999 15c-.15 0-.303-.034-.446-.106-.494-.247-.694-.848-.447-1.342C7.158 13.448 8.424 11 12 11c3.577 0 4.842 2.449 4.894 2.553.247.494.047 1.095-.447 1.342-.492.245-1.085.049-1.336-.436C15.068 14.379 14.281 13 12 13c-2.317 0-3.099 1.433-3.106 1.447-.175.351-.528.553-.895.553zm20.002 0c-.367 0-.72-.202-.896-.553C27.08 14.401 26.299 13 24 13s-3.08 1.401-3.112 1.46c-.26.481-.859.67-1.345.42-.485-.252-.682-.839-.438-1.328C19.157 13.449 20.423 11 24 11s4.843 2.449 4.895 2.553c.247.494.047 1.095-.447 1.342-.144.071-.297.105-.447.105z"/>
    </g>
    <g>
      <defs>
        <style>.cls-1{fill:#664500;}.cls-2{fill:#825d0e;}</style>
      </defs>
      <path class="cls-1" d="M32,6.13c-1.19,1.44-3.18,2-5.08,2.12C26.61,6.71,25.24,1,22.5,1,20.1,1,19.23,2.09,18,2.09S15.9,1,13.5,1C10.76,1,9.39,6.71,9.08,8.25,7.18,8.08,5.19,7.57,4,6.13,1.85,3.52-1,5.44.44,8.3,2.72,12.82,8.23,16,18,16s15.28-3.18,17.56-7.7C37,5.44,34.15,3.52,32,6.13Z" transform="translate(-0.05 -1)"/>
      <path class="cls-2" d="M21.5,3C19.63,3,19,4,18,4s-1.63-1-3.5-1C12,3,11,9.75,11,9.75S12.28,12,18,12s7-2.25,7-2.25S24,3,21.5,3Z" transform="translate(-0.05 -1)"/>
      <path class="cls-1" d="M11,6s2.07,2,7,2,7-2,7-2V8s-2.22,2-7,2-7-2-7-2Z" transform="translate(-0.05 -1)"/>
    </g>
  </g>
</svg>
