<svg id="Layer_1" data-name="Layer 1" xmlns="http://www.w3.org/2000/svg" viewBox="0 0 36 39.81"><defs><style>.cls-1{fill:#ffcc4d;}.cls-2{fill:#664500;}.cls-3{fill:#ffac33;}.cls-4{fill:#5dadec;}.cls-5{fill:#3b94d9;}.cls-6{fill:#825d0e;}</style></defs><circle class="cls-1" cx="18" cy="21.81" r="18"/><path class="cls-2" d="M27.33,26.44a.5.5,0,0,0-.63,0,16.26,16.26,0,0,1-8.7,2.9,16.3,16.3,0,0,1-8.7-2.9.5.5,0,0,0-.73.66A11.47,11.47,0,0,0,18,32.31a11.47,11.47,0,0,0,9.43-5.24A.5.5,0,0,0,27.33,26.44ZM26,22.81a1,1,0,0,1-.95-.68c-.2-.6-1-2.32-2.05-2.32S21.11,21.64,21,22.13a1,1,0,0,1-1.9-.63c.13-.38,1.3-3.69,3.95-3.69S26.82,21.12,27,21.5a1,1,0,0,1-.63,1.26A.93.93,0,0,1,26,22.81Zm-10,0a1,1,0,0,1-.95-.68c-.2-.6-1-2.32-2.05-2.32S11.11,21.64,11,22.13a1,1,0,0,1-1.9-.63c.13-.38,1.3-3.69,3.95-3.69S16.82,21.12,17,21.5a1,1,0,0,1-.63,1.26A.93.93,0,0,1,16,22.81Z"/><path class="cls-3" d="M33.17,12.13s-9,.16-15.17.16c-3.9,0-15.21-.12-15.21-.12l-.52.88C5.32,14.91,11.34,16,18,16s12.58-1,15.65-2.86l.08,0S33.36,12.4,33.17,12.13Z"/><path class="cls-4" d="M23.78,4.16C22.57,4.07,21.3,4,20,4c-.66,0-1.32,0-2,0s-1.34,0-2,0c-1.31,0-2.57.09-3.78.19C5.34,4.69.17,6.27.17,9.1c0,3.59,8.26,5.77,17.83,5.77S35.83,12.69,35.83,9.1C35.83,6.27,30.66,4.7,23.78,4.16ZM18,11.2c-6.86,0-12.91-.84-12.91-2.74,0-.53.49-1,1.34-1.45a17.93,17.93,0,0,1,5.19-1.35A48.08,48.08,0,0,1,18,5.25a46.56,46.56,0,0,1,6.4.42A17.5,17.5,0,0,1,29.63,7c.81.42,1.28.9,1.28,1.42C30.91,10.36,24.86,11.2,18,11.2Z"/><path class="cls-5" d="M24.4,5.67A17.5,17.5,0,0,1,29.63,7l.06,0a18.19,18.19,0,0,0-5.91-2.9C22.57,4.07,21.3,4,20,4h0ZM6.43,7a17.93,17.93,0,0,1,5.19-1.35L16,4h0c-1.31,0-2.57.09-3.78.19a18.21,18.21,0,0,0-5.92,2.9Z"/><path class="cls-1" d="M28.47,7.19c-.66-.44-1.34-.91-2-1.26A18,18,0,0,0,9.86,5.76,6.25,6.25,0,0,0,7.69,7.19Z"/><path class="cls-2" d="M28.29,3.77a5.16,5.16,0,0,1-3.73,1.56C24.33,4.2,23.32,0,21.31,0,19.54,0,18.9.8,18,.8S16.46,0,14.69,0c-2,0-3,4.2-3.25,5.33A5.28,5.28,0,0,1,7.71,3.77C6.13,1.85,4,3.26,5.09,5.37,6.77,8.69,10.82,11,18,11S29.23,8.69,30.91,5.37C32,3.26,29.87,1.85,28.29,3.77Z"/><path class="cls-6" d="M20.57,1.47c-1.37,0-1.83.74-2.57.74s-1.2-.74-2.57-.74c-1.84,0-2.58,5-2.58,5S13.79,8.09,18,8.09s5.15-1.66,5.15-1.66S22.41,1.47,20.57,1.47Z"/><path class="cls-2" d="M12.85,3.68S14.38,5.15,18,5.15s5.15-1.47,5.15-1.47V5.15A8,8,0,0,1,18,6.62a8,8,0,0,1-5.15-1.47Z"/></svg>