<?xml version='1.0' encoding='ASCII' standalone='yes'?>
<svg xmlns="http://www.w3.org/2000/svg" xmlns:xlink="http://www.w3.org/1999/xlink" version="1.1" width="36.0px" viewBox="0 0 36.0 42.0" height="42.0px">
  <g>
    <g transform="translate(0, 6) scale(1 1) ">
      <path fill="#FFCC4D" d="M36 18c0 9.941-8.059 18-18 18S0 27.941 0 18 8.059 0 18 0s18 8.059 18 18"/>
      <path fill="#664500" d="M24.327 23.622c-.153-.132-.368-.159-.551-.069l-4 2c-1.871.935-6.727.947-6.776.947-.276 0-.5.224-.5.5 0 .185.101.347.25.433v.001h.001v.001c.071.04.153.063.24.065h7.008c2.658 0 4.089-2.185 4.475-3.342.064-.192.006-.403-.147-.536zM31.001 16c-.305 0-.604-.138-.801-.4-2.641-3.521-6.061-3.599-6.206-3.6-.55-.006-.994-.456-.991-1.005.003-.551.447-.995.997-.995.184 0 4.537.05 7.8 4.4.332.442.242 1.069-.2 1.4-.18.135-.39.2-.599.2zM4.999 16c-.208 0-.419-.065-.599-.2-.442-.331-.531-.958-.2-1.4C7.462 10.05 11.816 10 12 10c.552 0 1 .448 1 1 0 .551-.445.998-.996 1-.156.002-3.569.086-6.205 3.6-.195.262-.496.4-.8.4zm10.898 1.396c.023-.052.059-.096.073-.154.134-.536-.192-1.079-.727-1.213-.18-.045-4.467-1.08-7.797 1.138-.459.306-.583.927-.277 1.387.192.29.509.446.832.446.19 0 .383-.055.554-.168 1.092-.729 2.362-.995 3.468-1.061-.009.076-.023.151-.023.229 0 1.104.896 2 2 2s2-.896 2-2c0-.212-.042-.412-.103-.604zm11.999-.001c.023-.052.059-.095.073-.152.135-.536-.191-1.079-.727-1.213-.18-.045-4.466-1.08-7.797 1.138-.46.306-.584.927-.277 1.387.192.289.51.445.833.445.19 0 .383-.055.554-.168 1.092-.729 2.361-.994 3.469-1.06-.009.076-.024.15-.024.228 0 1.104.896 2 2 2s2-.896 2-2c0-.212-.042-.413-.104-.605z"/>
    </g>
    <g>
      <defs>
        <style>.cls-1{fill:#664500;}.cls-2{fill:#825d0e;}</style>
      </defs>
      <path class="cls-1" d="M32,6.13c-1.19,1.44-3.18,2-5.08,2.12C26.61,6.71,25.24,1,22.5,1,20.1,1,19.23,2.09,18,2.09S15.9,1,13.5,1C10.76,1,9.39,6.71,9.08,8.25,7.18,8.08,5.19,7.57,4,6.13,1.85,3.52-1,5.44.44,8.3,2.72,12.82,8.23,16,18,16s15.28-3.18,17.56-7.7C37,5.44,34.15,3.52,32,6.13Z" transform="translate(-0.05 -1)"/>
      <path class="cls-2" d="M21.5,3C19.63,3,19,4,18,4s-1.63-1-3.5-1C12,3,11,9.75,11,9.75S12.28,12,18,12s7-2.25,7-2.25S24,3,21.5,3Z" transform="translate(-0.05 -1)"/>
      <path class="cls-1" d="M11,6s2.07,2,7,2,7-2,7-2V8s-2.22,2-7,2-7-2-7-2Z" transform="translate(-0.05 -1)"/>
    </g>
  </g>
</svg>
