<?xml version='1.0' encoding='ASCII' standalone='yes'?>
<svg xmlns="http://www.w3.org/2000/svg" xmlns:xlink="http://www.w3.org/1999/xlink" version="1.1" width="36.0px" viewBox="0 0 36.0 42.0" height="42.0px">
  <g>
    <g transform="translate(0, 6) scale(1 1) ">
      <path fill="#FFCC4D" d="M36 18c0 9.941-8.059 18-18 18S0 27.941 0 18 8.059 0 18 0s18 8.059 18 18"/>
      <path fill-rule="evenodd" clip-rule="evenodd" fill="#292F33" d="M1.24 11.018c.24.239 1.438.957 1.677 1.675.24.717.72 4.784 2.158 5.981 1.483 1.232 7.077.774 8.148.24 2.397-1.195 2.691-4.531 3.115-6.221.239-.957 1.677-.957 1.677-.957s1.438 0 1.678.956c.424 1.691.72 5.027 3.115 6.221 1.072.535 6.666.994 8.151-.238 1.436-1.197 1.915-5.264 2.155-5.982.238-.717 1.438-1.435 1.677-1.674.241-.239.241-1.196 0-1.436-.479-.478-6.134-.904-12.223-.239-1.215.133-1.677.478-4.554.478-2.875 0-3.339-.346-4.553-.478-6.085-.666-11.741-.24-12.221.238-.239.239-.239 1.197 0 1.436z"/>
      <path fill="#664500" d="M27.335 23.629c-.178-.161-.444-.171-.635-.029-.039.029-3.922 2.9-8.7 2.9-4.766 0-8.662-2.871-8.7-2.9-.191-.142-.457-.13-.635.029-.177.16-.217.424-.094.628C8.7 24.472 11.788 29.5 18 29.5s9.301-5.028 9.429-5.243c.123-.205.084-.468-.094-.628z"/>
    </g>
    <g>
      <defs>
        <style>.cls-1{fill:#664500;}.cls-2{fill:#825d0e;}</style>
      </defs>
      <path class="cls-1" d="M32,6.13c-1.19,1.44-3.18,2-5.08,2.12C26.61,6.71,25.24,1,22.5,1,20.1,1,19.23,2.09,18,2.09S15.9,1,13.5,1C10.76,1,9.39,6.71,9.08,8.25,7.18,8.08,5.19,7.57,4,6.13,1.85,3.52-1,5.44.44,8.3,2.72,12.82,8.23,16,18,16s15.28-3.18,17.56-7.7C37,5.44,34.15,3.52,32,6.13Z" transform="translate(-0.05 -1)"/>
      <path class="cls-2" d="M21.5,3C19.63,3,19,4,18,4s-1.63-1-3.5-1C12,3,11,9.75,11,9.75S12.28,12,18,12s7-2.25,7-2.25S24,3,21.5,3Z" transform="translate(-0.05 -1)"/>
      <path class="cls-1" d="M11,6s2.07,2,7,2,7-2,7-2V8s-2.22,2-7,2-7-2-7-2Z" transform="translate(-0.05 -1)"/>
    </g>
  </g>
</svg>
