<?xml version='1.0' encoding='ASCII' standalone='yes'?>
<svg xmlns="http://www.w3.org/2000/svg" xmlns:xlink="http://www.w3.org/1999/xlink" version="1.1" width="36.0px" viewBox="0 0 36.0 42.0" height="42.0px">
  <g>
    <g transform="translate(0, 6) scale(1 1) ">
      <circle fill="#FFCC4D" cx="18" cy="18" r="18"/>
      <path fill="#664500" d="M6.999 17c-.15 0-.303-.034-.446-.105-.494-.247-.694-.848-.447-1.342C6.158 15.448 7.424 13 11 13c3.577 0 4.842 2.449 4.894 2.553.247.494.046 1.095-.447 1.342-.491.247-1.085.049-1.336-.436C14.067 16.378 13.28 15 11 15c-2.317 0-3.099 1.433-3.106 1.447-.175.351-.528.553-.895.553zM29 17c.15 0 .303-.034.446-.105.494-.247.694-.848.447-1.342-.052-.105-1.318-2.553-4.894-2.553-3.577 0-4.842 2.449-4.894 2.553-.247.494-.046 1.095.447 1.342.491.247 1.085.049 1.336-.436.044-.081.831-1.459 3.111-1.459 2.317 0 3.099 1.433 3.106 1.447.175.351.528.553.895.553zm.503 6.52c.323-.749.461-1.257.466-1.277.134-.534-.19-1.075-.725-1.21-.536-.136-1.077.188-1.215.723C27.955 22.051 26.081 29 18 29s-9.955-6.949-10.03-7.245c-.138-.534-.679-.858-1.215-.723-.534.135-.858.676-.725 1.21C6.052 22.33 8.331 31 18 31c1.65 0 3.07-.266 4.315-.685 4.33-1.458 6.374-4.91 7.188-6.795z"/>
      <path fill="#E75B70" d="M32.407 26.681l-2.956-3.051s-.68-.438-1.273.568c-.78 1.322-2.075 2.935-3.934 4.171-.781.519-2.139 1.189-2.697 1.318-.735.169-.388.964-.388.964.585-.127 1.051-.301 1.051-.301l.296.296 2.726 2.726c1.728 1.728 5 2 7 0s1.904-4.962.175-6.691z"/>
      <path fill="#DE3146" d="M29.915 31.074c.213-.213.213-.558 0-.771l-3.629-3.629-.796.748 3.653 3.653c.213.212.559.212.772-.001z"/>
    </g>
    <g>
      <defs>
        <style>.cls-1{fill:#664500;}.cls-2{fill:#825d0e;}</style>
      </defs>
      <path class="cls-1" d="M32,6.13c-1.19,1.44-3.18,2-5.08,2.12C26.61,6.71,25.24,1,22.5,1,20.1,1,19.23,2.09,18,2.09S15.9,1,13.5,1C10.76,1,9.39,6.71,9.08,8.25,7.18,8.08,5.19,7.57,4,6.13,1.85,3.52-1,5.44.44,8.3,2.72,12.82,8.23,16,18,16s15.28-3.18,17.56-7.7C37,5.44,34.15,3.52,32,6.13Z" transform="translate(-0.05 -1)"/>
      <path class="cls-2" d="M21.5,3C19.63,3,19,4,18,4s-1.63-1-3.5-1C12,3,11,9.75,11,9.75S12.28,12,18,12s7-2.25,7-2.25S24,3,21.5,3Z" transform="translate(-0.05 -1)"/>
      <path class="cls-1" d="M11,6s2.07,2,7,2,7-2,7-2V8s-2.22,2-7,2-7-2-7-2Z" transform="translate(-0.05 -1)"/>
    </g>
  </g>
</svg>
