<?xml version='1.0' encoding='ASCII' standalone='yes'?>
<svg xmlns="http://www.w3.org/2000/svg" xmlns:xlink="http://www.w3.org/1999/xlink" version="1.1" width="36.0px" viewBox="0 0 36.0 42.0" height="42.0px">
  <g>
    <g transform="translate(0, 6) scale(1 1) ">
      <path fill="#FFCC4D" d="M36 18c0 9.941-8.059 18-18 18S0 27.941 0 18 8.059 0 18 0s18 8.059 18 18"/>
      <circle fill="#FF7892" cx="7" cy="21" r="5"/>
      <circle fill="#FF7892" cx="29" cy="21" r="5"/>
      <path fill="#664500" d="M28.416 17.723C28.355 17.632 26.901 15.5 24 15.5c-2.9 0-4.355 2.132-4.416 2.223-.135.202-.104.47.071.638.174.167.446.185.643.042.012-.01 1.262-.903 3.702-.903 2.426 0 3.674.881 3.702.901.089.066.194.099.298.099.124 0 .248-.046.344-.137.177-.167.207-.438.072-.64zM12 15.5c-2.9 0-4.355 2.132-4.416 2.223-.134.202-.104.47.071.638.175.167.447.185.642.042.013-.01 1.262-.903 3.703-.903 2.426 0 3.674.881 3.702.901.089.066.194.099.298.099.124 0 .248-.046.344-.137.177-.167.208-.438.072-.641-.061-.09-1.515-2.222-4.416-2.222zM21.871 27c1.335-.412 2.629-1.156 2.629-2.5 0-2.619-4.912-2.968-5.473-2.999-.277-.036-.51.194-.526.468-.017.274.19.511.464.53.035.002 3.535.299 3.535 2.001s-3.5 1.999-3.535 2.001c-.01.001-.017.006-.026.007-.124.008-.23.065-.31.159l-.015.021c-.029.039-.055.078-.073.125-.011.027-.016.057-.021.086-.005.024-.017.046-.019.07-.001.01.004.02.004.031s-.005.021-.004.031c.002.025.013.046.019.07.006.029.011.059.022.087.013.032.032.06.051.088.017.023.03.047.05.067.023.024.052.043.081.062.024.017.045.033.071.046.031.015.065.021.101.027.023.006.044.018.069.02.035.003 3.535.3 3.535 2.002s-3.5 1.999-3.535 2.001c-.273.02-.481.257-.464.53.017.265.236.469.499.469l.027-.001c.561-.031 5.473-.38 5.473-2.999 0-1.344-1.294-2.088-2.629-2.5zm9.13-11c-.305 0-.604-.138-.801-.4-2.641-3.521-6.061-3.599-6.206-3.6-.55-.006-.994-.456-.991-1.005.003-.551.447-.995.997-.995.184 0 4.537.05 7.8 4.4.332.442.242 1.069-.2 1.4-.18.135-.39.2-.599.2zM4.999 16c-.208 0-.419-.065-.599-.2-.442-.331-.531-.958-.2-1.4C7.462 10.05 11.816 10 12 10c.552 0 1 .448 1 1 0 .551-.445.998-.996 1-.156.002-3.569.086-6.205 3.6-.195.262-.496.4-.8.4z"/>
    </g>
    <g>
      <defs>
        <style>.cls-1{fill:#664500;}.cls-2{fill:#825d0e;}</style>
      </defs>
      <path class="cls-1" d="M32,6.13c-1.19,1.44-3.18,2-5.08,2.12C26.61,6.71,25.24,1,22.5,1,20.1,1,19.23,2.09,18,2.09S15.9,1,13.5,1C10.76,1,9.39,6.71,9.08,8.25,7.18,8.08,5.19,7.57,4,6.13,1.85,3.52-1,5.44.44,8.3,2.72,12.82,8.23,16,18,16s15.28-3.18,17.56-7.7C37,5.44,34.15,3.52,32,6.13Z" transform="translate(-0.05 -1)"/>
      <path class="cls-2" d="M21.5,3C19.63,3,19,4,18,4s-1.63-1-3.5-1C12,3,11,9.75,11,9.75S12.28,12,18,12s7-2.25,7-2.25S24,3,21.5,3Z" transform="translate(-0.05 -1)"/>
      <path class="cls-1" d="M11,6s2.07,2,7,2,7-2,7-2V8s-2.22,2-7,2-7-2-7-2Z" transform="translate(-0.05 -1)"/>
    </g>
  </g>
</svg>
