<?xml version='1.0' encoding='ASCII' standalone='yes'?>
<svg xmlns="http://www.w3.org/2000/svg" xmlns:xlink="http://www.w3.org/1999/xlink" version="1.1" width="36.0px" viewBox="0 0 36.0 42.0" height="42.0px">
  <g>
    <g transform="translate(0, 6) scale(1 1) ">
      <path fill="#FFCC4D" d="M36 18c0 9.941-8.059 18-18 18-9.94 0-18-8.059-18-18C0 8.06 8.06 0 18 0c9.941 0 18 8.06 18 18"/>
      <path fill="#664500" d="M25.485 27.879C25.44 27.7 24.317 23.5 18 23.5c-6.318 0-7.44 4.2-7.485 4.379-.055.217.043.442.237.554.195.111.439.078.6-.077.019-.019 1.954-1.856 6.648-1.856s6.63 1.837 6.648 1.855c.096.095.224.145.352.145.084 0 .169-.021.246-.064.196-.112.294-.339.239-.557zM29.001 14c-.305 0-.604-.138-.801-.4-2.432-3.244-6.514-.846-6.686-.743-.475.285-1.089.13-1.372-.343-.284-.474-.131-1.088.343-1.372 1.998-1.199 6.514-2.477 9.314 1.257.332.442.242 1.069-.2 1.4-.179.136-.389.201-.598.201zM6.999 14c-.208 0-.419-.065-.599-.2-.442-.331-.531-.958-.2-1.4 2.801-3.734 7.317-2.456 9.314-1.257.474.284.627.898.343 1.372-.284.473-.896.628-1.37.344-.179-.106-4.274-2.475-6.688.742-.195.261-.496.399-.8.399zM29 16c0-.552-.447-1-1-1h-7c-.553 0-1 .448-1 1s.447 1 1 1h5.092c.207.581.756 1 1.408 1 .828 0 1.5-.671 1.5-1.5 0-.11-.014-.217-.036-.321.012-.06.036-.116.036-.179zm-13 0c0-.552-.448-1-1-1H8c-.552 0-1 .448-1 1s.448 1 1 1h5.092c.207.581.756 1 1.408 1 .828 0 1.5-.671 1.5-1.5 0-.11-.014-.217-.036-.321.011-.06.036-.116.036-.179z"/>
    </g>
    <g>
      <defs>
        <style>.cls-1{fill:#664500;}.cls-2{fill:#825d0e;}</style>
      </defs>
      <path class="cls-1" d="M32,6.13c-1.19,1.44-3.18,2-5.08,2.12C26.61,6.71,25.24,1,22.5,1,20.1,1,19.23,2.09,18,2.09S15.9,1,13.5,1C10.76,1,9.39,6.71,9.08,8.25,7.18,8.08,5.19,7.57,4,6.13,1.85,3.52-1,5.44.44,8.3,2.72,12.82,8.23,16,18,16s15.28-3.18,17.56-7.7C37,5.44,34.15,3.52,32,6.13Z" transform="translate(-0.05 -1)"/>
      <path class="cls-2" d="M21.5,3C19.63,3,19,4,18,4s-1.63-1-3.5-1C12,3,11,9.75,11,9.75S12.28,12,18,12s7-2.25,7-2.25S24,3,21.5,3Z" transform="translate(-0.05 -1)"/>
      <path class="cls-1" d="M11,6s2.07,2,7,2,7-2,7-2V8s-2.22,2-7,2-7-2-7-2Z" transform="translate(-0.05 -1)"/>
    </g>
  </g>
</svg>
