<?xml version='1.0' encoding='ASCII' standalone='yes'?>
<svg xmlns="http://www.w3.org/2000/svg" xmlns:xlink="http://www.w3.org/1999/xlink" version="1.1" width="36.0px" viewBox="0 0 36.0 42.0" height="42.0px">
  <g>
    <g transform="translate(0, 6) scale(1 1) ">
      <circle fill="#FFCC4D" cx="18" cy="18" r="18"/>
      <path fill="#664500" d="M23.485 28.879C23.474 28.835 22.34 24.5 18 24.5s-5.474 4.335-5.485 4.379c-.053.213.044.431.232.544.188.112.433.086.596-.06.009-.008 1.013-.863 4.657-.863 3.59 0 4.617.83 4.656.863.095.09.219.137.344.137.084 0 .169-.021.246-.064.196-.112.294-.339.239-.557zM11.226 15.512c-.317 0-.636.039-.947.116-2.87.707-3.513 4.121-3.539 4.267-.04.223.076.443.281.54.067.031.14.047.211.047.145 0 .287-.063.385-.18.01-.012 1.01-1.178 3.379-1.761.714-.176 1.412-.265 2.073-.265 1.104 0 1.732.253 1.735.254.067.028.131.04.207.04.272.012.509-.221.509-.5 0-.165-.08-.311-.203-.402-.367-.435-1.953-2.156-4.091-2.156zm13.548 0c.317 0 .636.039.947.116 2.87.707 3.513 4.121 3.539 4.267.04.223-.076.443-.281.54-.067.031-.14.047-.211.047-.145 0-.287-.063-.385-.18-.01-.012-1.01-1.178-3.379-1.761-.714-.176-1.412-.265-2.073-.265-1.104 0-1.731.253-1.735.254-.067.028-.131.04-.206.04-.272.012-.509-.221-.509-.5 0-.165.08-.311.203-.402.366-.435 1.952-2.156 4.09-2.156z"/>
    </g>
    <g>
      <defs>
        <style>.cls-1{fill:#664500;}.cls-2{fill:#825d0e;}</style>
      </defs>
      <path class="cls-1" d="M32,6.13c-1.19,1.44-3.18,2-5.08,2.12C26.61,6.71,25.24,1,22.5,1,20.1,1,19.23,2.09,18,2.09S15.9,1,13.5,1C10.76,1,9.39,6.71,9.08,8.25,7.18,8.08,5.19,7.57,4,6.13,1.85,3.52-1,5.44.44,8.3,2.72,12.82,8.23,16,18,16s15.28-3.18,17.56-7.7C37,5.44,34.15,3.52,32,6.13Z" transform="translate(-0.05 -1)"/>
      <path class="cls-2" d="M21.5,3C19.63,3,19,4,18,4s-1.63-1-3.5-1C12,3,11,9.75,11,9.75S12.28,12,18,12s7-2.25,7-2.25S24,3,21.5,3Z" transform="translate(-0.05 -1)"/>
      <path class="cls-1" d="M11,6s2.07,2,7,2,7-2,7-2V8s-2.22,2-7,2-7-2-7-2Z" transform="translate(-0.05 -1)"/>
    </g>
  </g>
</svg>
