<?xml version='1.0' encoding='ASCII' standalone='yes'?>
<svg xmlns="http://www.w3.org/2000/svg" xmlns:xlink="http://www.w3.org/1999/xlink" version="1.1" width="36.0px" viewBox="0 0 36.0 42.0" height="42.0px">
  <g>
    <g transform="translate(0, 6) scale(1 1) ">
      <path fill="#FFCC4D" d="M36 18c0 9.941-8.059 18-18 18S0 27.941 0 18 8.059 0 18 0s18 8.059 18 18"/>
      <path fill="#664500" d="M22 27c0 2.763-1.791 3-4 3-2.21 0-4-.237-4-3 0-2.761 1.79-6 4-6 2.209 0 4 3.239 4 6zm8-12c-.124 0-.25-.023-.371-.072-5.229-2.091-7.372-5.241-7.461-5.374-.307-.46-.183-1.081.277-1.387.459-.306 1.077-.184 1.385.274.019.027 1.93 2.785 6.541 4.629.513.206.763.787.558 1.3-.157.392-.533.63-.929.63zM6 15c-.397 0-.772-.238-.929-.629-.205-.513.044-1.095.557-1.3 4.612-1.844 6.523-4.602 6.542-4.629.308-.456.929-.577 1.387-.27.457.308.581.925.275 1.383-.089.133-2.232 3.283-7.46 5.374C6.25 14.977 6.124 15 6 15z"/>
      <path fill="#5DADEC" d="M24 16h4v19l-4-.046V16zM8 35l4-.046V16H8v19z"/>
      <path fill="#664500" d="M14.999 18c-.15 0-.303-.034-.446-.105-3.512-1.756-7.07-.018-7.105 0-.495.249-1.095.046-1.342-.447-.247-.494-.047-1.095.447-1.342.182-.09 4.498-2.197 8.895 0 .494.247.694.848.447 1.342-.176.35-.529.552-.896.552zm14 0c-.15 0-.303-.034-.446-.105-3.513-1.756-7.07-.018-7.105 0-.494.248-1.094.047-1.342-.447-.247-.494-.047-1.095.447-1.342.182-.09 4.501-2.196 8.895 0 .494.247.694.848.447 1.342-.176.35-.529.552-.896.552z"/>
      <ellipse fill="#5DADEC" cx="18" cy="34" rx="18" ry="2"/>
      <ellipse fill="#E75A70" cx="18" cy="27" rx="3" ry="2"/>
    </g>
    <g>
      <defs>
        <style>.cls-1{fill:#664500;}.cls-2{fill:#825d0e;}</style>
      </defs>
      <path class="cls-1" d="M32,6.13c-1.19,1.44-3.18,2-5.08,2.12C26.61,6.71,25.24,1,22.5,1,20.1,1,19.23,2.09,18,2.09S15.9,1,13.5,1C10.76,1,9.39,6.71,9.08,8.25,7.18,8.08,5.19,7.57,4,6.13,1.85,3.52-1,5.44.44,8.3,2.72,12.82,8.23,16,18,16s15.28-3.18,17.56-7.7C37,5.44,34.15,3.52,32,6.13Z" transform="translate(-0.05 -1)"/>
      <path class="cls-2" d="M21.5,3C19.63,3,19,4,18,4s-1.63-1-3.5-1C12,3,11,9.75,11,9.75S12.28,12,18,12s7-2.25,7-2.25S24,3,21.5,3Z" transform="translate(-0.05 -1)"/>
      <path class="cls-1" d="M11,6s2.07,2,7,2,7-2,7-2V8s-2.22,2-7,2-7-2-7-2Z" transform="translate(-0.05 -1)"/>
    </g>
  </g>
</svg>
