<?xml version='1.0' encoding='ASCII' standalone='yes'?>
<svg xmlns="http://www.w3.org/2000/svg" xmlns:xlink="http://www.w3.org/1999/xlink" version="1.1" width="36.0px" viewBox="0 0 36.0 42.0" height="42.0px">
  <g>
    <g transform="translate(0, 6) scale(1 1) ">
      <path fill="#FFCC4D" d="M36 18c0 9.941-8.059 18-18 18-9.94 0-18-8.059-18-18C0 8.06 8.06 0 18 0c9.941 0 18 8.06 18 18"/>
      <path fill="#BDDDF4" d="M18 11c8.749 0 16.033 4.509 17.656 10.484.222-1.128.344-2.292.344-3.484 0-9.94-8.059-18-18-18C8.06 0 0 8.06 0 18c0 1.192.123 2.356.344 3.484C1.967 15.509 9.252 11 18 11z"/>
      <ellipse fill="#664500" cx="11.5" cy="16.5" rx="2.5" ry="3.5"/>
      <ellipse fill="#664500" cx="24.5" cy="16.5" rx="2.5" ry="3.5"/>
      <path fill="#664500" d="M5.999 12c-.208 0-.419-.065-.599-.2-.442-.331-.531-.958-.2-1.4C8.462 6.05 12.816 6 13 6c.552 0 1 .448 1 1 0 .551-.445.998-.996 1-.155.002-3.568.086-6.204 3.6-.196.262-.497.4-.801.4zm24.002 0c-.305 0-.604-.138-.801-.4-2.64-3.521-6.061-3.598-6.206-3.6-.55-.006-.994-.456-.991-1.005C22.006 6.444 22.45 6 23 6c.184 0 4.537.05 7.8 4.4.332.442.242 1.069-.2 1.4-.18.135-.39.2-.599.2zm-6.516 15.879C23.474 27.835 22.34 23.5 18 23.5s-5.474 4.335-5.485 4.379c-.053.213.043.431.231.544.187.112.433.086.596-.06.011-.008 1.015-.863 4.658-.863 3.589 0 4.617.83 4.656.863.095.09.219.137.344.137.084 0 .169-.021.246-.064.196-.112.294-.339.239-.557z"/>
    </g>
    <g>
      <defs>
        <style>.cls-1{fill:#664500;}.cls-2{fill:#825d0e;}</style>
      </defs>
      <path class="cls-1" d="M32,6.13c-1.19,1.44-3.18,2-5.08,2.12C26.61,6.71,25.24,1,22.5,1,20.1,1,19.23,2.09,18,2.09S15.9,1,13.5,1C10.76,1,9.39,6.71,9.08,8.25,7.18,8.08,5.19,7.57,4,6.13,1.85,3.52-1,5.44.44,8.3,2.72,12.82,8.23,16,18,16s15.28-3.18,17.56-7.7C37,5.44,34.15,3.52,32,6.13Z" transform="translate(-0.05 -1)"/>
      <path class="cls-2" d="M21.5,3C19.63,3,19,4,18,4s-1.63-1-3.5-1C12,3,11,9.75,11,9.75S12.28,12,18,12s7-2.25,7-2.25S24,3,21.5,3Z" transform="translate(-0.05 -1)"/>
      <path class="cls-1" d="M11,6s2.07,2,7,2,7-2,7-2V8s-2.22,2-7,2-7-2-7-2Z" transform="translate(-0.05 -1)"/>
    </g>
  </g>
</svg>
