<svg id="Layer_1" data-name="Layer 1" xmlns="http://www.w3.org/2000/svg" viewBox="0 0 36.45 40.79"><defs><style>.cls-1{fill:#ffcc4d;}.cls-2{fill:#664500;}.cls-3{fill:#ffac33;}.cls-4{fill:#825d0e;}.cls-5{fill:#2a6797;}</style></defs><circle class="cls-1" cx="18.45" cy="22.79" r="18"/><circle class="cls-2" cx="18.45" cy="30.79" r="3"/><path class="cls-2" d="M17.76,21.4a.51.51,0,0,0-.61,0,6.66,6.66,0,0,1-3.7.9,6.66,6.66,0,0,1-3.7-.9A.5.5,0,0,0,9,22c.06.14,1.5,3.3,4.46,3.3s4.4-3.16,4.46-3.3A.5.5,0,0,0,17.76,21.4Zm10,0a.5.5,0,0,0-.61,0,6.66,6.66,0,0,1-3.7.9,6.66,6.66,0,0,1-3.7-.9A.5.5,0,0,0,19,22c.06.14,1.5,3.3,4.46,3.3s4.4-3.16,4.46-3.3A.5.5,0,0,0,27.76,21.4Z"/><path class="cls-3" d="M34.88,17.33s0-.08,0-.13A1.15,1.15,0,0,0,33.68,16H30.1l4.28-6a1.18,1.18,0,0,0,.28-.81.83.83,0,0,0-.89-.85H28.42l0-.69-1.5.89a1.2,1.2,0,0,0,.72,2.18h3.15l-4.26,6a1.4,1.4,0,0,0-.25.73c0,.63.51.93,1.11.93h6.32a1.39,1.39,0,0,0,.68-.18l1.5-.89h-1Z"/><path class="cls-3" d="M25.34,12.27s0-.06,0-.09a.86.86,0,0,0-.91-.89H21.76L25,6.8a.88.88,0,0,0,.21-.6.62.62,0,0,0-.66-.64h-4l0-.51-1.13.66a.9.9,0,0,0-.37.74.86.86,0,0,0,.91.89h2.36l-3.19,4.49a1.08,1.08,0,0,0-.18.55c0,.46.38.69.83.69h4.73a1.13,1.13,0,0,0,.51-.13l1.12-.67Z"/><path class="cls-3" d="M18.19,15.22s0-.05,0-.08a.73.73,0,0,0-.79-.76H15.13l2.74-3.84a.75.75,0,0,0,.18-.52.54.54,0,0,0-.57-.55H14.06L14,9l-1,.57a.76.76,0,0,0-.32.63.73.73,0,0,0,.78.76h2l-2.73,3.84a1,1,0,0,0-.16.48c0,.39.33.59.71.59h4.05a.84.84,0,0,0,.44-.12l1-.56Z"/><path class="cls-2" d="M32,5.13a7,7,0,0,1-5.08,2.12C26.56,5.71,25.19,0,22.45,0c-2.4,0-3.27,1.09-4.5,1.09S15.85,0,13.45,0C10.71,0,9.34,5.71,9,7.25,7.13,7.08,5.14,6.57,4,5.13,1.8,2.52-1,4.44.39,7.3,2.67,11.82,8.18,15,18,15s15.28-3.18,17.56-7.7C37,4.44,34.1,2.52,32,5.13Z"/><path class="cls-4" d="M21.45,2C19.58,2,19,3,18,3s-1.63-1-3.5-1C12,2,11,8.75,11,8.75S12.23,11,18,11s7-2.25,7-2.25S24,2,21.45,2Z"/><path class="cls-2" d="M11,5S13,7,18,7s7-2,7-2V7s-2.22,2-7,2-7-2-7-2Z"/><path class="cls-5" d="M32.22,9.88H29.07a1.15,1.15,0,0,1-1.22-1.19A1.14,1.14,0,0,1,29.07,7.5h6.17a.82.82,0,0,1,.88.85,1.13,1.13,0,0,1-.28.81l-4.28,6h3.58a1.19,1.19,0,1,1,0,2.38H28.83c-.61,0-1.11-.31-1.11-.93a1.49,1.49,0,0,1,.24-.73Z"/><path class="cls-5" d="M23.35,6.69H21a.86.86,0,0,1-.92-.89A.86.86,0,0,1,21,4.92H25.6a.62.62,0,0,1,.67.63.89.89,0,0,1-.21.61l-3.21,4.48h2.69a.89.89,0,1,1,0,1.78H20.81c-.46,0-.84-.22-.84-.69a1.15,1.15,0,0,1,.19-.55Z"/><path class="cls-5" d="M16.49,10.44h-2a.76.76,0,1,1,0-1.52h4a.53.53,0,0,1,.57.54.75.75,0,0,1-.18.52l-2.75,3.84h2.3a.77.77,0,1,1,0,1.53h-4c-.38,0-.71-.2-.71-.6a1,1,0,0,1,.16-.47Z"/></svg>