<?xml version='1.0' encoding='ASCII' standalone='yes'?>
<svg xmlns="http://www.w3.org/2000/svg" xmlns:xlink="http://www.w3.org/1999/xlink" version="1.1" width="36.0px" viewBox="0 0 36.0 42.0" height="42.0px">
  <g>
    <g transform="translate(0, 6) scale(1 1) ">
      <path fill="#FFCC4D" d="M36 18c0 9.941-8.059 18-18 18-9.94 0-18-8.059-18-18C0 8.06 8.06 0 18 0c9.941 0 18 8.06 18 18"/>
      <path fill="#664500" d="M7.001 15c-.323 0-.64-.156-.833-.445-.306-.46-.182-1.081.277-1.387C6.578 13.08 9.746 11 14 11c.552 0 1 .448 1 1s-.448 1-1 1c-3.655 0-6.418 1.814-6.445 1.832-.171.114-.364.168-.554.168zm21.998 0c-.189 0-.382-.054-.552-.167C28.419 14.815 25.628 13 22 13c-.553 0-1-.448-1-1s.447-1 1-1c4.254 0 7.422 2.08 7.555 2.168.46.306.584.927.277 1.387-.192.289-.51.445-.833.445z"/>
      <path fill="#F5F8FA" d="M27 22.091L36 18c0-.66-.041-1.309-.109-1.95L27 20.091V19c0-1.104-.896-2-2-2H11c-1.104 0-2 .896-2 2v1.091L.11 16.05C.041 16.691 0 17.34 0 18l9 4.091v4.546l-7.453-1.355c.341.77.741 1.507 1.183 2.215L9 28.637V30c0 1.104.896 2 2 2h14c1.104 0 2-.896 2-2v-1.363l6.271-1.141c.441-.708.841-1.445 1.182-2.215L27 26.637v-4.546z"/>
    </g>
    <g>
      <defs>
        <style>.cls-1{fill:#664500;}.cls-2{fill:#825d0e;}</style>
      </defs>
      <path class="cls-1" d="M32,6.13c-1.19,1.44-3.18,2-5.08,2.12C26.61,6.71,25.24,1,22.5,1,20.1,1,19.23,2.09,18,2.09S15.9,1,13.5,1C10.76,1,9.39,6.71,9.08,8.25,7.18,8.08,5.19,7.57,4,6.13,1.85,3.52-1,5.44.44,8.3,2.72,12.82,8.23,16,18,16s15.28-3.18,17.56-7.7C37,5.44,34.15,3.52,32,6.13Z" transform="translate(-0.05 -1)"/>
      <path class="cls-2" d="M21.5,3C19.63,3,19,4,18,4s-1.63-1-3.5-1C12,3,11,9.75,11,9.75S12.28,12,18,12s7-2.25,7-2.25S24,3,21.5,3Z" transform="translate(-0.05 -1)"/>
      <path class="cls-1" d="M11,6s2.07,2,7,2,7-2,7-2V8s-2.22,2-7,2-7-2-7-2Z" transform="translate(-0.05 -1)"/>
    </g>
  </g>
</svg>
