<?xml version='1.0' encoding='ASCII' standalone='yes'?>
<svg xmlns="http://www.w3.org/2000/svg" xmlns:xlink="http://www.w3.org/1999/xlink" version="1.1" width="36.0px" viewBox="0 0 36.0 42.0" height="42.0px">
  <g>
    <g transform="translate(0, 6) scale(1 1) ">
      <path fill="#FFCC4D" d="M35.734 19.929C35.375 16.66 35 15 34 13c0 0 3-9 1-12.7-.674-1.246-7.404 1.688-10 3.7 0 0-4-.998-7-.998S11 4 11 4C8.404 1.988 1.674-.946 1 .3-1 4 2 13 2 13 1 15 .625 16.66.266 19.929-.129 23.513.657 26.37 1 27c.39.716 2.367 3.025 5 5 4 3 10 4 12 4s8-1 12-4c2.633-1.975 4.61-4.284 5-5 .343-.63 1.129-3.487.734-7.071z"/>
      <path fill="#E75A70" d="M18 19.5c3 0 3 .5 3 1.5s-1.5 3-3 3-3-2-3-3-.001-1.5 3-1.5z"/>
      <path fill="#F18F26" d="M2 3c.447-1.342 5.64 1 6.64 2C8.64 5 4 8 3 11c0 0-2-5-1-8zm32 0c-.447-1.342-5.64 1-6.64 2 0 0 4.64 3 5.64 6 0 0 2-5 1-8z"/>
      <path fill="#FFCC4D" d="M4.934 5.603C4.934 4.189 11 7 10 8s-2 1.603-3 2.603-2.066-4-2.066-5zm26.132 0C31.066 4.189 25 7 26 8s2 1.603 3 2.603 2.066-4 2.066-5z"/>
      <path fill="#FEE7B8" d="M.701 25c-.148 0-.294-.065-.393-.19-.171-.217-.134-.531.083-.702.162-.127 4.02-3.12 10.648-2.605.275.02.481.261.46.536-.021.275-.257.501-.537.46-6.233-.474-9.915 2.366-9.951 2.395-.093.071-.202.106-.31.106zm8.868-4.663c-.049 0-.1-.007-.149-.022-4.79-1.497-8.737-.347-8.777-.336-.265.081-.543-.07-.623-.335-.079-.265.071-.543.335-.622.173-.052 4.286-1.247 9.362.338.264.083.411.363.328.627-.066.213-.263.35-.476.35zM35.299 25c.148 0 .294-.065.393-.19.171-.217.134-.531-.083-.702-.162-.127-4.02-3.12-10.648-2.605-.275.02-.481.261-.46.536.021.275.257.501.537.46 6.233-.474 9.915 2.366 9.951 2.395.093.071.202.106.31.106zm-8.868-4.663c.049 0 .1-.007.149-.022 4.79-1.497 8.737-.347 8.777-.336.265.081.543-.07.623-.335.079-.265-.071-.543-.335-.622-.173-.052-4.286-1.247-9.362.338-.264.083-.411.363-.328.627.065.213.263.35.476.35z"/>
      <path fill="#292F33" d="M25.362 30.636C24.879 29.87 21.947 25.5 18 25.5c-4.234 0-7.3 5.028-7.428 5.243-.121.2-.085.457.084.619.094.091.219.138.344.138.096 0 .193-.027.277-.084.029-.02 2.918-1.916 6.723-1.916 3.792 0 6.695 1.897 6.723 1.916.086.058.215.096.281.084.277-.004.516-.219.516-.5 0-.144-.06-.272-.158-.364z"/>
      <g fill="#292F33">
        <ellipse cx="12" cy="14.5" rx="2" ry="3.5"/>
        <ellipse cx="24" cy="14.5" rx="2" ry="3.5"/>
        <path d="M31.001 14c-.305 0-.604-.138-.801-.4-2.641-3.521-6.061-3.599-6.206-3.6-.55-.006-.994-.456-.991-1.005C23.006 8.444 23.45 8 24 8c.184 0 4.537.05 7.8 4.4.332.442.242 1.069-.2 1.4-.18.135-.39.2-.599.2zM4.999 14c-.208 0-.419-.065-.599-.2-.442-.331-.531-.958-.2-1.4C7.462 8.05 11.816 8 12 8c.552 0 1 .448 1 1 0 .551-.445.998-.996 1-.156.002-3.569.086-6.205 3.6-.195.262-.496.4-.8.4z"/>
      </g>
      <path fill="#5DADEC" d="M15 31c0 2.762-2.239 5-5 5s-5-2.238-5-5 4-13 5-13 5 10.238 5 13z"/>
    </g>
    <g>
      <defs>
        <style>.cls-1{fill:#664500;}.cls-2{fill:#825d0e;}</style>
      </defs>
      <path class="cls-1" d="M32,6.13c-1.19,1.44-3.18,2-5.08,2.12C26.61,6.71,25.24,1,22.5,1,20.1,1,19.23,2.09,18,2.09S15.9,1,13.5,1C10.76,1,9.39,6.71,9.08,8.25,7.18,8.08,5.19,7.57,4,6.13,1.85,3.52-1,5.44.44,8.3,2.72,12.82,8.23,16,18,16s15.28-3.18,17.56-7.7C37,5.44,34.15,3.52,32,6.13Z" transform="translate(-0.05 -1)"/>
      <path class="cls-2" d="M21.5,3C19.63,3,19,4,18,4s-1.63-1-3.5-1C12,3,11,9.75,11,9.75S12.28,12,18,12s7-2.25,7-2.25S24,3,21.5,3Z" transform="translate(-0.05 -1)"/>
      <path class="cls-1" d="M11,6s2.07,2,7,2,7-2,7-2V8s-2.22,2-7,2-7-2-7-2Z" transform="translate(-0.05 -1)"/>
    </g>
  </g>
</svg>
