<?xml version='1.0' encoding='ASCII' standalone='yes'?>
<svg xmlns="http://www.w3.org/2000/svg" xmlns:xlink="http://www.w3.org/1999/xlink" version="1.1" width="36.0px" viewBox="0 0 36.0 42.0" height="42.0px">
  <g>
    <g transform="translate(0, 6) scale(1 1) ">
      <path fill="#FFCC4D" d="M36 18c0 9.941-8.059 18-18 18-9.94 0-18-8.059-18-18C0 8.06 8.06 0 18 0c9.941 0 18 8.06 18 18"/>
      <ellipse fill="#664500" cx="18" cy="27" rx="5" ry="6"/>
      <path fill="#664500" d="M5.999 11c-.208 0-.419-.065-.599-.2-.442-.331-.531-.958-.2-1.4C8.462 5.05 12.816 5 13 5c.552 0 1 .448 1 1 0 .551-.445.998-.996 1-.155.002-3.568.086-6.204 3.6-.196.262-.497.4-.801.4zm24.002 0c-.305 0-.604-.138-.801-.4-2.64-3.521-6.061-3.598-6.206-3.6-.55-.006-.994-.456-.991-1.005C22.006 5.444 22.45 5 23 5c.184 0 4.537.05 7.8 4.4.332.442.242 1.069-.2 1.4-.18.135-.39.2-.599.2zm-16.087 4.5l1.793-1.793c.391-.391.391-1.023 0-1.414s-1.023-.391-1.414 0L12.5 14.086l-1.793-1.793c-.391-.391-1.023-.391-1.414 0s-.391 1.023 0 1.414l1.793 1.793-1.793 1.793c-.391.391-.391 1.023 0 1.414.195.195.451.293.707.293s.512-.098.707-.293l1.793-1.793 1.793 1.793c.195.195.451.293.707.293s.512-.098.707-.293c.391-.391.391-1.023 0-1.414L13.914 15.5zm11 0l1.793-1.793c.391-.391.391-1.023 0-1.414s-1.023-.391-1.414 0L23.5 14.086l-1.793-1.793c-.391-.391-1.023-.391-1.414 0s-.391 1.023 0 1.414l1.793 1.793-1.793 1.793c-.391.391-.391 1.023 0 1.414.195.195.451.293.707.293s.512-.098.707-.293l1.793-1.793 1.793 1.793c.195.195.451.293.707.293s.512-.098.707-.293c.391-.391.391-1.023 0-1.414L24.914 15.5z"/>
    </g>
    <g>
      <defs>
        <style>.cls-1{fill:#664500;}.cls-2{fill:#825d0e;}</style>
      </defs>
      <path class="cls-1" d="M32,6.13c-1.19,1.44-3.18,2-5.08,2.12C26.61,6.71,25.24,1,22.5,1,20.1,1,19.23,2.09,18,2.09S15.9,1,13.5,1C10.76,1,9.39,6.71,9.08,8.25,7.18,8.08,5.19,7.57,4,6.13,1.85,3.52-1,5.44.44,8.3,2.72,12.82,8.23,16,18,16s15.28-3.18,17.56-7.7C37,5.44,34.15,3.52,32,6.13Z" transform="translate(-0.05 -1)"/>
      <path class="cls-2" d="M21.5,3C19.63,3,19,4,18,4s-1.63-1-3.5-1C12,3,11,9.75,11,9.75S12.28,12,18,12s7-2.25,7-2.25S24,3,21.5,3Z" transform="translate(-0.05 -1)"/>
      <path class="cls-1" d="M11,6s2.07,2,7,2,7-2,7-2V8s-2.22,2-7,2-7-2-7-2Z" transform="translate(-0.05 -1)"/>
    </g>
  </g>
</svg>
