<?xml version='1.0' encoding='ASCII' standalone='yes'?>
<svg xmlns="http://www.w3.org/2000/svg" xmlns:xlink="http://www.w3.org/1999/xlink" version="1.1" width="36.0px" viewBox="0 0 36.0 42.0" height="42.0px">
  <g>
    <g transform="translate(0, 6) scale(1 1) ">
      <circle fill="#FFCC4D" cx="18" cy="18" r="18"/>
      <circle fill="#F4F7F9" cx="24.5" cy="13.5" r="5.5"/>
      <circle fill="#F4F7F9" cx="11.5" cy="13.5" r="5.5"/>
      <path fill="#65471B" d="M23.109 23.424c-2.763-.667-8.873-.06-11.162 4.405-.082.158-.04.353.1.464.068.055.151.082.234.082.085 0 .171-.029.241-.087 3.084-2.58 7.436-2.58 10.036-2.58 1.635 0 2.536 0 2.536-.708s-.705-1.268-1.985-1.576zM10.5 13c1.381 0 2.5-1.119 2.5-2.5 0-1.252-.923-2.28-2.124-2.462-.79.089-1.526.348-2.178.736C8.268 9.223 8 9.829 8 10.5c0 1.381 1.119 2.5 2.5 2.5zm13 0c1.381 0 2.5-1.119 2.5-2.5 0-1.252-.923-2.28-2.124-2.462-.789.089-1.526.348-2.177.736C21.268 9.223 21 9.829 21 10.5c0 1.381 1.119 2.5 2.5 2.5z"/>
    </g>
    <g>
      <defs>
        <style>.cls-1{fill:#664500;}.cls-2{fill:#825d0e;}</style>
      </defs>
      <path class="cls-1" d="M32,6.13c-1.19,1.44-3.18,2-5.08,2.12C26.61,6.71,25.24,1,22.5,1,20.1,1,19.23,2.09,18,2.09S15.9,1,13.5,1C10.76,1,9.39,6.71,9.08,8.25,7.18,8.08,5.19,7.57,4,6.13,1.85,3.52-1,5.44.44,8.3,2.72,12.82,8.23,16,18,16s15.28-3.18,17.56-7.7C37,5.44,34.15,3.52,32,6.13Z" transform="translate(-0.05 -1)"/>
      <path class="cls-2" d="M21.5,3C19.63,3,19,4,18,4s-1.63-1-3.5-1C12,3,11,9.75,11,9.75S12.28,12,18,12s7-2.25,7-2.25S24,3,21.5,3Z" transform="translate(-0.05 -1)"/>
      <path class="cls-1" d="M11,6s2.07,2,7,2,7-2,7-2V8s-2.22,2-7,2-7-2-7-2Z" transform="translate(-0.05 -1)"/>
    </g>
  </g>
</svg>
