<?xml version='1.0' encoding='ASCII' standalone='yes'?>
<svg xmlns="http://www.w3.org/2000/svg" xmlns:xlink="http://www.w3.org/1999/xlink" version="1.1" width="36.0px" viewBox="0 0 36.0 42.0" height="42.0px">
  <g>
    <g transform="translate(0, 6) scale(1 1) ">
      <circle fill="#FFCC4D" cx="18" cy="18" r="18"/>
      <path fill="#664500" d="M10.515 23.621C10.56 23.8 11.683 28 18 28c6.318 0 7.44-4.2 7.485-4.379.055-.217-.043-.442-.237-.554-.195-.111-.439-.078-.6.077C24.629 23.163 22.694 25 18 25s-6.63-1.837-6.648-1.855C11.256 23.05 11.128 23 11 23c-.084 0-.169.021-.246.064-.196.112-.294.339-.239.557z"/>
      <ellipse fill="#664500" cx="12" cy="13.5" rx="2.5" ry="3.5"/>
      <ellipse fill="#664500" cx="24" cy="13.5" rx="2.5" ry="3.5"/>
    </g>
    <g>
      <defs>
        <style>.cls-1{fill:#664500;}.cls-2{fill:#825d0e;}</style>
      </defs>
      <path class="cls-1" d="M32,6.13c-1.19,1.44-3.18,2-5.08,2.12C26.61,6.71,25.24,1,22.5,1,20.1,1,19.23,2.09,18,2.09S15.9,1,13.5,1C10.76,1,9.39,6.71,9.08,8.25,7.18,8.08,5.19,7.57,4,6.13,1.85,3.52-1,5.44.44,8.3,2.72,12.82,8.23,16,18,16s15.28-3.18,17.56-7.7C37,5.44,34.15,3.52,32,6.13Z" transform="translate(-0.05 -1)"/>
      <path class="cls-2" d="M21.5,3C19.63,3,19,4,18,4s-1.63-1-3.5-1C12,3,11,9.75,11,9.75S12.28,12,18,12s7-2.25,7-2.25S24,3,21.5,3Z" transform="translate(-0.05 -1)"/>
      <path class="cls-1" d="M11,6s2.07,2,7,2,7-2,7-2V8s-2.22,2-7,2-7-2-7-2Z" transform="translate(-0.05 -1)"/>
    </g>
  </g>
</svg>
