<svg id="Layer_1" data-name="Layer 1" xmlns="http://www.w3.org/2000/svg" viewBox="0 0 35.3 41.85"><defs><style>.cls-1{fill:#ffdc5d;}.cls-2{fill:#f9ca55;}.cls-3{fill:#ef9645;}.cls-4{fill:#664500;}.cls-5{fill:#825d0e;}</style></defs><path class="cls-1" d="M2.66,31.85h8v10h-8Zm22,0h8v10h-8Z"/><path class="cls-2" d="M32.66,34.57s-3,2-8,1v-5h8Zm-30,0s3,2,8,1v-5h-8Z"/><path class="cls-3" d="M3.64,24.46h8v8h-8Zm20-.5h8v8h-8Z"/><path class="cls-1" d="M0,17.69a1.2,1.2,0,0,1,1.23-1.23,1.21,1.21,0,0,1,1.22,1.23l0,5.69a6.44,6.44,0,0,1,.61-.24l0-7.89A1.19,1.19,0,0,1,4.33,14a1.2,1.2,0,0,1,1.22,1.23l0,7.42.61-.05,0-8.6a1.23,1.23,0,0,1,2.45,0l0,8.6.62.05,0-8a1.23,1.23,0,1,1,2.45,0l0,8.5v1.29A6.14,6.14,0,0,0,5.5,30.56a.6.6,0,0,0,.61.61,5.78,5.78,0,0,1,6.14-6.1l1.8-4.19a1.23,1.23,0,0,1,2.32.79l-.89,3.11a28.14,28.14,0,0,0-.86,3.74A7.35,7.35,0,0,1,0,27.48a5.93,5.93,0,0,1,0-.61H0Zm35.24,0a1.23,1.23,0,1,0-2.45,0l0,5.69a5.53,5.53,0,0,0-.61-.24l0-7.89a1.23,1.23,0,1,0-2.45,0l0,7.42-.61-.05,0-8.6a1.23,1.23,0,1,0-2.45,0l0,8.6-.61.05,0-8a1.22,1.22,0,1,0-2.44,0l0,8.5v1.29a6.15,6.15,0,0,1,6.15,6.11.6.6,0,0,1-.61.61,5.79,5.79,0,0,0-6.15-6.1l-1.8-4.19a1.23,1.23,0,0,0-2.32.79l.89,3.11a25.32,25.32,0,0,1,.86,3.74,7.35,7.35,0,0,0,14.62-1,5.93,5.93,0,0,0,0-.61h0Z"/><path class="cls-4" d="M30.12,4.57A6.25,6.25,0,0,1,25.6,6.45C25.32,5.08,24.1,0,21.66,0c-2.13,0-2.91,1-4,1s-1.87-1-4-1C11.21,0,10,5.08,9.72,6.45A6.44,6.44,0,0,1,5.2,4.57C3.28,2.24.74,4,2,6.5c2,4,6.93,6.85,15.63,6.85s13.6-2.83,15.63-6.85C34.57,4,32,2.24,30.12,4.57Z"/><path class="cls-5" d="M20.77,1.78c-1.66,0-2.22.89-3.11.89s-1.45-.89-3.12-.89c-2.22,0-3.11,6-3.11,6s1.14,2,6.23,2,6.23-2,6.23-2S23,1.78,20.77,1.78Z"/><path class="cls-4" d="M11.43,4.45s1.84,1.78,6.23,1.78,6.23-1.78,6.23-1.78V6.23S21.91,8,17.66,8s-6.23-1.78-6.23-1.78Z"/></svg>