<svg id="Layer_1" data-name="Layer 1" xmlns="http://www.w3.org/2000/svg" viewBox="0 0 36 42"><defs><style>.cls-1{fill:#ffcc4d;}.cls-2{fill:#664500;}.cls-3{fill:#825d0e;}</style></defs><path class="cls-1" d="M0,18A18,18,0,1,1,18,36,18,18,0,0,1,0,18"/><path class="cls-2" d="M8.66,12.87a.51.51,0,0,0,.64,0A16.26,16.26,0,0,1,18,10a16.3,16.3,0,0,1,8.7,2.9.5.5,0,0,0,.73-.66A11.5,11.5,0,0,0,18,7a11.5,11.5,0,0,0-9.43,5.24A.51.51,0,0,0,8.66,12.87Z"/><ellipse class="cls-2" cx="11.5" cy="21.5" rx="2.5" ry="3.5"/><ellipse class="cls-2" cx="24.5" cy="21.5" rx="2.5" ry="3.5"/><path class="cls-2" d="M4,37a7,7,0,0,1,5.05-2.18C9.39,36.34,10.84,42,13.57,42c2.4,0,3.26-1.13,4.49-1.15s2.11,1.07,4.51,1c2.74,0,4-5.77,4.33-7.31,1.9.15,3.9.63,5.11,2.05,2.18,2.59,5,.63,3.53-2.21-2.34-4.49-7.89-7.6-17.66-7.47S2.64,30.32.42,34.87C-1,37.75,1.89,39.63,4,37Z"/><path class="cls-3" d="M14.55,40C16.42,40,17,39,18,38.94s1.64,1,3.51,1c2.5,0,3.41-6.8,3.41-6.8s-1.31-2.23-7-2.16-7,2.34-7,2.34S12.05,40,14.55,40Z"/><path class="cls-2" d="M25,36.85s-2.1-2-7-1.91S11,37,11,37l0-2s2.19-2,7-2.09,7,1.91,7,1.91Z"/></svg>