<svg id="Layer_1" data-name="Layer 1" xmlns="http://www.w3.org/2000/svg" viewBox="0 0 35.03 40.17"><defs><style>.cls-1{fill:#a0041e;}.cls-2{fill:#ffac33;}.cls-3{fill:#ffcc4d;}.cls-4{fill:#55acee;}.cls-5{fill:#664500;}.cls-6{fill:#825d0e;}</style></defs><path class="cls-1" d="M0,22.17l8-7,16,1,1,16-7,8s0-6-6-12S0,22.17,0,22.17Z"/><path class="cls-2" d="M0,40.17s0-8,3-11,11-2.82,11-2.82,0,7.82-3,10.82S0,40.17,0,40.17Z"/><circle class="cls-3" cx="8.03" cy="32.17" r="4"/><path class="cls-4" d="M35,5.17s-10,0-22,10c-6,5-6,14-4,16s11,2,16-4C35,15.17,35,5.17,35,5.17Z"/><path d="M26,10.17a4,4,0,0,0-3.64,2.36A3.9,3.9,0,0,1,24,12.17a4,4,0,0,1,4,4,4.13,4.13,0,0,1-.36,1.64A4,4,0,0,0,26,10.17Z"/><path class="cls-1" d="M7,33.17s0-4,1-5,13-11,14-10-9,13-10,14S7,33.17,7,33.17Z"/><path class="cls-5" d="M26.17,1.57a4.71,4.71,0,0,1-2.33,2.87c-.67-.81-3.3-3.76-4.92-2.89-1.42.77-1.59,1.69-2.31,2.08s-1.59,0-3,.79C12,5.29,13,9.1,13.29,10.11a4.91,4.91,0,0,1-3.68.36c-2.1-.86-3.18,1.18-1.42,2.42C11,14.83,15.25,15,21,11.86s8-6.74,7.94-10.14C28.91-.43,26.61-.66,26.17,1.57Z"/><path class="cls-6" d="M19,3.05c-1.11.6-1.17,1.39-1.76,1.71s-1.28-.07-2.39.52c-1.47.8.08,5.11.08,5.11s1.47.92,4.86-.9,3.42-3.55,3.42-3.55S20.44,2.26,19,3.05Z"/><path class="cls-5" d="M13.71,8.17s1.86.52,4.77-1S22,3.72,22,3.72l.64,1.18a7.28,7.28,0,0,1-3.51,3.41,7.26,7.26,0,0,1-4.78,1Z"/></svg>