<?xml version='1.0' encoding='ASCII' standalone='yes'?>
<svg xmlns="http://www.w3.org/2000/svg" xmlns:xlink="http://www.w3.org/1999/xlink" version="1.1" width="36.0px" viewBox="0 0 36.0 43.0" height="43.0px">
  <g>
    <g transform="translate(0, 7) scale(1 1) ">
      <path fill="#A7A9AC" d="M2 36h32L23 19H13z"/>
      <path fill="#58595B" d="M5 36h26L21 19h-6z"/>
      <path fill="#808285" d="M8 36h20l-9-17h-2z"/>
      <path fill="#A7A9AC" d="M28 35c0 .553-.447 1-1 1H9c-.552 0-1-.447-1-1 0-.553.448-1 1-1h18c.553 0 1 .447 1 1zm-2-4c0 .553-.447 1-1 1H11c-.552 0-1-.447-1-1 0-.553.448-1 1-1h14c.553 0 1 .447 1 1zm-2-4c0 .553-.447 1-1 1H13c-.552 0-1-.447-1-1 0-.553.448-1 1-1h10c.553 0 1 .447 1 1z"/>
      <path fill="#58595B" d="M9.881 23.82C11.006 25.046 12.498 26 14 26h8c1.501 0 2.994-.955 4.119-2.18l-2.549-3.938c-1.359.097-3.148.118-5.57.118-2.465 0-4.274.023-5.642-.008L9.881 23.82z"/>
      <path fill="#414042" d="M19 2c0 .552-.448 1-1 1s-1-.448-1-1V1c0-.552.448-1 1-1s1 .448 1 1v1z"/>
      <path fill="#6D6E71" d="M22 4c0 1.104-.896 2-2 2h-4c-1.104 0-2-.896-2-2s.896-2 2-2h4c1.104 0 2 .896 2 2z"/>
      <path fill="#D1D3D4" d="M28 18c0 2.209-3.791 5-6 5h-8c-2.209 0-6-2.791-6-5V7c0-2.209 1.791-4 4-4h12c2.209 0 4 1.791 4 4v11z"/>
      <path fill="#808285" d="M25 16c0 2.209-1.791 4-4 4h-6c-2.209 0-4-1.791-4-4v-5c0-2.209 1.791-4 4-4h6c2.209 0 4 1.791 4 4v5z"/>
      <path fill="#55ACEE" d="M15 15h6c2.209 0 4-1.791 4-4V9H11v2c0 2.209 1.791 4 4 4z"/>
      <path fill="#5C913B" d="M18 20c-7 0-8.754-1.801-10-3.242V18c0 2.209 3 6 6 6h8c3 0 6-3.791 6-6v-1.891C26.754 17.839 25 20 18 20z"/>
      <path fill="#FFD983" d="M15 17.5c0 .828-.672 1.5-1.5 1.5-.829 0-1.5-.672-1.5-1.5 0-.829.672-1.5 1.5-1.5s1.5.671 1.5 1.5zm9 0c0 .828-.672 1.5-1.5 1.5s-1.5-.672-1.5-1.5c0-.829.672-1.5 1.5-1.5s1.5.671 1.5 1.5z"/>
      <path fill="#292F33" d="M25 9V7c0-1.104-.896-2-2-2H13c-1.104 0-2 .896-2 2v2h14z"/>
      <path fill="#6D6E71" d="M21 7c0 .552-.447 1-1 1h-4c-.552 0-1-.448-1-1s.448-1 1-1h4c.553 0 1 .448 1 1z"/>
    </g>
    <g>
      <defs>
        <style>.cls-1{fill:#664500;}.cls-2{fill:#825d0e;}</style>
      </defs>
      <path class="cls-1" d="M32,6.13c-1.19,1.44-3.18,2-5.08,2.12C26.61,6.71,25.24,1,22.5,1,20.1,1,19.23,2.09,18,2.09S15.9,1,13.5,1C10.76,1,9.39,6.71,9.08,8.25,7.18,8.08,5.19,7.57,4,6.13,1.85,3.52-1,5.44.44,8.3,2.72,12.82,8.23,16,18,16s15.28-3.18,17.56-7.7C37,5.44,34.15,3.52,32,6.13Z" transform="translate(-0.05 -1)"/>
      <path class="cls-2" d="M21.5,3C19.63,3,19,4,18,4s-1.63-1-3.5-1C12,3,11,9.75,11,9.75S12.28,12,18,12s7-2.25,7-2.25S24,3,21.5,3Z" transform="translate(-0.05 -1)"/>
      <path class="cls-1" d="M11,6s2.07,2,7,2,7-2,7-2V8s-2.22,2-7,2-7-2-7-2Z" transform="translate(-0.05 -1)"/>
    </g>
  </g>
</svg>
