<?xml version='1.0' encoding='ASCII' standalone='yes'?>
<svg xmlns="http://www.w3.org/2000/svg" xmlns:xlink="http://www.w3.org/1999/xlink" version="1.1" width="36.0px" viewBox="0 0 36.0 42.0" height="42.0px">
  <g>
    <g transform="translate(0, 6) scale(1 1) ">
      <circle cx="18" cy="18" r="17"/>
      <path fill="#FFF" d="M23.703 17h-.017c-.407 0-.733-.261-.733-.668 0-.219.082-2.149 2.929-4.047 1.475-.983 1.784-2.609 1.447-3.721-.315-1.042-1.164-1.63-2.328-1.63-1.771 0-2.26.957-2.394 1.524-.169.713.046 1.179.268 1.369.325.279.8.218 1.075.049.196-.122.301-.331.301-.606 0-.414.336-.75.75-.75s.75.336.75.75c0 .799-.369 1.485-1.013 1.883-.721.446-1.832.4-2.557-.004-.886-.494-1.337-1.743-1.034-3.031.396-1.674 1.836-2.674 3.854-2.674 1.844 0 3.251 1.011 3.764 2.704.602 1.986-.242 4.215-2.051 5.421-2.173 1.449-2.259 2.723-2.261 2.779-.018.402-.349.652-.75.652zM22 19H6s-2 0-2 2v1c0 2 2 2 2 2h16v-5zm5 0h-3v5h3s2 0 2-2v-1c0-2-2-2-2-2z"/>
      <path fill="#DD2E44" d="M18 0C8.059 0 0 8.06 0 18c0 9.941 8.059 18 18 18s18-8.059 18-18c0-9.94-8.059-18-18-18zm16 18c0 3.969-1.453 7.592-3.845 10.389L7.612 5.845C10.409 3.453 14.032 2 18 2c8.837 0 16 7.164 16 16zM2 18c0-3.968 1.453-7.591 3.844-10.387l22.543 22.543C25.591 32.548 21.968 34 18 34 9.164 34 2 26.837 2 18z"/>
    </g>
    <g>
      <defs>
        <style>.cls-1{fill:#664500;}.cls-2{fill:#825d0e;}</style>
      </defs>
      <path class="cls-1" d="M32,6.13c-1.19,1.44-3.18,2-5.08,2.12C26.61,6.71,25.24,1,22.5,1,20.1,1,19.23,2.09,18,2.09S15.9,1,13.5,1C10.76,1,9.39,6.71,9.08,8.25,7.18,8.08,5.19,7.57,4,6.13,1.85,3.52-1,5.44.44,8.3,2.72,12.82,8.23,16,18,16s15.28-3.18,17.56-7.7C37,5.44,34.15,3.52,32,6.13Z" transform="translate(-0.05 -1)"/>
      <path class="cls-2" d="M21.5,3C19.63,3,19,4,18,4s-1.63-1-3.5-1C12,3,11,9.75,11,9.75S12.28,12,18,12s7-2.25,7-2.25S24,3,21.5,3Z" transform="translate(-0.05 -1)"/>
      <path class="cls-1" d="M11,6s2.07,2,7,2,7-2,7-2V8s-2.22,2-7,2-7-2-7-2Z" transform="translate(-0.05 -1)"/>
    </g>
  </g>
</svg>
