<?xml version='1.0' encoding='ASCII' standalone='yes'?>
<svg xmlns="http://www.w3.org/2000/svg" xmlns:xlink="http://www.w3.org/1999/xlink" version="1.1" width="36.0px" viewBox="0 0 36.0 42.0" height="42.0px">
  <g>
    <g transform="translate(0, 6) scale(1 1) ">
      <circle fill="#FFCC4D" cx="18" cy="18" r="18"/>
      <path fill="#664500" d="M14.034 14.499c0 1.934-1.119 3.5-2.5 3.5s-2.5-1.566-2.5-3.5c0-1.933 1.119-3.5 2.5-3.5s2.5 1.567 2.5 3.5m13 0c0 1.934-1.119 3.5-2.5 3.5s-2.5-1.566-2.5-3.5c0-1.933 1.119-3.5 2.5-3.5s2.5 1.567 2.5 3.5m-2.033 12.505H10c-1 0-1-1-1-1v-1s0-1.003 1-1.003l15.001.003v3z"/>
      <path fill="#99AAB5" d="M35.255 26.084l-7.713-2.121c-.72-.197-1.049.287-1.171.547l-1.64-.784L24 25.255v-2.254h-2v2h-2v-2h-2.001v2H16v-2h-2v2h-2v-2h-2v3h2v2h2v-2h1.999v2h2v-2H20v2h2v-2h1.643l-.58 1.212 1.648.788-.099.207s-.248.737.373 1.275c.621.537 5.285 4.735 5.285 4.735s.899.866 1.769.079c.738-.67 3.649-6.02 3.914-6.983.266-.964-.698-1.23-.698-1.23zm-3.772 6.071l-2.644-2.248 1.614-3.069 3.338 1.132-2.308 4.185z"/>
    </g>
    <g>
      <defs>
        <style>.cls-1{fill:#664500;}.cls-2{fill:#825d0e;}</style>
      </defs>
      <path class="cls-1" d="M32,6.13c-1.19,1.44-3.18,2-5.08,2.12C26.61,6.71,25.24,1,22.5,1,20.1,1,19.23,2.09,18,2.09S15.9,1,13.5,1C10.76,1,9.39,6.71,9.08,8.25,7.18,8.08,5.19,7.57,4,6.13,1.85,3.52-1,5.44.44,8.3,2.72,12.82,8.23,16,18,16s15.28-3.18,17.56-7.7C37,5.44,34.15,3.52,32,6.13Z" transform="translate(-0.05 -1)"/>
      <path class="cls-2" d="M21.5,3C19.63,3,19,4,18,4s-1.63-1-3.5-1C12,3,11,9.75,11,9.75S12.28,12,18,12s7-2.25,7-2.25S24,3,21.5,3Z" transform="translate(-0.05 -1)"/>
      <path class="cls-1" d="M11,6s2.07,2,7,2,7-2,7-2V8s-2.22,2-7,2-7-2-7-2Z" transform="translate(-0.05 -1)"/>
    </g>
  </g>
</svg>
