<?xml version='1.0' encoding='ASCII' standalone='yes'?>
<svg xmlns="http://www.w3.org/2000/svg" xmlns:xlink="http://www.w3.org/1999/xlink" version="1.1" width="36.0px" viewBox="0 0 36.0 42.0" height="42.0px">
  <g>
    <g transform="translate(0, 6) scale(1 1) ">
      <path fill="#FFCB4C" d="M35 17c0 9.389-7.611 17-17 17-9.388 0-17-7.611-17-17C1 7.612 8.612 0 18 0c9.389 0 17 7.612 17 17"/>
      <path fill="#65471B" d="M18 27.136c3.335 0 5.547.388 8.284.92.625.12 1.841 0 1.841-1.841 0-3.682-4.23-8.284-10.125-8.284S7.875 22.533 7.875 26.215c0 1.841 1.216 1.962 1.841 1.841 2.736-.532 4.949-.92 8.284-.92zM6.668 18.888c-.287 0-.571-.13-.756-.378-.313-.417-.229-1.009.189-1.322.135-.101 2.787-2.061 6.475-2.77-2.338-1.172-4.932-1.197-4.965-1.197-.521-.001-.943-.425-.942-.946 0-.521.422-.943.944-.943.209 0 5.149.036 8.223 3.11.27.27.351.676.205 1.029-.146.353-.491.583-.872.583-4.357 0-7.898 2.618-7.933 2.644-.173.129-.371.19-.568.19zm22.664 0c-.196 0-.395-.061-.564-.187-.036-.027-3.6-2.645-7.935-2.645-.382 0-.727-.23-.872-.583-.147-.353-.066-.759.205-1.029 3.075-3.075 8.015-3.11 8.223-3.11.521 0 .943.422.944.943.001.521-.422.944-.942.946-.034 0-2.629.025-4.966 1.197 3.688.708 6.34 2.668 6.475 2.77.417.313.502.903.19 1.321-.186.247-.47.377-.758.377z"/>
      <path fill="#77AF57" d="M25.712 32.287v-7.101c0-2.593-3.889-5.185-7.778-5.185s-7.778 2.593-7.778 5.185v7.101c-4.403.349-7.359.985-7.359 1.713 0 1.105 6.777 2 15.137 2s15.137-.895 15.137-2c0-.728-2.956-1.364-7.359-1.713z"/>
      <circle fill="#5D8F3F" cx="15.875" cy="23.228" r="1.235"/>
      <circle fill="#5D8F3F" cx="20.698" cy="25.64" r="1.235"/>
      <circle transform="rotate(-80.781 21.232 30.514)" fill="#5D8F3F" cx="21.232" cy="30.515" r="1.235"/>
      <circle transform="rotate(-80.781 15.107 32.548)" fill="#5D8F3F" cx="15.107" cy="32.548" r="1.765"/>
    </g>
    <g>
      <defs>
        <style>.cls-1{fill:#664500;}.cls-2{fill:#825d0e;}</style>
      </defs>
      <path class="cls-1" d="M32,6.13c-1.19,1.44-3.18,2-5.08,2.12C26.61,6.71,25.24,1,22.5,1,20.1,1,19.23,2.09,18,2.09S15.9,1,13.5,1C10.76,1,9.39,6.71,9.08,8.25,7.18,8.08,5.19,7.57,4,6.13,1.85,3.52-1,5.44.44,8.3,2.72,12.82,8.23,16,18,16s15.28-3.18,17.56-7.7C37,5.44,34.15,3.52,32,6.13Z" transform="translate(-0.05 -1)"/>
      <path class="cls-2" d="M21.5,3C19.63,3,19,4,18,4s-1.63-1-3.5-1C12,3,11,9.75,11,9.75S12.28,12,18,12s7-2.25,7-2.25S24,3,21.5,3Z" transform="translate(-0.05 -1)"/>
      <path class="cls-1" d="M11,6s2.07,2,7,2,7-2,7-2V8s-2.22,2-7,2-7-2-7-2Z" transform="translate(-0.05 -1)"/>
    </g>
  </g>
</svg>
