<svg id="Layer_1" data-name="Layer 1" xmlns="http://www.w3.org/2000/svg" viewBox="0 0 43.09 43.06"><defs><style>.cls-1{fill:#ffcb4c;}.cls-2{fill:#65471b;}.cls-3{fill:#fff;}.cls-4{fill:#64aadd;}.cls-5{fill:#664500;}.cls-6{fill:#825d0e;}</style></defs><path class="cls-1" d="M37.82,12.33a18,18,0,1,1-25.46,0,18,18,0,0,1,25.46,0"/><path class="cls-2" d="M26.37,26.34a57.47,57.47,0,0,1-9.64,7.72c-.79.52-1.93,1.92,0,3.85C20.58,41.77,29.84,42.16,36,36S41.8,20.56,37.94,16.7c-1.93-1.93-3.33-.78-3.86,0A56.88,56.88,0,0,1,26.37,26.34Z"/><path class="cls-3" d="M18.66,36s3.85-1.92,9.64-7.71S36,18.63,36,18.63s1.93,5.78-4.82,12.53S18.66,36,18.66,36Z"/><path class="cls-2" d="M15.36,32.3a1,1,0,0,1-.85.28,1,1,0,0,1-.85-1.13,18,18,0,0,1,2.77-6.92,13.3,13.3,0,0,0-4.61,2.82,1,1,0,0,1-1.41-1.42c.15-.15,3.88-3.83,8.48-3.83a1,1,0,0,1,.92.62,1,1,0,0,1-.21,1.09,15.64,15.64,0,0,0-4,7.92A1.06,1.06,0,0,1,15.36,32.3Zm17-17a1,1,0,0,1-.56.28,15.7,15.7,0,0,0-7.92,4,1,1,0,0,1-1.09.21,1,1,0,0,1-.62-.92c0-4.6,3.68-8.33,3.83-8.48a1,1,0,0,1,1.42,1.41,13.41,13.41,0,0,0-2.83,4.61,18.09,18.09,0,0,1,6.93-2.77,1,1,0,0,1,1.13.85A1,1,0,0,1,32.32,15.33Z"/><path class="cls-4" d="M37.19,19.12A5,5,0,1,0,38.4,9.19C35.66,8.86,28,12,27.87,12.94S34.45,18.78,37.19,19.12ZM19.25,37.06a5,5,0,1,1-9.93,1.21C9,35.53,12.08,27.86,13.08,27.74S18.91,34.32,19.25,37.06Z"/><path class="cls-5" d="M20.44,2.69a6.4,6.4,0,0,1-1.85,4.65c-1.2-.78-5.78-3.52-7.52-1.73C9.54,7.17,9.7,8.43,8.92,9.23s-2,.67-3.57,2.23c-1.74,1.78,1.1,6.3,1.9,7.48a6.57,6.57,0,0,1-4.6,2C-.42,20.64-1,23.71,1.8,24.59c4.38,1.39,10-.17,16.16-6.53S25.61,6.11,24.11,1.75C23.17-1,20.11-.37,20.44,2.69Z"/><path class="cls-6" d="M11.73,7.53c-1.19,1.21-.94,2.26-1.57,2.91s-1.69.42-2.88,1.64c-1.58,1.63,2.17,6.57,2.17,6.57s2.28.59,5.91-3.13,3-6,3-6S13.32,5.9,11.73,7.53Z"/><path class="cls-5" d="M7,16.26s2.62-.07,5.75-3.28,3.15-5.82,3.15-5.82l1.3,1.27s-.11,2.71-3.15,5.82-5.75,3.28-5.75,3.28Z"/></svg>