<svg id="Layer_1" data-name="Layer 1" xmlns="http://www.w3.org/2000/svg" viewBox="0 0 44.33 43.96"><defs><style>.cls-1{fill:#ffcb4c;}.cls-2{fill:#f4f7f9;}.cls-3{fill:#292f33;}.cls-4{fill:#65471b;}.cls-5{fill:#e8596e;}.cls-6{fill:#dd2f45;}.cls-7{fill:#fff;}.cls-8{fill:#664500;}.cls-9{fill:#825d0e;}</style></defs><path class="cls-1" d="M43.92,22.18A18,18,0,1,1,22.55,8.35,18,18,0,0,1,43.92,22.18"/><path class="cls-2" d="M37.61,17a6.73,6.73,0,1,1-8-5.17A6.74,6.74,0,0,1,37.61,17Z"/><circle class="cls-3" cx="30.63" cy="17.24" r="2.04"/><path class="cls-2" d="M22.42,22.23a3.94,3.94,0,1,1-4.68-3A3.95,3.95,0,0,1,22.42,22.23Z"/><circle class="cls-3" cx="18.57" cy="23.81" r="1.94"/><path class="cls-4" d="M27,28.89a41.7,41.7,0,0,1-9,.9c-.69,0-2,.42-1.53,2.38.83,3.91,6.38,7.84,12.64,6.49s9.71-7.19,8.87-11.1c-.42-2-1.74-1.81-2.38-1.54A42,42,0,0,1,27,28.89Z"/><path class="cls-5" d="M19.33,32v6a5.76,5.76,0,0,0,6,6,5.76,5.76,0,0,0,6-6V32Z"/><path class="cls-6" d="M25.33,39.83a.54.54,0,0,0,.54-.54V33H24.78v6.3A.55.55,0,0,0,25.33,39.83Z"/><path class="cls-7" d="M18.36,31.75a31.33,31.33,0,0,0,9-.91A31.11,31.11,0,0,0,36,28s-1.11,4.33-8,5.8S18.36,31.75,18.36,31.75Z"/><path class="cls-8" d="M29.11,2.17a7.07,7.07,0,0,1-3.78,4c-.91-1.29-4.48-5.94-7-4.83-2.19,1-2.54,2.33-3.66,2.83S12.31,4,10.12,5C7.62,6.13,8.69,11.9,9,13.43c-1.8.62-3.83,1-5.5.13C.5,12.05-1.32,15,1.16,17c3.92,3.2,10.25,3.87,19.17-.11S33,7.76,33.24,2.71C33.4-.49,30-1.09,29.11,2.17Z"/><path class="cls-9" d="M18.24,3.58c-1.7.76-1.87,1.93-2.79,2.34s-1.89-.25-3.6.51C9.56,7.45,11.4,14,11.4,14s2.08,1.54,7.31-.79,5.48-4.9,5.48-4.9S20.53,2.57,18.24,3.58Z"/><path class="cls-8" d="M9.87,10.6s2.71,1,7.21-1S22.66,4.9,22.66,4.9l.81,1.83s-1.21,2.73-5.58,4.67-7.2,1-7.2,1Z"/></svg>