<svg id="Layer_1" data-name="Layer 1" xmlns="http://www.w3.org/2000/svg" viewBox="0 0 38.68 39.5"><defs><style>.cls-1{fill:#ffcc4d;}.cls-2{fill:#664500;}.cls-3{fill:#f4900c;}.cls-4{fill:#825d0e;}</style></defs><circle class="cls-1" cx="19.68" cy="23.5" r="16"/><path class="cls-2" d="M15.16,19c0,1.71-1,3.09-2.21,3.09S10.74,20.74,10.74,19s1-3.09,2.21-3.09S15.16,17.32,15.16,19Zm11.52,0c0,1.71-1,3.09-2.2,3.09S22.27,20.74,22.27,19s1-3.09,2.21-3.09S26.68,17.32,26.68,19ZM13.8,34.88c1.77-4.41,11.47-4.41,11.47-2.64C25.27,33.12,18.21,31.35,13.8,34.88Z"/><path class="cls-3" d="M36,23H20.68A2.87,2.87,0,0,0,18,26a2.87,2.87,0,0,0,2.73,3H36a2.87,2.87,0,0,0,2.73-3A2.87,2.87,0,0,0,36,23Z"/><path class="cls-2" d="M32,5.13a7,7,0,0,1-5.08,2.12C26.56,5.71,25.19,0,22.45,0c-2.4,0-3.27,1.09-4.5,1.09S15.85,0,13.45,0C10.71,0,9.34,5.71,9,7.25,7.13,7.08,5.14,6.57,4,5.13,1.8,2.52-1,4.44.39,7.3,2.67,11.82,8.18,15,18,15s15.28-3.18,17.56-7.7C37,4.44,34.1,2.52,32,5.13Z"/><path class="cls-4" d="M21.45,2C19.58,2,19,3,18,3s-1.63-1-3.5-1C12,2,11,8.75,11,8.75S12.23,11,18,11s7-2.25,7-2.25S24,2,21.45,2Z"/><path class="cls-2" d="M11,5S13,7,18,7s7-2,7-2V7s-2.22,2-7,2-7-2-7-2Z"/></svg>