<?xml version='1.0' encoding='ASCII' standalone='yes'?>
<svg xmlns="http://www.w3.org/2000/svg" xmlns:xlink="http://www.w3.org/1999/xlink" version="1.1" width="36.0px" viewBox="0 0 36.0 42.0" height="42.0px">
  <g>
    <g transform="translate(0, 6) scale(1 1) ">
      <path fill="#77B255" d="M35.99 18c0 9.941-8.059 18-18 18-9.94 0-18-8.059-18-18 0-9.94 8.06-18 18-18s18 8.06 18 18"/>
      <path fill="#292F33" d="M15.364 26.122l-1.515-2.295c1.154-.762 2.606-1.182 4.089-1.182 1.49 0 2.895.402 4.062 1.162l-1.502 2.305c-1.425-.928-3.721-.924-5.134.01zm12.664-13.086c-.244-.3-6.771-1.502-6.826-1.502-.118 0-.251.089-.275.205-.218 1.027-.052 2.071.466 2.941.521.876 1.337 1.47 2.296 1.673.232.049.471.074.707.074 1.746 0 3.296-1.336 3.686-3.177.014-.075-.006-.156-.054-.214zm-13.272-1.502c-.056 0-6.583 1.202-6.827 1.502-.048.059-.068.14-.052.213.389 1.84 1.939 3.176 3.686 3.176.236 0 .474-.025.707-.074 1.972-.417 3.211-2.486 2.762-4.613-.024-.115-.157-.204-.276-.204z"/>
      <path fill="#3E721D" d="M11.647 29.647c-.444 0-.857-.28-1.005-.724-.185-.555.115-1.155.669-1.339.095-.033 2.453-.877 2.453-3.231s-2.358-3.198-2.458-3.232c-.55-.191-.846-.791-.659-1.342.187-.552.78-.852 1.334-.665.159.053 3.9 1.344 3.9 5.239s-3.741 5.187-3.9 5.239c-.11.037-.223.055-.334.055zm12.705 0c-.111 0-.223-.018-.334-.055-.159-.053-3.9-1.344-3.9-5.239s3.741-5.187 3.9-5.239c.559-.187 1.154.115 1.339.669.185.553-.113 1.151-.664 1.338-.1.034-2.458.878-2.458 3.232s2.358 3.198 2.458 3.232c.551.191.847.791.66 1.342-.15.442-.561.72-1.001.72z"/>
    </g>
    <g>
      <defs>
        <style>.cls-1{fill:#664500;}.cls-2{fill:#825d0e;}</style>
      </defs>
      <path class="cls-1" d="M32,6.13c-1.19,1.44-3.18,2-5.08,2.12C26.61,6.71,25.24,1,22.5,1,20.1,1,19.23,2.09,18,2.09S15.9,1,13.5,1C10.76,1,9.39,6.71,9.08,8.25,7.18,8.08,5.19,7.57,4,6.13,1.85,3.52-1,5.44.44,8.3,2.72,12.82,8.23,16,18,16s15.28-3.18,17.56-7.7C37,5.44,34.15,3.52,32,6.13Z" transform="translate(-0.05 -1)"/>
      <path class="cls-2" d="M21.5,3C19.63,3,19,4,18,4s-1.63-1-3.5-1C12,3,11,9.75,11,9.75S12.28,12,18,12s7-2.25,7-2.25S24,3,21.5,3Z" transform="translate(-0.05 -1)"/>
      <path class="cls-1" d="M11,6s2.07,2,7,2,7-2,7-2V8s-2.22,2-7,2-7-2-7-2Z" transform="translate(-0.05 -1)"/>
    </g>
  </g>
</svg>
