<?xml version='1.0' encoding='ASCII' standalone='yes'?>
<svg xmlns="http://www.w3.org/2000/svg" xmlns:xlink="http://www.w3.org/1999/xlink" version="1.1" width="36.0px" viewBox="0 0 36.0 42.0" height="42.0px">
  <g>
    <g transform="translate(0, 6) scale(1 1) ">
      <path fill="#77B255" d="M26.38 3.539c.483-.039 1.259-.655 1.664-.595.405.06 1.573 1.078 1.67 1.283.097.205-.637 1.178-.746 1.48-.109.302-.64.239-1.51-.543-.869-.782-1.078-1.625-1.078-1.625z"/>
      <path fill="#EA564B" d="M12.3 3.139c4.545-2.66 11.267-2.611 13.685-.58 1.617 1.358 2.942 2.401 4.474 3.011 2.022.804 3.692 3.154 4.415 5.384.981 3.023 1.68 12.579-8.029 18.516-6.233 3.812-17.656 5.363-18.961 4.723-.984-.483-4.621-2.09-6.675-6.453S-1.324 11.111 12.3 3.139z"/>
      <path fill="#F97253" d="M17.329 2.607C22.578 1.125 26.5 4.743 24.078 5c-4.359.463-9.015 4.969-12.625 8.375-6.625 6.25-8.125 13.75-9 12.5-1.424-2.034-1.468-9.148 3.561-15.386 5.029-6.238 9.104-7.257 11.315-7.882z"/>
      <path fill="#77B255" d="M28.271 4.278c2.174.697 4.987 4.564 4.944 7.811-.114 8.655-4.132 11.992-4.132 11.992s-2.551-9.325-2.171-12.719c.278-2.478 1.646-3.166 1.891-4.569.229-1.305-.532-2.515-.532-2.515z"/>
    </g>
    <g>
      <defs>
        <style>.cls-1{fill:#664500;}.cls-2{fill:#825d0e;}</style>
      </defs>
      <path class="cls-1" d="M32,6.13c-1.19,1.44-3.18,2-5.08,2.12C26.61,6.71,25.24,1,22.5,1,20.1,1,19.23,2.09,18,2.09S15.9,1,13.5,1C10.76,1,9.39,6.71,9.08,8.25,7.18,8.08,5.19,7.57,4,6.13,1.85,3.52-1,5.44.44,8.3,2.72,12.82,8.23,16,18,16s15.28-3.18,17.56-7.7C37,5.44,34.15,3.52,32,6.13Z" transform="translate(-0.05 -1)"/>
      <path class="cls-2" d="M21.5,3C19.63,3,19,4,18,4s-1.63-1-3.5-1C12,3,11,9.75,11,9.75S12.28,12,18,12s7-2.25,7-2.25S24,3,21.5,3Z" transform="translate(-0.05 -1)"/>
      <path class="cls-1" d="M11,6s2.07,2,7,2,7-2,7-2V8s-2.22,2-7,2-7-2-7-2Z" transform="translate(-0.05 -1)"/>
    </g>
  </g>
</svg>
