<?xml version='1.0' encoding='ASCII' standalone='yes'?>
<svg xmlns="http://www.w3.org/2000/svg" xmlns:xlink="http://www.w3.org/1999/xlink" version="1.1" width="36.0px" viewBox="0 0 36.0 42.0" height="42.0px">
  <g>
    <g transform="translate(0, 6) scale(1 1) ">
      <path fill="#9AAAB4" d="M18 9v11.756c-3 0-1.067 5.182-6 5.999-1.781.295-3.931.355-6 0-3.253-.559-4.824-3.027-5.042-7.681-.281-5.993 1.276-8.847 5.318-9.533C9.394 9.012 14 9 18 9z"/>
      <path fill="#9AAAB4" d="M17.926 9v11.756c3 0 1.067 5.182 6 5.999 1.781.295 3.931.355 6 0 3.253-.559 4.824-3.027 5.042-7.681.281-5.993-1.276-8.847-5.318-9.533C26.532 9.012 21.926 9 17.926 9zM1.5 21C.675 21 0 20.325 0 19.5v-3c0-.825.675-1.5 1.5-1.5s1.5.675 1.5 1.5v3c0 .825-.675 1.5-1.5 1.5z"/>
      <path fill="#9AAAB4" d="M34.5 21c-.825 0-1.5-.675-1.5-1.5v-3c0-.825.675-1.5 1.5-1.5s1.5.675 1.5 1.5v3c0 .825-.675 1.5-1.5 1.5z"/>
      <path fill="#9AAAB4" d="M34.5 22c-.825 0-1.5-.675-1.5-1.5v-5c0-.825.675-1.5 1.5-1.5s1.5.675 1.5 1.5v5c0 .825-.675 1.5-1.5 1.5zm-33 0C.675 22 0 21.325 0 20.5v-5c0-.825.675-1.5 1.5-1.5s1.5.675 1.5 1.5v5c0 .825-.675 1.5-1.5 1.5z"/>
      <path fill="#CCD6DD" d="M18 11v7.756c-4 0-2.615 5.396-7 6-1.583.218-2.161.263-4 0-2.892-.413-3.922-2.555-4.169-5.89-.325-4.394 1.266-6.959 4.859-7.466 2.771-.391 6.754-.4 10.31-.4z"/>
      <path fill="#CCD6DD" d="M18 11v7.756c4 0 2.615 5.396 7 6 1.583.218 2.161.263 4 0 2.892-.413 3.922-2.555 4.169-5.89.325-4.394-1.266-6.959-4.859-7.466-2.771-.391-6.754-.4-10.31-.4z"/>
      <path d="M26.993 11.252c-.655-.061-1.35-.107-2.077-.142l-3.695 10.151c.378.76.75 1.56 1.323 2.212l4.449-12.221zM18 11c-.646 0-1.308.001-1.973.004l-5.003 13.747c4.354-.621 2.984-5.995 6.976-5.995.601 0 1.07.133 1.466.342l2.937-8.068C20.937 11.003 19.435 11 18 11z" fill="#E1E8ED"/>
      <path fill="#292F33" d="M35 16h-1v4h1c.55 0 1-.45 1-1v-2c0-.55-.45-1-1-1zM1 16c-.55 0-1 .45-1 1v2c0 .55.45 1 1 1h1v-4H1z"/>
    </g>
    <g>
      <defs>
        <style>.cls-1{fill:#664500;}.cls-2{fill:#825d0e;}</style>
      </defs>
      <path class="cls-1" d="M32,6.13c-1.19,1.44-3.18,2-5.08,2.12C26.61,6.71,25.24,1,22.5,1,20.1,1,19.23,2.09,18,2.09S15.9,1,13.5,1C10.76,1,9.39,6.71,9.08,8.25,7.18,8.08,5.19,7.57,4,6.13,1.85,3.52-1,5.44.44,8.3,2.72,12.82,8.23,16,18,16s15.28-3.18,17.56-7.7C37,5.44,34.15,3.52,32,6.13Z" transform="translate(-0.05 -1)"/>
      <path class="cls-2" d="M21.5,3C19.63,3,19,4,18,4s-1.63-1-3.5-1C12,3,11,9.75,11,9.75S12.28,12,18,12s7-2.25,7-2.25S24,3,21.5,3Z" transform="translate(-0.05 -1)"/>
      <path class="cls-1" d="M11,6s2.07,2,7,2,7-2,7-2V8s-2.22,2-7,2-7-2-7-2Z" transform="translate(-0.05 -1)"/>
    </g>
  </g>
</svg>
