<?xml version='1.0' encoding='ASCII' standalone='yes'?>
<svg xmlns="http://www.w3.org/2000/svg" xmlns:xlink="http://www.w3.org/1999/xlink" version="1.1" width="36.0px" viewBox="0 0 36.0 42.0" height="42.0px">
  <g>
    <g transform="translate(0, 6) scale(1 1) ">
      <circle fill="#FFCC4D" cx="18" cy="18" r="18"/>
      <path fill="#65471B" d="M20.996 27c-.103 0-.206-.016-.309-.049-1.76-.571-3.615-.571-5.375 0-.524.169-1.089-.117-1.26-.642-.171-.525.117-1.089.643-1.26 2.162-.702 4.447-.702 6.609 0 .525.171.813.735.643 1.26-.137.421-.529.691-.951.691z"/>
      <path fill="#FFF" d="M30.335 12.068c-.903 2.745-3.485 4.715-6.494 4.715-.144 0-.289-.005-.435-.014-1.477-.093-2.842-.655-3.95-1.584.036.495.076.997.136 1.54.152 1.388.884 2.482 2.116 3.163.82.454 1.8.688 2.813.752 1.734.109 3.57-.28 4.873-.909 1.377-.665 2.272-1.862 2.456-3.285.183-1.415-.354-2.924-1.515-4.378z"/>
      <path fill="#65471B" d="M21.351 7.583c-1.297.55-1.947 2.301-1.977 5.289l.039.068c.897 1.319 2.373 2.224 4.088 2.332.114.007.228.011.341.011 2.634 0 4.849-1.937 5.253-4.524-.115-.105-.221-.212-.343-.316-3.715-3.17-6.467-3.257-7.401-2.86z"/>
      <path fill="#F4900C" d="M23.841 16.783c3.009 0 5.591-1.97 6.494-4.715-.354-.443-.771-.88-1.241-1.309-.404 2.587-2.619 4.524-5.253 4.524-.113 0-.227-.004-.341-.011-1.715-.108-3.191-1.013-4.088-2.332l-.039-.068c-.007.701.021 1.473.083 2.313 1.108.929 2.473 1.491 3.95 1.584.146.01.291.014.435.014z"/>
      <circle fill="#FFF" cx="21.413" cy="10.705" r="1.107"/>
      <path fill="#FFF" d="M12.159 16.783c-3.009 0-5.591-1.97-6.494-4.715-1.161 1.454-1.697 2.963-1.515 4.377.185 1.423 1.079 2.621 2.456 3.285 1.303.629 3.138 1.018 4.873.909 1.013-.064 1.993-.297 2.813-.752 1.231-.681 1.963-1.775 2.116-3.163.06-.542.1-1.042.136-1.536-1.103.923-2.47 1.487-3.95 1.58-.146.011-.291.015-.435.015z"/>
      <path fill="#65471B" d="M12.159 15.283c.113 0 .227-.004.341-.011 1.715-.108 3.191-1.013 4.088-2.332l.039-.068c-.031-2.988-.68-4.739-1.977-5.289-.934-.397-3.687-.31-7.401 2.859-.122.104-.227.211-.343.316.404 2.588 2.619 4.525 5.253 4.525z"/>
      <path fill="#F4900C" d="M16.626 12.872l-.039.068c-.897 1.319-2.373 2.224-4.088 2.332-.114.007-.228.011-.341.011-2.634 0-4.849-1.937-5.253-4.524-.47.429-.887.866-1.241 1.309.903 2.745 3.485 4.715 6.494 4.715.144 0 .289-.005.435-.014 1.48-.093 2.847-.657 3.95-1.58.062-.841.091-1.614.083-2.317z"/>
      <path fill="#FFF" d="M9.781 11.81c.61-.038 1.074-.564 1.035-1.174-.038-.61-.564-1.074-1.174-1.036-.61.038-1.074.564-1.036 1.174.039.61.565 1.074 1.175 1.036z"/>
    </g>
    <g>
      <defs>
        <style>.cls-1{fill:#664500;}.cls-2{fill:#825d0e;}</style>
      </defs>
      <path class="cls-1" d="M32,6.13c-1.19,1.44-3.18,2-5.08,2.12C26.61,6.71,25.24,1,22.5,1,20.1,1,19.23,2.09,18,2.09S15.9,1,13.5,1C10.76,1,9.39,6.71,9.08,8.25,7.18,8.08,5.19,7.57,4,6.13,1.85,3.52-1,5.44.44,8.3,2.72,12.82,8.23,16,18,16s15.28-3.18,17.56-7.7C37,5.44,34.15,3.52,32,6.13Z" transform="translate(-0.05 -1)"/>
      <path class="cls-2" d="M21.5,3C19.63,3,19,4,18,4s-1.63-1-3.5-1C12,3,11,9.75,11,9.75S12.28,12,18,12s7-2.25,7-2.25S24,3,21.5,3Z" transform="translate(-0.05 -1)"/>
      <path class="cls-1" d="M11,6s2.07,2,7,2,7-2,7-2V8s-2.22,2-7,2-7-2-7-2Z" transform="translate(-0.05 -1)"/>
    </g>
  </g>
</svg>
