<?xml version='1.0' encoding='ASCII' standalone='yes'?>
<svg xmlns="http://www.w3.org/2000/svg" xmlns:xlink="http://www.w3.org/1999/xlink" version="1.1" width="36.0px" viewBox="0 0 36.0 42.0" height="42.0px">
  <g>
    <g transform="translate(0, 6) scale(1 1) ">
      <circle fill="#FFCC4D" cx="18" cy="18" r="18"/>
      <path fill="#65471B" d="M6.001 11c-.552 0-1-.448-1-1 0-.551.445-.998.996-1 .156-.002 3.569-.086 6.205-3.6.331-.44.957-.532 1.4-.2.442.331.531.958.2 1.4-3.263 4.35-7.617 4.4-7.801 4.4zm24.986 2.393c.128.537-.204 1.077-.741 1.205-.536.128-1.074-.202-1.204-.737-.038-.151-.911-3.452-4.941-5.201-.505-.22-.739-.808-.519-1.315.22-.507.809-.739 1.315-.519 4.989 2.165 6.047 6.388 6.09 6.567z"/>
      <path fill="#664500" d="M23.186 29.526c-.993 0-1.952-.455-2.788-1.339-2.816-2.985-3.569-2.333-4.817-1.251-.781.679-1.754 1.523-3.205 1.523-2.351 0-3.969-2.302-4.036-2.4-.314-.454-.2-1.077.254-1.391.451-.312 1.074-.2 1.39.251.301.429 1.317 1.54 2.393 1.54.704 0 1.256-.479 1.895-1.033 1.816-1.578 3.764-2.655 7.583 1.388.823.873 1.452.774 1.908.592 1.659-.665 3.205-3.698 3.197-5.15-.003-.552.442-1.002.994-1.005h.006c.55 0 .997.444 1 .995.012 2.103-1.854 5.976-4.454 7.017-.443.175-.885.262-1.32.263z"/>
      <path fill="#65471B" d="M14.815 15.375c-.584 2.114-1.642 3.083-3.152 2.666-1.509-.417-2.343-1.909-1.76-4.023.583-2.112 2.175-3.363 3.684-2.946 1.511.417 1.812 2.19 1.228 4.303zm11.416-.755c.473 2.141-.675 4.838-2.204 5.176s-3.28-1.719-3.753-3.86c-.473-2.14.419-3.971 1.948-4.309s3.536.853 4.009 2.993z"/>
    </g>
    <g>
      <defs>
        <style>.cls-1{fill:#664500;}.cls-2{fill:#825d0e;}</style>
      </defs>
      <path class="cls-1" d="M32,6.13c-1.19,1.44-3.18,2-5.08,2.12C26.61,6.71,25.24,1,22.5,1,20.1,1,19.23,2.09,18,2.09S15.9,1,13.5,1C10.76,1,9.39,6.71,9.08,8.25,7.18,8.08,5.19,7.57,4,6.13,1.85,3.52-1,5.44.44,8.3,2.72,12.82,8.23,16,18,16s15.28-3.18,17.56-7.7C37,5.44,34.15,3.52,32,6.13Z" transform="translate(-0.05 -1)"/>
      <path class="cls-2" d="M21.5,3C19.63,3,19,4,18,4s-1.63-1-3.5-1C12,3,11,9.75,11,9.75S12.28,12,18,12s7-2.25,7-2.25S24,3,21.5,3Z" transform="translate(-0.05 -1)"/>
      <path class="cls-1" d="M11,6s2.07,2,7,2,7-2,7-2V8s-2.22,2-7,2-7-2-7-2Z" transform="translate(-0.05 -1)"/>
    </g>
  </g>
</svg>
