<svg id="Layer_1" data-name="Layer 1" xmlns="http://www.w3.org/2000/svg" viewBox="0 0 36 35.78"><defs><style>.cls-1{fill:#662113;}.cls-2{fill:#c1694f;}.cls-3{fill:#272b2b;}.cls-4{fill:#e6aaaa;}.cls-5{fill:#664500;}.cls-6{fill:#825d0e;}</style></defs><path class="cls-1" d="M16,14.94c-1.46-2.33-.67-7.7,0-8.95s-.54-2.46-1.5-.46-1,3-3.16,2.46-1.09-3.3-.38-5.63S10,.4,9.26,1.9,8,7.6,6.36,7.89s-6.1.6-2.85-5.65c1.31-2.52-.74-3-1.83-.92C.36,3.87-.4,7.11.22,8.49c1.11,2.44,3.48,2.95,7,2.28s6.11-.63,6.11,1.13.2,3.46,1,3.63A2.15,2.15,0,0,0,16,14.94Zm4.06,0c1.46-2.33.67-7.7,0-8.95s.54-2.46,1.5-.46,1,3,3.16,2.46,1.09-3.3.38-5.63.92-2,1.67-.46,1.25,5.7,2.9,6,6.1.6,2.85-5.65c-1.31-2.52.74-3,1.83-.92,1.32,2.55,2.08,5.79,1.46,7.17-1.11,2.44-3.48,2.95-7,2.28s-6.11-.63-6.11,1.13-.2,3.46-1,3.63A2.11,2.11,0,0,1,20,14.94Z"/><path class="cls-2" d="M13.86,15.36c.6,2.39.16,4.42-2.23,5s-6.35.56-8-1.3c-2.29-2.65-2.53-6.39-1.19-6.73S13.26,13,13.86,15.36Zm8.28,0c-.59,2.39-.16,4.42,2.23,5s6.35.56,8-1.3c2.3-2.65,2.53-6.39,1.19-6.73S22.74,13,22.14,15.36Z"/><path class="cls-3" d="M2.48,12.34c-.94.24-1.1,2.16-.32,4.2l3.38-4.13A13,13,0,0,0,2.48,12.34Zm31,0a13.46,13.46,0,0,0-3.12.07l3.45,4.11C34.62,14.49,34.46,12.58,33.52,12.34Z"/><path class="cls-4" d="M12.05,15.86c.87,1.39-.55,2.23-1.94,3.1s-4.61-.21-5.48-1.6S3.44,14.23,4,13.91,11.18,14.46,12.05,15.86Zm11.9,0c-.87,1.39.55,2.23,1.94,3.1s4.61-.21,5.48-1.6,1.19-3.13.68-3.45S24.82,14.46,24,15.86Z"/><path class="cls-2" d="M18,14h0c-10.27,0-8.7,4-7.6,10.54S12.8,35.78,18,35.78s6.5-4.67,7.6-11.25S28.27,14,18,14Z"/><path class="cls-3" d="M11.83,22.71a1.5,1.5,0,1,1,2.59-1.5l.75,1.3A1.5,1.5,0,1,1,12.58,24Zm9.75-1.5a1.5,1.5,0,1,1,2.59,1.5L23.42,24a1.5,1.5,0,1,1-2.59-1.5ZM15.23,34.13c-.93-.19,1.85-3.6,2.77-3.6s3.7,3.41,2.77,3.6A28.49,28.49,0,0,1,15.23,34.13Z"/><path class="cls-5" d="M28.22,8.07a5.16,5.16,0,0,1-3.71,1.55c-.23-1.12-1.23-5.29-3.23-5.29-1.75,0-2.38.79-3.28.79s-1.53-.79-3.28-.79c-2,0-3,4.17-3.23,5.29A5.29,5.29,0,0,1,7.78,8.07c-1.57-1.9-3.65-.5-2.6,1.59C6.85,13,10.87,15.28,18,15.28S29.15,13,30.81,9.66C31.87,7.57,29.79,6.17,28.22,8.07Z"/><path class="cls-6" d="M20.55,5.79c-1.36,0-1.82.73-2.55.73s-1.19-.73-2.55-.73c-1.83,0-2.56,4.92-2.56,4.92s.93,1.65,5.11,1.65,5.11-1.65,5.11-1.65S22.38,5.79,20.55,5.79Z"/><path class="cls-5" d="M12.89,8S14.4,9.44,18,9.44,23.11,8,23.11,8V9.44A7.9,7.9,0,0,1,18,10.9a7.9,7.9,0,0,1-5.11-1.46Z"/></svg>