<svg id="Layer_1" data-name="Layer 1" xmlns="http://www.w3.org/2000/svg" viewBox="0 0 35.96 40.61"><defs><style>.cls-1{fill:#c1cdd5;}.cls-2{fill:#60379a;}.cls-3{fill:#758795;}.cls-4{fill:#292f33;}.cls-5{fill:#53626c;}.cls-6{fill:#ee7c0e;}.cls-7{fill:#c43512;}.cls-8{fill:#664500;}.cls-9{fill:#825d0e;}</style></defs><path class="cls-1" d="M35.82,24.47c-2.49-9.93-11-17.95-20-13A52.19,52.19,0,0,1,10.67,9.5C10,9.06,9,8.59,9.76,9.93a13.84,13.84,0,0,0,2.4,3.32c-4.34,4.32-3.07,9.62-4.6,13.11-1.31,3-2.58,4.74-1.31,7a4.39,4.39,0,0,0,7,1.06c1.24-1.31.47-1.94,3.13-4.2,2.72-.55,4.39-1.79,4.39-4.38,0,0,.8-.38,1.83,6,.45,2.82-.16,5.63,0,8.78H35.82Z"/><path class="cls-2" d="M31.72,10.67a12,12,0,0,1,.6,5.32A9.21,9.21,0,0,0,27.94,8.8c-2.2-1.14-4.37-1-6.8-.77a2.65,2.65,0,0,1,.32,1.54A2.49,2.49,0,0,0,19.13,8.3a13.63,13.63,0,0,0-3.48,1.16,7.91,7.91,0,0,0-2.37,1.1c-1.91,1.17-4.17,4.34-6.74,3.51a3.14,3.14,0,0,0,3.64,1.85,12.68,12.68,0,0,1,6.16-4.46C24,9.72,29,14.9,31.77,20.86c.77,1.63,2.62,7.13,4.05,10.29V15.57C35.07,14.53,34.53,12.55,31.72,10.67Z"/><path class="cls-1" d="M13.6,8.27c.58.79,3.24.8,4.6,3.82s-1.94,2.63-3.14,1.23a9,9,0,0,1-2.16-4C12.77,8.74,12.44,6.68,13.6,8.27Z"/><path class="cls-3" d="M14,9.57a5.71,5.71,0,0,1,2.52,2.6c.35,1.08-.71.89-1.35,0s-.94-2-1.28-2.26S14,9.57,14,9.57Z"/><circle class="cls-4" cx="15.07" cy="19.18" r="0.95"/><path class="cls-5" d="M8.45,31.49a1.1,1.1,0,0,1-.67,1.35c-.49.09-1-.37-1.11-1a1.09,1.09,0,0,1,.67-1.35C7.83,30.37,8.33,30.83,8.45,31.49Z"/><path class="cls-6" d="M13.66,12.74h0l0,0s0,0,0,0l0,0C12.44,11.69.75,4.12,0,4.83S10.26,14.35,11,14.89h0l.54.44v0l.05,0,0,0h0a1.57,1.57,0,0,0,2-.59A1.55,1.55,0,0,0,13.66,12.74Z"/><path class="cls-7" d="M4.49,6.86v0l-.88-.5a.49.49,0,0,1,0,.11,3.54,3.54,0,0,1-.43.71,3.49,3.49,0,0,1-.54.6l0,0,.74.68A4.55,4.55,0,0,0,4,7.76,5.17,5.17,0,0,0,4.49,6.86Zm2.28,3A4.85,4.85,0,0,0,7.43,8.6c-.29-.19-.59-.36-.88-.54A3.32,3.32,0,0,1,6,9.21a3.32,3.32,0,0,1-.87.84l.78.67A4.82,4.82,0,0,0,6.77,9.81Zm2.92,2.12a4.62,4.62,0,0,0,.73-1.43l-.91-.59a2.82,2.82,0,0,1-.63,1.42,3,3,0,0,1-1.1,1L8.6,13A4.47,4.47,0,0,0,9.69,11.93Z"/><path class="cls-8" d="M32.73,10.31a6.31,6.31,0,0,1-4.91.24c.21-1.39.8-6.59-1.5-7.43-2-.73-3.07-.08-4.1-.45S20.79,1.12,18.78.39c-2.3-.84-5.18,3.53-5.91,4.73A6.43,6.43,0,0,1,9.26,1.8c-1-2.85-4-2.1-3.65.73C6.15,7,9.8,11.36,18,14.33s13.78,2,17.06-1.11C37.13,11.26,35.32,8.78,32.73,10.31Z"/><path class="cls-9" d="M24.88,4.5c-1.57-.57-2.4.07-3.24-.23S20.58,2.94,19,2.37C16.91,1.61,14,7,14,7s.39,2.28,5.19,4,6.55.24,6.55.24S27,5.26,24.88,4.5Z"/><path class="cls-8" d="M15.16,3.82s1.13,2.3,5.26,3.8,6.48.46,6.48.46l-.61,1.67s-2.47,1-6.48-.45-5.26-3.81-5.26-3.81Z"/></svg>