<svg id="Layer_1" data-name="Layer 1" xmlns="http://www.w3.org/2000/svg" viewBox="0 0 30.93 42.55"><defs><style>.cls-1{fill:#662113;}.cls-2{fill:#ffac33;}.cls-3{fill:#c1694f;}.cls-4{fill:#ffd983;}.cls-5{fill:#292f33;}.cls-6{fill:#ffcc4d;}.cls-7{fill:#f4900c;}.cls-8{fill:#664500;}.cls-9{fill:#825d0e;}</style></defs><path class="cls-1" d="M4.91,18.3c-5.73,9.09,1,18,1,18s2.88-.44,6.88-5.2S4.91,18.3,4.91,18.3Zm21.34,0c5.72,9.09-1,18-1,18s-2.87-.44-6.88-5.2S26.25,18.3,26.25,18.3Z"/><path class="cls-2" d="M12.79,38.86a1.19,1.19,0,0,0-.53-.49,4.13,4.13,0,0,1-.59-4.72c0-.7,1.27-2.55,0-2.55L10.4,32.38c-1.27,1.27-1.27,5.09-1.27,5.09H6.58a1.27,1.27,0,0,0,0,2.54H8l-.28.15A1.27,1.27,0,0,0,8.92,42.4l3.36-1.81A1.28,1.28,0,0,0,12.79,38.86Zm5.6,0a1.14,1.14,0,0,1,.53-.49,4.13,4.13,0,0,0,.59-4.72c0-.7-1.27-2.55,0-2.55l1.27,1.28c1.27,1.27,1.27,5.09,1.27,5.09H24.6a1.27,1.27,0,0,1,0,2.54H23.19l.28.15a1.27,1.27,0,0,1-1.21,2.24L18.9,40.59A1.27,1.27,0,0,1,18.39,38.86Z"/><path class="cls-1" d="M25.87,18.6c2.89-6.1,0-10.55,0-10.55s-5.78,1-6.75,2.88C17.9,13.35,25.87,18.6,25.87,18.6Z"/><path class="cls-1" d="M27.15,20c0,10.3-3.15,20.6-11.56,20.6S4,30.34,4,20,9.2,9.39,15.59,9.39,27.15,9.74,27.15,20Z"/><path class="cls-3" d="M25.25,25c0,10.3-7.77,14.6-9.66,14.6S5.92,35.34,5.92,25,25.25,14.74,25.25,25Z"/><path class="cls-1" d="M5.31,18.6c-2.89-6.1,0-10.55,0-10.55s5.78,1,6.75,2.88C13.27,13.35,5.31,18.6,5.31,18.6Z"/><path class="cls-3" d="M12.52,11.68A37.34,37.34,0,0,1,5.31,8.05,10.75,10.75,0,0,0,4.38,16c.45,2.14,1.94,4.2,3.91,4.66,2.63.63,7.3-.05,7.3-4C15.59,14,14.51,12.43,12.52,11.68Zm6.14,0a37.34,37.34,0,0,0,7.21-3.63A10.78,10.78,0,0,1,26.79,16c-.44,2.14-1.94,4.2-3.9,4.66-2.64.63-7.3-.05-7.3-4C15.59,14,16.66,12.43,18.66,11.68Z"/><path class="cls-4" d="M13.67,15.72a3.83,3.83,0,1,1-3.83-3.83A3.82,3.82,0,0,1,13.67,15.72Zm11.5,0a3.83,3.83,0,1,1-3.83-3.83A3.82,3.82,0,0,1,25.17,15.72Z"/><path class="cls-5" d="M11.76,15.72A1.92,1.92,0,1,1,9.84,13.8,1.92,1.92,0,0,1,11.76,15.72Zm11.5,0a1.92,1.92,0,1,1-1.92-1.92A1.92,1.92,0,0,1,23.26,15.72Z"/><path class="cls-6" d="M18.46,20c0,2.39-2.87,3.36-2.87,3.36s-2.88-1-2.88-3.36,2.88-3.35,2.88-3.35S18.46,17.65,18.46,20Z"/><path class="cls-7" d="M18.46,20c0,2.39-2.87,3.36-2.87,3.36s-2.88-1-2.88-3.36a5.67,5.67,0,0,0,2.88,1.44A5.62,5.62,0,0,0,18.46,20Z"/><path class="cls-8" d="M27.52,4.42a6.09,6.09,0,0,1-4.37,1.83C22.88,4.92,21.7,0,19.34,0c-2.07,0-2.82.94-3.88.94S13.65,0,11.59,0C9.23,0,8.05,4.92,7.78,6.25A6.28,6.28,0,0,1,3.4,4.42C1.55,2.17-.9,3.82.34,6.29c2,3.89,6.71,6.63,15.12,6.63s13.17-2.74,15.13-6.63C31.83,3.82,29.38,2.17,27.52,4.42Z"/><path class="cls-9" d="M18.48,1.72c-1.61,0-2.16.86-3,.86s-1.4-.86-3-.86c-2.16,0-3,5.82-3,5.82s1.11,1.94,6,1.94,6-1.94,6-1.94S20.63,1.72,18.48,1.72Z"/><path class="cls-8" d="M9.43,4.31S11.22,6,15.46,6s6-1.72,6-1.72V6s-1.91,1.72-6,1.72S9.43,6,9.43,6Z"/></svg>