<svg id="Layer_1" data-name="Layer 1" xmlns="http://www.w3.org/2000/svg" viewBox="0 0 31.38 42.71"><defs><style>.cls-1{fill:#292f33;}.cls-2{fill:#e1e8ed;}.cls-3{fill:#ffcc4d;}.cls-4{fill:#664500;}.cls-5{fill:#825d0e;}</style></defs><path class="cls-1" d="M4.91,32.71a1.71,1.71,0,0,1,1,.33c1.37-8.1,20.36-8.25,21.76-.29,1.66.41,3.08,4.38,3.75,10H.38C1.17,36.81,2.9,32.71,4.91,32.71Z"/><path class="cls-2" d="M4.91,30.4C8.83,19.24,4.38,9.71,15.38,9.71s8.73,8.17,13.19,19.13c1.12,2.75-1.44,5.9-1.44,5.9S24.51,30,22.38,28.9a68.17,68.17,0,0,1-1.75,6.94A66.58,66.58,0,0,0,15,30.25a28.74,28.74,0,0,1-3.66,3.46,29,29,0,0,0-1.57-3.57c-1.47,2.23-3.18,5-3.18,5S4.12,32.65,4.91,30.4Z"/><path class="cls-3" d="M9.37,11.71C5,14.77,3.83,13.87,1.56,15.27s-2,4.94-.12,8.07c.58-2.67-.5-3.15,6.94-3.15,5,0,7.92.29,7-1S5.35,19.65,9.37,11.71Z"/><path class="cls-1" d="M14.4,14.23a1.48,1.48,0,0,1-3,0,1.63,1.63,0,0,1,.07-.45h2.82A1.63,1.63,0,0,1,14.4,14.23Z"/><path class="cls-4" d="M27.61,4.42a6.12,6.12,0,0,1-4.38,1.83C23,4.92,21.78,0,19.42,0c-2.06,0-2.81.94-3.87.94S13.74,0,11.67,0C9.31,0,8.13,4.92,7.86,6.25A6.26,6.26,0,0,1,3.49,4.42C1.63,2.17-.82,3.82.42,6.29c2,3.89,6.71,6.63,15.13,6.63s13.16-2.74,15.12-6.63C31.91,3.82,29.46,2.17,27.61,4.42Z"/><path class="cls-5" d="M18.56,1.72c-1.61,0-2.15.86-3,.86s-1.41-.86-3-.86c-2.15,0-3,5.82-3,5.82s1.1,1.94,6,1.94,6-1.94,6-1.94S20.71,1.72,18.56,1.72Z"/><path class="cls-4" d="M9.52,4.31S11.3,6,15.55,6s6-1.72,6-1.72V6s-1.92,1.72-6,1.72S9.52,6,9.52,6Z"/></svg>