<svg id="Layer_1" data-name="Layer 1" xmlns="http://www.w3.org/2000/svg" viewBox="0 0 35.8 35.57"><defs><style>.cls-1{fill:#a0041e;}.cls-2{fill:#be1931;}.cls-3{fill:#dd2e44;}.cls-4{fill:#664500;}.cls-5{fill:#825d0e;}</style></defs><path class="cls-1" d="M7,20.64c.07.64-.54,1.22-1.37,1.31A1.36,1.36,0,0,1,4,21c-.07-.64.54-1.23,1.37-1.32A1.36,1.36,0,0,1,7,20.64Zm2.09,2.71c.12.82-1.76,2.55-2.58,2.67a1.49,1.49,0,0,1-1.71-1.25c-.12-.82.58-1.14,1.4-1.27S8.92,22.54,9.05,23.35Zm1.78,2.11c.17.81-1.63,3.93-2.44,4.1s-1.64.14-1.81-.67A1.55,1.55,0,0,1,7.69,27C8.5,26.86,10.66,24.65,10.83,25.46Zm3.85.86c.17.81-1.34,4.35-2.15,4.51s-1.44.46-1.6-.36a2.94,2.94,0,0,1,1-2.58C12.58,27.37,14.52,25.5,14.68,26.32Z" transform="translate(-0.1 -0.3)"/><path class="cls-1" d="M3.92,18.87c.61.71,1.19,1.23.47,1.83s-1.75.17-2.36-.55-2.23-3.42-1.52-4S3.32,18.15,3.92,18.87Zm.34,4.88c.89.29,1.85.8,1.56,1.69s-1.33,1-2.22.7S-.17,24.45.12,23.56,3.36,23.46,4.26,23.75Zm1.21,4.53c.9-.25,1.91-.28,2.16.62s-.28,1.53-1.19,1.79-4.34.72-4.59-.18S4.57,28.53,5.47,28.28Zm4.35,3.19c.08-.94.64-1.67,1.57-1.59s1.26,1,1.18,2,.14,3.57-1.72,4C9.94,36.08,9.73,32.4,9.82,31.47ZM29,20.64c-.07.64.54,1.22,1.37,1.31A1.36,1.36,0,0,0,32,21c.07-.64-.54-1.23-1.36-1.32A1.37,1.37,0,0,0,29,20.64ZM27,23.35c-.12.82,1.76,2.55,2.58,2.67a1.49,1.49,0,0,0,1.71-1.25c.12-.82-.58-1.14-1.4-1.27S27.08,22.54,27,23.35Zm-1.78,2.11c-.17.81,1.63,3.93,2.44,4.1s1.64.14,1.81-.67A1.55,1.55,0,0,0,28.31,27C27.5,26.86,25.34,24.65,25.17,25.46Zm-3.85.86c-.17.81,1.34,4.35,2.15,4.51s1.43.46,1.6-.36a3,3,0,0,0-1-2.58C23.42,27.37,21.48,25.5,21.32,26.32Z" transform="translate(-0.1 -0.3)"/><path class="cls-1" d="M32.08,18.87c-.61.71-1.18,1.23-.47,1.83A1.71,1.71,0,0,0,34,20.15c.61-.72,2.24-3.42,1.53-4S32.68,18.15,32.08,18.87Zm-.33,4.88c-.9.29-1.86.8-1.57,1.69s1.33,1,2.22.7,3.77-1.69,3.48-2.58S32.64,23.46,31.75,23.75Zm-1.22,4.53c-.9-.25-1.91-.28-2.16.62s.28,1.53,1.19,1.79,4.34.72,4.59-.18S31.43,28.53,30.53,28.28Zm-4.35,3.19c-.08-.94-.64-1.67-1.57-1.59s-1.26,1-1.18,2-.14,3.57,1.72,4C26.06,36.08,26.27,32.4,26.18,31.47Zm-23-17.59a1.7,1.7,0,0,1,3.1-1.39c.38.86,2.65,5.62,1.79,6S3.53,14.73,3.15,13.88Z" transform="translate(-0.1 -0.3)"/><path class="cls-1" d="M4,12c1.23,3,8.34-3.34,8.81-6.28s-.31-4.2-.7-4.5.15,1.44-1.18,3.31C9.86,6,3.15,10,4,12Zm28.86,1.85a1.7,1.7,0,0,0-3.1-1.39c-.38.86-2.65,5.62-1.79,6S32.47,14.73,32.85,13.88Z" transform="translate(-0.1 -0.3)"/><path class="cls-1" d="M32,12c-1.23,3-8.34-3.34-8.81-6.28s.31-4.2.7-4.5-.15,1.44,1.18,3.31C26.14,6,32.85,10,32,12Z" transform="translate(-0.1 -0.3)"/><path class="cls-2" d="M6,22c0-2,2-10,12-10s12,8,12,10c-5,3-5.37,7-12,7S12,25,6,22ZM4.32,12.22C1.17,12.77,4,4.08,6.21,2.12A6.44,6.44,0,0,1,11.32.37c.46.17-1.17,2.6-1.75,4.18C9.28,5.36,6.5,11.85,4.32,12.22Zm27.36,0c3.15.55.35-8.14-1.88-10.1A6.46,6.46,0,0,0,24.68.37c-.46.17,1.17,2.6,1.75,4.18C26.72,5.36,29.5,11.85,31.68,12.22Z" transform="translate(-0.1 -0.3)"/><path class="cls-1" d="M17,12.14c.34,1.33,0,1.58-.85,1.78s-1.72.28-2.06-1.06.05-2.58.85-2.79S16.7,10.8,17,12.14Zm4.85.72c-.34,1.34-1.26,1.27-2.06,1.06s-1.19-.45-.85-1.78S20.23,9.87,21,10.07,22.21,11.52,21.88,12.86Z" transform="translate(-0.1 -0.3)"/><path class="cls-3" d="M9.05,21.53c-.14.23-3.05.73-2.3-.73S9.19,21.29,9.05,21.53Z" transform="translate(-0.1 -0.3)"/><path class="cls-3" d="M9.89,20.12c-.22.23-3.19.4-1.92-1.4S10.2,19.8,9.89,20.12Z" transform="translate(-0.1 -0.3)"/><path class="cls-3" d="M11.66,18.66c-.38.23-3.47-.5-1.41-1.93C12.12,15.43,12.16,18.35,11.66,18.66Z" transform="translate(-0.1 -0.3)"/><path class="cls-3" d="M14.1,17.43c-1,.3-3.38-1.3-.88-2.14S15.11,17.13,14.1,17.43Zm12.76,4.1c.14.23,3.05.73,2.3-.73S26.72,21.29,26.86,21.53Z" transform="translate(-0.1 -0.3)"/><path class="cls-3" d="M26,20.12c.22.23,3.19.4,1.92-1.4S25.71,19.8,26,20.12Z" transform="translate(-0.1 -0.3)"/><path class="cls-3" d="M24.25,18.66c.38.23,3.47-.5,1.41-1.93C23.79,15.43,23.75,18.35,24.25,18.66Z" transform="translate(-0.1 -0.3)"/><path class="cls-3" d="M21.81,17.43c1,.3,3.38-1.3.88-2.14S20.8,17.13,21.81,17.43Z" transform="translate(-0.1 -0.3)"/><path class="cls-1" d="M26.85,16.25c0,.41-2.19-2.25-8.85-2.25s-8.85,2.66-8.85,2.25S11.91,12.5,18,12.5,26.85,15.84,26.85,16.25Z" transform="translate(-0.1 -0.3)"/><path class="cls-3" d="M10.79,24.43c0-.41,1.78,2.25,7.21,2.25s7.21-2.66,7.21-2.25S23,28.18,18,28.18,10.79,24.85,10.79,24.43Z" transform="translate(-0.1 -0.3)"/><path class="cls-4" d="M28.69,8.24a5.42,5.42,0,0,1-3.88,1.62c-.24-1.18-1.28-5.54-3.37-5.54-1.84,0-2.5.83-3.44.83s-1.6-.83-3.44-.83c-2.09,0-3.13,4.36-3.37,5.54A5.55,5.55,0,0,1,7.31,8.24c-1.64-2-3.82-.53-2.72,1.65,1.74,3.46,5.95,5.88,13.41,5.88s11.67-2.42,13.41-5.88C32.51,7.71,30.33,6.25,28.69,8.24Z" transform="translate(-0.1 -0.3)"/><path class="cls-5" d="M20.67,5.85c-1.42,0-1.91.76-2.67.76s-1.24-.76-2.67-.76c-1.91,0-2.67,5.15-2.67,5.15s1,1.72,5.34,1.72S23.35,11,23.35,11,22.58,5.85,20.67,5.85Z" transform="translate(-0.1 -0.3)"/><path class="cls-4" d="M12.66,8.14S14.24,9.67,18,9.67s5.35-1.53,5.35-1.53V9.67s-1.7,1.52-5.35,1.52-5.34-1.52-5.34-1.52Z" transform="translate(-0.1 -0.3)"/></svg>