<svg id="Layer_1" data-name="Layer 1" xmlns="http://www.w3.org/2000/svg" viewBox="0 0 35.9 42.08"><defs><style>.cls-1{fill:#31373d;}.cls-2{fill:#66757f;}.cls-3{fill:#99aab5;}.cls-4{fill:#664500;}.cls-5{fill:#825d0e;}</style></defs><path class="cls-1" d="M5,22.26c0-4-5-3-4,1s3,5,3,5Zm26,0c0-4,5-3,4,1s-3,5-3,5Z"/><path class="cls-1" d="M32.6,28c0,10.89-4.69,14.09-14.65,14.09S3.3,38.88,3.3,28,8,6.58,18,6.58,32.6,17.1,32.6,28Z"/><path class="cls-2" d="M27.52,29.26c1.49-4.46,2.09-7.32-.45-7.32H8.83c-2.54,0-1.94,2.86-.45,7.32C3.45,40.46,17.12,41.08,18,41.08S32.25,40,27.52,29.26Z"/><path class="cls-1" d="M15,24.26a2,2,0,0,1-4,0c0-1.1.9-1,2-1S15,23.15,15,24.26Zm10,0a2,2,0,0,1-4,0c0-1.1.9-1,2-1S25,23.15,25,24.26Z"/><ellipse class="cls-1" cx="15.52" cy="29.91" rx="1.43" ry="1"/><path class="cls-1" d="M21.81,29.91c0,.55-.64,1-1.43,1s-1.43-.45-1.43-1,.64-1,1.43-1S21.81,29.36,21.81,29.91Z"/><path class="cls-3" d="M21,27.3a3.65,3.65,0,0,0-3,.83,3.63,3.63,0,0,0-3-.83c-3.16.41-3.29,3.28-1.94,3.1.77-.1.14-.94,1.71-1.55a3.77,3.77,0,0,1,3.25.66,3.77,3.77,0,0,1,3.25-.66c1.58.61.94,1.45,1.71,1.55C24.26,30.58,24.13,27.71,21,27.3Z"/><path class="cls-1" d="M24.79,36.28a27.92,27.92,0,0,1-6.84.59,27.81,27.81,0,0,1-6.83-.59c-3.21-.86-1.93-1.74,0-1.48a45.35,45.35,0,0,0,6.83.42,45.5,45.5,0,0,0,6.84-.42C26.71,34.54,28,35.42,24.79,36.28Z"/><path class="cls-2" d="M4.2,22.88C5.61,21.66,3.13,19.12,2,20.34c-.34.37.92-.19,1.33,1.08C3.65,22.37,3.34,23.63,4.2,22.88Zm27.5,0c-1.41-1.22,1.07-3.76,2.19-2.54.34.37-.92-.19-1.33,1.08C32.25,22.37,32.56,23.63,31.7,22.88Z"/><path class="cls-4" d="M32,5.13a7,7,0,0,1-5.08,2.12C26.56,5.71,25.19,0,22.45,0c-2.4,0-3.27,1.09-4.5,1.09S15.85,0,13.45,0C10.71,0,9.34,5.71,9,7.25,7.13,7.08,5.14,6.57,4,5.13,1.8,2.52-1,4.44.39,7.3,2.67,11.82,8.18,15,18,15s15.28-3.18,17.56-7.7C37,4.44,34.1,2.52,32,5.13Z"/><path class="cls-5" d="M21.45,2C19.58,2,19,3,18,3s-1.63-1-3.5-1C12,2,11,8.75,11,8.75S12.23,11,18,11s7-2.25,7-2.25S24,2,21.45,2Z"/><path class="cls-4" d="M11,5S13,7,18,7s7-2,7-2V7s-2.22,2-7,2-7-2-7-2Z"/></svg>