<svg id="Layer_1" data-name="Layer 1" xmlns="http://www.w3.org/2000/svg" viewBox="0 0 36 40.94"><defs><style>.cls-1{fill:#66757f;}.cls-2{fill:#99aab5;}.cls-3{fill:#ccd6dd;}.cls-4{fill:#292f33;}.cls-5{fill:#e6aaaa;}.cls-6{fill:#664500;}.cls-7{fill:#825d0e;}</style></defs><path class="cls-1" d="M27.29,12.56C26.14,9.5,24.64,5.76,19,5.64c-1.76,0-1.52.54-.35,1,2.25.92-2.47,5.44,4.76,7.4C29.05,15.59,28.44,15.61,27.29,12.56Z"/><path class="cls-2" d="M36,8.93c-7.74,0-14.41,2.52-18.11,5.76C13,19,12.51,25,3.86,30.35,1,32.11,3.43,37.87,5,40c1.91,2.54,28.62.24,31-8.78Z"/><path class="cls-1" d="M8.67,34.68c1,.51,1.79,1,1.32,2s-1.18.25-2.19-.26-2.28,0-1.81-.95A2,2,0,0,1,8.67,34.68ZM34.19,11.36c.24-2.57-2.17-5-5.95-5.91C26.56,5,25,5.1,25.9,5.93c1.79,1.58-.08,4,1.27,7.12.73,1.68,3.24,3.76,4.72,3.82C33,16.92,34,14,34.19,11.36Z"/><path class="cls-2" d="M33.24,11.36c.24-2.57-2.27-5.45-6.17-6-1.72-.25-2.29.09-1.35.91,1.79,1.59-.64,3.63.72,6.75.72,1.67,3.39,3.84,4.87,3.91C32.37,17,33,14,33.24,11.36Z"/><path class="cls-3" d="M2.63,31.93C.08,28-1,20,1.14,14.33c.32-.84,1.08-1.07,1.18.13.18,2.28,2.42,6.83,8,11C11.53,26.35,4.57,35,2.63,31.93Z"/><path class="cls-3" d="M13.24,20.42a8.33,8.33,0,0,1-4.09-4.66C8.57,14,7,19.68,10,24.65,11.21,26.64,14.65,21,13.24,20.42Z"/><circle class="cls-4" cx="16.78" cy="26.04" r="2"/><path class="cls-5" d="M30.29,14.44c1.33.11,2-1.74,1.21-4.69-.64-2.58-4.25-3.25-4.23-3.07a2.66,2.66,0,0,1,0,2.94C26.27,11,28.64,14.31,30.29,14.44Z"/><path class="cls-6" d="M28.11,2.16A5.75,5.75,0,0,1,25.76,6c-1-.87-4.62-4-6.44-2.67-1.59,1.16-1.64,2.3-2.45,2.9S15,6.54,13.35,7.7c-1.81,1.33,0,5.78.58,7a5.94,5.94,0,0,1-4.4,1c-2.69-.69-3.65,2-1.31,3.16,3.7,1.9,8.89,1.34,15.38-3.38S32.19,6,31.52,1.87C31.09-.72,28.27-.62,28.11,2.16Z"/><path class="cls-7" d="M19.63,5.16c-1.24.9-1.18,1.87-1.84,2.36s-1.56.12-2.8,1c-1.66,1.21.94,6.17.94,6.17s1.94.87,5.73-1.9,3.56-4.88,3.56-4.88S21.29,4,19.63,5.16Z"/><path class="cls-6" d="M14.11,12.23s2.35.32,5.62-2.06S23.4,5.46,23.4,5.46l1,1.32s-.51,2.4-3.68,4.72-5.61,2.06-5.61,2.06Z"/></svg>