<svg id="Layer_1" data-name="Layer 1" xmlns="http://www.w3.org/2000/svg" viewBox="0 0 35.66 43.19"><defs><style>.cls-1{fill:#3e721d;}.cls-2{fill:#77b255;}.cls-3{fill:#5c913b;}.cls-4{fill:#664500;}.cls-5{fill:#825d0e;}</style></defs><path class="cls-1" d="M17.92,29.19s1.94,7.88,1.19,9.38c-2.37,4.74-1.19,4.62,0,4.62h2.37c2.38,0-1.18-14-1.18-14ZM5.5,26.58s-.44,8-1.19,9.49c-2.37,4.75-2.37,7.12-1.19,7.12H5.5c1.18,0,1.18-4.15,1.18-5.34s1.19-8.6,1.19-8.6Z"/><path class="cls-2" d="M12.62,12.44c-2.07,0-4.21-.43-5.53,2.1-1.4,2.71-2.06,8.58.78,9.67,2.48.94,7.93-1.19,13.87,1.18S30,42,34.75,42c1.22,0,1.21,1.13,0,1.14-5.91,0-8.51-5.9-9.51-5.9,0,0,1,5.93,0,5.93h-4c-1,0,0-3.08,0-4.27V37.26s-1.59,1.22-5.93,1.22a16.87,16.87,0,0,1-6.07-1.22s1,5.93,0,5.93H5.5c-1.68,0,.16-4,0-5.93C5.4,36.08,5,32.5,4.27,31.33,2.55,28.48,1.51,19.8,2.34,16,3.13,12.51,5.47,9.41,7,8.53s2.86-1.5,6.19-1c1.78.28,3.59,2.92,2.89,4.27C15.68,12.65,14.16,12.43,12.62,12.44Z"/><path d="M13.21,9.37a.6.6,0,1,1-.59-.59A.6.6,0,0,1,13.21,9.37Z"/><path class="cls-3" d="M10.46,25.68a.58.58,0,0,1-1.1.34.58.58,0,0,1,.38-.72A.57.57,0,0,1,10.46,25.68Zm3.87,1.25a.8.8,0,0,1-.54,1,.82.82,0,1,1,.54-1ZM12.71,25.5a.43.43,0,0,1-.29.54.42.42,0,0,1-.54-.28.44.44,0,0,1,.28-.55A.44.44,0,0,1,12.71,25.5Zm2.46-.33a.41.41,0,0,1-.79.24.4.4,0,0,1,.27-.51A.41.41,0,0,1,15.17,25.17Zm2.84.35a.75.75,0,0,1-.5.95.77.77,0,0,1-1-.5A.76.76,0,0,1,18,25.52Zm4.75,2a.48.48,0,0,1-.32.61.49.49,0,1,1-.29-.93A.48.48,0,0,1,22.76,27.5Zm-5.85,0a.48.48,0,0,1-.32.61.49.49,0,0,1-.61-.32.49.49,0,1,1,.93-.29Zm4.22-1.31a.49.49,0,0,1-.32.61.49.49,0,1,1-.29-.93A.49.49,0,0,1,21.13,26.19Zm-1.5.2a.72.72,0,0,1-.48.9.72.72,0,0,1-.9-.47.73.73,0,0,1,.47-.91A.74.74,0,0,1,19.63,26.39Z"/><path class="cls-4" d="M18.94,3a4.13,4.13,0,0,1-3,1.26c-.18-.91-1-4.3-2.62-4.3-1.42,0-1.94.65-2.67.65S9.4,0,8,0C6.35,0,5.54,3.39,5.35,4.3A4.29,4.29,0,0,1,2.34,3C1.07,1.49-.62,2.63.23,4.33,1.58,7,4.85,8.89,10.64,8.89S19.7,7,21.05,4.33C21.91,2.63,20.22,1.49,18.94,3Z"/><path class="cls-5" d="M12.72,1.19c-1.11,0-1.48.59-2.08.59s-1-.59-2.07-.59c-1.48,0-2.08,4-2.08,4s.76,1.33,4.15,1.33,4.15-1.33,4.15-1.33S14.2,1.19,12.72,1.19Z"/><path class="cls-4" d="M6.49,3s1.23,1.19,4.15,1.19S14.79,3,14.79,3V4.15a6.38,6.38,0,0,1-4.15,1.19A6.41,6.41,0,0,1,6.49,4.15Z"/></svg>