<?xml version='1.0' encoding='ASCII' standalone='yes'?>
<svg xmlns="http://www.w3.org/2000/svg" xmlns:xlink="http://www.w3.org/1999/xlink" version="1.1" width="36.0px" viewBox="0 0 36.0 42.0" height="42.0px">
  <g>
    <g transform="translate(0, 6) scale(1 1) ">
      <path fill="#EA596E" d="M31 11C31 5 18 0 18 0v25s13-8 13-14z"/>
      <path fill="#EA596E" d="M5.002 11c0-6 13-11 13-11v25c.001 0-13-8-13-14z"/>
      <path fill="#F4ABBA" d="M27 11c0 3.833-9 12-9 12s-9-8.167-9-12c0-5 9-11 9-11s9 6 9 11z"/>
      <path fill="#BE1931" d="M13 15.867c2.552 4.254-1.806 9.096-4.357 8.245-2.552-.851-3.403 1.701-.851 2.552s8.052-.396 11.059-3.402c.851-.851 1.701-.851 1.701-.851L13 15.867z"/>
      <path fill="#BE1931" d="M23 15.867c-2.552 4.254 1.806 9.096 4.357 8.245 2.553-.851 3.403 1.701.851 2.552s-8.052-.396-11.059-3.402c-.851-.851-1.702-.851-1.702-.851L23 15.867z"/>
      <path fill="#EA596E" d="M9 17c2.552 4.254-1.369 11.366-3.921 10.515-2.552-.851-3.403 1.702-.851 2.553s8.052-.396 11.059-3.403c.851-.851 1.701-.851 1.701-.851L9 17zm17.989 0c-2.553 4.254 1.368 11.366 3.921 10.515 2.552-.851 3.402 1.702.851 2.553-2.553.851-8.052-.396-11.059-3.403-.851-.852-1.702-.852-1.702-.852L26.989 17z"/>
      <path fill="#F4ABBA" d="M30.921 32.35C28.599 33.124 24 27 25 21c2-5-4-7.482-4-9.983 0-6.108-2.031-9.735-3.031-9.735S15 4.909 15 11.017C15 13.518 9 16 11 21c1 6-3.599 12.124-5.921 11.35-2.552-.851-3.403 2.552-.851 3.402 2.552.851 7.069-.533 10.208-3.402C16.299 30.647 18 30.647 18 30.647s1.701 0 3.563 1.702c3.139 2.869 7.656 4.253 10.208 3.402 2.552-.85 1.702-4.252-.85-3.401z"/>
      <circle fill="#292F33" cx="14.5" cy="23.5" r="2.5"/>
      <circle fill="#292F33" cx="21.5" cy="23.5" r="2.5"/>
    </g>
    <g>
      <defs>
        <style>.cls-1{fill:#664500;}.cls-2{fill:#825d0e;}</style>
      </defs>
      <path class="cls-1" d="M32,6.13c-1.19,1.44-3.18,2-5.08,2.12C26.61,6.71,25.24,1,22.5,1,20.1,1,19.23,2.09,18,2.09S15.9,1,13.5,1C10.76,1,9.39,6.71,9.08,8.25,7.18,8.08,5.19,7.57,4,6.13,1.85,3.52-1,5.44.44,8.3,2.72,12.82,8.23,16,18,16s15.28-3.18,17.56-7.7C37,5.44,34.15,3.52,32,6.13Z" transform="translate(-0.05 -1)"/>
      <path class="cls-2" d="M21.5,3C19.63,3,19,4,18,4s-1.63-1-3.5-1C12,3,11,9.75,11,9.75S12.28,12,18,12s7-2.25,7-2.25S24,3,21.5,3Z" transform="translate(-0.05 -1)"/>
      <path class="cls-1" d="M11,6s2.07,2,7,2,7-2,7-2V8s-2.22,2-7,2-7-2-7-2Z" transform="translate(-0.05 -1)"/>
    </g>
  </g>
</svg>
