<?xml version='1.0' encoding='ASCII' standalone='yes'?>
<svg xmlns="http://www.w3.org/2000/svg" xmlns:xlink="http://www.w3.org/1999/xlink" version="1.1" width="36.0px" viewBox="0 0 36.0 42.0" height="42.0px">
  <g>
    <g transform="translate(0, 6) scale(1 1) ">
      <circle fill="#F4900C" cx="18" cy="19" r="17"/>
      <circle fill="#FFCC4D" cx="18" cy="17" r="17"/>
      <circle fill="#FFE8B6" cx="18" cy="18" r="14"/>
      <circle fill="#FFAC33" cx="18" cy="17" r="14"/>
      <path fill="#FFE8B6" d="M9.543 10.856c0-.545.535-.763.535-.763l7.878-3.7 7.953 3.7s.548.122.548.767v.641H9.543v-.645z"/>
      <path fill="#F4900C" d="M25.929 12.836c0-.584-.505-1.057-1.127-1.057H11.129c-.623 0-1.057.473-1.057 1.057 0 .397.204.739.529.92v.666h2.114v-.529h2.114v.529h2.114v-.529h2.114v.529h2.114v-.529h2.114v.529H25.4v-.693c.317-.188.529-.517.529-.893zM27.514 24c0 .438-.355.793-.793.793H9.279c-.438 0-.793-.355-.793-.793 0-.438.355-.793.793-.793h17.443c.437 0 .792.355.792.793z"/>
      <path fill="#F4900C" d="M26.457 12.2c0 .292-.236.529-.529.529H10.071c-.292 0-.529-.237-.529-.529 0-.292.237-.529.529-.529l15.857.003c.293.001.529.234.529.526zm-14.271.614h11.629V14H12.186z"/>
      <path fill="#FFD983" d="M12.714 20.829c0 .584-.316 1.057-.705 1.057h-.705c-.389 0-.705-.473-.705-1.057v-8.014c0-.584.316-1.057.705-1.057h.705c.389 0 .705.473.705 1.057v8.014zm12.686 0c0 .584-.315 1.057-.705 1.057h-.705c-.389 0-.705-.473-.705-1.057v-8.014c0-.584.315-1.057.705-1.057h.705c.389 0 .705.473.705 1.057v8.014zm-8.457 0c0 .584-.316 1.057-.705 1.057h-.705c-.389 0-.705-.473-.705-1.057v-8.014c0-.584.316-1.057.705-1.057h.705c.389 0 .705.473.705 1.057v8.014zm4.228 0c0 .584-.316 1.057-.705 1.057h-.704c-.389 0-.705-.473-.705-1.057v-8.014c0-.584.316-1.057.705-1.057h.704c.389 0 .705.473.705 1.057v8.014z"/>
      <path fill="#FFCC4D" d="M25.929 21.357c0 .584-.473 1.057-1.057 1.057H11.129c-.584 0-1.057-.473-1.057-1.057s.473-1.057 1.057-1.057h13.743c.583 0 1.057.473 1.057 1.057z"/>
      <path fill="#FFD983" d="M26.986 22.414c0 .584-.473 1.057-1.057 1.057H10.071c-.584 0-1.057-.473-1.057-1.057s.473-1.057 1.057-1.057h15.857c.584 0 1.058.473 1.058 1.057z"/>
      <path fill="#FFD983" d="M27.514 23.207c0 .438-.355.793-.793.793H9.279c-.438 0-.793-.355-.793-.793 0-.438.355-.793.793-.793h17.443c.437 0 .792.355.792.793z"/>
      <path fill="#FFCC4D" d="M25.929 12.286c0-.584-.505-1.057-1.127-1.057H11.129c-.623 0-1.057.473-1.057 1.057 0 .397.204.739.529.92v.666h2.114v-.529h2.114v.529h2.114v-.529h2.114v.529h2.114v-.529h2.114v.529H25.4v-.693c.317-.188.529-.517.529-.893z"/>
      <path fill="#FFD983" d="M9.543 11.463c0-.545.535-.763.535-.763L17.956 7l7.953 3.7s.548.122.548.767v.291H9.543v-.295z"/>
      <path fill="#FFAC33" d="M18 8.343s-5.455 2.571-5.999 2.803c-.545.231-.363.611.001.611h11.97c.562 0 .429-.429-.017-.661C23.509 10.865 18 8.343 18 8.343z"/>
      <path fill="#FFD983" d="M26.457 11.757c0 .292-.236.529-.529.529H10.071c-.292 0-.529-.237-.529-.529 0-.292.237-.529.529-.529l15.857.003c.293.001.529.234.529.526z"/>
    </g>
    <g>
      <defs>
        <style>.cls-1{fill:#664500;}.cls-2{fill:#825d0e;}</style>
      </defs>
      <path class="cls-1" d="M32,6.13c-1.19,1.44-3.18,2-5.08,2.12C26.61,6.71,25.24,1,22.5,1,20.1,1,19.23,2.09,18,2.09S15.9,1,13.5,1C10.76,1,9.39,6.71,9.08,8.25,7.18,8.08,5.19,7.57,4,6.13,1.85,3.52-1,5.44.44,8.3,2.72,12.82,8.23,16,18,16s15.28-3.18,17.56-7.7C37,5.44,34.15,3.52,32,6.13Z" transform="translate(-0.05 -1)"/>
      <path class="cls-2" d="M21.5,3C19.63,3,19,4,18,4s-1.63-1-3.5-1C12,3,11,9.75,11,9.75S12.28,12,18,12s7-2.25,7-2.25S24,3,21.5,3Z" transform="translate(-0.05 -1)"/>
      <path class="cls-1" d="M11,6s2.07,2,7,2,7-2,7-2V8s-2.22,2-7,2-7-2-7-2Z" transform="translate(-0.05 -1)"/>
    </g>
  </g>
</svg>
