<svg id="Layer_1" data-name="Layer 1" xmlns="http://www.w3.org/2000/svg" viewBox="0 0 35.9 37.38"><defs><style>.cls-1{fill:#66757f;}.cls-2{fill:#744eaa;}.cls-3{fill:#9266cc;}.cls-4{fill:#664500;}.cls-5{fill:#825d0e;}</style></defs><path class="cls-1" d="M7.45,30.88a1.5,1.5,0,0,1,3,0v.5a3,3,0,1,0,6,0V5.88a1.5,1.5,0,1,1,3,0v25.5s0,6-6,6-6-6-6-6Z"/><path class="cls-2" d="M18,6.38c9.11,0,16.5,5.82,16.5,13,0,0,0,2-1,2s-3-2-3-2h-25s-2,2-3,2-1-2-1-2C1.45,12.2,8.84,6.38,18,6.38Z"/><path class="cls-3" d="M18,6.38a12.76,12.76,0,0,1,12.5,13,2,2,0,0,1-2,2c-2,0-5-2-5-2h-11s-3,2-5,2a2,2,0,0,1-2-2A12.76,12.76,0,0,1,18,6.38Z"/><path class="cls-2" d="M18,6.38c3.59,0,5.5,5.82,5.5,13,0,0-3,2-5,2h-1c-2,0-5-2-5-2C12.45,12.2,14.36,6.38,18,6.38Z"/><path class="cls-4" d="M32,5.13a7,7,0,0,1-5.08,2.12C26.56,5.71,25.19,0,22.45,0c-2.4,0-3.27,1.09-4.5,1.09S15.85,0,13.45,0C10.71,0,9.34,5.71,9,7.25,7.13,7.08,5.14,6.57,4,5.13,1.8,2.52-1,4.44.39,7.3,2.67,11.82,8.18,15,18,15s15.28-3.18,17.56-7.7C37,4.44,34.1,2.52,32,5.13Z"/><path class="cls-5" d="M21.45,2C19.58,2,19,3,18,3s-1.63-1-3.5-1C12,2,11,8.75,11,8.75S12.23,11,18,11s7-2.25,7-2.25S24,2,21.45,2Z"/><path class="cls-4" d="M11,5S13,7,18,7s7-2,7-2V7s-2.22,2-7,2-7-2-7-2Z"/></svg>