<svg id="Layer_1" data-name="Layer 1" xmlns="http://www.w3.org/2000/svg" viewBox="0 0 33.33 36"><defs><style>.cls-1{fill:#e1e8ed;}.cls-2{fill:#dd2e44;}.cls-3{fill:#414042;}.cls-4{fill:#f4900c;}.cls-5{fill:#ffac33;}.cls-6{fill:#88c9f9;}.cls-7{fill:#664500;}.cls-8{fill:#825d0e;}</style></defs><circle class="cls-1" cx="16.16" cy="26" r="10"/><path class="cls-1" d="M10.16,11a6,6,0,1,1,6,6A6,6,0,0,1,10.16,11Z"/><path class="cls-2" d="M20.66,15h-9a1.5,1.5,0,0,0-.5,2.91V25a1,1,0,0,0,1,1h1a1,1,0,0,0,1-1V18h6.5a1.5,1.5,0,0,0,0-3Z"/><path class="cls-3" d="M17.16,24a1,1,0,1,1-1-1A1,1,0,0,1,17.16,24Zm0,5a1,1,0,1,1-1-1A1,1,0,0,1,17.16,29Z"/><path class="cls-4" d="M17.16,12a1,1,0,1,1-1-1A1,1,0,0,1,17.16,12Z"/><path class="cls-3" d="M14.16,10a1,1,0,1,1-1-1A1,1,0,0,1,14.16,10Zm6,0a1,1,0,1,1-1-1A1,1,0,0,1,20.16,10Z"/><path class="cls-5" d="M8.56,20.08,5.11,18.6l-.55-2.86a1,1,0,0,0-2,.37l.3,1.54-1.33-.57a1,1,0,1,0-.79,1.84l.74.32-1,1.05A1,1,0,0,0,1.16,22a1,1,0,0,0,.71-.29l1.62-1.62,4.28,1.83a1.09,1.09,0,0,0,.39.08,1,1,0,0,0,.4-1.92Zm22.92-3L30,16.56l.86-.85a1,1,0,0,0,0-1.42,1,1,0,0,0-1.41,0L28.7,15l-.57-2.28a1,1,0,0,0-1.94.48l.87,3.45-3.6,3.6a1,1,0,0,0,0,1.42,1,1,0,0,0,1.41,0l3.56-3.57,2.42.81a1.12,1.12,0,0,0,.31.05,1,1,0,0,0,.32-1.95Z"/><path class="cls-6" d="M8.24,2.11A.5.5,0,0,0,7.55,2l-.89.6V1.5a.5.5,0,0,0-.5-.5.5.5,0,0,0-.5.5V2.57L4.78,2a.5.5,0,0,0-.56.84l1,.69-1,.69a.51.51,0,0,0-.14.7.52.52,0,0,0,.42.22A.57.57,0,0,0,4.78,5l.88-.6V5.5a.5.5,0,0,0,.5.5.5.5,0,0,0,.5-.5V4.43l.89.6a.57.57,0,0,0,.28.08.49.49,0,0,0,.41-.22.5.5,0,0,0-.13-.7l-1-.69,1-.69A.5.5,0,0,0,8.24,2.11Zm-4,7A.49.49,0,0,0,3.55,9l-.89.59V8.5a.5.5,0,0,0-.5-.5.5.5,0,0,0-.5.5V9.57L.78,9a.5.5,0,0,0-.7.13.51.51,0,0,0,.14.7l1,.69-1,.69a.5.5,0,0,0-.14.69.51.51,0,0,0,.42.23A.49.49,0,0,0,.78,12l.88-.59V12.5a.5.5,0,0,0,.5.5.5.5,0,0,0,.5-.5V11.43l.89.59a.49.49,0,0,0,.69-.13.5.5,0,0,0-.13-.7L3.06,10.5l1-.69A.5.5,0,0,0,4.24,9.11Zm0,17A.5.5,0,0,0,3.55,26l-.89.6V25.5a.5.5,0,0,0-.5-.5.5.5,0,0,0-.5.5v1.07L.78,26a.5.5,0,0,0-.7.13.51.51,0,0,0,.14.7l1,.69-1,.69a.51.51,0,0,0-.14.7.52.52,0,0,0,.42.22A.57.57,0,0,0,.78,29l.88-.6V29.5a.5.5,0,0,0,.5.5.5.5,0,0,0,.5-.5V28.43l.89.59a.49.49,0,0,0,.69-.13.5.5,0,0,0-.13-.7L3.06,27.5l1-.69A.5.5,0,0,0,4.24,26.11ZM32.06,9.5l1-.69a.5.5,0,0,0,.14-.7A.5.5,0,0,0,32.55,8l-.89.59V7.5a.5.5,0,0,0-.5-.5.5.5,0,0,0-.5.5V8.57L29.78,8a.5.5,0,0,0-.56.84l1,.69-1,.69a.51.51,0,0,0-.14.7.52.52,0,0,0,.42.22.49.49,0,0,0,.28-.09l.88-.59V11.5a.5.5,0,0,0,.5.5.5.5,0,0,0,.5-.5V10.43l.89.59a.49.49,0,0,0,.28.09.52.52,0,0,0,.42-.22.51.51,0,0,0-.14-.7Zm.18,13.61a.5.5,0,0,0-.69-.14l-.89.6V22.5a.5.5,0,0,0-.5-.5.5.5,0,0,0-.5.5v1.07L28.78,23a.5.5,0,0,0-.7.13.51.51,0,0,0,.14.7l1,.69-1,.69a.51.51,0,0,0-.14.7.52.52,0,0,0,.42.22.57.57,0,0,0,.28-.08l.88-.6V26.5a.5.5,0,0,0,.5.5.5.5,0,0,0,.5-.5V25.43l.89.59a.49.49,0,0,0,.28.09.52.52,0,0,0,.42-.22.51.51,0,0,0-.14-.7l-1-.69,1-.69A.51.51,0,0,0,32.24,23.11ZM28.1,4.19l-1-.69,1-.69A.5.5,0,0,0,27.55,2l-.89.6V1.5a.5.5,0,0,0-.5-.5.5.5,0,0,0-.5.5V2.57L24.78,2a.5.5,0,1,0-.56.84l1,.69-1,.69a.51.51,0,0,0-.14.7.52.52,0,0,0,.42.22A.49.49,0,0,0,24.78,5l.88-.59V5.5a.5.5,0,0,0,.5.5.5.5,0,0,0,.5-.5V4.43l.89.6a.57.57,0,0,0,.28.08.49.49,0,0,0,.41-.22A.5.5,0,0,0,28.1,4.19Z"/><path class="cls-7" d="M24.25,3a4,4,0,0,1-2.93,1.23C21.14,3.3,20.35,0,18.76,0c-1.38,0-1.89.63-2.6.63S15,0,13.56,0C12,0,11.19,3.3,11,4.19A4.14,4.14,0,0,1,8.08,3C6.83,1.46,5.19,2.57,6,4.22c1.32,2.61,4.5,4.45,10.14,4.45S25,6.83,26.31,4.22C27.14,2.57,25.5,1.46,24.25,3Z"/><path class="cls-8" d="M18.19,1.16c-1.08,0-1.45.57-2,.57s-.94-.57-2-.57c-1.44,0-2,3.9-2,3.9s.74,1.3,4,1.3,4.05-1.3,4.05-1.3S19.63,1.16,18.19,1.16Z"/><path class="cls-7" d="M12.12,2.89a6,6,0,0,0,4,1.15,6,6,0,0,0,4.05-1.15V4A6.24,6.24,0,0,1,16.16,5.2a6.22,6.22,0,0,1-4-1.16Z"/></svg>