<?xml version='1.0' encoding='ASCII' standalone='yes'?>
<svg xmlns="http://www.w3.org/2000/svg" xmlns:xlink="http://www.w3.org/1999/xlink" version="1.1" width="36.0px" viewBox="0 0 36.0 42.0" height="42.0px">
  <g>
    <g transform="translate(0, 6) scale(1 1) ">
      <path fill="#66757F" d="M9 28.5c0-.828.672-1.5 1.5-1.5s1.5.672 1.5 1.5v.5s0 3 3 3 3-3 3-3V3.5c0-.829.671-1.5 1.5-1.5s1.5.671 1.5 1.5V29s0 6-6 6-6-6-6-6v-.5z"/>
      <path fill="#744EAA" d="M19.5 4C28.612 4 36 9.82 36 17c0 0 0 2-1 2s-3-2-3-2H7s-2 2-3 2-1-2-1-2C3 9.82 10.387 4 19.5 4z"/>
      <path fill="#9266CC" d="M19.5 4C26.403 4 32 9.82 32 17c0 0 0 2-2 2s-5-2-5-2H14s-3 2-5 2-2-2-2-2C7 9.82 12.596 4 19.5 4z"/>
      <path fill="#744EAA" d="M19.5 4C23.09 4 25 9.82 25 17c0 0-3 2-5 2h-1c-2 0-5-2-5-2 0-7.18 1.91-13 5.5-13z"/>
      <path fill="#5DADEC" d="M30.383 4.472c-.863 1.413-.403 3.247 1.028 4.099 1.431.852 3.291.398 4.154-1.014.607-.992.557-2.192-.021-3.114L33.061.09l-2.678 4.382zm-8.001 3c-.863 1.413-.403 3.247 1.028 4.099 1.431.852 3.291.398 4.154-1.014.607-.992.557-2.192-.021-3.114L25.061 3.09l-2.679 4.382zm-11.947-3c-.863 1.413-.402 3.247 1.028 4.099 1.431.852 3.291.398 4.154-1.014.607-.992.558-2.192-.022-3.114L13.114.09l-2.679 4.382zm-10 5.91c-.863 1.413-.402 3.247 1.028 4.099 1.431.851 3.291.398 4.154-1.014.607-.992.558-2.192-.022-3.114L3.114 6 .435 10.382z"/>
    </g>
    <g>
      <defs>
        <style>.cls-1{fill:#664500;}.cls-2{fill:#825d0e;}</style>
      </defs>
      <path class="cls-1" d="M32,6.13c-1.19,1.44-3.18,2-5.08,2.12C26.61,6.71,25.24,1,22.5,1,20.1,1,19.23,2.09,18,2.09S15.9,1,13.5,1C10.76,1,9.39,6.71,9.08,8.25,7.18,8.08,5.19,7.57,4,6.13,1.85,3.52-1,5.44.44,8.3,2.72,12.82,8.23,16,18,16s15.28-3.18,17.56-7.7C37,5.44,34.15,3.52,32,6.13Z" transform="translate(-0.05 -1)"/>
      <path class="cls-2" d="M21.5,3C19.63,3,19,4,18,4s-1.63-1-3.5-1C12,3,11,9.75,11,9.75S12.28,12,18,12s7-2.25,7-2.25S24,3,21.5,3Z" transform="translate(-0.05 -1)"/>
      <path class="cls-1" d="M11,6s2.07,2,7,2,7-2,7-2V8s-2.22,2-7,2-7-2-7-2Z" transform="translate(-0.05 -1)"/>
    </g>
  </g>
</svg>
