<?xml version='1.0' encoding='ASCII' standalone='yes'?>
<svg xmlns="http://www.w3.org/2000/svg" xmlns:xlink="http://www.w3.org/1999/xlink" version="1.1" width="36.0px" viewBox="0 0 36.0 42.0" height="42.0px">
  <g>
    <g transform="translate(0, 6) scale(1 1) ">
      <path fill="#77B255" d="M32.34 19.208c.198-1.475 2.669-2.208 2.669-4.542C35.009 12.333 29.25 8.25 21 16c3.812-5.312 6.542-14.509 2.203-14.509-1.47 0-2.579 1.342-4.328 1.342C16.5 2.833 16.208 0 14 0c-2.583 0-5 6.25 1 15-1.5-1.625-11.083-6.625-13.002-1.269-.628 1.753 1.731 2.781 1.544 4.519-.178 1.654-2.597 2.037-2.597 4.372 0 3.293 8.048 4.834 16.044-1.613-.245 4.524.557 10.515 3.857 14.158 1.344 1.483 2.407.551 2.822.187.416-.365 1.604-1.414.185-2.822-3.834-3.807-5.225-8.174-5.619-11.381 2.043 2.215 12.357 8.742 15.517 2.767.881-1.668-1.643-2.977-1.411-4.71z"/>
    </g>
    <g>
      <defs>
        <style>.cls-1{fill:#664500;}.cls-2{fill:#825d0e;}</style>
      </defs>
      <path class="cls-1" d="M32,6.13c-1.19,1.44-3.18,2-5.08,2.12C26.61,6.71,25.24,1,22.5,1,20.1,1,19.23,2.09,18,2.09S15.9,1,13.5,1C10.76,1,9.39,6.71,9.08,8.25,7.18,8.08,5.19,7.57,4,6.13,1.85,3.52-1,5.44.44,8.3,2.72,12.82,8.23,16,18,16s15.28-3.18,17.56-7.7C37,5.44,34.15,3.52,32,6.13Z" transform="translate(-0.05 -1)"/>
      <path class="cls-2" d="M21.5,3C19.63,3,19,4,18,4s-1.63-1-3.5-1C12,3,11,9.75,11,9.75S12.28,12,18,12s7-2.25,7-2.25S24,3,21.5,3Z" transform="translate(-0.05 -1)"/>
      <path class="cls-1" d="M11,6s2.07,2,7,2,7-2,7-2V8s-2.22,2-7,2-7-2-7-2Z" transform="translate(-0.05 -1)"/>
    </g>
  </g>
</svg>
