<svg id="Layer_1" data-name="Layer 1" xmlns="http://www.w3.org/2000/svg" viewBox="0 0 35.9 36"><defs><style>.cls-1{fill:#ccd6dd;}.cls-2{fill:#292f33;}.cls-3{fill:#aab8c2;}.cls-4{fill:#664500;}.cls-5{fill:#825d0e;}</style></defs><path class="cls-1" d="M27.86,16.75c0-6.24-4.41-10-9.92-10s-9.84,3.75-9.84,10c0,3.48-.1,6.49,3.9,7.89v2.72a2,2,0,0,0,4,0v0a2,2,0,0,0,4,0v0a2,2,0,0,0,4,0V24.64C28,23.24,27.86,20.23,27.86,16.75Z" transform="translate(0 0)"/><circle class="cls-2" cx="13.63" cy="15.5" r="3.12"/><path class="cls-2" d="M25.49,15.5c0,1.73,0,3.12-3.12,3.12s-3.12-1.39-3.12-3.12a3.12,3.12,0,1,1,6.24,0Zm-6.3,5.66a1.4,1.4,0,0,0-2.38,0A.93.93,0,0,0,17.06,23a.92.92,0,0,0,.88-.62h.12a.92.92,0,0,0,.87.62.93.93,0,0,0,.26-1.83Z" transform="translate(0 0)"/><path class="cls-3" d="M11,27a3,3,0,0,1,.19-1,6.38,6.38,0,0,1-2.5-2c-1.11,1-2.16,1.88-3.13,2.7A3.4,3.4,0,0,0,3.5,26a3.49,3.49,0,0,0-.45,7,3.49,3.49,0,1,0,6.26-2.52l1.93-2.25A3.07,3.07,0,0,1,11,27ZM27.87,11.52c.89-.77,1.73-1.5,2.52-2.17a3.42,3.42,0,0,0,2,.65A3.49,3.49,0,0,0,33,3.06a3.49,3.49,0,1,0-6.26,2.51L24.78,7.79A8.63,8.63,0,0,1,27.87,11.52ZM3.5,10a3.46,3.46,0,0,0,2.07-.69c.79.68,1.66,1.42,2.56,2.21a8.63,8.63,0,0,1,3.09-3.73L9.31,5.57A3.46,3.46,0,0,0,10,3.5a3.49,3.49,0,0,0-6.95-.45,3.49,3.49,0,0,0,.45,7ZM32.4,26a3.42,3.42,0,0,0-2,.65c-1-.81-2-1.71-3.08-2.66a6.26,6.26,0,0,1-2.51,2,2.79,2.79,0,0,1,.2,1,3,3,0,0,1-.25,1.19c.69.79,1.34,1.54,1.94,2.25A3.45,3.45,0,0,0,26,32.5a3.49,3.49,0,0,0,7,.44A3.49,3.49,0,0,0,32.4,26Z" transform="translate(0 0)"/><path class="cls-4" d="M29.06,4.89a5.6,5.6,0,0,1-4,1.68C24.79,5.35,23.71.83,21.54.83c-1.89,0-2.58.86-3.56.86S16.32.83,14.42.83c-2.16,0-3.25,4.52-3.49,5.74a5.77,5.77,0,0,1-4-1.68C5.21,2.82,3,4.34,4.1,6.6c1.8,3.58,6.16,6.09,13.88,6.09S30.07,10.18,31.87,6.6C33,4.34,30.76,2.82,29.06,4.89Z" transform="translate(0 0)"/><path class="cls-5" d="M20.75,2.41c-1.48,0-2,.79-2.77.79s-1.29-.79-2.76-.79c-2,0-2.77,5.34-2.77,5.34s1,1.78,5.53,1.78,5.54-1.78,5.54-1.78S22.73,2.41,20.75,2.41Z" transform="translate(0 0)"/><path class="cls-4" d="M12.45,4.79S14.08,6.37,18,6.37s5.54-1.58,5.54-1.58V6.37S21.76,8,18,8s-5.53-1.58-5.53-1.58Z" transform="translate(0 0)"/></svg>