<?xml version='1.0' encoding='ASCII' standalone='yes'?>
<svg xmlns="http://www.w3.org/2000/svg" xmlns:xlink="http://www.w3.org/1999/xlink" version="1.1" width="36.0px" viewBox="0 0 36.0 42.0" height="42.0px">
  <g>
    <g transform="translate(0, 6) scale(1 1) ">
      <circle fill="#F4900C" cx="18" cy="18" r="17"/>
      <path fill="#FFF" d="M15.272 21.598l-3.85 6.427c.278.183.561.36.854.519C13.978 29.472 15.929 30 18 30c2.078 0 4.033-.532 5.739-1.464.293-.16.576-.336.854-.519l-3.855-6.427c-.763.583-1.704.942-2.738.942-1.029 0-1.967-.356-2.728-.934zm.847-7.71l-3.854-6.425c-.293.16-.577.336-.854.52-3.124 2.062-5.22 5.543-5.385 9.518-.008.166-.026.33-.026.499s.018.333.025.5h7.493c-.018-.166-.05-.329-.05-.5 0-1.829 1.09-3.396 2.651-4.112zM22.532 18c0 .171-.032.334-.05.5h7.493c.007-.167.025-.331.025-.5s-.018-.333-.025-.5c-.165-3.974-2.26-7.454-5.382-9.516-.278-.183-.561-.359-.854-.52l-3.85 6.427c1.556.718 2.643 2.282 2.643 4.109z"/>
      <circle fill="#FFF" cx="18" cy="18" r="2"/>
    </g>
    <g>
      <defs>
        <style>.cls-1{fill:#664500;}.cls-2{fill:#825d0e;}</style>
      </defs>
      <path class="cls-1" d="M32,6.13c-1.19,1.44-3.18,2-5.08,2.12C26.61,6.71,25.24,1,22.5,1,20.1,1,19.23,2.09,18,2.09S15.9,1,13.5,1C10.76,1,9.39,6.71,9.08,8.25,7.18,8.08,5.19,7.57,4,6.13,1.85,3.52-1,5.44.44,8.3,2.72,12.82,8.23,16,18,16s15.28-3.18,17.56-7.7C37,5.44,34.15,3.52,32,6.13Z" transform="translate(-0.05 -1)"/>
      <path class="cls-2" d="M21.5,3C19.63,3,19,4,18,4s-1.63-1-3.5-1C12,3,11,9.75,11,9.75S12.28,12,18,12s7-2.25,7-2.25S24,3,21.5,3Z" transform="translate(-0.05 -1)"/>
      <path class="cls-1" d="M11,6s2.07,2,7,2,7-2,7-2V8s-2.22,2-7,2-7-2-7-2Z" transform="translate(-0.05 -1)"/>
    </g>
  </g>
</svg>
