<?xml version='1.0' encoding='ASCII' standalone='yes'?>
<svg xmlns="http://www.w3.org/2000/svg" xmlns:xlink="http://www.w3.org/1999/xlink" version="1.1" width="36.0px" viewBox="0 0 36.0 42.0" height="42.0px">
  <g>
    <g transform="translate(0, 6) scale(1 1) ">
      <circle fill="#3B94D9" cx="18" cy="18" r="18"/>
      <path fill="#FFF" d="M25.565 11.295c-2.116 0-4.195 1.322-5.799 2.712.609.669 1.021 1.198 1.147 1.364.172.227.423.534.733.882 1.236-1.084 2.689-2.044 3.919-2.044 2.09 0 3.79 1.7 3.79 3.79s-1.7 3.79-3.79 3.79c-2.337 0-5.484-3.456-6.402-4.668-.45-.596-4.521-5.826-8.729-5.826-3.697 0-6.705 3.008-6.705 6.705s3.008 6.704 6.705 6.704c2.055 0 4.073-1.248 5.657-2.594-.67-.726-1.122-1.307-1.255-1.483-.151-.199-.366-.462-.624-.757-1.204 1.032-2.594 1.919-3.778 1.919-2.09 0-3.79-1.7-3.79-3.79s1.7-3.79 3.79-3.79c2.338 0 5.484 3.456 6.402 4.668.45.596 4.521 5.826 8.729 5.826 3.697 0 6.704-3.007 6.704-6.704.001-3.696-3.006-6.704-6.704-6.704z"/>
    </g>
    <g>
      <defs>
        <style>.cls-1{fill:#664500;}.cls-2{fill:#825d0e;}</style>
      </defs>
      <path class="cls-1" d="M32,6.13c-1.19,1.44-3.18,2-5.08,2.12C26.61,6.71,25.24,1,22.5,1,20.1,1,19.23,2.09,18,2.09S15.9,1,13.5,1C10.76,1,9.39,6.71,9.08,8.25,7.18,8.08,5.19,7.57,4,6.13,1.85,3.52-1,5.44.44,8.3,2.72,12.82,8.23,16,18,16s15.28-3.18,17.56-7.7C37,5.44,34.15,3.52,32,6.13Z" transform="translate(-0.05 -1)"/>
      <path class="cls-2" d="M21.5,3C19.63,3,19,4,18,4s-1.63-1-3.5-1C12,3,11,9.75,11,9.75S12.28,12,18,12s7-2.25,7-2.25S24,3,21.5,3Z" transform="translate(-0.05 -1)"/>
      <path class="cls-1" d="M11,6s2.07,2,7,2,7-2,7-2V8s-2.22,2-7,2-7-2-7-2Z" transform="translate(-0.05 -1)"/>
    </g>
  </g>
</svg>
